<svg class="multiscroll-bg-image" width="100%" height="100%" viewBox="0 0 600 600" version="1.1" xmlns="http://www.w3.org/2000/svg" xmlns:xlink="http://www.w3.org/1999/xlink" xml:space="preserve" xmlns:serif="http://www.serif.com/" style="fill-rule:evenodd;clip-rule:evenodd;stroke-linejoin:round;stroke-miterlimit:2;">
    <g class="monogram-multi-path-group">
        <g transform="matrix(477.848,853.684,853.684,-477.848,156.541,-163.919)">
            <path d="M0.243,0.031C0.245,0.022 0.249,0.014 0.256,0.007C0.254,0.008 0.252,0.008 0.251,0.008C0.245,0.008 0.24,0.006 0.235,0.003C0.235,0.002 0.235,0.002 0.235,0.002C0.235,0.001 0.235,0.001 0.235,0C0.24,-0.003 0.245,-0.005 0.251,-0.005C0.252,-0.005 0.253,-0.005 0.254,-0.005C0.251,-0.009 0.25,-0.016 0.252,-0.021C0.251,-0.029 0.249,-0.035 0.245,-0.038C0.241,-0.042 0.233,-0.042 0.228,-0.038C0.224,-0.034 0.223,-0.026 0.226,-0.021C0.228,-0.02 0.23,-0.019 0.233,-0.02C0.234,-0.02 0.234,-0.02 0.235,-0.021C0.235,-0.021 0.235,-0.022 0.234,-0.023C0.234,-0.024 0.232,-0.024 0.232,-0.024C0.231,-0.024 0.23,-0.025 0.23,-0.025C0.23,-0.026 0.23,-0.026 0.23,-0.026C0.231,-0.028 0.232,-0.03 0.235,-0.031C0.237,-0.031 0.239,-0.031 0.241,-0.03C0.245,-0.028 0.246,-0.023 0.244,-0.019C0.242,-0.015 0.238,-0.013 0.234,-0.013C0.23,-0.013 0.226,-0.016 0.224,-0.019C0.22,-0.025 0.221,-0.035 0.226,-0.04C0.232,-0.045 0.241,-0.045 0.247,-0.041C0.249,-0.039 0.25,-0.038 0.251,-0.036C0.253,-0.033 0.253,-0.031 0.254,-0.028C0.259,-0.038 0.26,-0.05 0.258,-0.061C0.256,-0.067 0.253,-0.072 0.249,-0.076C0.247,-0.078 0.244,-0.08 0.239,-0.081C0.236,-0.082 0.232,-0.081 0.229,-0.078C0.228,-0.077 0.227,-0.075 0.227,-0.073C0.227,-0.073 0.227,-0.072 0.227,-0.072C0.227,-0.072 0.227,-0.072 0.228,-0.072C0.228,-0.072 0.229,-0.072 0.229,-0.072C0.23,-0.073 0.23,-0.073 0.23,-0.073C0.231,-0.074 0.231,-0.074 0.232,-0.074C0.234,-0.076 0.238,-0.077 0.241,-0.075C0.243,-0.075 0.244,-0.073 0.245,-0.071C0.246,-0.07 0.246,-0.069 0.247,-0.068C0.247,-0.068 0.246,-0.067 0.246,-0.067C0.246,-0.066 0.245,-0.066 0.245,-0.066C0.242,-0.067 0.239,-0.066 0.238,-0.064C0.238,-0.064 0.238,-0.064 0.237,-0.064C0.237,-0.063 0.237,-0.063 0.237,-0.063C0.235,-0.062 0.233,-0.062 0.23,-0.063C0.228,-0.064 0.226,-0.066 0.225,-0.068C0.223,-0.072 0.224,-0.077 0.227,-0.081C0.228,-0.081 0.229,-0.082 0.23,-0.082L0.203,-0.13C0.203,-0.13 0.203,-0.13 0.203,-0.13C0.199,-0.129 0.196,-0.131 0.194,-0.134C0.192,-0.138 0.193,-0.142 0.197,-0.144C0.2,-0.146 0.205,-0.145 0.207,-0.141C0.209,-0.138 0.208,-0.134 0.205,-0.132C0.205,-0.132 0.205,-0.132 0.205,-0.132L0.233,-0.084C0.235,-0.084 0.237,-0.085 0.24,-0.084C0.244,-0.083 0.248,-0.081 0.251,-0.078C0.252,-0.078 0.252,-0.077 0.252,-0.077L0.218,-0.138C0.218,-0.138 0.217,-0.139 0.217,-0.139C0.217,-0.14 0.217,-0.141 0.218,-0.141C0.225,-0.144 0.23,-0.153 0.229,-0.161C0.227,-0.169 0.22,-0.176 0.212,-0.176C0.207,-0.176 0.203,-0.175 0.2,-0.172C0.198,-0.169 0.197,-0.166 0.197,-0.163C0.197,-0.161 0.198,-0.16 0.199,-0.16C0.201,-0.159 0.202,-0.16 0.203,-0.16C0.204,-0.161 0.205,-0.162 0.205,-0.163L0.206,-0.163C0.207,-0.164 0.208,-0.166 0.209,-0.166C0.211,-0.167 0.213,-0.167 0.214,-0.166C0.214,-0.166 0.215,-0.166 0.215,-0.165C0.215,-0.165 0.215,-0.165 0.215,-0.165C0.215,-0.165 0.215,-0.165 0.215,-0.165C0.216,-0.163 0.216,-0.16 0.214,-0.157C0.213,-0.155 0.21,-0.153 0.208,-0.152C0.203,-0.151 0.197,-0.154 0.195,-0.159C0.194,-0.16 0.194,-0.161 0.194,-0.162C0.194,-0.162 0.194,-0.162 0.194,-0.162C0.194,-0.163 0.194,-0.163 0.194,-0.163C0.194,-0.167 0.195,-0.171 0.198,-0.174C0.201,-0.177 0.206,-0.179 0.212,-0.179C0.219,-0.179 0.226,-0.174 0.229,-0.168C0.231,-0.166 0.231,-0.164 0.232,-0.162C0.233,-0.153 0.229,-0.143 0.221,-0.139L0.377,0.14C0.385,0.136 0.395,0.137 0.402,0.143C0.404,0.144 0.405,0.146 0.406,0.148C0.41,0.154 0.41,0.163 0.407,0.169C0.404,0.174 0.4,0.177 0.395,0.178C0.391,0.179 0.387,0.178 0.384,0.176C0.383,0.176 0.383,0.176 0.383,0.176C0.383,0.175 0.383,0.175 0.383,0.175C0.382,0.175 0.381,0.174 0.381,0.173C0.377,0.169 0.378,0.162 0.382,0.158C0.384,0.156 0.386,0.155 0.389,0.156C0.392,0.156 0.395,0.157 0.396,0.159C0.396,0.159 0.396,0.159 0.396,0.159C0.396,0.159 0.396,0.159 0.396,0.159C0.396,0.16 0.397,0.16 0.397,0.16C0.397,0.162 0.396,0.164 0.394,0.165C0.393,0.166 0.391,0.166 0.39,0.166L0.389,0.166C0.388,0.166 0.387,0.166 0.386,0.166C0.385,0.167 0.384,0.168 0.384,0.17C0.384,0.171 0.384,0.172 0.385,0.173C0.387,0.175 0.391,0.176 0.394,0.175C0.398,0.174 0.402,0.171 0.404,0.167C0.408,0.16 0.406,0.151 0.4,0.145C0.394,0.14 0.384,0.139 0.377,0.144C0.377,0.144 0.376,0.144 0.375,0.144C0.375,0.143 0.375,0.143 0.375,0.143L0.341,0.081C0.341,0.082 0.341,0.082 0.341,0.083C0.342,0.087 0.342,0.092 0.34,0.095C0.339,0.098 0.338,0.1 0.336,0.101L0.363,0.15C0.363,0.15 0.363,0.15 0.363,0.15C0.366,0.149 0.37,0.15 0.372,0.153C0.374,0.157 0.373,0.162 0.369,0.164C0.365,0.166 0.361,0.164 0.359,0.161C0.357,0.157 0.358,0.154 0.361,0.151C0.36,0.151 0.36,0.151 0.36,0.151L0.334,0.103C0.333,0.104 0.332,0.104 0.331,0.104C0.326,0.105 0.321,0.104 0.319,0.1C0.317,0.098 0.317,0.095 0.317,0.092C0.318,0.09 0.319,0.088 0.321,0.087C0.321,0.087 0.321,0.087 0.322,0.087C0.322,0.087 0.322,0.087 0.322,0.087C0.325,0.086 0.327,0.084 0.328,0.082C0.328,0.082 0.328,0.081 0.329,0.081C0.329,0.081 0.33,0.081 0.33,0.081C0.331,0.082 0.332,0.083 0.332,0.084C0.333,0.086 0.334,0.088 0.334,0.09C0.333,0.093 0.331,0.096 0.328,0.097C0.327,0.097 0.327,0.098 0.326,0.098C0.326,0.098 0.325,0.098 0.325,0.098C0.324,0.098 0.324,0.099 0.323,0.099C0.323,0.1 0.323,0.1 0.323,0.1C0.324,0.1 0.324,0.1 0.324,0.101C0.326,0.102 0.328,0.102 0.33,0.101C0.333,0.1 0.336,0.098 0.338,0.094C0.339,0.09 0.339,0.086 0.338,0.083C0.337,0.078 0.334,0.073 0.33,0.068C0.322,0.06 0.311,0.055 0.3,0.054C0.302,0.056 0.304,0.058 0.305,0.06C0.306,0.062 0.307,0.064 0.307,0.066C0.308,0.074 0.303,0.082 0.296,0.084C0.288,0.086 0.28,0.082 0.277,0.075C0.275,0.071 0.275,0.067 0.277,0.063C0.279,0.06 0.283,0.057 0.287,0.058C0.291,0.058 0.295,0.062 0.295,0.066C0.295,0.068 0.294,0.07 0.292,0.072C0.29,0.073 0.288,0.074 0.286,0.073C0.286,0.073 0.285,0.073 0.285,0.073C0.285,0.072 0.284,0.072 0.285,0.071C0.285,0.07 0.286,0.069 0.285,0.068C0.285,0.067 0.284,0.067 0.284,0.067C0.283,0.066 0.282,0.067 0.282,0.068C0.28,0.069 0.279,0.072 0.28,0.074C0.282,0.08 0.289,0.083 0.295,0.081C0.301,0.079 0.305,0.073 0.304,0.067C0.303,0.062 0.3,0.057 0.293,0.052C0.287,0.051 0.282,0.047 0.28,0.042C0.28,0.043 0.279,0.044 0.279,0.045C0.276,0.05 0.271,0.053 0.266,0.055C0.266,0.055 0.265,0.055 0.265,0.055C0.264,0.055 0.264,0.054 0.264,0.054C0.263,0.048 0.265,0.043 0.267,0.038C0.268,0.037 0.269,0.035 0.271,0.034C0.262,0.036 0.253,0.036 0.244,0.032C0.244,0.032 0.244,0.032 0.244,0.032C0.243,0.031 0.243,0.031 0.243,0.031ZM0.263,0.006C0.255,0.011 0.248,0.02 0.247,0.03C0.256,0.034 0.267,0.033 0.276,0.029C0.286,0.024 0.293,0.014 0.295,0.003C0.285,-0.001 0.273,-0 0.263,0.006ZM0.27,0.04C0.268,0.043 0.267,0.047 0.267,0.052C0.271,0.05 0.274,0.047 0.276,0.043C0.278,0.04 0.279,0.035 0.279,0.031C0.275,0.033 0.272,0.036 0.27,0.04ZM0.251,-0.002C0.247,-0.002 0.242,-0.001 0.239,0.001C0.242,0.004 0.246,0.005 0.251,0.005C0.255,0.005 0.259,0.004 0.263,0.002C0.259,-0.001 0.255,-0.002 0.251,-0.002ZM0.237,-0.019C0.237,-0.018 0.235,-0.017 0.234,-0.017C0.233,-0.017 0.233,-0.017 0.233,-0.016C0.233,-0.016 0.234,-0.016 0.234,-0.016C0.237,-0.016 0.24,-0.017 0.241,-0.02C0.243,-0.023 0.242,-0.026 0.24,-0.027C0.239,-0.028 0.237,-0.028 0.236,-0.028C0.235,-0.027 0.234,-0.027 0.234,-0.027C0.235,-0.026 0.236,-0.026 0.237,-0.025C0.237,-0.024 0.237,-0.024 0.237,-0.024C0.238,-0.022 0.238,-0.02 0.237,-0.019ZM0.287,0.061C0.284,0.06 0.281,0.062 0.279,0.065C0.279,0.065 0.279,0.066 0.279,0.066C0.279,0.066 0.279,0.066 0.28,0.065C0.281,0.064 0.282,0.063 0.284,0.063C0.285,0.063 0.287,0.065 0.288,0.066C0.288,0.066 0.288,0.067 0.288,0.067C0.288,0.068 0.288,0.069 0.288,0.07C0.289,0.07 0.289,0.07 0.29,0.07C0.291,0.069 0.292,0.067 0.292,0.066C0.292,0.065 0.292,0.064 0.291,0.064C0.29,0.062 0.289,0.061 0.287,0.061ZM0.27,-0.026C0.265,-0.028 0.258,-0.026 0.255,-0.021C0.255,-0.021 0.255,-0.02 0.255,-0.02C0.255,-0.02 0.255,-0.02 0.255,-0.02C0.255,-0.02 0.255,-0.02 0.254,-0.019C0.253,-0.014 0.254,-0.008 0.258,-0.005C0.263,-0.001 0.27,-0 0.275,-0.003C0.281,-0.005 0.285,-0.01 0.286,-0.017L0.26,-0.063C0.26,-0.063 0.26,-0.062 0.26,-0.061C0.264,-0.05 0.262,-0.038 0.257,-0.027C0.261,-0.03 0.267,-0.031 0.271,-0.029C0.273,-0.027 0.275,-0.025 0.277,-0.023L0.277,-0.023C0.277,-0.023 0.277,-0.022 0.277,-0.022C0.278,-0.018 0.277,-0.015 0.275,-0.012C0.272,-0.01 0.268,-0.009 0.265,-0.011C0.262,-0.013 0.261,-0.017 0.263,-0.02C0.263,-0.021 0.264,-0.021 0.265,-0.021C0.265,-0.021 0.265,-0.021 0.265,-0.021C0.265,-0.02 0.265,-0.02 0.265,-0.02C0.266,-0.019 0.267,-0.018 0.268,-0.018C0.269,-0.017 0.27,-0.017 0.272,-0.017C0.272,-0.018 0.273,-0.018 0.273,-0.019C0.274,-0.02 0.274,-0.021 0.274,-0.022C0.274,-0.022 0.274,-0.022 0.274,-0.022C0.274,-0.022 0.274,-0.022 0.274,-0.022C0.273,-0.024 0.271,-0.025 0.27,-0.026ZM0.29,0.023C0.284,0.026 0.282,0.032 0.282,0.038C0.283,0.043 0.288,0.048 0.293,0.049C0.293,0.049 0.294,0.049 0.294,0.049C0.294,0.049 0.294,0.049 0.294,0.049C0.294,0.049 0.294,0.049 0.294,0.049C0.3,0.05 0.306,0.045 0.306,0.04C0.306,0.038 0.306,0.036 0.305,0.034C0.305,0.034 0.305,0.034 0.305,0.034C0.305,0.033 0.304,0.033 0.302,0.033C0.302,0.033 0.301,0.033 0.3,0.033C0.299,0.034 0.299,0.035 0.299,0.036C0.298,0.038 0.299,0.039 0.299,0.04C0.299,0.04 0.299,0.041 0.299,0.041C0.299,0.041 0.299,0.041 0.299,0.041C0.299,0.042 0.299,0.043 0.298,0.043C0.294,0.042 0.291,0.039 0.291,0.035C0.291,0.032 0.294,0.029 0.297,0.028C0.301,0.027 0.304,0.028 0.307,0.031C0.307,0.031 0.307,0.032 0.307,0.032C0.307,0.032 0.308,0.032 0.308,0.032C0.308,0.032 0.308,0.032 0.308,0.032C0.309,0.034 0.31,0.037 0.309,0.04C0.309,0.045 0.305,0.049 0.301,0.051C0.313,0.052 0.324,0.058 0.332,0.066C0.332,0.066 0.333,0.067 0.333,0.067L0.307,0.021C0.301,0.019 0.294,0.02 0.29,0.023ZM0.24,-0.073C0.238,-0.074 0.235,-0.073 0.234,-0.072C0.233,-0.072 0.233,-0.071 0.232,-0.071C0.232,-0.071 0.232,-0.07 0.231,-0.07C0.23,-0.069 0.229,-0.069 0.228,-0.069C0.229,-0.067 0.23,-0.066 0.231,-0.066C0.233,-0.065 0.234,-0.065 0.236,-0.066L0.236,-0.066C0.237,-0.068 0.24,-0.07 0.243,-0.07C0.243,-0.07 0.243,-0.07 0.243,-0.07C0.242,-0.071 0.241,-0.072 0.24,-0.073ZM0.33,0.085C0.328,0.088 0.325,0.089 0.323,0.09L0.323,0.09C0.321,0.09 0.321,0.092 0.32,0.093C0.32,0.095 0.32,0.096 0.321,0.098C0.321,0.097 0.322,0.096 0.324,0.095C0.324,0.095 0.325,0.095 0.325,0.095C0.326,0.095 0.326,0.095 0.327,0.094C0.329,0.094 0.33,0.092 0.331,0.09C0.331,0.088 0.33,0.087 0.33,0.085C0.33,0.085 0.33,0.085 0.33,0.085ZM0.363,0.153C0.361,0.154 0.36,0.157 0.361,0.159C0.363,0.161 0.365,0.162 0.368,0.161C0.37,0.16 0.371,0.157 0.369,0.155C0.368,0.153 0.365,0.152 0.363,0.153ZM0.198,-0.142C0.196,-0.14 0.195,-0.138 0.197,-0.135C0.198,-0.133 0.201,-0.132 0.203,-0.134C0.205,-0.135 0.206,-0.138 0.204,-0.14C0.203,-0.142 0.2,-0.143 0.198,-0.142ZM0.272,-0.014C0.271,-0.014 0.269,-0.014 0.267,-0.015C0.266,-0.015 0.266,-0.016 0.265,-0.016C0.265,-0.015 0.266,-0.014 0.267,-0.013C0.269,-0.012 0.271,-0.013 0.273,-0.014C0.273,-0.014 0.273,-0.015 0.273,-0.015C0.273,-0.015 0.273,-0.015 0.272,-0.014ZM0.298,0.031C0.296,0.031 0.294,0.033 0.294,0.035C0.294,0.037 0.295,0.038 0.296,0.038C0.296,0.038 0.295,0.037 0.296,0.036C0.296,0.034 0.297,0.032 0.298,0.031C0.298,0.031 0.298,0.031 0.299,0.031C0.298,0.031 0.298,0.031 0.298,0.031ZM0.281,-0.003C0.286,-0.003 0.29,-0.002 0.295,-0L0.288,-0.013C0.286,-0.009 0.284,-0.005 0.281,-0.003ZM0.292,0.018C0.296,0.017 0.301,0.016 0.305,0.017L0.298,0.005C0.297,0.009 0.295,0.014 0.292,0.018ZM0.389,0.159C0.387,0.158 0.385,0.159 0.384,0.161C0.382,0.162 0.381,0.165 0.382,0.167C0.382,0.165 0.384,0.164 0.385,0.164C0.387,0.163 0.388,0.163 0.389,0.163L0.39,0.163C0.391,0.163 0.392,0.163 0.393,0.162C0.393,0.162 0.394,0.161 0.394,0.161C0.393,0.16 0.391,0.159 0.389,0.159ZM0.21,-0.164C0.21,-0.163 0.209,-0.162 0.208,-0.161L0.208,-0.161C0.207,-0.16 0.206,-0.159 0.205,-0.158C0.204,-0.157 0.202,-0.157 0.201,-0.157C0.202,-0.155 0.205,-0.155 0.207,-0.155C0.209,-0.156 0.211,-0.157 0.212,-0.159C0.212,-0.16 0.213,-0.162 0.212,-0.164C0.211,-0.164 0.211,-0.164 0.21,-0.164Z" style="fill:none;fill-rule:nonzero;"/>
        </g>
        <g transform="matrix(477.848,853.684,853.684,-477.848,-20.444,-64.8519)">
            <path d="M0.739,0.162C0.738,0.153 0.742,0.143 0.75,0.139L0.594,-0.14C0.586,-0.136 0.575,-0.137 0.569,-0.143C0.562,-0.149 0.56,-0.161 0.564,-0.169C0.567,-0.174 0.571,-0.177 0.576,-0.178C0.58,-0.179 0.584,-0.178 0.587,-0.176C0.587,-0.176 0.588,-0.176 0.588,-0.176C0.588,-0.175 0.588,-0.175 0.588,-0.175C0.589,-0.175 0.589,-0.174 0.59,-0.173C0.59,-0.173 0.591,-0.172 0.591,-0.172C0.593,-0.168 0.593,-0.162 0.589,-0.158C0.587,-0.156 0.584,-0.155 0.581,-0.156C0.579,-0.156 0.576,-0.157 0.575,-0.159C0.575,-0.159 0.575,-0.159 0.575,-0.159C0.574,-0.159 0.574,-0.16 0.574,-0.16C0.574,-0.162 0.575,-0.164 0.576,-0.165C0.578,-0.166 0.579,-0.166 0.581,-0.166L0.581,-0.166C0.582,-0.166 0.583,-0.166 0.584,-0.166C0.586,-0.167 0.587,-0.168 0.587,-0.17C0.587,-0.171 0.587,-0.172 0.586,-0.173C0.584,-0.175 0.58,-0.176 0.577,-0.175C0.573,-0.174 0.569,-0.171 0.567,-0.167C0.563,-0.16 0.565,-0.151 0.571,-0.145C0.577,-0.14 0.587,-0.139 0.593,-0.144C0.594,-0.144 0.595,-0.144 0.596,-0.144C0.596,-0.143 0.596,-0.143 0.596,-0.143L0.63,-0.081C0.63,-0.082 0.63,-0.082 0.63,-0.083C0.629,-0.087 0.629,-0.092 0.63,-0.095C0.631,-0.098 0.633,-0.1 0.635,-0.101L0.608,-0.15C0.608,-0.15 0.608,-0.15 0.608,-0.15C0.604,-0.149 0.601,-0.15 0.599,-0.153C0.597,-0.157 0.598,-0.162 0.602,-0.164C0.605,-0.166 0.61,-0.164 0.612,-0.161C0.614,-0.157 0.613,-0.154 0.61,-0.151C0.61,-0.151 0.61,-0.151 0.61,-0.151L0.637,-0.103C0.638,-0.104 0.639,-0.104 0.64,-0.104C0.645,-0.105 0.65,-0.104 0.652,-0.1C0.652,-0.1 0.652,-0.099 0.653,-0.099C0.654,-0.097 0.654,-0.095 0.654,-0.092C0.653,-0.09 0.652,-0.088 0.65,-0.087C0.65,-0.087 0.649,-0.087 0.649,-0.087C0.649,-0.087 0.649,-0.087 0.649,-0.087C0.646,-0.086 0.644,-0.084 0.643,-0.082C0.643,-0.082 0.642,-0.081 0.642,-0.081C0.641,-0.081 0.641,-0.081 0.641,-0.081C0.638,-0.083 0.637,-0.087 0.637,-0.09C0.638,-0.093 0.64,-0.096 0.643,-0.097C0.644,-0.097 0.644,-0.098 0.645,-0.098C0.645,-0.098 0.646,-0.098 0.646,-0.098C0.646,-0.098 0.647,-0.099 0.647,-0.099C0.648,-0.1 0.647,-0.1 0.647,-0.1C0.647,-0.1 0.647,-0.1 0.647,-0.101C0.645,-0.102 0.643,-0.102 0.641,-0.101C0.638,-0.1 0.635,-0.098 0.633,-0.094C0.632,-0.09 0.632,-0.086 0.633,-0.083C0.634,-0.078 0.637,-0.073 0.641,-0.068C0.649,-0.06 0.66,-0.055 0.671,-0.054C0.667,-0.058 0.664,-0.062 0.664,-0.066C0.663,-0.074 0.668,-0.082 0.675,-0.084C0.682,-0.086 0.69,-0.082 0.694,-0.076C0.694,-0.076 0.694,-0.075 0.694,-0.075C0.696,-0.071 0.696,-0.067 0.694,-0.063C0.692,-0.06 0.688,-0.057 0.684,-0.058C0.68,-0.058 0.676,-0.062 0.676,-0.066C0.676,-0.068 0.677,-0.07 0.679,-0.072C0.681,-0.073 0.683,-0.074 0.685,-0.073C0.685,-0.073 0.686,-0.073 0.686,-0.073C0.686,-0.072 0.686,-0.072 0.686,-0.071C0.686,-0.07 0.685,-0.069 0.686,-0.068C0.686,-0.067 0.687,-0.067 0.687,-0.067C0.688,-0.066 0.688,-0.067 0.689,-0.068C0.691,-0.069 0.692,-0.072 0.691,-0.074C0.688,-0.08 0.682,-0.083 0.676,-0.081C0.67,-0.079 0.666,-0.073 0.667,-0.067C0.667,-0.062 0.671,-0.057 0.678,-0.052C0.683,-0.051 0.687,-0.048 0.689,-0.044C0.69,-0.043 0.69,-0.042 0.691,-0.042C0.691,-0.043 0.691,-0.044 0.692,-0.045C0.695,-0.05 0.7,-0.053 0.705,-0.055C0.705,-0.055 0.706,-0.055 0.706,-0.055C0.706,-0.055 0.707,-0.055 0.707,-0.054C0.707,-0.054 0.707,-0.054 0.707,-0.054C0.707,-0.048 0.706,-0.043 0.703,-0.038C0.702,-0.037 0.701,-0.035 0.7,-0.034C0.709,-0.036 0.718,-0.036 0.727,-0.032C0.727,-0.032 0.727,-0.032 0.727,-0.032C0.727,-0.031 0.727,-0.031 0.727,-0.031C0.726,-0.022 0.722,-0.014 0.715,-0.007C0.717,-0.008 0.718,-0.008 0.72,-0.008C0.726,-0.008 0.731,-0.006 0.735,-0.003C0.736,-0.003 0.736,-0.002 0.736,-0.002C0.736,-0.002 0.736,-0.002 0.736,-0.002C0.736,-0.001 0.736,-0.001 0.736,-0C0.731,0.003 0.726,0.005 0.72,0.005C0.719,0.005 0.718,0.005 0.716,0.005C0.717,0.005 0.718,0.006 0.718,0.007C0.72,0.011 0.721,0.016 0.719,0.021C0.719,0.029 0.722,0.035 0.726,0.038C0.73,0.042 0.738,0.042 0.742,0.038C0.747,0.034 0.748,0.026 0.745,0.021C0.743,0.02 0.74,0.019 0.738,0.02C0.737,0.02 0.736,0.02 0.736,0.021C0.736,0.021 0.736,0.022 0.736,0.023C0.737,0.024 0.738,0.024 0.739,0.024C0.74,0.024 0.74,0.025 0.741,0.025C0.741,0.026 0.741,0.026 0.741,0.026C0.74,0.028 0.738,0.03 0.736,0.031C0.734,0.031 0.731,0.031 0.73,0.03C0.726,0.028 0.725,0.023 0.727,0.019C0.728,0.015 0.733,0.013 0.737,0.013C0.741,0.013 0.744,0.016 0.747,0.019C0.747,0.02 0.747,0.02 0.748,0.02C0.751,0.027 0.75,0.035 0.745,0.04C0.739,0.045 0.73,0.045 0.724,0.041C0.72,0.038 0.718,0.034 0.717,0.028C0.712,0.038 0.71,0.05 0.713,0.061C0.715,0.067 0.718,0.072 0.722,0.076C0.724,0.078 0.727,0.08 0.731,0.081C0.735,0.082 0.739,0.081 0.741,0.078C0.743,0.077 0.744,0.075 0.744,0.073C0.744,0.073 0.744,0.072 0.744,0.072C0.744,0.072 0.744,0.072 0.743,0.072C0.743,0.072 0.742,0.072 0.741,0.072C0.741,0.073 0.741,0.073 0.74,0.073C0.74,0.074 0.74,0.074 0.739,0.074C0.736,0.076 0.733,0.077 0.73,0.075C0.727,0.074 0.725,0.071 0.724,0.068C0.724,0.068 0.724,0.067 0.725,0.067C0.725,0.066 0.726,0.066 0.726,0.066C0.729,0.067 0.731,0.066 0.733,0.064C0.733,0.064 0.733,0.064 0.733,0.064C0.734,0.063 0.734,0.063 0.734,0.063C0.736,0.062 0.738,0.062 0.74,0.063C0.743,0.064 0.745,0.065 0.746,0.067C0.746,0.067 0.746,0.068 0.746,0.068C0.748,0.072 0.747,0.077 0.743,0.081C0.743,0.081 0.742,0.082 0.741,0.082L0.768,0.13C0.768,0.13 0.768,0.13 0.768,0.13C0.771,0.129 0.775,0.131 0.777,0.134C0.779,0.138 0.778,0.142 0.774,0.144C0.77,0.146 0.766,0.145 0.764,0.141C0.762,0.138 0.763,0.134 0.765,0.132C0.765,0.132 0.765,0.132 0.765,0.132L0.738,0.084C0.736,0.084 0.733,0.085 0.731,0.084C0.727,0.083 0.723,0.081 0.72,0.078C0.719,0.078 0.719,0.077 0.719,0.077L0.753,0.138C0.753,0.138 0.754,0.139 0.754,0.139C0.754,0.14 0.754,0.141 0.753,0.141C0.745,0.144 0.741,0.153 0.742,0.161C0.744,0.169 0.751,0.176 0.759,0.176C0.764,0.176 0.768,0.175 0.771,0.172C0.773,0.169 0.774,0.166 0.774,0.163C0.773,0.161 0.773,0.16 0.771,0.16C0.77,0.159 0.768,0.16 0.767,0.16C0.767,0.161 0.766,0.162 0.765,0.163L0.765,0.163C0.764,0.164 0.763,0.166 0.762,0.166C0.76,0.167 0.758,0.167 0.757,0.166C0.756,0.166 0.756,0.165 0.756,0.165C0.756,0.165 0.756,0.165 0.756,0.165C0.755,0.163 0.755,0.16 0.757,0.157C0.758,0.155 0.76,0.153 0.763,0.152C0.768,0.151 0.773,0.154 0.775,0.158C0.776,0.158 0.776,0.159 0.776,0.159C0.776,0.16 0.777,0.161 0.777,0.162C0.777,0.162 0.777,0.162 0.777,0.162C0.777,0.163 0.777,0.163 0.777,0.163C0.777,0.167 0.776,0.171 0.773,0.174C0.77,0.177 0.764,0.179 0.759,0.179C0.752,0.179 0.745,0.174 0.741,0.168C0.74,0.166 0.739,0.164 0.739,0.162ZM0.764,0.155C0.762,0.156 0.76,0.157 0.759,0.159C0.758,0.16 0.758,0.162 0.759,0.164C0.759,0.164 0.76,0.164 0.76,0.164C0.761,0.163 0.762,0.162 0.763,0.161L0.763,0.161C0.764,0.16 0.764,0.159 0.766,0.158C0.767,0.157 0.769,0.157 0.77,0.157C0.768,0.155 0.766,0.155 0.764,0.155ZM0.585,-0.164C0.584,-0.163 0.583,-0.163 0.582,-0.163L0.581,-0.163C0.58,-0.163 0.579,-0.163 0.578,-0.162C0.578,-0.162 0.577,-0.161 0.577,-0.161C0.578,-0.16 0.58,-0.159 0.582,-0.159C0.584,-0.158 0.586,-0.159 0.587,-0.161C0.589,-0.162 0.589,-0.165 0.589,-0.167C0.588,-0.165 0.587,-0.164 0.585,-0.164ZM0.712,0.005C0.708,0.001 0.701,0 0.696,0.003C0.69,0.005 0.686,0.01 0.685,0.017L0.711,0.063C0.711,0.063 0.711,0.062 0.71,0.061C0.707,0.05 0.709,0.038 0.714,0.027C0.709,0.03 0.704,0.031 0.7,0.029C0.697,0.027 0.694,0.024 0.694,0.022C0.693,0.018 0.693,0.015 0.696,0.012C0.698,0.01 0.702,0.009 0.705,0.011C0.709,0.013 0.71,0.017 0.708,0.02C0.708,0.021 0.707,0.021 0.706,0.021C0.706,0.021 0.706,0.021 0.706,0.021C0.706,0.02 0.705,0.02 0.705,0.02C0.705,0.019 0.704,0.018 0.702,0.018C0.702,0.017 0.7,0.017 0.699,0.017C0.698,0.018 0.698,0.018 0.697,0.019C0.697,0.02 0.697,0.021 0.697,0.022C0.697,0.022 0.697,0.022 0.697,0.022C0.698,0.023 0.699,0.025 0.701,0.026C0.706,0.028 0.713,0.026 0.716,0.021C0.716,0.021 0.716,0.021 0.716,0.02C0.716,0.02 0.716,0.02 0.716,0.02C0.716,0.02 0.716,0.02 0.716,0.019C0.718,0.016 0.717,0.012 0.715,0.008C0.715,0.007 0.714,0.006 0.712,0.005ZM0.676,0L0.683,0.013C0.684,0.009 0.687,0.005 0.69,0.003C0.685,0.003 0.68,0.002 0.676,0ZM0.666,-0.017L0.673,-0.005C0.674,-0.009 0.676,-0.014 0.679,-0.018C0.675,-0.017 0.67,-0.016 0.666,-0.017ZM0.639,-0.066C0.639,-0.066 0.638,-0.067 0.638,-0.067L0.664,-0.021C0.67,-0.019 0.676,-0.02 0.681,-0.023C0.686,-0.026 0.689,-0.032 0.688,-0.038C0.688,-0.043 0.683,-0.048 0.678,-0.049C0.678,-0.049 0.677,-0.049 0.677,-0.049C0.677,-0.049 0.677,-0.049 0.677,-0.049C0.677,-0.049 0.677,-0.049 0.677,-0.049C0.671,-0.05 0.665,-0.045 0.665,-0.04C0.664,-0.038 0.665,-0.036 0.666,-0.034C0.666,-0.034 0.666,-0.034 0.666,-0.034C0.666,-0.033 0.667,-0.033 0.668,-0.033C0.669,-0.033 0.67,-0.033 0.671,-0.033C0.672,-0.034 0.672,-0.035 0.672,-0.036C0.672,-0.038 0.672,-0.039 0.672,-0.04C0.672,-0.04 0.672,-0.041 0.672,-0.041C0.672,-0.041 0.672,-0.041 0.672,-0.041C0.672,-0.042 0.672,-0.043 0.673,-0.043C0.677,-0.042 0.68,-0.039 0.68,-0.035C0.68,-0.032 0.677,-0.029 0.673,-0.028C0.67,-0.027 0.667,-0.028 0.664,-0.031C0.662,-0.033 0.661,-0.036 0.662,-0.04C0.662,-0.045 0.665,-0.049 0.67,-0.051C0.658,-0.052 0.647,-0.058 0.639,-0.066ZM0.695,-0.029C0.685,-0.024 0.678,-0.014 0.676,-0.003C0.686,0.001 0.698,0 0.708,-0.006C0.716,-0.011 0.722,-0.02 0.724,-0.03C0.715,-0.034 0.704,-0.033 0.695,-0.029ZM0.768,0.134C0.766,0.135 0.765,0.138 0.766,0.14C0.768,0.142 0.77,0.143 0.773,0.142C0.775,0.14 0.776,0.138 0.774,0.135C0.773,0.133 0.77,0.132 0.768,0.134ZM0.603,-0.161C0.601,-0.16 0.6,-0.157 0.601,-0.155C0.603,-0.153 0.605,-0.152 0.608,-0.153C0.61,-0.154 0.611,-0.157 0.609,-0.159C0.608,-0.161 0.605,-0.162 0.603,-0.161ZM0.74,0.066C0.738,0.065 0.736,0.065 0.735,0.066L0.735,0.066C0.733,0.068 0.731,0.07 0.728,0.07C0.728,0.071 0.73,0.072 0.731,0.073C0.733,0.074 0.735,0.073 0.737,0.072C0.738,0.072 0.738,0.071 0.738,0.071C0.739,0.071 0.739,0.07 0.74,0.07C0.741,0.069 0.742,0.069 0.743,0.069C0.742,0.067 0.741,0.066 0.74,0.066ZM0.647,-0.095C0.647,-0.095 0.646,-0.095 0.645,-0.095C0.645,-0.095 0.645,-0.095 0.644,-0.094C0.642,-0.094 0.641,-0.092 0.64,-0.09C0.64,-0.088 0.64,-0.086 0.641,-0.085C0.643,-0.088 0.645,-0.089 0.648,-0.09L0.648,-0.09C0.649,-0.09 0.65,-0.092 0.651,-0.093C0.651,-0.095 0.651,-0.096 0.65,-0.098C0.649,-0.097 0.648,-0.096 0.647,-0.095ZM0.704,0.013C0.702,0.012 0.7,0.013 0.698,0.014C0.698,0.014 0.698,0.015 0.698,0.015C0.698,0.015 0.698,0.015 0.698,0.014C0.7,0.014 0.702,0.014 0.704,0.015C0.705,0.015 0.705,0.016 0.706,0.016C0.706,0.016 0.705,0.015 0.705,0.015C0.705,0.014 0.704,0.014 0.704,0.013ZM0.675,-0.038C0.675,-0.038 0.675,-0.037 0.675,-0.036C0.675,-0.034 0.674,-0.032 0.673,-0.031C0.673,-0.031 0.672,-0.031 0.672,-0.031C0.672,-0.031 0.673,-0.031 0.673,-0.031C0.675,-0.031 0.677,-0.033 0.677,-0.035C0.677,-0.036 0.676,-0.037 0.676,-0.037C0.676,-0.038 0.676,-0.038 0.675,-0.038ZM0.72,-0.005C0.716,-0.005 0.712,-0.004 0.708,-0.002C0.712,0.001 0.716,0.002 0.72,0.002C0.724,0.002 0.728,0.001 0.732,-0.001C0.728,-0.004 0.724,-0.005 0.72,-0.005ZM0.695,-0.043C0.693,-0.04 0.692,-0.035 0.692,-0.031C0.696,-0.033 0.699,-0.036 0.701,-0.04C0.703,-0.043 0.704,-0.047 0.704,-0.052C0.7,-0.05 0.697,-0.047 0.695,-0.043ZM0.737,0.016C0.734,0.016 0.731,0.017 0.729,0.02C0.728,0.023 0.729,0.026 0.731,0.027C0.732,0.028 0.734,0.028 0.735,0.028C0.736,0.027 0.737,0.027 0.737,0.027C0.736,0.026 0.735,0.026 0.734,0.025C0.733,0.023 0.732,0.021 0.733,0.019C0.734,0.018 0.735,0.017 0.737,0.017C0.737,0.017 0.738,0.017 0.738,0.016C0.738,0.016 0.737,0.016 0.737,0.016ZM0.681,-0.07C0.68,-0.069 0.679,-0.067 0.679,-0.066C0.679,-0.063 0.681,-0.061 0.684,-0.061C0.687,-0.06 0.69,-0.062 0.691,-0.065C0.692,-0.065 0.692,-0.066 0.692,-0.066C0.692,-0.066 0.691,-0.066 0.691,-0.065C0.69,-0.064 0.689,-0.063 0.687,-0.063C0.685,-0.063 0.683,-0.065 0.683,-0.067C0.682,-0.068 0.682,-0.069 0.683,-0.07C0.682,-0.07 0.681,-0.07 0.681,-0.07Z" style="fill:none;fill-rule:nonzero;"/>
        </g>
        <g transform="matrix(477.848,853.684,853.684,-477.848,320.523,-255.708)">
            <path d="M0.397,0.012C0.395,0.007 0.392,0.001 0.39,-0.004C0.39,-0.005 0.39,-0.005 0.391,-0.006C0.391,-0.006 0.391,-0.006 0.392,-0.006C0.396,-0.006 0.401,-0.008 0.404,-0.012C0.404,-0.013 0.405,-0.013 0.406,-0.013C0.406,-0.013 0.407,-0.012 0.407,-0.011C0.407,-0.007 0.41,-0.002 0.414,-0C0.414,0 0.414,0 0.414,0.001C0.415,0.001 0.415,0.001 0.415,0.001C0.415,0.002 0.414,0.002 0.414,0.002C0.409,0.006 0.405,0.01 0.4,0.013C0.399,0.013 0.399,0.013 0.398,0.013C0.398,0.013 0.398,0.013 0.397,0.012C0.397,0.012 0.397,0.012 0.397,0.012ZM0.394,-0.003C0.395,0.001 0.397,0.005 0.399,0.009C0.403,0.007 0.407,0.004 0.411,0.001C0.409,0 0.407,-0.002 0.406,-0.004C0.405,-0.005 0.405,-0.007 0.404,-0.008C0.401,-0.005 0.398,-0.004 0.394,-0.003Z" style="fill:none;fill-rule:nonzero;"/>
        </g>
        <g transform="matrix(477.848,853.684,853.684,-477.848,138.928,-154.06)">
            <path d="M0.775,0.011C0.775,0.006 0.773,0.001 0.769,-0.002C0.768,-0.002 0.768,-0.003 0.768,-0.003C0.769,-0.004 0.769,-0.004 0.77,-0.004C0.774,-0.005 0.779,-0.007 0.781,-0.011C0.781,-0.012 0.782,-0.012 0.782,-0.012C0.783,-0.012 0.783,-0.012 0.784,-0.012C0.787,-0.007 0.791,-0.002 0.794,0.003L0.794,0.003C0.794,0.004 0.794,0.005 0.793,0.005C0.793,0.005 0.793,0.005 0.793,0.005C0.788,0.008 0.782,0.01 0.777,0.012C0.776,0.012 0.776,0.012 0.775,0.012C0.775,0.012 0.775,0.012 0.775,0.011C0.775,0.011 0.775,0.011 0.775,0.011ZM0.778,0.008C0.782,0.007 0.786,0.005 0.79,0.003C0.788,-0.001 0.785,-0.005 0.783,-0.008C0.78,-0.005 0.777,-0.003 0.773,-0.002C0.774,-0.001 0.775,0 0.776,0.002C0.777,0.004 0.778,0.006 0.778,0.008Z" style="fill:none;fill-rule:nonzero;"/>
        </g>
        <g transform="matrix(477.848,853.684,853.684,-477.848,-184.427,26.9373)">
            <path d="M0.556,-0.001C0.556,-0.002 0.556,-0.002 0.557,-0.002C0.561,-0.006 0.566,-0.01 0.571,-0.013C0.572,-0.013 0.572,-0.013 0.573,-0.013C0.573,-0.013 0.573,-0.013 0.573,-0.012L0.573,-0.012C0.576,-0.007 0.579,-0.001 0.581,0.004C0.581,0.005 0.581,0.005 0.58,0.006C0.58,0.006 0.58,0.006 0.579,0.006C0.574,0.006 0.57,0.008 0.567,0.012C0.567,0.013 0.566,0.013 0.565,0.013C0.565,0.013 0.564,0.012 0.564,0.011C0.564,0.009 0.563,0.007 0.562,0.005C0.561,0.003 0.559,0.001 0.557,0C0.557,-0 0.557,-0 0.556,-0.001C0.556,-0.001 0.556,-0.001 0.556,-0.001ZM0.56,-0.001C0.562,-0 0.564,0.002 0.565,0.004C0.566,0.005 0.566,0.007 0.567,0.008C0.569,0.005 0.573,0.004 0.577,0.003C0.575,-0.001 0.574,-0.005 0.571,-0.009C0.568,-0.007 0.564,-0.004 0.56,-0.001Z" style="fill:none;fill-rule:nonzero;"/>
        </g>
        <g transform="matrix(477.848,853.684,853.684,-477.848,-2.82995,-74.7113)">
            <path d="M0.177,-0.004C0.177,-0.004 0.177,-0.005 0.178,-0.005C0.183,-0.008 0.188,-0.01 0.194,-0.012C0.194,-0.012 0.195,-0.012 0.195,-0.012C0.195,-0.012 0.196,-0.012 0.196,-0.011C0.196,-0.011 0.196,-0.011 0.196,-0.011C0.196,-0.006 0.198,-0.001 0.202,0.002C0.202,0.002 0.202,0.002 0.202,0.002C0.203,0.003 0.202,0.004 0.202,0.004C0.201,0.004 0.201,0.004 0.201,0.004C0.196,0.005 0.192,0.008 0.19,0.011C0.189,0.012 0.189,0.012 0.189,0.012C0.188,0.012 0.188,0.012 0.187,0.012C0.184,0.007 0.18,0.002 0.177,-0.003C0.177,-0.003 0.177,-0.003 0.177,-0.003C0.177,-0.003 0.177,-0.004 0.177,-0.004ZM0.18,-0.003C0.183,0.001 0.185,0.005 0.188,0.008C0.191,0.005 0.194,0.003 0.198,0.002C0.195,-0.001 0.193,-0.005 0.193,-0.008C0.189,-0.007 0.184,-0.005 0.18,-0.003Z" style="fill:none;fill-rule:nonzero;"/>
        </g>
        <g transform="matrix(477.848,853.684,853.684,-477.848,224.591,-202.01)">
            <path d="M0.41,0.09C0.411,0.081 0.418,0.072 0.428,0.07C0.436,0.069 0.446,0.073 0.45,0.081C0.45,0.081 0.45,0.081 0.45,0.081L0.73,-0.075C0.725,-0.083 0.726,-0.093 0.732,-0.1C0.738,-0.107 0.75,-0.109 0.758,-0.105C0.761,-0.103 0.764,-0.1 0.765,-0.097C0.766,-0.096 0.767,-0.094 0.767,-0.093C0.768,-0.089 0.767,-0.084 0.765,-0.081C0.765,-0.081 0.765,-0.081 0.765,-0.081C0.764,-0.081 0.764,-0.081 0.764,-0.081C0.764,-0.08 0.763,-0.079 0.762,-0.079C0.758,-0.075 0.751,-0.076 0.747,-0.08C0.745,-0.081 0.744,-0.084 0.745,-0.087C0.745,-0.09 0.746,-0.093 0.748,-0.094C0.748,-0.094 0.748,-0.094 0.748,-0.094C0.749,-0.094 0.749,-0.094 0.749,-0.095C0.751,-0.095 0.753,-0.094 0.754,-0.092C0.755,-0.091 0.755,-0.089 0.755,-0.088L0.755,-0.087C0.755,-0.086 0.755,-0.085 0.755,-0.084C0.756,-0.083 0.757,-0.082 0.759,-0.082C0.76,-0.081 0.761,-0.082 0.762,-0.083C0.764,-0.085 0.765,-0.089 0.764,-0.092C0.763,-0.096 0.76,-0.1 0.757,-0.102C0.749,-0.106 0.74,-0.104 0.734,-0.098C0.729,-0.092 0.728,-0.082 0.733,-0.075C0.733,-0.075 0.733,-0.074 0.733,-0.073C0.732,-0.073 0.732,-0.073 0.732,-0.073L0.67,-0.039C0.671,-0.039 0.671,-0.039 0.672,-0.039C0.676,-0.04 0.681,-0.04 0.684,-0.038C0.687,-0.037 0.689,-0.036 0.69,-0.034L0.739,-0.061C0.739,-0.061 0.739,-0.061 0.739,-0.061C0.738,-0.064 0.739,-0.068 0.742,-0.07C0.746,-0.072 0.751,-0.071 0.753,-0.067C0.755,-0.063 0.753,-0.059 0.75,-0.057C0.747,-0.055 0.743,-0.056 0.74,-0.058C0.74,-0.058 0.74,-0.058 0.74,-0.058L0.692,-0.032C0.693,-0.031 0.693,-0.03 0.693,-0.029C0.694,-0.024 0.693,-0.019 0.689,-0.016C0.687,-0.015 0.684,-0.015 0.682,-0.015C0.679,-0.016 0.677,-0.017 0.676,-0.019C0.676,-0.019 0.676,-0.019 0.676,-0.02C0.676,-0.02 0.676,-0.02 0.676,-0.02C0.675,-0.023 0.674,-0.025 0.671,-0.026C0.671,-0.026 0.67,-0.026 0.67,-0.027C0.67,-0.027 0.67,-0.028 0.67,-0.028C0.672,-0.031 0.676,-0.032 0.679,-0.032C0.682,-0.031 0.685,-0.029 0.686,-0.026C0.687,-0.025 0.687,-0.025 0.687,-0.024C0.687,-0.024 0.687,-0.023 0.687,-0.023C0.687,-0.022 0.688,-0.022 0.688,-0.021C0.689,-0.021 0.689,-0.021 0.689,-0.021C0.689,-0.022 0.689,-0.022 0.69,-0.022C0.691,-0.024 0.691,-0.026 0.69,-0.028C0.689,-0.031 0.687,-0.034 0.683,-0.036C0.679,-0.037 0.675,-0.037 0.672,-0.036C0.667,-0.035 0.662,-0.032 0.657,-0.028C0.649,-0.02 0.644,-0.009 0.643,0.002C0.647,-0.002 0.651,-0.004 0.656,-0.005C0.662,-0.006 0.669,-0.002 0.672,0.003C0.672,0.004 0.673,0.005 0.673,0.006C0.675,0.014 0.671,0.022 0.664,0.025C0.66,0.027 0.656,0.027 0.653,0.025C0.649,0.023 0.646,0.019 0.647,0.015C0.647,0.011 0.651,0.007 0.655,0.007C0.657,0.007 0.659,0.008 0.661,0.01C0.662,0.012 0.663,0.014 0.663,0.016C0.662,0.016 0.662,0.017 0.662,0.017C0.661,0.017 0.661,0.018 0.66,0.017C0.659,0.017 0.658,0.017 0.657,0.017C0.656,0.017 0.656,0.018 0.656,0.018C0.656,0.019 0.656,0.02 0.657,0.02C0.658,0.022 0.661,0.023 0.663,0.022C0.669,0.02 0.672,0.013 0.67,0.007C0.668,0.001 0.662,-0.003 0.656,-0.002C0.651,-0.001 0.646,0.002 0.641,0.009C0.64,0.015 0.636,0.02 0.631,0.022C0.632,0.022 0.633,0.023 0.634,0.023C0.637,0.025 0.64,0.028 0.643,0.032C0.643,0.033 0.644,0.035 0.644,0.036C0.644,0.036 0.644,0.037 0.644,0.037C0.644,0.038 0.643,0.038 0.643,0.038C0.638,0.039 0.632,0.037 0.627,0.035C0.626,0.034 0.624,0.033 0.623,0.031C0.626,0.04 0.625,0.049 0.621,0.058C0.621,0.058 0.62,0.059 0.62,0.059C0.611,0.057 0.603,0.053 0.597,0.046C0.597,0.048 0.597,0.05 0.597,0.051C0.597,0.057 0.595,0.062 0.592,0.067C0.591,0.067 0.591,0.067 0.591,0.067C0.59,0.067 0.59,0.067 0.589,0.067C0.586,0.062 0.584,0.057 0.584,0.051C0.584,0.05 0.584,0.049 0.584,0.048C0.58,0.051 0.573,0.052 0.568,0.05C0.56,0.051 0.554,0.053 0.551,0.057C0.547,0.061 0.547,0.069 0.551,0.074C0.555,0.078 0.563,0.079 0.568,0.076C0.569,0.075 0.57,0.072 0.569,0.069C0.569,0.068 0.569,0.068 0.568,0.067C0.568,0.067 0.567,0.067 0.566,0.068C0.565,0.068 0.565,0.07 0.565,0.07C0.565,0.071 0.565,0.072 0.564,0.072C0.564,0.072 0.563,0.072 0.563,0.072C0.561,0.071 0.559,0.07 0.558,0.067C0.558,0.065 0.558,0.063 0.559,0.061C0.561,0.057 0.566,0.056 0.57,0.058C0.574,0.06 0.576,0.064 0.576,0.068C0.576,0.072 0.573,0.076 0.57,0.078C0.564,0.082 0.554,0.081 0.549,0.076C0.544,0.07 0.544,0.061 0.548,0.055C0.551,0.051 0.556,0.049 0.561,0.048C0.551,0.043 0.539,0.042 0.528,0.045C0.522,0.046 0.517,0.049 0.513,0.053C0.511,0.055 0.509,0.058 0.508,0.063C0.507,0.066 0.508,0.07 0.511,0.073C0.512,0.074 0.514,0.075 0.516,0.075C0.516,0.075 0.517,0.075 0.517,0.075C0.517,0.075 0.517,0.075 0.517,0.074C0.518,0.074 0.517,0.073 0.517,0.073C0.516,0.072 0.516,0.072 0.516,0.072C0.515,0.071 0.515,0.071 0.515,0.07C0.513,0.068 0.512,0.064 0.514,0.061C0.515,0.058 0.518,0.056 0.521,0.055C0.521,0.055 0.522,0.056 0.522,0.056C0.522,0.056 0.522,0.056 0.522,0.056C0.523,0.057 0.523,0.057 0.523,0.057C0.522,0.06 0.523,0.063 0.525,0.064C0.525,0.064 0.525,0.064 0.525,0.065C0.526,0.065 0.526,0.065 0.526,0.065C0.527,0.067 0.527,0.069 0.526,0.072C0.525,0.074 0.524,0.076 0.521,0.077C0.517,0.079 0.512,0.078 0.509,0.075C0.508,0.074 0.507,0.073 0.507,0.072L0.459,0.099C0.459,0.099 0.459,0.099 0.459,0.099C0.46,0.103 0.458,0.106 0.455,0.108C0.451,0.11 0.447,0.109 0.445,0.105C0.443,0.102 0.444,0.097 0.448,0.095C0.451,0.093 0.455,0.094 0.457,0.097C0.457,0.097 0.457,0.097 0.457,0.097L0.506,0.07C0.505,0.067 0.505,0.065 0.505,0.062C0.506,0.058 0.508,0.054 0.511,0.051C0.511,0.05 0.512,0.05 0.512,0.05L0.451,0.084C0.451,0.085 0.45,0.085 0.45,0.085C0.449,0.085 0.448,0.085 0.448,0.084C0.445,0.077 0.436,0.072 0.428,0.073C0.42,0.075 0.413,0.082 0.413,0.09C0.413,0.095 0.414,0.099 0.417,0.102C0.42,0.104 0.423,0.105 0.427,0.105C0.428,0.105 0.429,0.104 0.429,0.103C0.43,0.101 0.429,0.1 0.429,0.099C0.428,0.098 0.427,0.097 0.426,0.097L0.426,0.096C0.425,0.095 0.423,0.094 0.423,0.093C0.422,0.091 0.422,0.089 0.423,0.088C0.423,0.088 0.424,0.087 0.424,0.087C0.424,0.087 0.424,0.087 0.424,0.087C0.426,0.086 0.429,0.087 0.432,0.088C0.434,0.089 0.436,0.092 0.437,0.094C0.438,0.099 0.435,0.105 0.43,0.107C0.429,0.108 0.428,0.108 0.427,0.108C0.427,0.108 0.427,0.108 0.427,0.108C0.427,0.108 0.426,0.108 0.426,0.108C0.422,0.108 0.418,0.107 0.415,0.104C0.414,0.103 0.413,0.102 0.412,0.1C0.411,0.097 0.41,0.094 0.41,0.09ZM0.43,0.091C0.429,0.09 0.427,0.09 0.425,0.09C0.425,0.091 0.425,0.091 0.425,0.092C0.426,0.092 0.427,0.093 0.428,0.094L0.428,0.094C0.429,0.095 0.43,0.096 0.431,0.097C0.431,0.097 0.431,0.097 0.432,0.098C0.432,0.099 0.432,0.1 0.432,0.102C0.434,0.1 0.435,0.097 0.434,0.095C0.434,0.094 0.434,0.094 0.433,0.093C0.433,0.092 0.432,0.091 0.43,0.091ZM0.449,0.098C0.447,0.099 0.446,0.102 0.447,0.104C0.449,0.106 0.451,0.107 0.454,0.105C0.456,0.104 0.457,0.101 0.455,0.099C0.454,0.097 0.451,0.096 0.449,0.098ZM0.516,0.062C0.516,0.064 0.516,0.067 0.517,0.068C0.517,0.069 0.518,0.069 0.518,0.07C0.518,0.07 0.519,0.07 0.519,0.071C0.52,0.072 0.52,0.073 0.52,0.074C0.522,0.074 0.523,0.072 0.523,0.071C0.524,0.069 0.524,0.068 0.523,0.066C0.523,0.066 0.523,0.066 0.523,0.066C0.521,0.065 0.52,0.062 0.519,0.059C0.518,0.06 0.517,0.061 0.516,0.062ZM0.572,0.016L0.526,0.042C0.527,0.042 0.527,0.042 0.528,0.042C0.539,0.039 0.551,0.04 0.562,0.045C0.559,0.041 0.558,0.035 0.56,0.031C0.562,0.028 0.565,0.026 0.568,0.025C0.571,0.024 0.575,0.025 0.577,0.027C0.579,0.03 0.58,0.034 0.578,0.037C0.576,0.04 0.572,0.041 0.569,0.039C0.568,0.039 0.568,0.038 0.568,0.037C0.568,0.037 0.568,0.037 0.569,0.037C0.569,0.037 0.569,0.037 0.569,0.037C0.57,0.036 0.571,0.035 0.572,0.034C0.572,0.033 0.572,0.032 0.572,0.03C0.571,0.03 0.571,0.029 0.57,0.029C0.569,0.028 0.568,0.028 0.567,0.028C0.567,0.028 0.567,0.028 0.567,0.028C0.566,0.029 0.564,0.031 0.563,0.032C0.561,0.037 0.563,0.044 0.568,0.047C0.569,0.047 0.569,0.047 0.569,0.047C0.569,0.047 0.569,0.047 0.569,0.047C0.569,0.047 0.569,0.047 0.57,0.048C0.575,0.049 0.581,0.048 0.584,0.044C0.588,0.039 0.589,0.032 0.586,0.027C0.586,0.026 0.586,0.026 0.586,0.026C0.583,0.021 0.578,0.017 0.572,0.016ZM0.569,0.061C0.567,0.059 0.563,0.06 0.562,0.062C0.561,0.064 0.561,0.065 0.561,0.066C0.562,0.067 0.562,0.068 0.563,0.068C0.563,0.067 0.564,0.066 0.564,0.065C0.566,0.064 0.568,0.064 0.57,0.065C0.571,0.065 0.571,0.066 0.572,0.066C0.572,0.067 0.572,0.068 0.572,0.068C0.573,0.069 0.573,0.069 0.573,0.069C0.573,0.069 0.573,0.068 0.573,0.068C0.573,0.066 0.573,0.065 0.572,0.063C0.571,0.062 0.57,0.061 0.569,0.061ZM0.575,0.029C0.575,0.029 0.574,0.029 0.574,0.029C0.574,0.029 0.575,0.029 0.575,0.03C0.575,0.031 0.575,0.033 0.574,0.035C0.574,0.036 0.573,0.036 0.573,0.037C0.574,0.037 0.575,0.036 0.576,0.035C0.577,0.034 0.576,0.032 0.576,0.03C0.575,0.03 0.575,0.029 0.575,0.029ZM0.591,0.039C0.588,0.043 0.587,0.047 0.587,0.051C0.587,0.055 0.588,0.06 0.591,0.063C0.593,0.06 0.594,0.056 0.594,0.051C0.594,0.047 0.593,0.043 0.591,0.04C0.591,0.04 0.591,0.039 0.591,0.039ZM0.576,0.014C0.58,0.016 0.584,0.018 0.587,0.021C0.586,0.017 0.587,0.012 0.589,0.007L0.576,0.014ZM0.592,0.007C0.588,0.017 0.589,0.029 0.595,0.039C0.6,0.047 0.609,0.054 0.619,0.055C0.623,0.046 0.622,0.035 0.618,0.026C0.617,0.025 0.617,0.025 0.617,0.025C0.612,0.015 0.602,0.009 0.592,0.007ZM0.594,0.004C0.598,0.005 0.603,0.007 0.607,0.01C0.606,0.006 0.605,0.001 0.606,-0.003L0.594,0.004ZM0.61,-0.005C0.608,0.001 0.609,0.008 0.612,0.013C0.615,0.018 0.621,0.02 0.627,0.02C0.633,0.019 0.637,0.014 0.638,0.009C0.638,0.009 0.638,0.008 0.638,0.008C0.638,0.008 0.638,0.008 0.638,0.008C0.638,0.008 0.638,0.008 0.638,0.008C0.639,0.002 0.634,-0.004 0.629,-0.004C0.627,-0.004 0.625,-0.004 0.623,-0.003C0.623,-0.003 0.623,-0.003 0.623,-0.003C0.622,-0.003 0.622,-0.002 0.622,-0C0.622,0 0.622,0.001 0.623,0.002C0.623,0.003 0.624,0.003 0.625,0.003C0.627,0.004 0.628,0.003 0.629,0.003C0.629,0.003 0.63,0.003 0.63,0.003C0.63,0.003 0.63,0.003 0.63,0.003C0.631,0.003 0.632,0.003 0.632,0.004C0.631,0.008 0.628,0.011 0.624,0.011C0.621,0.011 0.618,0.008 0.617,0.005C0.616,0.001 0.617,-0.002 0.62,-0.004C0.622,-0.007 0.626,-0.008 0.629,-0.007C0.633,-0.007 0.637,-0.004 0.64,0C0.64,0 0.64,0.001 0.64,0.001C0.641,-0.011 0.647,-0.022 0.655,-0.03C0.656,-0.03 0.656,-0.03 0.656,-0.031L0.61,-0.005ZM0.632,0.026C0.629,0.024 0.624,0.023 0.62,0.023C0.622,0.027 0.625,0.03 0.629,0.032C0.632,0.034 0.636,0.035 0.641,0.035C0.64,0.035 0.64,0.034 0.64,0.034C0.638,0.03 0.635,0.028 0.632,0.026ZM0.625,0.007C0.623,0.006 0.621,0.005 0.62,0.004C0.62,0.004 0.62,0.004 0.62,0.003C0.62,0.004 0.62,0.004 0.62,0.004C0.62,0.006 0.622,0.008 0.624,0.008C0.626,0.008 0.627,0.007 0.627,0.006C0.627,0.007 0.626,0.007 0.625,0.007ZM0.659,0.012C0.658,0.011 0.656,0.01 0.655,0.01C0.652,0.01 0.65,0.013 0.65,0.015C0.649,0.018 0.651,0.021 0.654,0.023C0.654,0.023 0.655,0.023 0.655,0.023C0.655,0.023 0.655,0.023 0.654,0.022C0.653,0.021 0.653,0.02 0.653,0.018C0.653,0.016 0.654,0.015 0.656,0.014C0.657,0.014 0.658,0.014 0.66,0.014C0.659,0.013 0.659,0.013 0.659,0.013C0.659,0.012 0.659,0.012 0.659,0.012ZM0.679,-0.029C0.677,-0.029 0.676,-0.028 0.674,-0.028C0.677,-0.026 0.678,-0.023 0.679,-0.021C0.679,-0.019 0.681,-0.019 0.682,-0.018C0.684,-0.018 0.685,-0.018 0.687,-0.019C0.686,-0.019 0.685,-0.02 0.684,-0.022C0.684,-0.022 0.684,-0.023 0.684,-0.023C0.684,-0.024 0.684,-0.024 0.683,-0.025C0.683,-0.025 0.683,-0.025 0.683,-0.025C0.682,-0.027 0.68,-0.028 0.679,-0.029ZM0.744,-0.067C0.742,-0.066 0.741,-0.063 0.742,-0.061C0.743,-0.059 0.746,-0.058 0.748,-0.059C0.75,-0.061 0.751,-0.063 0.75,-0.066C0.749,-0.068 0.746,-0.069 0.744,-0.067ZM0.751,-0.091C0.751,-0.091 0.751,-0.092 0.75,-0.092C0.749,-0.091 0.748,-0.089 0.748,-0.087C0.748,-0.085 0.748,-0.083 0.75,-0.082C0.751,-0.08 0.754,-0.079 0.756,-0.08C0.754,-0.08 0.753,-0.082 0.753,-0.083C0.752,-0.085 0.752,-0.086 0.752,-0.087L0.752,-0.088C0.752,-0.089 0.752,-0.09 0.751,-0.091C0.751,-0.091 0.751,-0.091 0.751,-0.091Z" style="fill:none;fill-rule:nonzero;"/>
        </g>
        <g transform="matrix(477.848,853.684,853.684,-477.848,191.521,-183.499)">
            <path d="M0.223,-0.008C0.227,-0.01 0.232,-0.008 0.235,-0.004C0.237,-0 0.235,0.005 0.231,0.008C0.227,0.01 0.222,0.008 0.219,0.004C0.217,0 0.219,-0.005 0.223,-0.008ZM0.224,-0.005C0.222,-0.003 0.221,0 0.222,0.003C0.224,0.006 0.227,0.006 0.23,0.005C0.233,0.003 0.234,-0 0.232,-0.003C0.23,-0.006 0.227,-0.006 0.224,-0.005Z" style="fill:none;fill-rule:nonzero;"/>
        </g>
        <g transform="matrix(477.848,853.684,853.684,-477.848,288.636,-237.859)">
            <path d="M0.626,-0.008C0.63,-0.01 0.635,-0.008 0.638,-0.004C0.64,-0 0.638,0.005 0.634,0.008C0.63,0.01 0.625,0.008 0.622,0.004C0.62,0 0.622,-0.005 0.626,-0.008ZM0.627,-0.005C0.625,-0.003 0.624,0 0.625,0.003C0.627,0.006 0.63,0.006 0.633,0.005C0.636,0.003 0.637,-0 0.635,-0.003C0.633,-0.006 0.63,-0.006 0.627,-0.005Z" style="fill:none;fill-rule:nonzero;"/>
        </g>
        <g transform="matrix(477.848,853.684,853.684,-477.848,-55.4232,-45.2723)">
            <path d="M0.74,-0.008C0.744,-0.01 0.749,-0.008 0.751,-0.004C0.754,-0 0.752,0.005 0.748,0.008C0.744,0.01 0.739,0.008 0.736,0.004C0.734,0 0.735,-0.005 0.74,-0.008ZM0.741,-0.005C0.738,-0.003 0.737,0 0.739,0.003C0.74,0.006 0.744,0.006 0.747,0.005C0.749,0.003 0.75,-0 0.749,-0.003C0.747,-0.006 0.744,-0.006 0.741,-0.005Z" style="fill:none;fill-rule:nonzero;"/>
        </g>
        <g transform="matrix(477.848,853.684,853.684,-477.848,-152.536,9.08637)">
            <path d="M0.337,-0.008C0.341,-0.01 0.346,-0.008 0.348,-0.004C0.351,-0 0.349,0.005 0.345,0.008C0.341,0.01 0.336,0.008 0.333,0.004C0.331,0 0.332,-0.005 0.337,-0.008ZM0.338,-0.005C0.335,-0.003 0.334,0 0.336,0.003C0.337,0.006 0.341,0.006 0.344,0.005C0.346,0.003 0.347,-0 0.346,-0.003C0.344,-0.006 0.341,-0.006 0.338,-0.005Z" style="fill:none;fill-rule:nonzero;"/>
        </g>
        <g transform="matrix(477.848,853.684,853.684,-477.848,197.636,-186.922)">
            <path d="M0.246,-0.007C0.25,-0.009 0.255,-0.007 0.257,-0.004C0.259,-0 0.257,0.005 0.254,0.007C0.25,0.009 0.245,0.007 0.243,0.004C0.241,0 0.243,-0.005 0.246,-0.007ZM0.248,-0.004C0.246,-0.003 0.245,0 0.246,0.002C0.247,0.004 0.25,0.005 0.252,0.004C0.254,0.003 0.255,-0 0.254,-0.002C0.253,-0.004 0.25,-0.005 0.248,-0.004Z" style="fill:none;fill-rule:nonzero;"/>
        </g>
        <g transform="matrix(477.848,853.684,853.684,-477.848,-132.856,-1.92943)">
            <path d="M0.33,-0.007C0.334,-0.009 0.338,-0.007 0.34,-0.004C0.342,-0 0.341,0.005 0.337,0.007C0.334,0.009 0.329,0.007 0.327,0.004C0.325,0 0.326,-0.005 0.33,-0.007ZM0.331,-0.004C0.329,-0.003 0.328,0 0.33,0.002C0.331,0.004 0.334,0.005 0.336,0.004C0.338,0.003 0.339,-0 0.338,-0.002C0.336,-0.004 0.334,-0.005 0.331,-0.004Z" style="fill:none;fill-rule:nonzero;"/>
        </g>
        <g transform="matrix(477.848,853.684,853.684,-477.848,-61.5393,-41.8488)">
            <path d="M0.717,-0.007C0.721,-0.009 0.725,-0.007 0.727,-0.004C0.729,-0 0.728,0.005 0.724,0.007C0.721,0.009 0.716,0.007 0.714,0.004C0.712,0 0.713,-0.005 0.717,-0.007ZM0.719,-0.004C0.716,-0.003 0.716,0 0.717,0.002C0.718,0.004 0.721,0.005 0.723,0.004C0.725,0.003 0.726,-0 0.725,-0.002C0.723,-0.004 0.721,-0.005 0.719,-0.004Z" style="fill:none;fill-rule:nonzero;"/>
        </g>
        <g transform="matrix(477.848,853.684,853.684,-477.848,268.952,-226.841)">
            <path d="M0.634,-0.007C0.637,-0.009 0.642,-0.007 0.644,-0.004C0.646,-0 0.645,0.005 0.641,0.007C0.637,0.009 0.633,0.007 0.631,0.004C0.629,0 0.63,-0.005 0.634,-0.007ZM0.635,-0.004C0.633,-0.003 0.632,0 0.633,0.002C0.634,0.004 0.637,0.005 0.639,0.004C0.642,0.003 0.642,-0 0.641,-0.002C0.64,-0.004 0.637,-0.005 0.635,-0.004Z" style="fill:none;fill-rule:nonzero;"/>
        </g>
        <g transform="matrix(477.848,853.684,853.684,-477.848,283.556,-235.015)">
            <path d="M0.603,-0.007C0.607,-0.009 0.611,-0.007 0.613,-0.004C0.615,-0 0.614,0.005 0.61,0.007C0.607,0.009 0.602,0.007 0.6,0.004C0.598,0 0.599,-0.005 0.603,-0.007ZM0.604,-0.004C0.602,-0.003 0.601,0 0.603,0.002C0.604,0.004 0.607,0.005 0.609,0.004C0.611,0.003 0.612,-0 0.611,-0.002C0.609,-0.004 0.607,-0.005 0.604,-0.004Z" style="fill:none;fill-rule:nonzero;"/>
        </g>
        <g transform="matrix(477.848,853.684,853.684,-477.848,171.547,-172.319)">
            <path d="M0.229,-0.007C0.233,-0.009 0.238,-0.007 0.24,-0.004C0.242,-0 0.24,0.005 0.237,0.007C0.233,0.009 0.228,0.007 0.226,0.004C0.224,0 0.226,-0.005 0.229,-0.007ZM0.231,-0.004C0.229,-0.003 0.228,0 0.229,0.002C0.23,0.004 0.233,0.005 0.235,0.004C0.237,0.003 0.238,-0 0.237,-0.002C0.236,-0.004 0.233,-0.005 0.231,-0.004Z" style="fill:none;fill-rule:nonzero;"/>
        </g>
        <g transform="matrix(477.848,853.684,853.684,-477.848,-147.459,6.24475)">
            <path d="M0.36,-0.007C0.364,-0.009 0.369,-0.007 0.371,-0.004C0.373,-0 0.372,0.005 0.368,0.007C0.364,0.009 0.36,0.007 0.358,0.004C0.356,0 0.357,-0.005 0.36,-0.007ZM0.362,-0.004C0.36,-0.003 0.359,0 0.36,0.002C0.361,0.004 0.364,0.005 0.366,0.004C0.369,0.003 0.369,-0 0.368,-0.002C0.367,-0.004 0.364,-0.005 0.362,-0.004Z" style="fill:none;fill-rule:nonzero;"/>
        </g>
        <g transform="matrix(477.848,853.684,853.684,-477.848,-35.4506,-56.452)">
            <path d="M0.734,-0.007C0.738,-0.009 0.742,-0.007 0.744,-0.004C0.746,-0 0.745,0.005 0.742,0.007C0.738,0.009 0.733,0.007 0.731,0.004C0.729,0 0.731,-0.005 0.734,-0.007ZM0.736,-0.004C0.733,-0.003 0.733,0 0.734,0.002C0.735,0.004 0.738,0.005 0.74,0.004C0.742,0.003 0.743,-0 0.742,-0.002C0.741,-0.004 0.738,-0.005 0.736,-0.004Z" style="fill:none;fill-rule:nonzero;"/>
        </g>
        <g transform="matrix(477.848,853.684,853.684,-477.848,-88.4942,-26.7609)">
            <path d="M0.204,0.093C0.203,0.089 0.204,0.085 0.206,0.082C0.206,0.081 0.206,0.081 0.206,0.081C0.206,0.081 0.206,0.081 0.207,0.081C0.207,0.08 0.208,0.079 0.209,0.079C0.213,0.075 0.22,0.076 0.223,0.08C0.225,0.081 0.226,0.084 0.226,0.087C0.226,0.09 0.225,0.093 0.223,0.094C0.223,0.094 0.223,0.094 0.222,0.094C0.222,0.094 0.222,0.094 0.222,0.095C0.22,0.095 0.218,0.094 0.217,0.092C0.216,0.091 0.216,0.089 0.216,0.088L0.216,0.087C0.216,0.086 0.216,0.085 0.215,0.084C0.215,0.083 0.214,0.082 0.212,0.082C0.211,0.081 0.21,0.082 0.209,0.083C0.207,0.085 0.206,0.089 0.207,0.092C0.207,0.096 0.21,0.1 0.214,0.102C0.221,0.106 0.231,0.104 0.237,0.098C0.242,0.092 0.243,0.082 0.238,0.075C0.237,0.075 0.238,0.074 0.238,0.073C0.238,0.073 0.239,0.073 0.239,0.073L0.301,0.039C0.3,0.039 0.3,0.039 0.299,0.039C0.295,0.04 0.29,0.04 0.286,0.038C0.284,0.037 0.282,0.036 0.28,0.034L0.232,0.061C0.232,0.061 0.232,0.061 0.232,0.061C0.233,0.064 0.232,0.068 0.228,0.07C0.225,0.072 0.22,0.071 0.218,0.067C0.216,0.063 0.217,0.059 0.221,0.057C0.224,0.055 0.228,0.056 0.231,0.058C0.231,0.058 0.231,0.058 0.231,0.058L0.279,0.032C0.278,0.031 0.278,0.03 0.278,0.029C0.276,0.024 0.278,0.019 0.282,0.016C0.284,0.015 0.287,0.015 0.289,0.015C0.292,0.016 0.294,0.017 0.295,0.019C0.295,0.019 0.295,0.019 0.295,0.02C0.295,0.02 0.295,0.02 0.295,0.02C0.295,0.023 0.297,0.025 0.3,0.026C0.3,0.026 0.3,0.026 0.301,0.027C0.301,0.027 0.301,0.027 0.301,0.027C0.301,0.027 0.301,0.028 0.3,0.028C0.298,0.031 0.295,0.032 0.292,0.032C0.289,0.031 0.286,0.029 0.285,0.026C0.284,0.025 0.284,0.025 0.284,0.024C0.284,0.024 0.284,0.023 0.284,0.023C0.283,0.022 0.283,0.022 0.282,0.021C0.282,0.021 0.282,0.021 0.282,0.021C0.282,0.022 0.281,0.022 0.281,0.022C0.28,0.024 0.28,0.026 0.28,0.028C0.281,0.031 0.284,0.034 0.288,0.036C0.292,0.037 0.296,0.037 0.298,0.036C0.304,0.035 0.309,0.032 0.314,0.028C0.322,0.02 0.327,0.009 0.328,-0.002C0.324,0.002 0.32,0.004 0.315,0.005C0.308,0.006 0.3,0.001 0.298,-0.006C0.296,-0.014 0.3,-0.022 0.307,-0.025C0.311,-0.027 0.315,-0.027 0.318,-0.025C0.322,-0.023 0.325,-0.019 0.324,-0.015C0.324,-0.011 0.32,-0.007 0.316,-0.007C0.314,-0.007 0.311,-0.008 0.31,-0.01C0.308,-0.012 0.308,-0.014 0.308,-0.016C0.308,-0.016 0.309,-0.017 0.309,-0.017C0.309,-0.017 0.31,-0.018 0.311,-0.017C0.311,-0.017 0.313,-0.016 0.314,-0.017C0.315,-0.017 0.315,-0.018 0.315,-0.018C0.315,-0.019 0.315,-0.02 0.314,-0.02C0.312,-0.022 0.309,-0.023 0.307,-0.022C0.302,-0.02 0.299,-0.013 0.301,-0.007C0.302,-0.001 0.309,0.003 0.315,0.002C0.32,0.001 0.325,-0.002 0.33,-0.009C0.331,-0.015 0.335,-0.02 0.34,-0.022C0.339,-0.022 0.338,-0.023 0.337,-0.023C0.332,-0.026 0.328,-0.031 0.327,-0.036C0.326,-0.036 0.326,-0.037 0.327,-0.037C0.327,-0.038 0.327,-0.038 0.328,-0.038C0.333,-0.039 0.339,-0.037 0.344,-0.035C0.345,-0.034 0.346,-0.033 0.348,-0.031C0.345,-0.04 0.346,-0.049 0.349,-0.058C0.35,-0.058 0.35,-0.059 0.351,-0.059C0.36,-0.057 0.368,-0.053 0.374,-0.046C0.374,-0.048 0.374,-0.05 0.374,-0.051C0.374,-0.057 0.376,-0.062 0.379,-0.067C0.379,-0.067 0.38,-0.067 0.38,-0.067C0.381,-0.067 0.381,-0.067 0.381,-0.067C0.382,-0.066 0.383,-0.065 0.384,-0.063C0.386,-0.06 0.387,-0.055 0.387,-0.051C0.387,-0.05 0.387,-0.049 0.387,-0.048C0.391,-0.051 0.397,-0.052 0.403,-0.05C0.411,-0.051 0.417,-0.053 0.42,-0.057C0.424,-0.061 0.424,-0.069 0.419,-0.074C0.415,-0.078 0.408,-0.079 0.403,-0.076C0.402,-0.074 0.401,-0.072 0.401,-0.069C0.401,-0.068 0.402,-0.068 0.402,-0.067C0.403,-0.067 0.404,-0.067 0.404,-0.068C0.405,-0.068 0.406,-0.07 0.406,-0.07C0.406,-0.071 0.406,-0.072 0.407,-0.072C0.407,-0.072 0.408,-0.072 0.408,-0.072C0.41,-0.071 0.412,-0.07 0.412,-0.067C0.413,-0.065 0.413,-0.063 0.412,-0.061C0.41,-0.057 0.404,-0.056 0.4,-0.058C0.397,-0.06 0.395,-0.064 0.395,-0.068C0.395,-0.072 0.397,-0.076 0.401,-0.078C0.407,-0.082 0.417,-0.081 0.422,-0.076C0.422,-0.075 0.423,-0.074 0.424,-0.073C0.427,-0.067 0.426,-0.06 0.422,-0.055C0.42,-0.051 0.415,-0.049 0.409,-0.048C0.42,-0.043 0.432,-0.042 0.442,-0.044C0.449,-0.046 0.454,-0.049 0.458,-0.053C0.46,-0.055 0.462,-0.058 0.463,-0.063C0.463,-0.066 0.462,-0.07 0.46,-0.073C0.459,-0.074 0.457,-0.075 0.455,-0.075C0.455,-0.075 0.454,-0.075 0.454,-0.075C0.454,-0.075 0.453,-0.075 0.453,-0.074C0.453,-0.074 0.454,-0.073 0.454,-0.073C0.454,-0.072 0.455,-0.072 0.455,-0.072C0.455,-0.071 0.456,-0.071 0.456,-0.07C0.458,-0.068 0.458,-0.064 0.457,-0.061C0.456,-0.058 0.453,-0.056 0.45,-0.055C0.449,-0.055 0.449,-0.056 0.449,-0.056C0.448,-0.056 0.448,-0.057 0.448,-0.057C0.449,-0.06 0.448,-0.063 0.446,-0.064C0.446,-0.064 0.445,-0.064 0.445,-0.065C0.445,-0.065 0.445,-0.065 0.445,-0.065C0.444,-0.067 0.444,-0.069 0.445,-0.072C0.446,-0.074 0.447,-0.076 0.449,-0.077C0.454,-0.079 0.459,-0.078 0.462,-0.075C0.463,-0.074 0.464,-0.073 0.464,-0.072L0.512,-0.099C0.512,-0.099 0.512,-0.099 0.512,-0.099C0.511,-0.103 0.513,-0.106 0.516,-0.108C0.519,-0.11 0.524,-0.109 0.526,-0.105C0.528,-0.102 0.527,-0.097 0.523,-0.095C0.52,-0.093 0.516,-0.094 0.514,-0.097C0.514,-0.097 0.514,-0.097 0.514,-0.097L0.465,-0.07C0.466,-0.067 0.466,-0.065 0.466,-0.062C0.465,-0.058 0.463,-0.054 0.46,-0.051C0.459,-0.05 0.459,-0.05 0.459,-0.05L0.52,-0.084C0.52,-0.085 0.52,-0.085 0.521,-0.085C0.522,-0.085 0.522,-0.085 0.523,-0.084C0.526,-0.077 0.535,-0.072 0.543,-0.073C0.551,-0.075 0.557,-0.082 0.558,-0.09C0.558,-0.095 0.556,-0.099 0.553,-0.102C0.551,-0.104 0.547,-0.105 0.544,-0.105C0.543,-0.105 0.542,-0.104 0.542,-0.103C0.541,-0.101 0.541,-0.1 0.542,-0.099C0.543,-0.098 0.544,-0.097 0.545,-0.097L0.545,-0.096C0.546,-0.095 0.547,-0.094 0.548,-0.093C0.549,-0.091 0.549,-0.089 0.547,-0.088C0.547,-0.088 0.547,-0.087 0.547,-0.087C0.547,-0.087 0.547,-0.087 0.547,-0.087C0.544,-0.086 0.542,-0.087 0.539,-0.088C0.537,-0.089 0.535,-0.092 0.534,-0.094C0.533,-0.099 0.536,-0.105 0.541,-0.107C0.542,-0.108 0.543,-0.108 0.544,-0.108C0.544,-0.108 0.544,-0.108 0.544,-0.108C0.544,-0.108 0.544,-0.108 0.544,-0.108C0.548,-0.108 0.553,-0.107 0.556,-0.104C0.557,-0.103 0.558,-0.102 0.558,-0.1C0.56,-0.097 0.561,-0.094 0.561,-0.09C0.56,-0.081 0.553,-0.072 0.543,-0.07C0.535,-0.069 0.525,-0.074 0.521,-0.081L0.241,0.075C0.241,0.075 0.241,0.075 0.241,0.075C0.246,0.083 0.245,0.093 0.239,0.1C0.233,0.107 0.221,0.109 0.213,0.105C0.21,0.103 0.207,0.1 0.205,0.097C0.205,0.096 0.204,0.094 0.204,0.093ZM0.218,0.083C0.219,0.085 0.219,0.086 0.219,0.087L0.219,0.088C0.219,0.089 0.219,0.09 0.22,0.091C0.22,0.091 0.22,0.092 0.221,0.092C0.222,0.091 0.223,0.089 0.223,0.087C0.223,0.085 0.223,0.083 0.221,0.082C0.22,0.08 0.217,0.079 0.215,0.08C0.216,0.08 0.217,0.081 0.218,0.082C0.218,0.083 0.218,0.083 0.218,0.083ZM0.223,0.059C0.22,0.061 0.22,0.063 0.221,0.066C0.222,0.068 0.225,0.069 0.227,0.067C0.229,0.066 0.23,0.063 0.229,0.061C0.228,0.059 0.225,0.058 0.223,0.059ZM0.286,0.022C0.287,0.022 0.287,0.023 0.287,0.023C0.287,0.024 0.287,0.024 0.287,0.025C0.288,0.027 0.29,0.028 0.292,0.029C0.294,0.029 0.295,0.028 0.297,0.028C0.294,0.026 0.293,0.023 0.292,0.021C0.292,0.021 0.292,0.021 0.292,0.021C0.291,0.019 0.29,0.019 0.289,0.018C0.287,0.018 0.285,0.018 0.284,0.019C0.285,0.019 0.285,0.02 0.286,0.021C0.286,0.021 0.286,0.021 0.286,0.022ZM0.316,0.03C0.315,0.03 0.315,0.031 0.314,0.031L0.361,0.005C0.363,-0.001 0.362,-0.008 0.359,-0.013C0.356,-0.018 0.349,-0.02 0.344,-0.02C0.338,-0.019 0.334,-0.014 0.333,-0.009C0.333,-0.009 0.333,-0.008 0.332,-0.008C0.332,-0.008 0.332,-0.008 0.332,-0.008C0.332,-0.008 0.332,-0.008 0.332,-0.008C0.332,-0.002 0.337,0.004 0.342,0.004C0.344,0.004 0.346,0.004 0.348,0.003C0.348,0.003 0.348,0.003 0.348,0.003C0.348,0.003 0.349,0.002 0.349,0C0.349,-0 0.349,-0.001 0.348,-0.002C0.347,-0.003 0.346,-0.003 0.345,-0.003C0.344,-0.004 0.343,-0.003 0.342,-0.003C0.341,-0.003 0.341,-0.003 0.341,-0.003C0.341,-0.003 0.341,-0.003 0.341,-0.003C0.34,-0.003 0.339,-0.003 0.339,-0.004C0.339,-0.008 0.343,-0.011 0.346,-0.011C0.35,-0.011 0.353,-0.008 0.354,-0.005C0.355,-0.001 0.353,0.002 0.351,0.004C0.349,0.007 0.345,0.008 0.342,0.007C0.337,0.007 0.333,0.003 0.331,-0.001C0.33,0.011 0.324,0.022 0.316,0.03ZM0.318,-0.018C0.318,-0.016 0.317,-0.015 0.315,-0.014C0.314,-0.014 0.312,-0.014 0.311,-0.014C0.311,-0.013 0.312,-0.013 0.312,-0.012C0.313,-0.011 0.314,-0.01 0.316,-0.01C0.318,-0.01 0.321,-0.013 0.321,-0.015C0.321,-0.018 0.32,-0.021 0.317,-0.023C0.316,-0.023 0.316,-0.023 0.316,-0.023C0.316,-0.023 0.316,-0.023 0.316,-0.022C0.317,-0.022 0.317,-0.021 0.318,-0.021C0.318,-0.02 0.318,-0.019 0.318,-0.018ZM0.346,-0.008C0.345,-0.008 0.344,-0.007 0.343,-0.006C0.344,-0.007 0.345,-0.007 0.346,-0.007C0.348,-0.006 0.349,-0.005 0.351,-0.004C0.351,-0.004 0.351,-0.004 0.351,-0.003C0.351,-0.004 0.351,-0.004 0.351,-0.004C0.351,-0.004 0.351,-0.005 0.35,-0.005C0.35,-0.007 0.348,-0.008 0.346,-0.008ZM0.342,-0.032C0.338,-0.034 0.334,-0.035 0.33,-0.035C0.332,-0.031 0.335,-0.028 0.339,-0.026C0.342,-0.024 0.346,-0.023 0.351,-0.023C0.351,-0.023 0.351,-0.023 0.351,-0.023C0.348,-0.027 0.346,-0.03 0.342,-0.032ZM0.364,-0.01C0.365,-0.006 0.365,-0.002 0.365,0.003L0.377,-0.004C0.372,-0.005 0.368,-0.007 0.364,-0.01ZM0.376,-0.039C0.371,-0.047 0.362,-0.054 0.352,-0.055C0.348,-0.046 0.348,-0.035 0.353,-0.026C0.358,-0.016 0.368,-0.009 0.379,-0.007C0.383,-0.017 0.382,-0.029 0.377,-0.038C0.377,-0.038 0.376,-0.038 0.376,-0.039ZM0.384,-0.021C0.384,-0.017 0.384,-0.012 0.382,-0.007L0.395,-0.014C0.391,-0.016 0.387,-0.018 0.384,-0.021ZM0.402,-0.047C0.402,-0.047 0.402,-0.047 0.402,-0.047C0.402,-0.047 0.402,-0.047 0.402,-0.047C0.402,-0.047 0.401,-0.047 0.401,-0.048C0.396,-0.049 0.39,-0.048 0.387,-0.044C0.383,-0.039 0.382,-0.032 0.385,-0.027C0.387,-0.022 0.392,-0.017 0.398,-0.016L0.445,-0.042C0.444,-0.042 0.444,-0.042 0.443,-0.042C0.432,-0.039 0.42,-0.04 0.409,-0.045C0.409,-0.044 0.41,-0.044 0.41,-0.044C0.412,-0.04 0.412,-0.035 0.41,-0.031C0.409,-0.028 0.406,-0.026 0.403,-0.025C0.4,-0.024 0.396,-0.025 0.394,-0.027C0.391,-0.03 0.391,-0.034 0.392,-0.037C0.394,-0.04 0.399,-0.041 0.402,-0.039C0.403,-0.039 0.403,-0.038 0.402,-0.037C0.402,-0.037 0.402,-0.037 0.402,-0.037C0.402,-0.037 0.402,-0.037 0.402,-0.037C0.401,-0.036 0.4,-0.035 0.399,-0.034C0.399,-0.033 0.399,-0.032 0.399,-0.03C0.399,-0.03 0.4,-0.029 0.401,-0.029C0.402,-0.028 0.403,-0.028 0.403,-0.028C0.404,-0.028 0.404,-0.028 0.404,-0.028C0.405,-0.029 0.407,-0.031 0.408,-0.032C0.409,-0.036 0.409,-0.039 0.407,-0.042C0.406,-0.044 0.404,-0.046 0.402,-0.047ZM0.38,-0.063C0.378,-0.06 0.377,-0.056 0.377,-0.051C0.377,-0.047 0.378,-0.043 0.38,-0.039C0.382,-0.043 0.384,-0.047 0.384,-0.051C0.384,-0.055 0.383,-0.059 0.381,-0.062C0.381,-0.062 0.381,-0.063 0.38,-0.063ZM0.395,-0.035C0.394,-0.033 0.395,-0.031 0.396,-0.029C0.396,-0.029 0.396,-0.029 0.397,-0.029C0.396,-0.029 0.396,-0.029 0.396,-0.03C0.396,-0.031 0.396,-0.033 0.397,-0.035C0.397,-0.036 0.397,-0.036 0.398,-0.037C0.397,-0.037 0.396,-0.036 0.395,-0.035ZM0.398,-0.068C0.398,-0.065 0.399,-0.062 0.402,-0.061C0.404,-0.059 0.408,-0.06 0.409,-0.062C0.41,-0.064 0.41,-0.065 0.409,-0.066C0.409,-0.067 0.409,-0.068 0.408,-0.068C0.408,-0.067 0.407,-0.066 0.407,-0.065C0.405,-0.064 0.402,-0.064 0.401,-0.065C0.4,-0.065 0.399,-0.067 0.398,-0.068C0.398,-0.069 0.398,-0.069 0.398,-0.069C0.398,-0.069 0.398,-0.068 0.398,-0.068ZM0.451,-0.059C0.453,-0.06 0.454,-0.061 0.454,-0.062C0.455,-0.064 0.455,-0.067 0.454,-0.068C0.453,-0.069 0.453,-0.069 0.453,-0.07C0.452,-0.07 0.452,-0.07 0.452,-0.071C0.451,-0.072 0.45,-0.073 0.45,-0.074C0.449,-0.074 0.448,-0.072 0.448,-0.071C0.447,-0.069 0.447,-0.068 0.448,-0.066C0.449,-0.066 0.449,-0.065 0.45,-0.064C0.451,-0.062 0.451,-0.061 0.451,-0.059ZM0.517,-0.105C0.515,-0.104 0.514,-0.101 0.515,-0.099C0.517,-0.097 0.519,-0.096 0.522,-0.098C0.524,-0.099 0.525,-0.102 0.523,-0.104C0.522,-0.106 0.519,-0.107 0.517,-0.105ZM0.537,-0.095C0.537,-0.093 0.539,-0.091 0.541,-0.091C0.542,-0.09 0.544,-0.09 0.545,-0.09C0.546,-0.091 0.546,-0.091 0.545,-0.092C0.545,-0.092 0.544,-0.093 0.543,-0.094L0.543,-0.094C0.542,-0.095 0.541,-0.096 0.54,-0.097C0.539,-0.098 0.538,-0.1 0.538,-0.102C0.537,-0.1 0.536,-0.097 0.537,-0.095Z" style="fill:none;fill-rule:nonzero;"/>
        </g>
        <g transform="matrix(477.848,853.684,853.684,-477.848,68.0488,-114.386)">
            <path d="M0.241,-0.029C0.241,-0.03 0.241,-0.03 0.241,-0.03L0.261,-0.102C0.261,-0.102 0.262,-0.102 0.262,-0.103L0.515,-0.244C0.515,-0.244 0.515,-0.244 0.516,-0.244L0.587,-0.224C0.588,-0.224 0.588,-0.224 0.588,-0.223L0.729,0.029C0.73,0.03 0.73,0.03 0.73,0.03L0.709,0.102C0.709,0.102 0.709,0.102 0.709,0.103L0.456,0.244C0.456,0.244 0.455,0.244 0.455,0.244L0.384,0.224C0.383,0.224 0.383,0.224 0.383,0.223L0.241,-0.029ZM0.516,-0.241L0.264,-0.1L0.244,-0.03L0.385,0.221L0.455,0.241L0.707,0.1L0.727,0.03L0.586,-0.221L0.516,-0.241Z" style="fill:none;fill-rule:nonzero;"/>
        </g>
    </g>
</svg>
