<svg class="multiscroll-bg-image" width="100%" height="100%" viewBox="0 0 600 600" version="1.1" xmlns="http://www.w3.org/2000/svg" xmlns:xlink="http://www.w3.org/1999/xlink" xml:space="preserve" xmlns:serif="http://www.serif.com/" style="fill-rule:evenodd;clip-rule:evenodd;stroke-linejoin:round;stroke-miterlimit:2;">
    <g transform="matrix(500.835,676.927,676.927,-500.835,53.8247,-32.7319)">
        <g class="monogram-single-path-group">
            <path d="M0.214,0.205C0.22,0.179 0.243,0.161 0.27,0.162C0.266,0.153 0.265,0.143 0.266,0.133C0.257,0.156 0.235,0.171 0.21,0.17C0.21,0.17 0.209,0.169 0.209,0.169C0.209,0.169 0.209,0.169 0.209,0.168C0.215,0.144 0.236,0.127 0.26,0.126C0.246,0.123 0.233,0.115 0.225,0.104C0.222,0.103 0.22,0.102 0.218,0.101C0.223,0.11 0.227,0.122 0.223,0.131C0.219,0.14 0.208,0.146 0.199,0.142C0.19,0.14 0.186,0.129 0.19,0.121C0.195,0.114 0.205,0.113 0.208,0.12C0.21,0.12 0.211,0.122 0.211,0.123C0.212,0.126 0.211,0.129 0.208,0.129C0.206,0.13 0.203,0.127 0.203,0.125C0.203,0.123 0.204,0.122 0.205,0.121C0.205,0.121 0.205,0.121 0.205,0.121C0.202,0.115 0.194,0.118 0.192,0.124C0.191,0.127 0.191,0.131 0.193,0.135C0.198,0.142 0.208,0.142 0.215,0.137C0.228,0.128 0.221,0.109 0.213,0.099C0.212,0.097 0.213,0.096 0.215,0.097C0.215,0.097 0.215,0.097 0.215,0.097C0.218,0.098 0.22,0.099 0.223,0.1C0.215,0.087 0.215,0.066 0.231,0.059C0.245,0.052 0.266,0.061 0.265,0.078C0.265,0.084 0.261,0.09 0.255,0.091C0.249,0.093 0.242,0.089 0.24,0.083C0.239,0.082 0.242,0.081 0.242,0.082C0.246,0.092 0.259,0.09 0.262,0.081C0.264,0.073 0.259,0.065 0.252,0.062C0.238,0.056 0.224,0.063 0.221,0.077C0.219,0.086 0.221,0.094 0.226,0.101C0.24,0.105 0.255,0.104 0.266,0.093C0.273,0.085 0.278,0.075 0.276,0.065C0.274,0.056 0.268,0.049 0.262,0.043C0.262,0.043 0.262,0.043 0.262,0.043C0.258,0.039 0.254,0.036 0.25,0.034C0.25,0.038 0.251,0.042 0.254,0.046C0.254,0.047 0.253,0.049 0.252,0.048C0.235,0.041 0.218,0.05 0.209,0.065C0.208,0.065 0.207,0.065 0.206,0.065C0.203,0.061 0.199,0.058 0.195,0.055C0.195,0.054 0.194,0.054 0.194,0.054C0.194,0.053 0.194,0.052 0.195,0.052C0.205,0.032 0.227,0.024 0.247,0.03C0.247,0.03 0.246,0.03 0.246,0.03C0.246,0.02 0.246,0.011 0.24,0.003C0.236,-0.003 0.228,-0.008 0.221,-0.007C0.221,-0.006 0.221,-0.005 0.22,-0.005C0.219,-0.004 0.218,-0.004 0.216,-0.005C0.215,-0.004 0.214,-0.003 0.213,-0.002C0.21,0.004 0.209,0.012 0.215,0.016C0.22,0.02 0.228,0.017 0.229,0.011C0.228,0.011 0.227,0.01 0.226,0.009C0.226,0.009 0.226,0.008 0.226,0.008C0.226,0.008 0.226,0.008 0.226,0.008C0.226,0.008 0.226,0.008 0.226,0.008C0.225,0.006 0.226,0.004 0.228,0.003C0.23,0.003 0.232,0.004 0.233,0.006C0.234,0.007 0.233,0.009 0.232,0.01C0.231,0.019 0.221,0.024 0.213,0.018C0.205,0.012 0.207,-0 0.214,-0.006C0.214,-0.006 0.214,-0.006 0.215,-0.006C0.214,-0.007 0.214,-0.008 0.214,-0.008C0.215,-0.009 0.215,-0.009 0.215,-0.009C0.206,-0.021 0.198,-0.032 0.19,-0.044C0.189,-0.044 0.189,-0.045 0.189,-0.045C0.189,-0.046 0.189,-0.046 0.19,-0.046C0.201,-0.055 0.213,-0.063 0.224,-0.072C0.224,-0.072 0.224,-0.073 0.224,-0.073C0.224,-0.074 0.224,-0.074 0.225,-0.075L0.225,-0.075C0.219,-0.083 0.221,-0.095 0.231,-0.099C0.239,-0.102 0.248,-0.095 0.246,-0.086C0.247,-0.084 0.247,-0.082 0.246,-0.081C0.245,-0.079 0.242,-0.079 0.241,-0.08C0.239,-0.081 0.238,-0.084 0.24,-0.086C0.24,-0.086 0.24,-0.086 0.24,-0.086C0.24,-0.086 0.24,-0.086 0.24,-0.086C0.241,-0.087 0.242,-0.087 0.244,-0.087C0.244,-0.094 0.238,-0.099 0.232,-0.096C0.225,-0.094 0.223,-0.086 0.225,-0.08C0.226,-0.078 0.226,-0.077 0.227,-0.076C0.228,-0.077 0.23,-0.076 0.231,-0.075C0.231,-0.074 0.231,-0.073 0.231,-0.072C0.237,-0.069 0.246,-0.072 0.252,-0.076C0.26,-0.083 0.263,-0.091 0.266,-0.1C0.266,-0.1 0.266,-0.101 0.266,-0.101C0.246,-0.1 0.227,-0.114 0.223,-0.136C0.222,-0.137 0.222,-0.138 0.223,-0.138C0.223,-0.139 0.224,-0.139 0.224,-0.139C0.229,-0.14 0.233,-0.143 0.238,-0.145C0.238,-0.146 0.24,-0.146 0.24,-0.145C0.245,-0.128 0.258,-0.114 0.277,-0.116C0.278,-0.116 0.279,-0.114 0.278,-0.114C0.274,-0.111 0.272,-0.107 0.27,-0.104C0.275,-0.104 0.28,-0.106 0.284,-0.108C0.284,-0.108 0.285,-0.109 0.285,-0.109C0.292,-0.113 0.3,-0.118 0.304,-0.125C0.31,-0.134 0.308,-0.145 0.303,-0.154C0.296,-0.169 0.282,-0.174 0.267,-0.175C0.261,-0.169 0.256,-0.162 0.255,-0.153C0.254,-0.138 0.265,-0.127 0.28,-0.129C0.288,-0.13 0.295,-0.136 0.295,-0.144C0.296,-0.154 0.284,-0.16 0.277,-0.151C0.276,-0.15 0.274,-0.152 0.275,-0.153C0.279,-0.158 0.286,-0.16 0.292,-0.156C0.297,-0.153 0.299,-0.146 0.298,-0.141C0.294,-0.125 0.271,-0.122 0.26,-0.132C0.247,-0.144 0.252,-0.164 0.264,-0.174C0.261,-0.174 0.258,-0.174 0.255,-0.173C0.255,-0.173 0.255,-0.173 0.255,-0.173C0.254,-0.173 0.252,-0.175 0.254,-0.176C0.264,-0.183 0.277,-0.2 0.267,-0.212C0.262,-0.218 0.253,-0.222 0.246,-0.216C0.243,-0.214 0.241,-0.21 0.241,-0.206C0.242,-0.2 0.249,-0.195 0.253,-0.199C0.253,-0.199 0.253,-0.199 0.253,-0.199C0.252,-0.2 0.252,-0.202 0.252,-0.204C0.253,-0.206 0.256,-0.208 0.259,-0.206C0.261,-0.205 0.261,-0.202 0.26,-0.2C0.259,-0.198 0.257,-0.198 0.256,-0.198C0.25,-0.191 0.241,-0.196 0.239,-0.204C0.237,-0.213 0.244,-0.222 0.253,-0.222C0.263,-0.222 0.272,-0.214 0.273,-0.204C0.275,-0.194 0.267,-0.184 0.259,-0.177C0.262,-0.177 0.264,-0.177 0.267,-0.177C0.278,-0.186 0.293,-0.19 0.307,-0.188C0.284,-0.197 0.269,-0.219 0.271,-0.244C0.271,-0.244 0.271,-0.244 0.271,-0.244C0.271,-0.245 0.272,-0.245 0.272,-0.245C0.296,-0.238 0.313,-0.218 0.315,-0.193C0.316,-0.203 0.32,-0.212 0.327,-0.22C0.301,-0.227 0.284,-0.25 0.286,-0.277C0.286,-0.277 0.286,-0.278 0.286,-0.278C0.286,-0.278 0.287,-0.278 0.287,-0.278C0.313,-0.271 0.33,-0.248 0.33,-0.222C0.339,-0.226 0.349,-0.227 0.358,-0.226C0.336,-0.234 0.321,-0.256 0.322,-0.282C0.322,-0.282 0.322,-0.282 0.322,-0.282C0.323,-0.283 0.323,-0.283 0.323,-0.283C0.347,-0.276 0.364,-0.256 0.366,-0.231C0.368,-0.245 0.376,-0.258 0.388,-0.267C0.389,-0.269 0.389,-0.272 0.391,-0.274C0.382,-0.268 0.369,-0.264 0.36,-0.268C0.352,-0.272 0.346,-0.283 0.349,-0.293C0.352,-0.301 0.363,-0.306 0.371,-0.301C0.378,-0.297 0.379,-0.287 0.371,-0.283C0.371,-0.282 0.37,-0.281 0.368,-0.28C0.366,-0.28 0.363,-0.281 0.362,-0.283C0.362,-0.286 0.364,-0.288 0.367,-0.288C0.368,-0.289 0.37,-0.288 0.371,-0.286C0.371,-0.286 0.371,-0.286 0.371,-0.286C0.377,-0.289 0.373,-0.297 0.368,-0.299C0.364,-0.301 0.36,-0.3 0.357,-0.298C0.349,-0.293 0.35,-0.283 0.354,-0.277C0.364,-0.264 0.383,-0.271 0.393,-0.279C0.394,-0.28 0.396,-0.278 0.395,-0.277C0.395,-0.277 0.395,-0.277 0.395,-0.276C0.393,-0.274 0.392,-0.271 0.391,-0.269C0.405,-0.277 0.425,-0.276 0.433,-0.26C0.439,-0.247 0.43,-0.226 0.414,-0.227C0.408,-0.227 0.402,-0.231 0.4,-0.237C0.399,-0.243 0.402,-0.249 0.408,-0.252C0.41,-0.252 0.411,-0.25 0.409,-0.249C0.4,-0.246 0.401,-0.233 0.411,-0.23C0.419,-0.227 0.426,-0.233 0.43,-0.24C0.436,-0.253 0.429,-0.268 0.414,-0.271C0.405,-0.273 0.397,-0.27 0.39,-0.266C0.386,-0.252 0.387,-0.237 0.399,-0.226C0.406,-0.218 0.416,-0.213 0.427,-0.216C0.435,-0.218 0.442,-0.224 0.448,-0.23C0.448,-0.23 0.448,-0.23 0.449,-0.23C0.452,-0.233 0.455,-0.238 0.457,-0.242C0.453,-0.242 0.449,-0.241 0.445,-0.238C0.444,-0.237 0.443,-0.238 0.443,-0.239C0.451,-0.256 0.441,-0.273 0.427,-0.283C0.426,-0.284 0.426,-0.285 0.427,-0.285C0.431,-0.289 0.434,-0.292 0.437,-0.297C0.437,-0.297 0.437,-0.297 0.438,-0.297C0.438,-0.298 0.439,-0.297 0.44,-0.297C0.46,-0.287 0.468,-0.264 0.461,-0.245C0.461,-0.245 0.461,-0.245 0.461,-0.245C0.471,-0.245 0.48,-0.246 0.488,-0.251C0.495,-0.256 0.5,-0.263 0.498,-0.27C0.498,-0.27 0.497,-0.271 0.496,-0.271C0.495,-0.272 0.495,-0.274 0.496,-0.275C0.495,-0.276 0.494,-0.277 0.493,-0.278C0.488,-0.282 0.48,-0.282 0.476,-0.277C0.471,-0.271 0.474,-0.264 0.481,-0.263C0.481,-0.264 0.482,-0.265 0.483,-0.266C0.483,-0.266 0.483,-0.266 0.483,-0.266C0.483,-0.266 0.483,-0.266 0.483,-0.266C0.485,-0.267 0.488,-0.266 0.488,-0.263C0.489,-0.261 0.488,-0.259 0.486,-0.258C0.484,-0.258 0.482,-0.258 0.481,-0.26C0.472,-0.261 0.468,-0.271 0.473,-0.278C0.48,-0.287 0.492,-0.284 0.498,-0.277L0.498,-0.277C0.499,-0.277 0.499,-0.277 0.5,-0.277C0.5,-0.277 0.501,-0.277 0.501,-0.277C0.512,-0.285 0.524,-0.294 0.535,-0.302C0.536,-0.302 0.536,-0.302 0.537,-0.302C0.537,-0.302 0.538,-0.302 0.538,-0.302C0.546,-0.29 0.555,-0.279 0.563,-0.267C0.564,-0.267 0.564,-0.267 0.565,-0.267C0.565,-0.267 0.566,-0.267 0.566,-0.267C0.566,-0.267 0.567,-0.267 0.567,-0.267C0.575,-0.272 0.587,-0.271 0.59,-0.261C0.593,-0.252 0.586,-0.244 0.577,-0.245C0.576,-0.244 0.574,-0.244 0.572,-0.245C0.571,-0.247 0.57,-0.249 0.572,-0.251C0.573,-0.253 0.575,-0.253 0.577,-0.252C0.577,-0.252 0.577,-0.252 0.577,-0.252C0.577,-0.252 0.577,-0.252 0.577,-0.252C0.577,-0.252 0.578,-0.252 0.578,-0.251C0.579,-0.25 0.579,-0.249 0.579,-0.248C0.585,-0.247 0.59,-0.254 0.588,-0.26C0.585,-0.266 0.577,-0.269 0.571,-0.266C0.57,-0.266 0.569,-0.265 0.568,-0.264C0.568,-0.263 0.568,-0.262 0.566,-0.261C0.565,-0.26 0.565,-0.26 0.564,-0.26C0.56,-0.254 0.563,-0.245 0.568,-0.239C0.574,-0.232 0.583,-0.229 0.592,-0.226C0.592,-0.226 0.592,-0.225 0.592,-0.225C0.592,-0.246 0.606,-0.265 0.628,-0.269C0.629,-0.269 0.63,-0.269 0.63,-0.269C0.63,-0.268 0.63,-0.268 0.63,-0.268C0.632,-0.263 0.634,-0.258 0.637,-0.254C0.637,-0.253 0.637,-0.252 0.636,-0.252C0.619,-0.247 0.606,-0.233 0.608,-0.215C0.608,-0.213 0.606,-0.213 0.605,-0.214C0.602,-0.218 0.599,-0.22 0.595,-0.221C0.596,-0.217 0.597,-0.212 0.6,-0.207C0.6,-0.207 0.6,-0.207 0.6,-0.207C0.604,-0.199 0.609,-0.192 0.617,-0.187C0.626,-0.182 0.637,-0.184 0.646,-0.189C0.66,-0.196 0.666,-0.21 0.666,-0.224C0.661,-0.231 0.654,-0.235 0.645,-0.236C0.63,-0.238 0.619,-0.226 0.621,-0.211C0.622,-0.204 0.627,-0.196 0.636,-0.196C0.646,-0.196 0.651,-0.208 0.643,-0.214C0.642,-0.215 0.643,-0.217 0.645,-0.216C0.65,-0.212 0.651,-0.205 0.648,-0.2C0.645,-0.194 0.638,-0.192 0.632,-0.194C0.616,-0.198 0.614,-0.221 0.624,-0.232C0.636,-0.245 0.655,-0.239 0.666,-0.228C0.666,-0.231 0.665,-0.233 0.665,-0.236C0.665,-0.236 0.665,-0.236 0.665,-0.237C0.664,-0.238 0.666,-0.239 0.667,-0.238C0.675,-0.227 0.691,-0.215 0.704,-0.225C0.71,-0.23 0.713,-0.239 0.708,-0.246C0.705,-0.249 0.701,-0.251 0.697,-0.25C0.691,-0.25 0.686,-0.243 0.691,-0.238C0.691,-0.238 0.691,-0.238 0.691,-0.238C0.692,-0.239 0.694,-0.24 0.695,-0.239C0.698,-0.238 0.699,-0.235 0.698,-0.233C0.697,-0.231 0.693,-0.231 0.691,-0.232C0.69,-0.233 0.689,-0.234 0.689,-0.236C0.683,-0.241 0.687,-0.251 0.695,-0.253C0.704,-0.255 0.713,-0.247 0.713,-0.238C0.714,-0.228 0.705,-0.22 0.696,-0.218C0.686,-0.217 0.675,-0.225 0.668,-0.232C0.669,-0.23 0.669,-0.227 0.669,-0.225C0.678,-0.213 0.681,-0.199 0.679,-0.185C0.688,-0.207 0.71,-0.222 0.735,-0.221C0.735,-0.221 0.736,-0.221 0.736,-0.221C0.736,-0.22 0.736,-0.22 0.736,-0.22C0.73,-0.195 0.709,-0.179 0.685,-0.177C0.695,-0.175 0.704,-0.171 0.711,-0.165C0.719,-0.19 0.742,-0.207 0.769,-0.206C0.769,-0.206 0.769,-0.206 0.769,-0.206C0.77,-0.205 0.77,-0.205 0.77,-0.205C0.763,-0.179 0.74,-0.161 0.713,-0.162C0.717,-0.153 0.718,-0.143 0.717,-0.133C0.726,-0.156 0.748,-0.171 0.773,-0.17C0.773,-0.17 0.774,-0.169 0.774,-0.169C0.774,-0.169 0.774,-0.169 0.774,-0.168C0.768,-0.144 0.747,-0.127 0.723,-0.126C0.737,-0.123 0.75,-0.115 0.758,-0.104C0.761,-0.103 0.763,-0.102 0.765,-0.101C0.76,-0.11 0.756,-0.122 0.76,-0.131C0.764,-0.14 0.775,-0.146 0.784,-0.143C0.793,-0.14 0.797,-0.129 0.793,-0.121C0.789,-0.114 0.778,-0.113 0.775,-0.12C0.773,-0.12 0.772,-0.122 0.772,-0.123C0.771,-0.126 0.772,-0.129 0.775,-0.129C0.777,-0.13 0.78,-0.127 0.78,-0.125C0.78,-0.123 0.779,-0.122 0.778,-0.121C0.778,-0.121 0.778,-0.121 0.778,-0.121C0.781,-0.115 0.789,-0.118 0.791,-0.124C0.793,-0.127 0.792,-0.131 0.79,-0.135C0.785,-0.142 0.775,-0.142 0.768,-0.137C0.755,-0.128 0.763,-0.109 0.77,-0.099C0.771,-0.097 0.77,-0.096 0.768,-0.097C0.768,-0.097 0.768,-0.097 0.768,-0.097C0.766,-0.098 0.763,-0.099 0.76,-0.1C0.768,-0.087 0.768,-0.066 0.752,-0.059C0.738,-0.052 0.717,-0.061 0.718,-0.078C0.718,-0.084 0.722,-0.09 0.728,-0.091C0.734,-0.093 0.741,-0.089 0.743,-0.083C0.744,-0.082 0.741,-0.081 0.741,-0.082C0.737,-0.092 0.724,-0.09 0.721,-0.081C0.719,-0.073 0.724,-0.065 0.732,-0.062C0.745,-0.056 0.759,-0.063 0.762,-0.077C0.764,-0.086 0.762,-0.094 0.757,-0.101C0.743,-0.105 0.728,-0.104 0.717,-0.093C0.71,-0.085 0.705,-0.075 0.707,-0.065C0.709,-0.056 0.715,-0.049 0.721,-0.043C0.721,-0.043 0.721,-0.043 0.721,-0.043C0.725,-0.039 0.729,-0.036 0.734,-0.034C0.733,-0.038 0.732,-0.042 0.729,-0.046C0.729,-0.047 0.73,-0.049 0.731,-0.048C0.748,-0.041 0.765,-0.05 0.775,-0.065C0.775,-0.065 0.776,-0.065 0.777,-0.065C0.78,-0.061 0.784,-0.058 0.788,-0.055C0.788,-0.054 0.789,-0.054 0.789,-0.054C0.789,-0.053 0.789,-0.052 0.788,-0.052C0.778,-0.032 0.756,-0.024 0.737,-0.03C0.737,-0.03 0.737,-0.03 0.737,-0.03C0.737,-0.02 0.737,-0.011 0.743,-0.003C0.747,0.003 0.755,0.008 0.762,0.007C0.762,0.006 0.762,0.005 0.763,0.005C0.764,0.004 0.766,0.004 0.767,0.005C0.768,0.004 0.769,0.003 0.77,0.002C0.773,-0.004 0.774,-0.012 0.768,-0.016C0.763,-0.02 0.756,-0.017 0.754,-0.011C0.755,-0.011 0.756,-0.01 0.757,-0.009C0.757,-0.009 0.757,-0.008 0.757,-0.008C0.757,-0.008 0.757,-0.008 0.757,-0.008C0.757,-0.008 0.757,-0.008 0.757,-0.008C0.758,-0.006 0.757,-0.004 0.755,-0.003C0.753,-0.003 0.751,-0.004 0.75,-0.006C0.749,-0.007 0.75,-0.009 0.751,-0.01C0.752,-0.019 0.762,-0.024 0.77,-0.018C0.778,-0.012 0.776,0 0.769,0.006C0.769,0.006 0.769,0.006 0.769,0.006C0.769,0.007 0.769,0.008 0.769,0.008C0.769,0.009 0.768,0.009 0.768,0.009C0.777,0.021 0.785,0.032 0.794,0.044C0.794,0.044 0.794,0.045 0.794,0.045C0.794,0.046 0.794,0.046 0.793,0.046C0.782,0.055 0.77,0.063 0.759,0.072C0.759,0.072 0.759,0.073 0.759,0.073C0.759,0.074 0.759,0.074 0.758,0.075L0.759,0.075C0.764,0.083 0.762,0.095 0.752,0.099C0.744,0.102 0.735,0.095 0.737,0.086C0.736,0.084 0.736,0.082 0.737,0.081C0.738,0.079 0.741,0.079 0.742,0.08C0.744,0.081 0.745,0.084 0.743,0.086C0.743,0.086 0.743,0.086 0.743,0.086C0.743,0.086 0.743,0.086 0.743,0.086C0.742,0.087 0.741,0.087 0.739,0.087C0.739,0.094 0.745,0.099 0.752,0.096C0.758,0.094 0.76,0.086 0.758,0.08C0.757,0.078 0.757,0.077 0.756,0.076C0.755,0.077 0.753,0.076 0.752,0.075C0.752,0.074 0.752,0.073 0.752,0.072C0.746,0.069 0.737,0.072 0.731,0.076C0.723,0.083 0.72,0.091 0.717,0.1C0.717,0.1 0.717,0.101 0.717,0.101C0.737,0.1 0.756,0.114 0.76,0.136C0.761,0.137 0.761,0.138 0.76,0.138C0.76,0.139 0.759,0.139 0.759,0.139C0.754,0.14 0.75,0.143 0.745,0.145C0.745,0.146 0.744,0.146 0.743,0.145C0.738,0.128 0.725,0.114 0.706,0.116C0.705,0.116 0.704,0.114 0.705,0.114C0.709,0.111 0.711,0.107 0.713,0.104C0.708,0.104 0.703,0.106 0.699,0.108C0.699,0.108 0.698,0.109 0.698,0.109C0.691,0.113 0.683,0.118 0.679,0.125C0.673,0.134 0.676,0.145 0.68,0.154C0.687,0.169 0.701,0.174 0.716,0.175C0.722,0.169 0.727,0.162 0.728,0.153C0.729,0.138 0.718,0.127 0.703,0.129C0.695,0.13 0.688,0.136 0.688,0.144C0.688,0.154 0.7,0.16 0.706,0.151C0.707,0.15 0.709,0.152 0.708,0.153C0.704,0.158 0.697,0.16 0.691,0.156C0.686,0.153 0.684,0.146 0.685,0.141C0.689,0.125 0.712,0.122 0.723,0.132C0.736,0.144 0.731,0.164 0.719,0.174C0.722,0.174 0.725,0.174 0.728,0.173C0.728,0.173 0.728,0.173 0.728,0.173C0.729,0.173 0.731,0.175 0.729,0.176C0.719,0.183 0.707,0.2 0.716,0.212C0.721,0.218 0.73,0.222 0.737,0.216C0.74,0.214 0.742,0.21 0.742,0.206C0.741,0.2 0.735,0.195 0.73,0.199C0.73,0.199 0.73,0.199 0.73,0.199C0.731,0.2 0.731,0.202 0.731,0.204C0.73,0.206 0.727,0.208 0.725,0.206C0.722,0.205 0.722,0.202 0.723,0.2C0.724,0.198 0.726,0.198 0.727,0.198C0.733,0.191 0.742,0.196 0.744,0.204C0.746,0.213 0.739,0.222 0.73,0.222C0.72,0.222 0.711,0.214 0.71,0.204C0.709,0.194 0.716,0.184 0.724,0.177C0.721,0.177 0.719,0.177 0.716,0.177C0.705,0.186 0.69,0.19 0.676,0.188C0.699,0.197 0.714,0.219 0.712,0.244C0.712,0.244 0.712,0.244 0.712,0.244C0.712,0.245 0.711,0.245 0.711,0.245C0.687,0.238 0.67,0.218 0.668,0.193C0.667,0.203 0.663,0.212 0.656,0.22C0.682,0.227 0.699,0.25 0.697,0.277C0.697,0.277 0.697,0.278 0.697,0.278C0.697,0.278 0.697,0.278 0.696,0.278C0.67,0.271 0.653,0.248 0.653,0.222C0.644,0.226 0.634,0.227 0.625,0.226C0.648,0.234 0.662,0.256 0.661,0.282C0.661,0.282 0.661,0.282 0.661,0.282C0.661,0.283 0.66,0.283 0.66,0.282C0.636,0.276 0.619,0.256 0.617,0.231C0.615,0.245 0.607,0.258 0.595,0.267C0.595,0.269 0.594,0.272 0.593,0.274C0.601,0.268 0.614,0.264 0.623,0.268C0.632,0.272 0.637,0.283 0.634,0.293C0.631,0.301 0.62,0.306 0.612,0.301C0.605,0.297 0.604,0.287 0.612,0.283C0.612,0.282 0.613,0.281 0.615,0.28C0.617,0.28 0.62,0.281 0.621,0.283C0.621,0.286 0.619,0.288 0.616,0.288C0.615,0.289 0.613,0.288 0.612,0.286C0.612,0.286 0.612,0.286 0.612,0.286C0.607,0.289 0.61,0.297 0.615,0.299C0.619,0.301 0.623,0.3 0.626,0.298C0.634,0.293 0.633,0.283 0.629,0.277C0.619,0.264 0.6,0.271 0.59,0.279C0.589,0.28 0.587,0.278 0.588,0.277C0.588,0.277 0.588,0.277 0.588,0.276C0.59,0.274 0.591,0.271 0.592,0.269C0.578,0.277 0.558,0.276 0.55,0.26C0.544,0.247 0.553,0.226 0.569,0.227C0.575,0.227 0.581,0.231 0.583,0.237C0.584,0.243 0.581,0.249 0.575,0.252C0.573,0.252 0.572,0.25 0.574,0.249C0.584,0.246 0.582,0.233 0.572,0.23C0.564,0.227 0.557,0.233 0.553,0.24C0.547,0.253 0.554,0.268 0.569,0.271C0.578,0.273 0.586,0.27 0.593,0.266C0.597,0.252 0.596,0.237 0.584,0.226C0.577,0.218 0.567,0.213 0.556,0.216C0.548,0.218 0.541,0.224 0.535,0.23C0.535,0.23 0.535,0.23 0.535,0.23C0.531,0.233 0.528,0.238 0.526,0.242C0.53,0.242 0.534,0.241 0.538,0.238C0.539,0.237 0.54,0.238 0.54,0.239C0.533,0.256 0.542,0.273 0.556,0.283C0.557,0.284 0.557,0.285 0.556,0.285C0.552,0.289 0.549,0.292 0.546,0.297C0.546,0.297 0.546,0.297 0.545,0.297C0.545,0.298 0.544,0.297 0.543,0.297C0.523,0.287 0.515,0.264 0.522,0.245C0.522,0.245 0.522,0.245 0.522,0.245C0.512,0.245 0.503,0.246 0.495,0.251C0.488,0.256 0.483,0.263 0.485,0.27C0.485,0.27 0.486,0.271 0.487,0.271C0.488,0.272 0.488,0.274 0.487,0.275C0.488,0.276 0.489,0.277 0.49,0.278C0.495,0.282 0.503,0.282 0.507,0.277C0.512,0.271 0.509,0.264 0.502,0.263C0.502,0.264 0.502,0.265 0.5,0.266C0.5,0.266 0.5,0.266 0.5,0.266C0.5,0.266 0.5,0.266 0.5,0.266C0.498,0.267 0.495,0.266 0.495,0.263C0.494,0.261 0.495,0.259 0.497,0.258C0.499,0.258 0.501,0.258 0.502,0.26C0.511,0.261 0.515,0.271 0.51,0.278C0.503,0.287 0.491,0.284 0.485,0.277L0.485,0.277C0.484,0.277 0.484,0.277 0.483,0.277C0.483,0.277 0.482,0.277 0.482,0.277C0.471,0.285 0.459,0.294 0.448,0.302C0.447,0.302 0.447,0.302 0.446,0.302C0.446,0.302 0.445,0.302 0.445,0.302C0.437,0.29 0.428,0.279 0.42,0.267C0.419,0.267 0.419,0.267 0.418,0.267C0.418,0.267 0.417,0.267 0.417,0.267C0.417,0.267 0.417,0.267 0.416,0.267C0.409,0.272 0.396,0.271 0.393,0.261C0.39,0.252 0.397,0.244 0.406,0.245C0.407,0.244 0.409,0.244 0.411,0.245C0.412,0.247 0.413,0.249 0.412,0.251C0.41,0.253 0.408,0.253 0.406,0.252C0.406,0.252 0.406,0.252 0.406,0.252C0.406,0.252 0.406,0.252 0.406,0.252C0.406,0.252 0.406,0.252 0.405,0.251C0.405,0.25 0.404,0.249 0.404,0.248C0.398,0.247 0.393,0.254 0.395,0.26C0.398,0.266 0.406,0.269 0.412,0.266C0.413,0.266 0.414,0.265 0.415,0.264C0.415,0.263 0.415,0.262 0.417,0.261C0.418,0.26 0.418,0.26 0.419,0.26C0.423,0.254 0.42,0.245 0.415,0.239C0.409,0.232 0.4,0.229 0.391,0.226C0.391,0.226 0.391,0.225 0.391,0.225C0.391,0.246 0.377,0.265 0.355,0.269C0.355,0.269 0.354,0.269 0.353,0.269C0.353,0.268 0.353,0.268 0.353,0.268C0.351,0.263 0.349,0.258 0.346,0.254C0.346,0.253 0.346,0.252 0.347,0.252C0.364,0.247 0.377,0.233 0.375,0.215C0.375,0.213 0.377,0.213 0.378,0.214C0.381,0.218 0.384,0.22 0.388,0.221C0.387,0.217 0.386,0.212 0.383,0.207C0.383,0.207 0.383,0.207 0.383,0.207C0.379,0.199 0.374,0.192 0.367,0.187C0.357,0.182 0.346,0.184 0.337,0.189C0.323,0.196 0.317,0.21 0.317,0.224C0.322,0.231 0.329,0.235 0.338,0.236C0.353,0.238 0.364,0.226 0.362,0.211C0.361,0.204 0.356,0.196 0.347,0.196C0.337,0.196 0.332,0.208 0.34,0.214C0.342,0.215 0.34,0.217 0.338,0.216C0.333,0.212 0.332,0.205 0.335,0.2C0.338,0.194 0.345,0.192 0.351,0.194C0.367,0.198 0.369,0.221 0.359,0.232C0.347,0.245 0.328,0.239 0.317,0.228C0.317,0.231 0.318,0.233 0.318,0.236C0.318,0.236 0.318,0.236 0.318,0.237C0.319,0.238 0.317,0.239 0.316,0.238C0.308,0.227 0.292,0.215 0.279,0.225C0.273,0.23 0.27,0.239 0.275,0.246C0.278,0.249 0.282,0.251 0.286,0.25C0.292,0.25 0.297,0.243 0.292,0.238C0.292,0.238 0.292,0.238 0.292,0.238C0.291,0.239 0.289,0.24 0.288,0.239C0.285,0.238 0.284,0.235 0.285,0.233C0.286,0.231 0.29,0.231 0.292,0.232C0.293,0.233 0.294,0.234 0.294,0.236C0.3,0.241 0.296,0.251 0.288,0.253C0.279,0.255 0.27,0.247 0.27,0.238C0.27,0.228 0.278,0.22 0.287,0.218C0.297,0.217 0.308,0.225 0.315,0.232C0.315,0.23 0.314,0.227 0.314,0.225C0.306,0.213 0.302,0.199 0.304,0.185C0.295,0.207 0.273,0.222 0.248,0.221C0.248,0.221 0.247,0.221 0.247,0.221C0.247,0.22 0.247,0.22 0.247,0.22C0.253,0.195 0.274,0.179 0.298,0.177C0.288,0.175 0.279,0.171 0.272,0.165C0.265,0.19 0.241,0.207 0.215,0.206C0.214,0.206 0.214,0.206 0.214,0.206C0.214,0.205 0.213,0.205 0.214,0.205ZM0.217,0.203C0.241,0.204 0.262,0.188 0.269,0.165C0.245,0.164 0.224,0.18 0.217,0.203ZM0.25,0.218C0.275,0.218 0.296,0.203 0.303,0.18C0.278,0.179 0.257,0.195 0.25,0.218ZM0.212,0.167C0.237,0.167 0.258,0.152 0.265,0.128C0.24,0.128 0.219,0.144 0.212,0.167ZM0.288,0.234C0.286,0.236 0.29,0.238 0.291,0.236C0.291,0.236 0.291,0.235 0.291,0.235C0.291,0.235 0.291,0.235 0.291,0.235C0.29,0.234 0.288,0.233 0.288,0.234ZM0.208,0.123C0.208,0.123 0.207,0.123 0.207,0.123C0.205,0.123 0.206,0.127 0.208,0.126C0.209,0.126 0.209,0.124 0.208,0.123C0.208,0.123 0.208,0.123 0.208,0.123ZM0.308,0.177C0.308,0.177 0.308,0.177 0.308,0.177C0.304,0.19 0.306,0.208 0.314,0.221C0.315,0.206 0.322,0.193 0.336,0.186C0.345,0.182 0.355,0.179 0.364,0.183C0.373,0.187 0.38,0.196 0.384,0.204C0.384,0.204 0.385,0.204 0.385,0.204C0.388,0.21 0.39,0.216 0.391,0.222C0.395,0.224 0.398,0.225 0.402,0.226C0.408,0.229 0.414,0.233 0.418,0.239C0.423,0.246 0.426,0.255 0.421,0.262C0.422,0.262 0.422,0.263 0.422,0.263C0.422,0.264 0.422,0.265 0.422,0.266C0.43,0.277 0.438,0.288 0.447,0.299C0.458,0.291 0.469,0.283 0.481,0.274C0.481,0.274 0.481,0.273 0.481,0.272C0.481,0.272 0.482,0.271 0.482,0.271C0.48,0.263 0.485,0.255 0.492,0.25C0.498,0.246 0.504,0.243 0.511,0.243C0.515,0.242 0.519,0.242 0.523,0.242C0.525,0.237 0.529,0.231 0.534,0.227C0.534,0.227 0.534,0.226 0.534,0.226C0.541,0.22 0.55,0.213 0.56,0.212C0.57,0.211 0.579,0.217 0.586,0.224C0.597,0.234 0.6,0.249 0.596,0.263C0.608,0.253 0.615,0.237 0.615,0.223C0.615,0.223 0.615,0.223 0.615,0.223C0.614,0.221 0.612,0.219 0.611,0.217C0.611,0.226 0.608,0.235 0.603,0.243C0.603,0.244 0.601,0.243 0.601,0.242C0.601,0.229 0.593,0.219 0.582,0.215C0.581,0.215 0.58,0.214 0.581,0.213C0.583,0.21 0.585,0.207 0.586,0.204C0.58,0.203 0.574,0.201 0.567,0.2C0.553,0.199 0.54,0.204 0.53,0.214C0.531,0.216 0.531,0.219 0.53,0.221C0.53,0.222 0.53,0.222 0.529,0.222C0.527,0.225 0.523,0.226 0.521,0.224C0.518,0.222 0.517,0.217 0.519,0.214C0.521,0.212 0.525,0.211 0.527,0.212C0.527,0.212 0.527,0.212 0.527,0.212C0.536,0.204 0.548,0.198 0.561,0.198C0.57,0.197 0.578,0.2 0.587,0.201C0.589,0.196 0.59,0.191 0.589,0.186C0.599,0.189 0.608,0.189 0.618,0.186C0.619,0.185 0.62,0.186 0.62,0.187C0.62,0.191 0.621,0.194 0.622,0.198C0.626,0.196 0.63,0.194 0.634,0.192C0.637,0.189 0.64,0.186 0.642,0.183C0.64,0.18 0.636,0.179 0.633,0.177C0.632,0.177 0.632,0.176 0.632,0.175C0.638,0.167 0.641,0.158 0.641,0.148C0.646,0.15 0.651,0.15 0.656,0.15C0.657,0.142 0.657,0.133 0.66,0.124C0.664,0.112 0.673,0.102 0.684,0.096C0.684,0.096 0.684,0.096 0.684,0.096C0.684,0.093 0.686,0.09 0.689,0.089C0.692,0.088 0.696,0.09 0.697,0.093C0.698,0.096 0.696,0.1 0.693,0.101C0.693,0.101 0.692,0.101 0.692,0.101C0.69,0.102 0.687,0.101 0.685,0.099C0.673,0.106 0.664,0.117 0.661,0.131C0.66,0.137 0.659,0.144 0.659,0.15C0.662,0.15 0.666,0.149 0.669,0.148C0.67,0.147 0.671,0.148 0.671,0.149C0.672,0.161 0.679,0.171 0.691,0.175C0.692,0.176 0.693,0.178 0.691,0.178C0.682,0.18 0.673,0.18 0.664,0.178C0.666,0.18 0.667,0.182 0.668,0.184C0.668,0.184 0.668,0.184 0.669,0.184C0.682,0.187 0.7,0.185 0.712,0.177C0.698,0.176 0.685,0.17 0.678,0.156C0.673,0.147 0.671,0.136 0.675,0.127C0.679,0.118 0.687,0.112 0.695,0.107C0.696,0.107 0.696,0.107 0.696,0.107C0.702,0.103 0.708,0.101 0.714,0.101C0.715,0.097 0.716,0.093 0.718,0.089C0.721,0.083 0.725,0.078 0.73,0.074C0.737,0.068 0.747,0.066 0.754,0.07C0.754,0.07 0.754,0.07 0.755,0.07C0.756,0.069 0.756,0.07 0.757,0.07C0.768,0.062 0.78,0.053 0.791,0.045C0.783,0.033 0.774,0.022 0.766,0.011C0.765,0.011 0.764,0.011 0.764,0.01C0.763,0.01 0.763,0.01 0.763,0.01C0.755,0.012 0.746,0.007 0.741,-0C0.737,-0.006 0.735,-0.013 0.734,-0.019C0.734,-0.023 0.734,-0.027 0.734,-0.031C0.728,-0.034 0.723,-0.037 0.718,-0.042C0.718,-0.043 0.718,-0.043 0.718,-0.043C0.711,-0.05 0.705,-0.058 0.704,-0.068C0.703,-0.078 0.708,-0.087 0.715,-0.094C0.726,-0.106 0.74,-0.108 0.755,-0.105C0.745,-0.116 0.728,-0.123 0.715,-0.124C0.714,-0.124 0.714,-0.124 0.714,-0.124C0.712,-0.122 0.711,-0.121 0.709,-0.119C0.718,-0.119 0.727,-0.117 0.734,-0.112C0.736,-0.111 0.735,-0.109 0.734,-0.109C0.721,-0.109 0.711,-0.102 0.707,-0.09C0.706,-0.089 0.705,-0.089 0.705,-0.089C0.702,-0.092 0.698,-0.093 0.695,-0.095C0.694,-0.088 0.693,-0.082 0.692,-0.076C0.691,-0.062 0.696,-0.048 0.706,-0.038C0.708,-0.04 0.711,-0.04 0.713,-0.038C0.713,-0.038 0.713,-0.038 0.714,-0.038C0.717,-0.036 0.717,-0.032 0.715,-0.029C0.713,-0.026 0.709,-0.026 0.706,-0.028C0.704,-0.03 0.703,-0.033 0.704,-0.036C0.704,-0.036 0.704,-0.036 0.704,-0.036C0.695,-0.045 0.69,-0.057 0.689,-0.069C0.689,-0.078 0.691,-0.087 0.693,-0.096C0.688,-0.097 0.683,-0.098 0.677,-0.098C0.681,-0.107 0.681,-0.117 0.677,-0.126C0.677,-0.127 0.678,-0.128 0.678,-0.128C0.682,-0.128 0.686,-0.129 0.689,-0.131C0.688,-0.135 0.686,-0.138 0.683,-0.142C0.681,-0.145 0.678,-0.148 0.674,-0.151C0.672,-0.148 0.67,-0.145 0.669,-0.141C0.668,-0.14 0.667,-0.14 0.667,-0.141C0.659,-0.147 0.649,-0.149 0.639,-0.149C0.641,-0.154 0.642,-0.159 0.642,-0.164C0.633,-0.166 0.624,-0.166 0.616,-0.169C0.604,-0.173 0.594,-0.182 0.588,-0.193C0.588,-0.193 0.588,-0.193 0.588,-0.193C0.585,-0.192 0.582,-0.194 0.581,-0.197C0.58,-0.2 0.581,-0.204 0.585,-0.205C0.588,-0.207 0.592,-0.205 0.593,-0.201C0.593,-0.201 0.593,-0.201 0.593,-0.201C0.594,-0.198 0.593,-0.195 0.59,-0.194C0.597,-0.181 0.609,-0.172 0.623,-0.169C0.629,-0.168 0.635,-0.168 0.642,-0.167C0.641,-0.171 0.641,-0.174 0.639,-0.178C0.639,-0.178 0.64,-0.179 0.641,-0.179C0.653,-0.18 0.663,-0.188 0.667,-0.199C0.667,-0.201 0.669,-0.201 0.669,-0.2C0.672,-0.191 0.672,-0.182 0.669,-0.173C0.671,-0.174 0.673,-0.175 0.675,-0.177C0.675,-0.177 0.675,-0.177 0.675,-0.177C0.679,-0.19 0.677,-0.208 0.669,-0.221C0.668,-0.206 0.661,-0.193 0.647,-0.186C0.639,-0.182 0.628,-0.179 0.619,-0.183C0.61,-0.187 0.603,-0.196 0.599,-0.204C0.599,-0.204 0.598,-0.204 0.598,-0.204C0.595,-0.21 0.593,-0.216 0.592,-0.222C0.589,-0.224 0.585,-0.225 0.581,-0.226C0.575,-0.229 0.569,-0.233 0.565,-0.239C0.56,-0.246 0.557,-0.255 0.562,-0.262C0.561,-0.262 0.561,-0.263 0.561,-0.263C0.561,-0.264 0.561,-0.265 0.561,-0.266C0.553,-0.277 0.545,-0.288 0.536,-0.299C0.525,-0.291 0.514,-0.283 0.502,-0.274C0.502,-0.274 0.502,-0.273 0.502,-0.272C0.502,-0.272 0.501,-0.271 0.501,-0.271C0.503,-0.263 0.498,-0.255 0.491,-0.25C0.486,-0.246 0.479,-0.243 0.472,-0.243C0.468,-0.242 0.464,-0.242 0.46,-0.242C0.458,-0.237 0.454,-0.231 0.449,-0.227C0.449,-0.227 0.449,-0.226 0.449,-0.226C0.442,-0.22 0.433,-0.213 0.423,-0.212C0.413,-0.211 0.404,-0.217 0.397,-0.224C0.386,-0.234 0.384,-0.249 0.387,-0.263C0.375,-0.253 0.368,-0.237 0.368,-0.223C0.368,-0.223 0.368,-0.223 0.368,-0.223C0.369,-0.221 0.371,-0.219 0.372,-0.217C0.372,-0.226 0.375,-0.235 0.38,-0.243C0.381,-0.244 0.382,-0.243 0.382,-0.242C0.382,-0.229 0.39,-0.219 0.402,-0.215C0.402,-0.215 0.403,-0.214 0.402,-0.213C0.4,-0.21 0.398,-0.207 0.397,-0.204C0.403,-0.203 0.409,-0.201 0.416,-0.2C0.43,-0.199 0.443,-0.204 0.454,-0.214C0.452,-0.216 0.452,-0.219 0.453,-0.221C0.453,-0.222 0.453,-0.222 0.454,-0.222C0.456,-0.225 0.46,-0.226 0.463,-0.224C0.465,-0.222 0.466,-0.217 0.464,-0.214C0.462,-0.212 0.459,-0.211 0.456,-0.212C0.456,-0.212 0.456,-0.212 0.456,-0.212C0.447,-0.204 0.435,-0.198 0.422,-0.198C0.413,-0.197 0.405,-0.2 0.396,-0.201C0.394,-0.196 0.394,-0.191 0.394,-0.186C0.384,-0.189 0.375,-0.189 0.365,-0.186C0.364,-0.185 0.363,-0.186 0.363,-0.187C0.363,-0.191 0.362,-0.194 0.361,-0.198C0.357,-0.196 0.353,-0.194 0.35,-0.192C0.346,-0.189 0.343,-0.186 0.341,-0.183C0.343,-0.18 0.347,-0.179 0.35,-0.177C0.351,-0.177 0.351,-0.176 0.351,-0.175C0.345,-0.167 0.342,-0.158 0.342,-0.148C0.337,-0.15 0.332,-0.15 0.327,-0.15C0.326,-0.142 0.326,-0.133 0.323,-0.124C0.319,-0.112 0.31,-0.102 0.299,-0.096C0.299,-0.096 0.299,-0.096 0.299,-0.096C0.299,-0.093 0.297,-0.09 0.295,-0.089C0.291,-0.088 0.287,-0.09 0.286,-0.093C0.285,-0.097 0.287,-0.1 0.29,-0.101C0.29,-0.101 0.291,-0.101 0.291,-0.101C0.294,-0.102 0.297,-0.101 0.298,-0.099C0.31,-0.106 0.319,-0.117 0.322,-0.131C0.323,-0.137 0.324,-0.144 0.325,-0.15C0.321,-0.15 0.317,-0.149 0.314,-0.148C0.313,-0.147 0.312,-0.148 0.312,-0.149C0.311,-0.161 0.304,-0.171 0.292,-0.175C0.291,-0.176 0.29,-0.178 0.292,-0.178C0.301,-0.18 0.31,-0.18 0.319,-0.178C0.317,-0.18 0.316,-0.182 0.315,-0.184C0.315,-0.184 0.315,-0.184 0.315,-0.184C0.301,-0.187 0.283,-0.185 0.271,-0.177C0.285,-0.176 0.298,-0.17 0.305,-0.156C0.31,-0.147 0.312,-0.136 0.308,-0.127C0.304,-0.118 0.296,-0.112 0.288,-0.107C0.287,-0.107 0.287,-0.107 0.287,-0.107C0.281,-0.103 0.275,-0.101 0.269,-0.101C0.268,-0.097 0.267,-0.093 0.265,-0.089C0.262,-0.083 0.258,-0.078 0.253,-0.074C0.246,-0.068 0.237,-0.066 0.23,-0.07C0.229,-0.07 0.229,-0.07 0.228,-0.07C0.227,-0.069 0.227,-0.07 0.226,-0.07C0.215,-0.062 0.203,-0.053 0.192,-0.045C0.201,-0.033 0.209,-0.022 0.217,-0.011C0.218,-0.011 0.219,-0.011 0.219,-0.01C0.22,-0.01 0.22,-0.01 0.22,-0.01C0.228,-0.012 0.237,-0.007 0.242,0C0.246,0.006 0.248,0.013 0.249,0.019C0.249,0.023 0.249,0.027 0.249,0.031C0.255,0.034 0.26,0.037 0.265,0.042C0.265,0.043 0.265,0.043 0.265,0.043C0.272,0.05 0.278,0.058 0.279,0.068C0.28,0.078 0.275,0.087 0.268,0.094C0.257,0.106 0.243,0.108 0.229,0.105C0.238,0.116 0.255,0.123 0.269,0.124C0.269,0.124 0.269,0.124 0.269,0.124C0.271,0.122 0.272,0.121 0.274,0.119C0.265,0.119 0.257,0.117 0.249,0.112C0.247,0.111 0.248,0.109 0.249,0.109C0.262,0.109 0.272,0.102 0.276,0.09C0.277,0.089 0.278,0.089 0.278,0.089C0.281,0.092 0.285,0.093 0.288,0.095C0.289,0.088 0.291,0.082 0.291,0.076C0.292,0.062 0.287,0.048 0.278,0.038C0.275,0.04 0.272,0.04 0.27,0.038C0.27,0.038 0.27,0.038 0.269,0.038C0.267,0.036 0.266,0.032 0.268,0.029C0.27,0.026 0.274,0.026 0.277,0.028C0.279,0.03 0.28,0.033 0.279,0.036C0.279,0.036 0.279,0.036 0.279,0.036C0.288,0.045 0.293,0.057 0.294,0.069C0.294,0.078 0.292,0.087 0.29,0.096C0.295,0.097 0.3,0.098 0.306,0.098C0.302,0.107 0.302,0.117 0.306,0.126C0.306,0.127 0.305,0.128 0.305,0.128C0.301,0.128 0.297,0.129 0.294,0.131C0.295,0.135 0.297,0.138 0.3,0.142C0.302,0.145 0.305,0.148 0.309,0.151C0.311,0.148 0.313,0.145 0.314,0.141C0.315,0.14 0.316,0.14 0.316,0.141C0.325,0.147 0.334,0.149 0.344,0.149C0.342,0.154 0.341,0.159 0.341,0.164C0.35,0.166 0.359,0.166 0.367,0.169C0.379,0.173 0.389,0.182 0.395,0.193C0.395,0.193 0.395,0.193 0.395,0.193C0.398,0.192 0.401,0.194 0.402,0.197C0.404,0.2 0.402,0.204 0.398,0.205C0.395,0.207 0.391,0.205 0.39,0.201C0.39,0.201 0.39,0.201 0.39,0.201C0.389,0.198 0.39,0.195 0.393,0.194C0.386,0.181 0.374,0.172 0.36,0.169C0.354,0.168 0.348,0.168 0.341,0.167C0.342,0.171 0.343,0.174 0.344,0.178C0.344,0.178 0.343,0.179 0.343,0.179C0.33,0.18 0.32,0.188 0.316,0.199C0.316,0.201 0.314,0.201 0.314,0.2C0.311,0.191 0.311,0.182 0.314,0.173C0.312,0.174 0.31,0.175 0.308,0.177ZM0.27,0.127C0.267,0.137 0.268,0.151 0.273,0.162C0.282,0.17 0.295,0.174 0.305,0.175C0.308,0.174 0.31,0.172 0.312,0.171C0.303,0.17 0.294,0.168 0.287,0.163C0.285,0.162 0.286,0.161 0.287,0.161C0.295,0.161 0.302,0.158 0.307,0.153C0.303,0.15 0.3,0.147 0.297,0.144C0.295,0.14 0.293,0.136 0.291,0.132C0.285,0.135 0.281,0.141 0.278,0.148C0.278,0.149 0.276,0.15 0.276,0.148C0.273,0.139 0.273,0.13 0.276,0.122C0.274,0.123 0.272,0.125 0.27,0.127ZM0.378,0.218C0.378,0.236 0.365,0.248 0.349,0.254C0.352,0.258 0.353,0.262 0.355,0.266C0.376,0.262 0.389,0.244 0.388,0.224C0.384,0.223 0.381,0.221 0.378,0.218ZM0.197,0.053C0.201,0.056 0.204,0.058 0.207,0.062C0.217,0.048 0.233,0.039 0.25,0.044C0.248,0.041 0.247,0.037 0.247,0.033C0.228,0.026 0.207,0.034 0.197,0.053ZM0.328,0.164C0.324,0.166 0.321,0.168 0.317,0.171C0.315,0.178 0.314,0.186 0.315,0.195C0.32,0.184 0.329,0.178 0.341,0.177C0.34,0.173 0.339,0.17 0.339,0.167C0.335,0.166 0.331,0.165 0.328,0.164ZM0.309,0.154C0.305,0.159 0.299,0.162 0.292,0.163C0.299,0.167 0.308,0.168 0.316,0.168C0.319,0.166 0.322,0.164 0.325,0.162C0.319,0.16 0.314,0.158 0.309,0.154ZM0.279,0.119C0.277,0.127 0.276,0.135 0.277,0.143C0.28,0.137 0.285,0.132 0.291,0.129C0.289,0.124 0.288,0.118 0.288,0.112C0.285,0.114 0.282,0.116 0.279,0.119ZM0.278,0.093C0.274,0.103 0.265,0.11 0.254,0.112C0.261,0.115 0.269,0.117 0.277,0.117C0.281,0.114 0.284,0.111 0.287,0.109C0.287,0.105 0.287,0.101 0.288,0.097C0.284,0.096 0.281,0.095 0.278,0.093ZM0.316,0.144C0.315,0.147 0.313,0.15 0.311,0.152C0.316,0.156 0.322,0.158 0.328,0.16C0.332,0.158 0.335,0.155 0.338,0.152C0.33,0.151 0.323,0.148 0.316,0.144ZM0.291,0.11C0.29,0.116 0.291,0.122 0.293,0.128C0.296,0.127 0.299,0.126 0.303,0.126C0.3,0.118 0.3,0.11 0.302,0.102C0.298,0.104 0.294,0.107 0.291,0.11ZM0.33,0.162C0.333,0.163 0.336,0.163 0.339,0.164C0.339,0.161 0.339,0.157 0.34,0.154C0.337,0.157 0.334,0.159 0.33,0.162ZM0.29,0.098C0.29,0.101 0.29,0.104 0.29,0.107C0.293,0.104 0.296,0.102 0.3,0.1C0.297,0.1 0.293,0.099 0.29,0.098ZM0.407,0.249C0.407,0.249 0.408,0.25 0.408,0.25C0.409,0.251 0.41,0.248 0.409,0.247C0.408,0.247 0.406,0.248 0.407,0.249C0.407,0.249 0.407,0.249 0.407,0.249C0.407,0.249 0.407,0.249 0.407,0.249ZM0.228,0.007C0.228,0.007 0.228,0.007 0.228,0.008C0.228,0.008 0.228,0.008 0.228,0.008C0.229,0.009 0.231,0.008 0.231,0.007C0.231,0.007 0.231,0.006 0.231,0.006C0.23,0.005 0.228,0.006 0.228,0.007ZM0.396,0.195C0.393,0.196 0.392,0.198 0.393,0.2C0.393,0.2 0.393,0.201 0.393,0.201C0.395,0.205 0.401,0.203 0.4,0.198C0.4,0.198 0.399,0.197 0.399,0.197C0.398,0.196 0.397,0.195 0.396,0.195ZM0.275,0.03C0.271,0.027 0.268,0.032 0.27,0.035C0.271,0.035 0.271,0.035 0.271,0.036C0.273,0.038 0.276,0.037 0.277,0.035C0.277,0.033 0.277,0.032 0.276,0.031C0.276,0.03 0.275,0.03 0.275,0.03ZM0.498,0.261C0.497,0.261 0.497,0.264 0.499,0.263C0.499,0.263 0.499,0.263 0.499,0.263C0.499,0.263 0.499,0.263 0.499,0.263C0.5,0.263 0.5,0.262 0.5,0.261C0.499,0.261 0.499,0.261 0.498,0.261ZM0.242,-0.084C0.242,-0.084 0.242,-0.084 0.242,-0.084C0.242,-0.084 0.242,-0.084 0.242,-0.084C0.241,-0.083 0.243,-0.081 0.244,-0.083C0.244,-0.083 0.244,-0.084 0.244,-0.084C0.244,-0.085 0.243,-0.085 0.242,-0.084ZM0.525,0.245C0.518,0.263 0.525,0.285 0.544,0.294C0.547,0.291 0.55,0.287 0.553,0.284C0.54,0.275 0.531,0.258 0.536,0.242C0.532,0.244 0.529,0.245 0.525,0.245ZM0.226,-0.137C0.229,-0.116 0.248,-0.102 0.267,-0.103C0.269,-0.107 0.27,-0.11 0.273,-0.113C0.256,-0.113 0.243,-0.126 0.238,-0.142C0.234,-0.14 0.23,-0.138 0.226,-0.137ZM0.526,0.215C0.524,0.214 0.522,0.215 0.521,0.216C0.519,0.22 0.524,0.224 0.527,0.221C0.527,0.221 0.527,0.22 0.527,0.22C0.529,0.219 0.529,0.217 0.528,0.216C0.527,0.216 0.527,0.215 0.526,0.215ZM0.291,-0.098C0.291,-0.098 0.291,-0.098 0.29,-0.098C0.287,-0.096 0.289,-0.091 0.293,-0.092C0.295,-0.092 0.296,-0.094 0.296,-0.096C0.296,-0.097 0.296,-0.097 0.296,-0.098C0.295,-0.099 0.293,-0.099 0.291,-0.098ZM0.614,0.283C0.615,0.284 0.615,0.284 0.615,0.284C0.615,0.287 0.619,0.286 0.618,0.284C0.618,0.283 0.618,0.283 0.618,0.283C0.617,0.282 0.615,0.283 0.614,0.283ZM0.257,-0.204C0.256,-0.205 0.253,-0.202 0.256,-0.201C0.256,-0.201 0.256,-0.201 0.256,-0.2C0.257,-0.201 0.258,-0.203 0.258,-0.204C0.257,-0.204 0.257,-0.204 0.257,-0.204ZM0.6,0.204C0.596,0.205 0.593,0.205 0.589,0.204C0.588,0.207 0.586,0.21 0.584,0.213C0.595,0.218 0.601,0.227 0.603,0.238C0.607,0.23 0.609,0.222 0.608,0.214C0.606,0.211 0.603,0.208 0.6,0.204ZM0.315,-0.151C0.318,-0.152 0.321,-0.153 0.325,-0.153C0.326,-0.157 0.326,-0.16 0.328,-0.164C0.326,-0.167 0.323,-0.171 0.321,-0.174C0.313,-0.177 0.305,-0.178 0.297,-0.176C0.302,-0.174 0.306,-0.171 0.309,-0.167C0.312,-0.162 0.314,-0.157 0.315,-0.151ZM0.62,0.227C0.619,0.251 0.635,0.272 0.659,0.279C0.659,0.267 0.655,0.256 0.648,0.247C0.641,0.237 0.631,0.23 0.62,0.227ZM0.273,-0.241C0.273,-0.217 0.289,-0.196 0.312,-0.189C0.312,-0.201 0.308,-0.213 0.302,-0.222C0.295,-0.231 0.285,-0.238 0.273,-0.241ZM0.59,0.201C0.593,0.202 0.596,0.202 0.598,0.202C0.596,0.199 0.594,0.195 0.592,0.192C0.592,0.195 0.591,0.198 0.59,0.201ZM0.328,-0.153C0.331,-0.153 0.334,-0.153 0.338,-0.152C0.335,-0.155 0.332,-0.158 0.33,-0.161C0.329,-0.159 0.328,-0.156 0.328,-0.153ZM0.594,0.19C0.596,0.194 0.598,0.198 0.601,0.201C0.608,0.201 0.614,0.2 0.62,0.199C0.618,0.196 0.617,0.192 0.617,0.189C0.609,0.191 0.602,0.192 0.594,0.19ZM0.339,-0.181C0.336,-0.176 0.333,-0.17 0.331,-0.164C0.334,-0.16 0.337,-0.157 0.34,-0.154C0.341,-0.161 0.343,-0.169 0.348,-0.175C0.344,-0.177 0.342,-0.178 0.339,-0.181ZM0.603,0.204C0.606,0.207 0.608,0.209 0.61,0.212C0.618,0.215 0.626,0.216 0.635,0.214C0.629,0.211 0.624,0.207 0.621,0.201C0.615,0.203 0.609,0.204 0.603,0.204ZM0.323,-0.176C0.325,-0.172 0.327,-0.169 0.329,-0.166C0.331,-0.172 0.334,-0.178 0.337,-0.182C0.333,-0.187 0.33,-0.193 0.329,-0.2C0.325,-0.192 0.323,-0.184 0.323,-0.176ZM0.64,0.216C0.631,0.218 0.622,0.218 0.613,0.216C0.615,0.218 0.617,0.22 0.618,0.222C0.629,0.224 0.642,0.224 0.654,0.219C0.661,0.21 0.666,0.197 0.667,0.186C0.665,0.184 0.664,0.182 0.662,0.18C0.662,0.189 0.659,0.197 0.655,0.205C0.654,0.206 0.652,0.205 0.652,0.204C0.652,0.196 0.649,0.19 0.644,0.185C0.642,0.188 0.639,0.191 0.635,0.194C0.631,0.197 0.627,0.199 0.623,0.2C0.627,0.206 0.632,0.211 0.64,0.213C0.64,0.213 0.64,0.214 0.64,0.214C0.641,0.215 0.641,0.216 0.64,0.216ZM0.365,-0.222C0.354,-0.224 0.341,-0.224 0.33,-0.219C0.322,-0.21 0.317,-0.197 0.316,-0.186C0.318,-0.184 0.319,-0.182 0.321,-0.18C0.321,-0.189 0.324,-0.197 0.328,-0.205C0.329,-0.206 0.331,-0.205 0.331,-0.204C0.331,-0.196 0.334,-0.19 0.339,-0.185C0.341,-0.188 0.344,-0.191 0.348,-0.194C0.352,-0.197 0.356,-0.199 0.36,-0.2C0.356,-0.206 0.351,-0.211 0.343,-0.213C0.342,-0.214 0.342,-0.216 0.343,-0.216C0.352,-0.218 0.361,-0.218 0.37,-0.216C0.368,-0.218 0.366,-0.22 0.365,-0.222ZM0.656,0.222C0.656,0.247 0.671,0.268 0.695,0.275C0.695,0.263 0.691,0.251 0.684,0.242C0.678,0.233 0.668,0.226 0.656,0.222ZM0.288,-0.275C0.288,-0.25 0.303,-0.229 0.327,-0.222C0.327,-0.235 0.323,-0.246 0.317,-0.255C0.31,-0.264 0.3,-0.271 0.288,-0.275ZM0.643,0.154C0.642,0.161 0.64,0.169 0.635,0.175C0.639,0.177 0.641,0.178 0.644,0.181C0.647,0.176 0.65,0.17 0.652,0.164C0.651,0.163 0.65,0.162 0.65,0.161C0.648,0.158 0.646,0.156 0.643,0.154ZM0.382,-0.201C0.375,-0.201 0.369,-0.2 0.363,-0.199C0.365,-0.196 0.366,-0.192 0.366,-0.189C0.374,-0.191 0.381,-0.192 0.389,-0.19C0.388,-0.193 0.386,-0.196 0.384,-0.198C0.383,-0.199 0.383,-0.2 0.382,-0.201ZM0.654,0.2C0.658,0.192 0.66,0.184 0.66,0.175C0.658,0.172 0.656,0.169 0.654,0.166C0.652,0.172 0.649,0.178 0.646,0.182C0.647,0.183 0.648,0.185 0.649,0.186C0.652,0.19 0.654,0.194 0.654,0.2ZM0.373,-0.212C0.365,-0.215 0.357,-0.216 0.348,-0.214C0.354,-0.211 0.359,-0.207 0.362,-0.201C0.368,-0.203 0.374,-0.204 0.38,-0.204C0.378,-0.207 0.375,-0.209 0.373,-0.212ZM0.671,0.189C0.671,0.213 0.686,0.234 0.71,0.241C0.71,0.229 0.706,0.218 0.699,0.209C0.692,0.199 0.683,0.192 0.671,0.189ZM0.325,-0.279C0.324,-0.255 0.34,-0.234 0.363,-0.227C0.363,-0.239 0.36,-0.25 0.353,-0.26C0.346,-0.269 0.336,-0.276 0.325,-0.279ZM0.645,0.152C0.648,0.155 0.651,0.158 0.653,0.161C0.654,0.159 0.655,0.156 0.655,0.153C0.652,0.153 0.649,0.153 0.645,0.152ZM0.391,-0.192C0.392,-0.195 0.392,-0.198 0.393,-0.201C0.39,-0.202 0.387,-0.202 0.385,-0.202C0.385,-0.201 0.386,-0.2 0.386,-0.2C0.388,-0.197 0.39,-0.194 0.391,-0.192ZM0.658,0.153C0.658,0.157 0.657,0.16 0.655,0.164C0.658,0.167 0.66,0.171 0.662,0.174C0.67,0.177 0.678,0.178 0.686,0.176C0.676,0.171 0.67,0.162 0.668,0.151C0.665,0.152 0.662,0.153 0.658,0.153ZM0.375,-0.214C0.377,-0.211 0.38,-0.208 0.383,-0.204C0.387,-0.205 0.39,-0.205 0.394,-0.204C0.395,-0.207 0.397,-0.21 0.399,-0.213C0.388,-0.218 0.382,-0.227 0.38,-0.238C0.376,-0.23 0.375,-0.222 0.375,-0.214ZM0.728,0.201C0.727,0.201 0.727,0.201 0.727,0.2C0.726,0.201 0.725,0.203 0.726,0.204C0.727,0.205 0.729,0.203 0.728,0.201C0.728,0.201 0.728,0.201 0.728,0.201ZM0.365,-0.284C0.366,-0.282 0.368,-0.282 0.369,-0.283C0.368,-0.284 0.368,-0.284 0.368,-0.284C0.368,-0.285 0.368,-0.285 0.368,-0.285C0.367,-0.286 0.364,-0.285 0.365,-0.284ZM0.69,0.092C0.688,0.092 0.687,0.094 0.687,0.096C0.687,0.098 0.69,0.1 0.692,0.098C0.692,0.098 0.692,0.098 0.693,0.098C0.695,0.097 0.695,0.095 0.694,0.093C0.693,0.092 0.692,0.091 0.69,0.092ZM0.456,-0.221C0.456,-0.221 0.456,-0.22 0.456,-0.22C0.454,-0.219 0.455,-0.216 0.457,-0.215C0.459,-0.214 0.461,-0.215 0.462,-0.216C0.463,-0.218 0.463,-0.219 0.462,-0.221C0.461,-0.222 0.458,-0.223 0.456,-0.221ZM0.716,0.103C0.715,0.107 0.713,0.11 0.71,0.113C0.727,0.113 0.74,0.126 0.745,0.142C0.749,0.14 0.753,0.138 0.757,0.137C0.756,0.13 0.754,0.124 0.75,0.119C0.742,0.109 0.729,0.103 0.716,0.103ZM0.447,-0.242C0.451,-0.244 0.454,-0.245 0.458,-0.245C0.465,-0.263 0.458,-0.285 0.439,-0.294C0.436,-0.291 0.433,-0.287 0.43,-0.284C0.434,-0.281 0.438,-0.278 0.441,-0.274C0.448,-0.264 0.451,-0.253 0.447,-0.242ZM0.739,0.083C0.738,0.084 0.74,0.085 0.741,0.084C0.741,0.084 0.741,0.084 0.741,0.084C0.741,0.084 0.741,0.084 0.741,0.084C0.742,0.083 0.742,0.083 0.741,0.083C0.741,0.082 0.74,0.082 0.739,0.083ZM0.484,-0.263C0.484,-0.263 0.484,-0.263 0.484,-0.263C0.484,-0.263 0.484,-0.263 0.484,-0.263C0.482,-0.262 0.484,-0.26 0.485,-0.261C0.486,-0.261 0.486,-0.262 0.486,-0.263C0.485,-0.263 0.485,-0.264 0.484,-0.263ZM0.713,-0.035C0.712,-0.035 0.712,-0.035 0.712,-0.036C0.71,-0.038 0.707,-0.037 0.706,-0.035C0.706,-0.033 0.706,-0.031 0.708,-0.03C0.712,-0.027 0.715,-0.032 0.713,-0.035C0.713,-0.035 0.713,-0.035 0.713,-0.035ZM0.583,-0.198C0.584,-0.196 0.586,-0.195 0.588,-0.195C0.59,-0.196 0.591,-0.198 0.59,-0.2C0.59,-0.2 0.59,-0.201 0.59,-0.201C0.59,-0.201 0.59,-0.202 0.59,-0.202C0.587,-0.205 0.582,-0.202 0.583,-0.198ZM0.752,-0.007C0.753,-0.005 0.756,-0.006 0.755,-0.007C0.755,-0.007 0.755,-0.007 0.755,-0.008C0.755,-0.008 0.755,-0.008 0.755,-0.008C0.755,-0.008 0.755,-0.008 0.755,-0.008C0.755,-0.008 0.755,-0.008 0.755,-0.008C0.754,-0.009 0.752,-0.008 0.752,-0.007ZM0.576,-0.249C0.576,-0.249 0.575,-0.25 0.575,-0.25C0.574,-0.251 0.573,-0.248 0.574,-0.247C0.575,-0.247 0.577,-0.248 0.576,-0.249C0.576,-0.249 0.576,-0.249 0.576,-0.249C0.576,-0.249 0.576,-0.249 0.576,-0.249C0.576,-0.249 0.576,-0.249 0.576,-0.249ZM0.68,-0.126C0.683,-0.118 0.683,-0.11 0.681,-0.102C0.685,-0.104 0.689,-0.107 0.693,-0.11C0.693,-0.116 0.692,-0.122 0.69,-0.128C0.687,-0.127 0.684,-0.126 0.68,-0.126ZM0.655,-0.16C0.652,-0.158 0.648,-0.155 0.645,-0.152C0.653,-0.151 0.66,-0.148 0.667,-0.144C0.668,-0.147 0.67,-0.15 0.672,-0.152C0.667,-0.156 0.661,-0.158 0.655,-0.16ZM0.683,-0.1C0.687,-0.1 0.69,-0.099 0.693,-0.098C0.693,-0.101 0.693,-0.104 0.693,-0.107C0.69,-0.104 0.687,-0.102 0.683,-0.1ZM0.644,-0.164C0.645,-0.161 0.644,-0.157 0.643,-0.154C0.646,-0.157 0.649,-0.159 0.653,-0.162C0.65,-0.163 0.647,-0.163 0.644,-0.164ZM0.776,-0.062C0.766,-0.048 0.75,-0.039 0.734,-0.044C0.735,-0.041 0.736,-0.037 0.736,-0.033C0.755,-0.026 0.776,-0.034 0.786,-0.053C0.782,-0.056 0.779,-0.058 0.776,-0.062ZM0.595,-0.224C0.599,-0.223 0.602,-0.221 0.605,-0.218C0.605,-0.236 0.618,-0.248 0.634,-0.254C0.631,-0.258 0.63,-0.262 0.628,-0.266C0.607,-0.262 0.594,-0.244 0.595,-0.224ZM0.706,-0.117C0.702,-0.114 0.699,-0.111 0.696,-0.109C0.696,-0.105 0.696,-0.101 0.696,-0.097C0.699,-0.096 0.702,-0.095 0.705,-0.093C0.709,-0.103 0.718,-0.11 0.729,-0.112C0.722,-0.115 0.714,-0.117 0.706,-0.117ZM0.642,-0.177C0.643,-0.173 0.644,-0.17 0.644,-0.167C0.648,-0.166 0.652,-0.165 0.655,-0.164C0.659,-0.166 0.662,-0.168 0.666,-0.171C0.668,-0.178 0.669,-0.186 0.668,-0.195C0.663,-0.184 0.654,-0.178 0.642,-0.177ZM0.693,-0.129C0.694,-0.124 0.695,-0.118 0.695,-0.112C0.698,-0.114 0.701,-0.116 0.704,-0.119C0.706,-0.127 0.707,-0.135 0.706,-0.143C0.703,-0.137 0.698,-0.132 0.693,-0.129ZM0.667,-0.168C0.664,-0.166 0.661,-0.164 0.658,-0.162C0.664,-0.16 0.669,-0.158 0.674,-0.154C0.679,-0.159 0.684,-0.162 0.691,-0.163C0.684,-0.167 0.676,-0.168 0.667,-0.168ZM0.692,-0.132C0.698,-0.135 0.702,-0.141 0.705,-0.148C0.705,-0.149 0.707,-0.15 0.707,-0.148C0.71,-0.139 0.71,-0.13 0.707,-0.122C0.709,-0.123 0.711,-0.125 0.713,-0.127C0.716,-0.137 0.715,-0.151 0.71,-0.162C0.701,-0.17 0.689,-0.174 0.678,-0.175C0.675,-0.174 0.673,-0.172 0.671,-0.171C0.68,-0.17 0.689,-0.168 0.697,-0.163C0.698,-0.162 0.697,-0.161 0.696,-0.161C0.688,-0.161 0.681,-0.158 0.676,-0.153C0.68,-0.15 0.683,-0.147 0.686,-0.144C0.688,-0.14 0.69,-0.136 0.692,-0.132ZM0.718,-0.128C0.743,-0.128 0.764,-0.144 0.771,-0.167C0.746,-0.167 0.725,-0.152 0.718,-0.128ZM0.68,-0.18C0.705,-0.179 0.726,-0.195 0.733,-0.218C0.709,-0.218 0.687,-0.203 0.68,-0.18ZM0.714,-0.165C0.738,-0.164 0.759,-0.18 0.766,-0.203C0.742,-0.204 0.721,-0.188 0.714,-0.165ZM0.775,-0.126C0.774,-0.126 0.774,-0.123 0.775,-0.123C0.775,-0.123 0.776,-0.123 0.776,-0.123C0.777,-0.123 0.777,-0.125 0.777,-0.126C0.776,-0.126 0.776,-0.127 0.775,-0.126ZM0.692,-0.236C0.692,-0.236 0.692,-0.235 0.692,-0.235C0.692,-0.234 0.695,-0.233 0.695,-0.234C0.696,-0.235 0.696,-0.235 0.695,-0.236C0.695,-0.237 0.693,-0.237 0.692,-0.236Z"/>
        </g>
    </g>
</svg>
