<svg class="multiscroll-bg-image" width="100%" height="100%" viewBox="0 0 600 600" version="1.1" xmlns="http://www.w3.org/2000/svg" xmlns:xlink="http://www.w3.org/1999/xlink" xml:space="preserve" xmlns:serif="http://www.serif.com/" style="fill-rule:evenodd;clip-rule:evenodd;stroke-linejoin:round;stroke-miterlimit:2;">
    <g class="monogram-multi-path-group monogram-multi-circle-group monogram-multi-ellipse-group">
        <g transform="matrix(413.318,485.989,485.989,-413.318,89.8716,52.9237)">
            <path d="M0.068,-0.034C0.067,-0.035 0.067,-0.036 0.068,-0.037L0.543,-0.441C0.543,-0.441 0.545,-0.441 0.545,-0.44L0.949,0.034C0.95,0.035 0.949,0.036 0.949,0.037L0.474,0.441C0.473,0.441 0.472,0.441 0.472,0.44L0.068,-0.034ZM0.072,-0.035L0.473,0.437L0.945,0.035L0.544,-0.437L0.072,-0.035Z" style="fill:none;fill-rule:nonzero;"/>
        </g>
        <g transform="matrix(4.51816e-13,637.978,637.978,-4.51816e-13,300.002,-77.2398)">
            <ellipse cx="0.243" cy="-0" rx="0.008" ry="0.008" style="fill:none;"/>
        </g>
        <g transform="matrix(-4.64725e-12,637.979,637.979,4.64725e-12,522.015,-168.181)">
            <ellipse cx="0.734" cy="0" rx="0.008" ry="0.008" style="fill:none;"/>
        </g>
        <g transform="matrix(-6.19633e-12,637.978,637.978,6.19633e-12,300.001,28.5448)">
            <circle cx="0.773" cy="0" r="0.008" style="fill:none;"/>
        </g>
        <g transform="matrix(2.06544e-12,637.979,637.979,-2.06544e-12,77.9857,119.486)">
            <circle cx="0.283" cy="0" r="0.008" style="fill:none;"/>
        </g>
        <g transform="matrix(-5.2927e-12,637.97,637.97,5.2927e-12,324.552,-96.2211)">
            <circle cx="0.253" cy="0" r="0.004" style="fill:none;"/>
        </g>
        <g transform="matrix(4.96997e-12,637.968,637.968,-4.96997e-12,65.0653,122.011)">
            <ellipse cx="0.241" cy="-0" rx="0.004" ry="0.004" style="fill:none;"/>
        </g>
        <g transform="matrix(-2.32362e-12,637.971,637.971,2.32362e-12,275.449,47.5346)">
            <ellipse cx="0.764" cy="0" rx="0.004" ry="0.004" style="fill:none;"/>
        </g>
        <g transform="matrix(7.55177e-12,637.968,637.968,-7.55177e-12,534.939,-170.695)">
            <circle cx="0.776" cy="-0" r="0.004" style="fill:none;"/>
        </g>
        <g transform="matrix(7.55177e-12,637.968,637.968,-7.55177e-12,534.939,-182.394)">
            <circle cx="0.718" cy="-0" r="0.004" style="fill:none;"/>
        </g>
        <g transform="matrix(-2.32362e-12,637.971,637.971,2.32362e-12,275.449,-64.4106)">
            <circle cx="0.203" cy="0" r="0.004" style="fill:none;"/>
        </g>
        <g transform="matrix(-8.39086e-12,637.968,637.968,8.39086e-12,65.066,133.709)">
            <ellipse cx="0.299" cy="-0" rx="0.004" ry="0.004" style="fill:none;"/>
        </g>
        <g transform="matrix(-5.2927e-12,637.97,637.97,5.2927e-12,324.552,15.7243)">
            <ellipse cx="0.814" cy="0" rx="0.004" ry="0.004" style="fill:none;"/>
        </g>
        <g transform="matrix(-7.42268e-12,637.965,637.965,7.42268e-12,390.101,-137.453)">
            <ellipse cx="0.326" cy="-0" rx="0.004" ry="0.004" style="fill:none;"/>
        </g>
        <g transform="matrix(7.68086e-12,637.964,637.964,-7.68086e-12,70.2326,103.047)">
            <circle cx="0.167" cy="0" r="0.004" style="fill:none;"/>
        </g>
        <g transform="matrix(-7.80995e-12,637.967,637.967,7.80995e-12,209.902,88.7713)">
            <circle cx="0.691" cy="0" r="0.004" style="fill:none;"/>
        </g>
        <g transform="matrix(4.71179e-12,637.964,637.964,-4.71179e-12,529.768,-151.726)">
            <ellipse cx="0.849" cy="0" rx="0.004" ry="0.004" style="fill:none;"/>
        </g>
        <g transform="matrix(4.71179e-12,637.964,637.964,-4.71179e-12,529.769,-194.659)">
            <ellipse cx="0.634" cy="-0" rx="0.004" ry="0.004" style="fill:none;"/>
        </g>
        <g transform="matrix(-7.80995e-12,637.967,637.967,7.80995e-12,209.903,-20.7144)">
            <ellipse cx="0.143" cy="-0" rx="0.004" ry="0.004" style="fill:none;"/>
        </g>
        <g transform="matrix(7.68086e-12,637.964,637.964,-7.68086e-12,70.2321,145.98)">
            <circle cx="0.383" cy="0" r="0.004" style="fill:none;"/>
        </g>
        <g transform="matrix(5.8736e-12,637.965,637.965,-5.8736e-12,390.1,-27.9675)">
            <circle cx="0.874" cy="0" r="0.004" style="fill:none;"/>
        </g>
        <g transform="matrix(413.32,485.991,485.991,-413.32,188.307,-30.7929)">
            <path d="M0.247,0.017C0.252,0.005 0.253,-0.007 0.251,-0.02C0.251,-0.021 0.252,-0.022 0.253,-0.022C0.254,-0.022 0.255,-0.022 0.255,-0.021C0.257,-0.008 0.255,0.004 0.252,0.016C0.264,0.014 0.276,0.015 0.288,0.018C0.288,0.019 0.289,0.019 0.289,0.019C0.289,0.019 0.289,0.02 0.289,0.021C0.289,0.022 0.288,0.022 0.287,0.022C0.275,0.018 0.262,0.017 0.249,0.02C0.249,0.02 0.248,0.02 0.248,0.019C0.247,0.019 0.247,0.018 0.247,0.017Z" style="fill:none;fill-rule:nonzero;"/>
        </g>
        <g transform="matrix(413.316,485.987,485.987,-413.316,206.51,-46.2709)">
            <path d="M0.689,0.015C0.689,0.014 0.689,0.014 0.69,0.013C0.703,0.012 0.715,0.013 0.727,0.017C0.725,0.005 0.726,-0.008 0.729,-0.02C0.73,-0.021 0.731,-0.021 0.732,-0.021C0.732,-0.021 0.732,-0.021 0.732,-0.02C0.733,-0.02 0.733,-0.019 0.733,-0.019C0.729,-0.006 0.728,0.007 0.731,0.019C0.731,0.02 0.731,0.02 0.73,0.021C0.73,0.021 0.729,0.021 0.728,0.021C0.716,0.017 0.703,0.015 0.691,0.017C0.69,0.017 0.69,0.017 0.689,0.016C0.689,0.016 0.689,0.016 0.689,0.015Z" style="fill:none;fill-rule:nonzero;"/>
        </g>
        <g transform="matrix(413.321,485.992,485.992,-413.321,-8.58822,136.66)">
            <path d="M0.762,0.021C0.76,0.008 0.761,-0.004 0.765,-0.016C0.753,-0.014 0.74,-0.015 0.729,-0.018C0.728,-0.019 0.727,-0.02 0.728,-0.021C0.728,-0.022 0.729,-0.022 0.73,-0.022C0.742,-0.018 0.755,-0.017 0.767,-0.02C0.768,-0.02 0.769,-0.02 0.769,-0.019C0.769,-0.019 0.77,-0.018 0.769,-0.017C0.765,-0.005 0.764,0.008 0.765,0.02C0.766,0.021 0.765,0.022 0.764,0.022C0.763,0.022 0.763,0.022 0.762,0.021C0.762,0.021 0.762,0.021 0.762,0.021Z" style="fill:none;fill-rule:nonzero;"/>
        </g>
        <g transform="matrix(413.317,485.988,485.988,-413.317,-26.7647,152.12)">
            <path d="M0.284,0.019C0.288,0.006 0.288,-0.007 0.286,-0.019C0.286,-0.02 0.286,-0.02 0.287,-0.021C0.287,-0.021 0.288,-0.021 0.288,-0.021C0.3,-0.017 0.313,-0.015 0.326,-0.017C0.327,-0.017 0.327,-0.017 0.327,-0.016C0.328,-0.016 0.328,-0.016 0.328,-0.015C0.328,-0.014 0.327,-0.014 0.326,-0.013C0.314,-0.012 0.302,-0.013 0.29,-0.017C0.292,-0.005 0.291,0.008 0.287,0.02C0.287,0.021 0.286,0.021 0.285,0.021C0.285,0.021 0.285,0.021 0.284,0.02C0.284,0.02 0.284,0.019 0.284,0.019Z" style="fill:none;fill-rule:nonzero;"/>
        </g>
        <g transform="matrix(413.319,485.99,485.99,-413.319,199.312,-40.1523)">
            <path d="M0.218,0.021C0.218,0.005 0.221,-0.01 0.226,-0.024C0.226,-0.025 0.227,-0.025 0.227,-0.025C0.228,-0.025 0.228,-0.025 0.229,-0.025C0.241,-0.018 0.257,-0.018 0.27,-0.025C0.271,-0.025 0.272,-0.025 0.272,-0.024C0.273,-0.024 0.273,-0.023 0.272,-0.022C0.264,-0.01 0.261,0.005 0.266,0.019C0.266,0.019 0.266,0.02 0.266,0.02C0.266,0.021 0.265,0.021 0.265,0.021C0.25,0.024 0.234,0.025 0.219,0.022C0.219,0.022 0.218,0.022 0.218,0.022C0.218,0.021 0.218,0.021 0.218,0.021ZM0.229,-0.021C0.224,-0.008 0.222,0.005 0.221,0.019C0.235,0.021 0.249,0.021 0.262,0.018C0.258,0.006 0.26,-0.008 0.266,-0.019C0.254,-0.015 0.24,-0.016 0.229,-0.021Z" style="fill:none;fill-rule:nonzero;"/>
        </g>
        <g transform="matrix(413.32,485.991,485.991,-413.32,217.755,-55.8386)">
            <path d="M0.708,0.018C0.708,0.018 0.708,0.017 0.708,0.017C0.715,0.004 0.715,-0.012 0.709,-0.025C0.709,-0.025 0.709,-0.026 0.709,-0.027C0.71,-0.027 0.711,-0.027 0.712,-0.027C0.723,-0.019 0.739,-0.016 0.753,-0.021C0.753,-0.021 0.754,-0.021 0.754,-0.021C0.754,-0.02 0.754,-0.02 0.754,-0.02C0.755,-0.02 0.755,-0.02 0.755,-0.019C0.758,-0.004 0.758,0.011 0.756,0.026C0.756,0.027 0.755,0.028 0.754,0.028C0.739,0.027 0.724,0.025 0.709,0.019C0.709,0.019 0.709,0.019 0.709,0.019C0.709,0.019 0.708,0.018 0.708,0.018ZM0.714,-0.021C0.719,-0.009 0.718,0.005 0.713,0.017C0.725,0.021 0.739,0.024 0.753,0.024C0.755,0.01 0.754,-0.003 0.752,-0.017C0.739,-0.013 0.726,-0.015 0.714,-0.021Z" style="fill:none;fill-rule:nonzero;"/>
        </g>
        <g transform="matrix(413.318,485.988,485.988,-413.318,-19.5677,145.999)">
            <path d="M0.745,0.022C0.753,0.01 0.755,-0.005 0.751,-0.019C0.751,-0.019 0.751,-0.02 0.751,-0.02C0.751,-0.021 0.752,-0.021 0.752,-0.021C0.767,-0.024 0.782,-0.025 0.798,-0.022C0.798,-0.022 0.798,-0.022 0.799,-0.022C0.799,-0.021 0.799,-0.021 0.799,-0.021C0.799,-0.005 0.796,0.01 0.791,0.024C0.791,0.025 0.79,0.025 0.79,0.025C0.789,0.025 0.789,0.025 0.788,0.025C0.776,0.018 0.76,0.018 0.747,0.025C0.746,0.025 0.745,0.025 0.745,0.024C0.744,0.024 0.744,0.023 0.745,0.022ZM0.755,-0.018C0.758,-0.006 0.757,0.008 0.751,0.019C0.763,0.015 0.776,0.016 0.788,0.021C0.793,0.008 0.795,-0.005 0.796,-0.019C0.782,-0.021 0.768,-0.021 0.755,-0.018Z" style="fill:none;fill-rule:nonzero;"/>
        </g>
        <g transform="matrix(413.319,485.99,485.99,-413.319,-38.0117,161.684)">
            <path d="M0.262,0.019C0.259,0.004 0.259,-0.011 0.261,-0.026C0.261,-0.027 0.262,-0.028 0.263,-0.028C0.278,-0.027 0.293,-0.025 0.307,-0.019C0.308,-0.019 0.308,-0.019 0.308,-0.019C0.308,-0.019 0.308,-0.018 0.308,-0.018C0.309,-0.018 0.309,-0.017 0.308,-0.017C0.302,-0.004 0.301,0.012 0.308,0.025C0.308,0.025 0.308,0.026 0.307,0.027C0.307,0.027 0.306,0.027 0.305,0.027C0.294,0.019 0.278,0.016 0.264,0.021C0.264,0.021 0.263,0.021 0.263,0.021C0.263,0.02 0.263,0.02 0.262,0.02C0.262,0.02 0.262,0.02 0.262,0.019ZM0.264,-0.024C0.262,-0.01 0.263,0.003 0.265,0.017C0.277,0.013 0.291,0.015 0.302,0.021C0.298,0.009 0.299,-0.005 0.304,-0.017C0.291,-0.021 0.278,-0.024 0.264,-0.024Z" style="fill:none;fill-rule:nonzero;"/>
        </g>
        <g transform="matrix(413.319,485.991,485.991,-413.319,206.774,-46.4988)">
            <path d="M0.277,0.016C0.274,0.004 0.274,-0.008 0.276,-0.02C0.277,-0.021 0.278,-0.022 0.279,-0.022C0.279,-0.021 0.28,-0.021 0.28,-0.02C0.278,-0.008 0.278,0.003 0.28,0.014C0.293,0.013 0.306,0.014 0.318,0.017C0.318,0.017 0.319,0.017 0.319,0.018L0.321,0.018C0.321,0.018 0.321,0.018 0.321,0.019C0.322,0.019 0.322,0.02 0.321,0.02C0.321,0.021 0.32,0.022 0.319,0.021C0.306,0.018 0.292,0.016 0.279,0.018C0.278,0.018 0.277,0.018 0.277,0.017C0.277,0.017 0.277,0.017 0.277,0.016Z" style="fill:none;fill-rule:nonzero;"/>
        </g>
        <g transform="matrix(413.318,485.988,485.988,-413.318,-12.4326,139.93)">
            <path d="M0.246,0.021C0.25,0.008 0.252,-0.006 0.25,-0.019C0.25,-0.02 0.251,-0.021 0.252,-0.021C0.264,-0.023 0.276,-0.024 0.288,-0.021C0.288,-0.021 0.289,-0.021 0.289,-0.021C0.289,-0.02 0.29,-0.02 0.289,-0.019C0.289,-0.018 0.288,-0.018 0.287,-0.018C0.276,-0.02 0.265,-0.02 0.254,-0.018C0.255,-0.005 0.254,0.008 0.25,0.02C0.25,0.021 0.25,0.021 0.25,0.021L0.25,0.023C0.249,0.023 0.248,0.024 0.247,0.024C0.247,0.023 0.247,0.023 0.247,0.023C0.246,0.023 0.246,0.022 0.246,0.021Z" style="fill:none;fill-rule:nonzero;"/>
        </g>
        <g transform="matrix(413.318,485.988,485.988,-413.318,-27.0322,152.346)">
            <path d="M0.695,-0.02C0.696,-0.021 0.697,-0.022 0.697,-0.021C0.711,-0.018 0.725,-0.016 0.738,-0.018C0.739,-0.018 0.739,-0.017 0.74,-0.017C0.74,-0.017 0.74,-0.017 0.74,-0.016C0.742,-0.004 0.742,0.008 0.74,0.02C0.74,0.021 0.739,0.022 0.738,0.022C0.737,0.021 0.737,0.021 0.737,0.02C0.739,0.008 0.739,-0.003 0.737,-0.014C0.724,-0.013 0.711,-0.014 0.699,-0.017C0.698,-0.017 0.698,-0.017 0.698,-0.018L0.696,-0.018C0.696,-0.018 0.696,-0.018 0.696,-0.019C0.695,-0.019 0.695,-0.02 0.695,-0.02Z" style="fill:none;fill-rule:nonzero;"/>
        </g>
        <g transform="matrix(413.318,485.989,485.989,-413.318,192.175,-34.0834)">
            <path d="M0.727,0.019C0.727,0.018 0.728,0.018 0.729,0.018C0.741,0.02 0.752,0.02 0.763,0.018C0.762,0.005 0.763,-0.008 0.766,-0.02C0.766,-0.021 0.766,-0.021 0.767,-0.021L0.767,-0.023C0.768,-0.023 0.768,-0.024 0.769,-0.024C0.77,-0.023 0.77,-0.023 0.77,-0.023C0.77,-0.023 0.771,-0.022 0.77,-0.021C0.767,-0.008 0.765,0.006 0.767,0.019C0.767,0.02 0.766,0.021 0.765,0.021C0.753,0.023 0.741,0.024 0.729,0.021C0.728,0.021 0.728,0.021 0.728,0.021C0.727,0.02 0.727,0.02 0.727,0.019Z" style="fill:none;fill-rule:nonzero;"/>
        </g>
        <g transform="matrix(413.319,485.99,485.99,-413.319,222.344,-59.7387)">
            <path d="M0.651,0.015C0.651,0.014 0.651,0.013 0.652,0.013L0.654,0.013C0.654,0.012 0.654,0.012 0.655,0.013C0.668,0.011 0.681,0.012 0.693,0.015C0.697,0.005 0.699,-0.006 0.698,-0.018C0.698,-0.019 0.699,-0.02 0.7,-0.02C0.701,-0.02 0.701,-0.019 0.702,-0.019C0.702,-0.019 0.702,-0.018 0.702,-0.018C0.702,-0.006 0.7,0.007 0.696,0.018C0.696,0.019 0.695,0.019 0.694,0.019C0.681,0.016 0.666,0.015 0.653,0.016C0.652,0.016 0.652,0.016 0.651,0.016C0.651,0.016 0.651,0.015 0.651,0.015Z" style="fill:none;fill-rule:nonzero;"/>
        </g>
        <g transform="matrix(413.32,485.991,485.991,-413.32,171.562,-16.5525)">
            <path d="M0.217,0.017C0.22,0.004 0.221,-0.01 0.219,-0.024C0.219,-0.024 0.22,-0.025 0.221,-0.025C0.221,-0.026 0.222,-0.025 0.222,-0.025C0.223,-0.025 0.223,-0.024 0.223,-0.024L0.223,-0.023C0.223,-0.022 0.223,-0.022 0.223,-0.022C0.225,-0.009 0.224,0.004 0.22,0.017C0.231,0.02 0.242,0.022 0.254,0.022C0.255,0.022 0.255,0.023 0.255,0.024C0.255,0.025 0.255,0.025 0.254,0.025C0.241,0.026 0.229,0.024 0.218,0.019C0.217,0.019 0.217,0.019 0.217,0.019C0.217,0.018 0.216,0.018 0.217,0.017Z" style="fill:none;fill-rule:nonzero;"/>
        </g>
        <g transform="matrix(413.319,485.99,485.99,-413.319,-42.6012,165.587)">
            <path d="M0.315,0.018C0.315,0.006 0.317,-0.007 0.321,-0.018C0.321,-0.019 0.322,-0.019 0.323,-0.019C0.336,-0.016 0.35,-0.015 0.364,-0.016C0.364,-0.016 0.365,-0.016 0.365,-0.016C0.366,-0.016 0.366,-0.015 0.366,-0.015C0.366,-0.014 0.365,-0.013 0.365,-0.013L0.363,-0.013C0.363,-0.012 0.362,-0.013 0.362,-0.013C0.349,-0.011 0.336,-0.012 0.324,-0.015C0.32,-0.005 0.318,0.006 0.318,0.018C0.318,0.019 0.318,0.02 0.317,0.02C0.316,0.02 0.316,0.019 0.315,0.019C0.315,0.019 0.315,0.018 0.315,0.018Z" style="fill:none;fill-rule:nonzero;"/>
        </g>
        <g transform="matrix(413.32,485.992,485.992,-413.32,8.17555,122.399)">
            <path d="M0.794,0.024L0.794,0.023C0.793,0.022 0.793,0.022 0.794,0.022C0.792,0.009 0.793,-0.004 0.796,-0.017C0.786,-0.02 0.774,-0.022 0.763,-0.022C0.762,-0.022 0.761,-0.023 0.761,-0.024C0.761,-0.025 0.762,-0.025 0.763,-0.025C0.775,-0.026 0.788,-0.024 0.799,-0.019C0.799,-0.019 0.8,-0.019 0.8,-0.019C0.8,-0.018 0.8,-0.018 0.8,-0.017C0.797,-0.004 0.796,0.01 0.797,0.024C0.798,0.024 0.797,0.025 0.796,0.025C0.795,0.026 0.795,0.025 0.794,0.025C0.794,0.025 0.794,0.024 0.794,0.024Z" style="fill:none;fill-rule:nonzero;"/>
        </g>
        <g transform="matrix(413.317,485.988,485.988,-413.317,220.129,-57.8554)">
            <path d="M0.244,0.003C0.243,-0.001 0.243,-0.005 0.245,-0.008C0.247,-0.011 0.252,-0.013 0.256,-0.012C0.258,-0.012 0.259,-0.01 0.261,-0.008C0.262,-0.007 0.262,-0.005 0.262,-0.003C0.261,-0.001 0.26,0.001 0.258,0.001C0.257,0.002 0.256,0.002 0.254,0.001C0.254,0.001 0.253,-0 0.254,-0.001C0.254,-0.002 0.255,-0.002 0.256,-0.002C0.256,-0.002 0.256,-0.002 0.257,-0.002C0.257,-0.002 0.258,-0.003 0.258,-0.004C0.258,-0.004 0.258,-0.006 0.258,-0.007C0.257,-0.008 0.256,-0.008 0.255,-0.009C0.252,-0.009 0.25,-0.008 0.248,-0.006C0.247,-0.004 0.246,-0.001 0.247,0.002C0.248,0.007 0.254,0.012 0.26,0.012C0.266,0.013 0.272,0.009 0.275,0.004C0.277,-0 0.277,-0.005 0.276,-0.011C0.276,-0.012 0.276,-0.013 0.276,-0.015C0.276,-0.016 0.277,-0.016 0.278,-0.016C0.278,-0.016 0.279,-0.016 0.279,-0.016C0.28,-0.016 0.28,-0.015 0.28,-0.015C0.28,-0.013 0.28,-0.012 0.28,-0.011C0.281,-0.005 0.281,0.001 0.278,0.006C0.274,0.012 0.267,0.016 0.26,0.016C0.255,0.015 0.25,0.013 0.247,0.009C0.245,0.007 0.244,0.005 0.244,0.003Z" style="fill:none;fill-rule:nonzero;"/>
        </g>
        <g transform="matrix(413.316,485.986,485.986,-413.316,-29.9899,154.863)">
            <path d="M0.225,-0.002C0.225,-0.01 0.23,-0.016 0.237,-0.018C0.241,-0.019 0.245,-0.019 0.248,-0.017C0.249,-0.016 0.25,-0.015 0.25,-0.015C0.252,-0.012 0.253,-0.009 0.253,-0.006C0.252,-0.004 0.251,-0.002 0.249,-0.001C0.247,-0 0.245,0 0.243,-0C0.241,-0.001 0.24,-0.002 0.239,-0.003C0.239,-0.005 0.239,-0.006 0.239,-0.007C0.24,-0.008 0.241,-0.009 0.241,-0.008C0.242,-0.008 0.243,-0.007 0.242,-0.006C0.242,-0.006 0.242,-0.005 0.242,-0.005C0.243,-0.004 0.243,-0.004 0.244,-0.004C0.245,-0.003 0.246,-0.004 0.247,-0.004C0.248,-0.005 0.249,-0.006 0.249,-0.007C0.25,-0.009 0.249,-0.012 0.246,-0.014C0.244,-0.015 0.241,-0.016 0.238,-0.015C0.233,-0.013 0.229,-0.008 0.228,-0.002C0.228,0.004 0.231,0.01 0.236,0.013C0.241,0.016 0.245,0.015 0.251,0.015C0.252,0.015 0.254,0.015 0.255,0.014C0.256,0.014 0.257,0.015 0.257,0.016C0.257,0.017 0.256,0.018 0.255,0.018C0.254,0.018 0.253,0.018 0.251,0.018C0.245,0.019 0.24,0.019 0.235,0.016C0.233,0.015 0.231,0.013 0.23,0.012C0.226,0.008 0.224,0.003 0.225,-0.002Z" style="fill:none;fill-rule:nonzero;"/>
        </g>
        <g transform="matrix(413.318,485.989,485.989,-413.318,-40.3862,163.704)">
            <path d="M0.737,0.015C0.737,0.013 0.737,0.012 0.737,0.011C0.736,0.005 0.736,-0.001 0.739,-0.006C0.743,-0.012 0.75,-0.016 0.757,-0.016C0.762,-0.015 0.767,-0.013 0.77,-0.009C0.771,-0.007 0.773,-0.005 0.773,-0.003C0.774,0.001 0.774,0.005 0.772,0.008C0.769,0.011 0.765,0.013 0.761,0.012C0.759,0.012 0.757,0.01 0.756,0.008C0.755,0.007 0.755,0.005 0.755,0.003C0.756,0.001 0.757,-0.001 0.759,-0.001C0.76,-0.002 0.761,-0.002 0.762,-0.001C0.763,-0.001 0.764,0 0.763,0.001C0.763,0.002 0.762,0.002 0.761,0.002C0.761,0.002 0.76,0.002 0.76,0.002C0.759,0.002 0.759,0.003 0.759,0.004C0.758,0.004 0.759,0.006 0.759,0.007C0.76,0.008 0.761,0.008 0.762,0.009C0.764,0.009 0.767,0.008 0.769,0.006C0.77,0.004 0.771,0.001 0.77,-0.002C0.768,-0.007 0.763,-0.012 0.757,-0.012C0.751,-0.013 0.745,-0.009 0.742,-0.004C0.739,0 0.74,0.005 0.74,0.011C0.74,0.012 0.741,0.013 0.741,0.015C0.741,0.016 0.74,0.016 0.739,0.016C0.738,0.016 0.738,0.016 0.737,0.016C0.737,0.016 0.737,0.015 0.737,0.015Z" style="fill:none;fill-rule:nonzero;"/>
        </g>
        <g transform="matrix(413.316,485.987,485.987,-413.316,209.734,-49.0139)">
            <path d="M0.764,0.006C0.765,0.004 0.766,0.002 0.768,0.001C0.77,0 0.772,-0 0.774,0C0.775,0.001 0.777,0.002 0.778,0.003C0.778,0.005 0.778,0.006 0.778,0.007C0.777,0.008 0.776,0.009 0.775,0.008C0.774,0.008 0.774,0.007 0.775,0.006C0.775,0.006 0.775,0.005 0.774,0.005C0.774,0.004 0.774,0.004 0.773,0.004C0.772,0.003 0.771,0.004 0.77,0.004C0.769,0.005 0.768,0.006 0.768,0.007C0.767,0.009 0.768,0.012 0.77,0.014C0.773,0.015 0.776,0.016 0.778,0.015C0.784,0.013 0.788,0.008 0.789,0.002C0.789,-0.004 0.786,-0.01 0.78,-0.013C0.776,-0.016 0.772,-0.015 0.766,-0.015C0.765,-0.015 0.763,-0.015 0.762,-0.014C0.761,-0.014 0.76,-0.015 0.76,-0.016C0.76,-0.017 0.761,-0.018 0.762,-0.018C0.763,-0.018 0.764,-0.018 0.766,-0.018C0.772,-0.019 0.777,-0.019 0.782,-0.016C0.784,-0.015 0.786,-0.013 0.787,-0.012C0.791,-0.008 0.792,-0.003 0.792,0.002C0.792,0.01 0.786,0.016 0.779,0.018C0.775,0.019 0.771,0.019 0.768,0.017C0.768,0.016 0.767,0.015 0.766,0.015C0.764,0.012 0.763,0.009 0.764,0.006Z" style="fill:none;fill-rule:nonzero;"/>
        </g>
        <g transform="matrix(413.318,485.989,485.989,-413.318,237.238,-72.4078)">
            <path d="M0.692,0.004C0.69,-0.001 0.691,-0.007 0.693,-0.013C0.693,-0.014 0.693,-0.015 0.693,-0.017C0.694,-0.017 0.695,-0.018 0.696,-0.018C0.696,-0.018 0.697,-0.017 0.697,-0.016C0.697,-0.014 0.696,-0.013 0.696,-0.012C0.695,-0.006 0.693,-0.002 0.695,0.003C0.698,0.008 0.703,0.013 0.709,0.013C0.715,0.014 0.721,0.01 0.723,0.005C0.724,0.003 0.724,-0 0.723,-0.003C0.722,-0.005 0.72,-0.007 0.717,-0.007C0.716,-0.007 0.715,-0.006 0.714,-0.005C0.713,-0.004 0.713,-0.003 0.713,-0.002C0.713,-0.001 0.713,-0.001 0.714,-0C0.714,0 0.715,-0 0.715,-0C0.716,-0 0.717,0 0.717,0.001C0.717,0.002 0.717,0.003 0.716,0.003C0.715,0.004 0.713,0.004 0.712,0.003C0.711,0.002 0.71,0 0.709,-0.002C0.709,-0.004 0.71,-0.006 0.711,-0.007C0.713,-0.009 0.715,-0.01 0.717,-0.01C0.72,-0.01 0.723,-0.009 0.725,-0.007C0.726,-0.006 0.726,-0.005 0.726,-0.004C0.728,-0.001 0.728,0.003 0.726,0.007C0.723,0.013 0.716,0.018 0.708,0.017C0.703,0.016 0.699,0.014 0.695,0.01C0.694,0.008 0.693,0.006 0.692,0.004Z" style="fill:none;fill-rule:nonzero;"/>
        </g>
        <g transform="matrix(413.318,485.989,485.989,-413.318,187.158,-29.8161)">
            <path d="M0.188,-0C0.189,-0.007 0.194,-0.014 0.201,-0.017C0.207,-0.019 0.212,-0.018 0.218,-0.016C0.219,-0.016 0.22,-0.015 0.222,-0.015C0.222,-0.015 0.222,-0.015 0.223,-0.015C0.223,-0.014 0.223,-0.014 0.223,-0.013C0.223,-0.012 0.222,-0.012 0.221,-0.012C0.22,-0.012 0.218,-0.012 0.217,-0.013C0.211,-0.014 0.207,-0.015 0.202,-0.013C0.197,-0.011 0.193,-0.006 0.192,0C0.191,0.006 0.195,0.012 0.2,0.014C0.203,0.016 0.206,0.016 0.208,0.015C0.21,0.014 0.212,0.011 0.212,0.009C0.212,0.007 0.211,0.006 0.21,0.005C0.209,0.005 0.208,0.004 0.207,0.004C0.206,0.004 0.206,0.005 0.205,0.005C0.205,0.006 0.205,0.006 0.205,0.006C0.205,0.007 0.205,0.008 0.204,0.008C0.203,0.009 0.202,0.008 0.202,0.007C0.201,0.006 0.202,0.005 0.202,0.003C0.203,0.002 0.205,0.001 0.207,0.001C0.209,0.001 0.211,0.001 0.212,0.003C0.214,0.004 0.215,0.006 0.215,0.008C0.216,0.012 0.213,0.016 0.209,0.018C0.206,0.019 0.202,0.019 0.198,0.018C0.196,0.017 0.194,0.015 0.193,0.013C0.19,0.01 0.188,0.005 0.188,-0Z" style="fill:none;fill-rule:nonzero;"/>
        </g>
        <g transform="matrix(413.318,485.988,485.988,-413.318,-57.4986,178.258)">
            <path d="M0.29,0.004C0.289,0.001 0.289,-0.003 0.291,-0.007C0.293,-0.013 0.301,-0.018 0.308,-0.017C0.313,-0.016 0.318,-0.014 0.321,-0.01C0.323,-0.008 0.324,-0.006 0.325,-0.004C0.327,0.001 0.326,0.007 0.324,0.013C0.324,0.014 0.324,0.015 0.323,0.017C0.323,0.017 0.322,0.018 0.321,0.018C0.32,0.018 0.32,0.017 0.32,0.016C0.32,0.014 0.321,0.013 0.321,0.012C0.322,0.006 0.323,0.002 0.321,-0.003C0.319,-0.008 0.314,-0.013 0.308,-0.013C0.302,-0.014 0.296,-0.01 0.294,-0.005C0.293,-0.003 0.292,0 0.294,0.003C0.295,0.005 0.297,0.007 0.3,0.007C0.301,0.007 0.302,0.006 0.303,0.005C0.304,0.004 0.304,0.003 0.304,0.002C0.304,0.001 0.303,0.001 0.303,0C0.302,0 0.302,-0 0.302,0C0.301,0 0.3,-0 0.3,-0.001C0.3,-0.002 0.3,-0.003 0.301,-0.003C0.302,-0.004 0.304,-0.004 0.305,-0.003C0.306,-0.002 0.307,-0 0.307,0.002C0.308,0.004 0.307,0.006 0.306,0.007C0.304,0.009 0.302,0.01 0.3,0.01C0.297,0.01 0.294,0.009 0.292,0.007C0.291,0.006 0.291,0.005 0.29,0.004Z" style="fill:none;fill-rule:nonzero;"/>
        </g>
        <g transform="matrix(413.317,485.987,485.987,-413.317,-7.41468,135.665)">
            <path d="M0.794,0.013C0.794,0.012 0.795,0.012 0.796,0.012C0.797,0.012 0.798,0.012 0.8,0.013C0.805,0.014 0.81,0.015 0.814,0.013C0.82,0.011 0.824,0.006 0.825,-0C0.825,-0.006 0.822,-0.012 0.817,-0.014C0.814,-0.016 0.811,-0.016 0.809,-0.015C0.806,-0.014 0.805,-0.011 0.805,-0.009C0.805,-0.007 0.806,-0.006 0.807,-0.005C0.808,-0.005 0.809,-0.004 0.81,-0.004C0.81,-0.004 0.811,-0.005 0.811,-0.005C0.812,-0.006 0.812,-0.006 0.812,-0.006C0.811,-0.007 0.812,-0.008 0.813,-0.008C0.814,-0.009 0.815,-0.008 0.815,-0.007C0.815,-0.006 0.815,-0.005 0.814,-0.003C0.813,-0.002 0.812,-0.001 0.81,-0.001C0.808,-0.001 0.806,-0.001 0.805,-0.003C0.803,-0.004 0.802,-0.006 0.801,-0.008C0.801,-0.012 0.804,-0.016 0.807,-0.018C0.811,-0.019 0.815,-0.019 0.818,-0.018C0.821,-0.017 0.823,-0.015 0.824,-0.013C0.827,-0.01 0.829,-0.005 0.828,0C0.828,0.007 0.823,0.014 0.816,0.017C0.81,0.019 0.805,0.018 0.799,0.016C0.798,0.016 0.796,0.015 0.795,0.015C0.795,0.015 0.794,0.015 0.794,0.015C0.794,0.014 0.794,0.014 0.794,0.013Z" style="fill:none;fill-rule:nonzero;"/>
        </g>
        <g transform="matrix(4.51816e-12,637.98,637.98,-4.51816e-12,300.001,-83.7633)">
            <path d="M0.212,-0.009C0.216,-0.005 0.22,-0.001 0.225,-0C0.22,0.001 0.216,0.005 0.212,0.009C0.206,0.007 0.201,0.004 0.196,-0C0.201,-0.004 0.206,-0.007 0.212,-0.009Z" style="fill:none;fill-rule:nonzero;"/>
        </g>
        <g transform="matrix(-2.25908e-12,637.981,637.981,2.25908e-12,549.398,-185.922)">
            <path d="M0.762,-0.015C0.763,-0.01 0.766,-0.005 0.771,-0.002C0.769,0.004 0.765,0.01 0.762,0.015C0.758,0.01 0.755,0.004 0.753,-0.002C0.757,-0.005 0.76,-0.01 0.762,-0.015Z" style="fill:none;fill-rule:nonzero;"/>
        </g>
        <g transform="matrix(4.51816e-12,637.98,637.98,-4.51816e-12,300.001,35.0673)">
            <path d="M0.804,-0.009C0.81,-0.007 0.816,-0.004 0.821,0C0.816,0.004 0.81,0.007 0.804,0.009C0.801,0.005 0.797,0.001 0.791,0C0.797,-0.001 0.801,-0.005 0.804,-0.009Z" style="fill:none;fill-rule:nonzero;"/>
        </g>
        <g transform="matrix(-7.09996e-13,637.981,637.981,7.09996e-13,50.6045,137.225)">
            <path d="M0.255,-0.015C0.259,-0.01 0.262,-0.004 0.264,0.002C0.26,0.005 0.257,0.01 0.255,0.015C0.254,0.01 0.25,0.005 0.246,0.002C0.248,-0.004 0.251,-0.01 0.255,-0.015Z" style="fill:none;fill-rule:nonzero;"/>
        </g>
        <g transform="matrix(413.316,485.987,485.987,-413.316,226.033,-62.8764)">
            <path d="M0.16,0.006C0.161,0.007 0.163,0.007 0.164,0.007C0.166,0.006 0.168,0.005 0.168,0.003C0.168,0.002 0.167,0.001 0.166,0.001C0.165,0.001 0.163,0.001 0.162,0.002C0.175,-0.007 0.189,-0.014 0.203,-0.02C0.194,-0.008 0.185,0.005 0.174,0.016C0.175,0.015 0.176,0.014 0.176,0.013C0.176,0.011 0.175,0.01 0.174,0.01C0.173,0.01 0.171,0.012 0.17,0.013C0.169,0.015 0.169,0.017 0.17,0.018C0.165,0.018 0.16,0.018 0.155,0.02C0.158,0.015 0.159,0.011 0.16,0.006Z" style="fill:none;fill-rule:nonzero;"/>
        </g>
        <g transform="matrix(413.317,485.988,485.988,-413.317,249.976,-83.236)">
            <path d="M0.768,-0.024C0.781,-0.015 0.793,-0.006 0.805,0.005C0.804,0.004 0.802,0.003 0.801,0.003C0.8,0.003 0.799,0.004 0.799,0.005C0.799,0.006 0.8,0.008 0.802,0.009C0.804,0.01 0.805,0.01 0.806,0.009C0.806,0.014 0.807,0.019 0.809,0.024C0.804,0.021 0.799,0.019 0.795,0.019C0.796,0.018 0.796,0.016 0.796,0.015C0.795,0.013 0.793,0.011 0.792,0.011C0.79,0.011 0.79,0.012 0.79,0.013C0.79,0.014 0.79,0.015 0.79,0.017C0.781,0.004 0.775,-0.01 0.768,-0.024Z" style="fill:none;fill-rule:nonzero;"/>
        </g>
        <g transform="matrix(413.316,485.987,485.987,-413.316,-46.2866,168.724)">
            <path d="M0.842,-0.016C0.842,-0.015 0.841,-0.014 0.841,-0.013C0.841,-0.011 0.841,-0.01 0.843,-0.01C0.844,-0.01 0.846,-0.012 0.847,-0.013C0.848,-0.015 0.848,-0.017 0.847,-0.018C0.851,-0.018 0.856,-0.018 0.862,-0.02C0.859,-0.015 0.857,-0.011 0.857,-0.006C0.856,-0.007 0.854,-0.007 0.853,-0.007C0.851,-0.006 0.849,-0.005 0.849,-0.003C0.849,-0.002 0.85,-0.001 0.851,-0.001C0.852,-0.001 0.853,-0.001 0.855,-0.002C0.842,0.007 0.828,0.014 0.814,0.02C0.823,0.008 0.831,-0.005 0.842,-0.016Z" style="fill:none;fill-rule:nonzero;"/>
        </g>
        <g transform="matrix(413.317,485.988,485.988,-413.317,-70.2299,189.085)">
            <path d="M0.216,-0.003C0.217,-0.003 0.218,-0.004 0.218,-0.005C0.218,-0.006 0.216,-0.008 0.215,-0.009C0.213,-0.01 0.212,-0.01 0.211,-0.009C0.211,-0.014 0.21,-0.019 0.208,-0.024C0.213,-0.021 0.218,-0.019 0.222,-0.019C0.221,-0.018 0.221,-0.016 0.221,-0.015C0.222,-0.013 0.224,-0.011 0.225,-0.011C0.226,-0.011 0.227,-0.012 0.227,-0.013C0.227,-0.014 0.227,-0.016 0.226,-0.017C0.235,-0.004 0.242,0.01 0.248,0.024C0.236,0.015 0.223,0.006 0.212,-0.005C0.213,-0.004 0.214,-0.003 0.216,-0.003Z" style="fill:none;fill-rule:nonzero;"/>
        </g>
        <g transform="matrix(413.32,485.991,485.991,-413.32,230.301,-66.5079)">
            <path d="M0.182,0.014C0.183,0.015 0.185,0.014 0.186,0.013C0.187,0.012 0.188,0.009 0.188,0.008C0.187,0.007 0.186,0.007 0.185,0.007C0.184,0.008 0.183,0.009 0.182,0.01C0.189,-0.004 0.198,-0.017 0.207,-0.029C0.205,-0.014 0.204,0.001 0.2,0.016C0.2,0.015 0.199,0.014 0.199,0.013C0.199,0.012 0.198,0.011 0.197,0.011C0.195,0.012 0.194,0.014 0.194,0.016C0.194,0.018 0.195,0.019 0.196,0.02C0.192,0.022 0.188,0.025 0.185,0.029C0.185,0.024 0.184,0.019 0.182,0.014Z" style="fill:none;fill-rule:nonzero;"/>
        </g>
        <g transform="matrix(413.319,485.99,485.99,-413.319,-62.7259,182.703)">
            <path d="M0.19,-0.01C0.196,-0.01 0.201,-0.011 0.205,-0.012C0.205,-0.011 0.205,-0.009 0.206,-0.008C0.208,-0.007 0.21,-0.006 0.212,-0.007C0.213,-0.007 0.213,-0.008 0.212,-0.009C0.212,-0.011 0.211,-0.012 0.21,-0.012C0.224,-0.005 0.236,0.003 0.249,0.012C0.234,0.011 0.218,0.009 0.203,0.005C0.204,0.005 0.206,0.005 0.207,0.005C0.208,0.004 0.209,0.003 0.208,0.002C0.208,0.001 0.205,-0 0.203,-0C0.201,-0 0.2,0.001 0.2,0.002C0.198,-0.002 0.194,-0.006 0.19,-0.01Z" style="fill:none;fill-rule:nonzero;"/>
        </g>
        <g transform="matrix(413.319,485.99,485.99,-413.319,-50.5576,172.354)">
            <path d="M0.817,-0.016C0.817,-0.015 0.817,-0.014 0.818,-0.013C0.818,-0.012 0.819,-0.011 0.82,-0.011C0.822,-0.012 0.823,-0.014 0.823,-0.016C0.823,-0.018 0.822,-0.019 0.82,-0.02C0.824,-0.022 0.829,-0.025 0.832,-0.029C0.832,-0.024 0.833,-0.019 0.835,-0.014C0.833,-0.015 0.832,-0.014 0.831,-0.013C0.829,-0.012 0.828,-0.009 0.829,-0.008C0.83,-0.007 0.831,-0.007 0.832,-0.007C0.833,-0.008 0.834,-0.009 0.835,-0.01C0.828,0.004 0.819,0.017 0.81,0.029C0.811,0.014 0.813,-0.001 0.817,-0.016Z" style="fill:none;fill-rule:nonzero;"/>
        </g>
        <g transform="matrix(413.319,485.99,485.99,-413.319,242.471,-76.856)">
            <path d="M0.814,-0.005C0.812,-0.005 0.811,-0.005 0.81,-0.005C0.809,-0.004 0.808,-0.003 0.809,-0.002C0.809,-0.001 0.812,0 0.814,0C0.815,0 0.817,-0.001 0.817,-0.002C0.819,0.002 0.822,0.006 0.827,0.01C0.821,0.01 0.816,0.011 0.812,0.012C0.812,0.011 0.812,0.009 0.811,0.008C0.809,0.007 0.807,0.006 0.805,0.007C0.804,0.007 0.804,0.008 0.805,0.009C0.805,0.011 0.806,0.012 0.807,0.012C0.793,0.005 0.78,-0.003 0.768,-0.012C0.783,-0.011 0.799,-0.009 0.814,-0.005Z" style="fill:none;fill-rule:nonzero;"/>
        </g>
        <g transform="matrix(413.319,485.99,485.99,-413.319,252.875,-85.7067)">
            <path d="M0.77,0.016C0.77,0.014 0.769,0.012 0.768,0.011C0.767,0.01 0.766,0.011 0.765,0.012C0.765,0.013 0.764,0.014 0.764,0.016C0.762,-0 0.763,-0.015 0.764,-0.031C0.771,-0.017 0.778,-0.003 0.783,0.012C0.782,0.011 0.781,0.01 0.78,0.009C0.779,0.008 0.778,0.008 0.777,0.009C0.776,0.01 0.777,0.013 0.778,0.015C0.779,0.016 0.78,0.017 0.782,0.016C0.779,0.02 0.778,0.025 0.777,0.031C0.774,0.026 0.77,0.022 0.767,0.019C0.768,0.019 0.769,0.018 0.77,0.016Z" style="fill:none;fill-rule:nonzero;"/>
        </g>
        <g transform="matrix(413.318,485.988,485.988,-413.318,218.086,-56.1187)">
            <path d="M0.154,-0.005C0.154,-0.004 0.155,-0.003 0.157,-0.003C0.159,-0.002 0.161,-0.003 0.162,-0.004C0.163,-0.005 0.162,-0.006 0.161,-0.007C0.16,-0.007 0.159,-0.008 0.157,-0.008C0.173,-0.01 0.188,-0.009 0.204,-0.008C0.19,-0.001 0.176,0.006 0.161,0.01C0.162,0.01 0.163,0.009 0.164,0.008C0.165,0.007 0.165,0.006 0.164,0.005C0.163,0.004 0.16,0.005 0.158,0.006C0.157,0.007 0.156,0.008 0.157,0.009C0.153,0.007 0.148,0.006 0.142,0.005C0.147,0.002 0.151,-0.002 0.154,-0.005Z" style="fill:none;fill-rule:nonzero;"/>
        </g>
        <g transform="matrix(413.317,485.987,485.987,-413.317,-73.1304,191.553)">
            <path d="M0.234,-0.012C0.235,-0.011 0.236,-0.01 0.237,-0.009C0.238,-0.008 0.239,-0.008 0.239,-0.009C0.24,-0.01 0.24,-0.013 0.239,-0.015C0.238,-0.016 0.236,-0.017 0.235,-0.016C0.237,-0.02 0.239,-0.025 0.24,-0.031C0.243,-0.026 0.246,-0.022 0.25,-0.019C0.249,-0.019 0.248,-0.018 0.247,-0.016C0.247,-0.014 0.248,-0.012 0.249,-0.011C0.25,-0.01 0.251,-0.011 0.251,-0.012C0.252,-0.013 0.252,-0.014 0.253,-0.016C0.254,0 0.254,0.015 0.253,0.031C0.246,0.017 0.239,0.003 0.234,-0.012Z" style="fill:none;fill-rule:nonzero;"/>
        </g>
        <g transform="matrix(413.317,485.988,485.988,-413.317,-38.3431,161.968)">
            <path d="M0.856,-0.01C0.854,-0.01 0.853,-0.009 0.853,-0.008C0.852,-0.007 0.852,-0.006 0.853,-0.005C0.854,-0.004 0.857,-0.005 0.858,-0.006C0.86,-0.007 0.86,-0.008 0.86,-0.009C0.864,-0.007 0.869,-0.006 0.874,-0.005C0.87,-0.002 0.866,0.002 0.863,0.005C0.863,0.004 0.862,0.003 0.86,0.003C0.858,0.002 0.856,0.003 0.855,0.004C0.854,0.005 0.855,0.006 0.856,0.007C0.857,0.007 0.858,0.008 0.859,0.008C0.844,0.01 0.828,0.009 0.813,0.008C0.827,0.001 0.84,-0.006 0.856,-0.01Z" style="fill:none;fill-rule:nonzero;"/>
        </g>
        <g transform="matrix(413.32,485.991,485.991,-413.32,230.811,-66.9422)">
            <path d="M0.208,0.019C0.21,0.019 0.211,0.018 0.211,0.016C0.212,0.014 0.211,0.012 0.21,0.011C0.209,0.01 0.208,0.01 0.208,0.011C0.207,0.012 0.206,0.014 0.206,0.015C0.206,-0.001 0.208,-0.016 0.211,-0.031C0.216,-0.017 0.222,-0.003 0.225,0.013C0.224,0.012 0.223,0.011 0.223,0.01C0.222,0.009 0.221,0.009 0.22,0.01C0.219,0.011 0.219,0.014 0.22,0.015C0.221,0.017 0.222,0.017 0.223,0.017C0.221,0.021 0.219,0.026 0.217,0.031C0.215,0.026 0.212,0.022 0.208,0.019Z" style="fill:none;fill-rule:nonzero;"/>
        </g>
        <g transform="matrix(413.318,485.989,485.989,-413.318,-52.5597,174.057)">
            <path d="M0.199,-0.007C0.2,-0.006 0.201,-0.005 0.202,-0.004C0.204,-0.003 0.207,-0.004 0.208,-0.005C0.208,-0.006 0.208,-0.007 0.207,-0.008C0.206,-0.008 0.205,-0.009 0.203,-0.009C0.219,-0.009 0.235,-0.007 0.249,-0.005C0.235,0.001 0.221,0.006 0.205,0.01C0.207,0.009 0.208,0.008 0.209,0.007C0.209,0.006 0.21,0.005 0.209,0.004C0.207,0.003 0.205,0.004 0.203,0.004C0.202,0.005 0.201,0.007 0.201,0.008C0.197,0.005 0.193,0.003 0.187,0.002C0.192,-0.001 0.196,-0.004 0.199,-0.007Z" style="fill:none;fill-rule:nonzero;"/>
        </g>
        <g transform="matrix(413.32,485.991,485.991,-413.32,-51.071,172.788)">
            <path d="M0.792,-0.013C0.793,-0.012 0.793,-0.011 0.794,-0.01C0.795,-0.009 0.796,-0.009 0.797,-0.01C0.798,-0.011 0.798,-0.014 0.797,-0.015C0.796,-0.017 0.795,-0.017 0.793,-0.017C0.796,-0.021 0.798,-0.026 0.8,-0.031C0.802,-0.026 0.805,-0.022 0.809,-0.019C0.807,-0.019 0.806,-0.018 0.805,-0.016C0.805,-0.014 0.805,-0.012 0.807,-0.011C0.807,-0.01 0.809,-0.01 0.809,-0.011C0.81,-0.012 0.81,-0.014 0.811,-0.015C0.811,0.001 0.809,0.016 0.806,0.031C0.801,0.017 0.795,0.003 0.792,-0.013Z" style="fill:none;fill-rule:nonzero;"/>
        </g>
        <g transform="matrix(413.318,485.989,485.989,-413.318,232.304,-68.2085)">
            <path d="M0.811,-0.01C0.81,-0.009 0.809,-0.008 0.808,-0.007C0.807,-0.006 0.807,-0.005 0.808,-0.004C0.809,-0.003 0.812,-0.004 0.814,-0.004C0.815,-0.005 0.816,-0.007 0.816,-0.008C0.82,-0.005 0.824,-0.003 0.829,-0.002C0.825,0.001 0.82,0.004 0.817,0.007C0.817,0.006 0.816,0.005 0.814,0.004C0.813,0.003 0.81,0.004 0.809,0.005C0.808,0.006 0.809,0.007 0.81,0.008C0.811,0.008 0.812,0.009 0.813,0.009C0.797,0.009 0.782,0.007 0.767,0.005C0.781,-0.001 0.796,-0.006 0.811,-0.01Z" style="fill:none;fill-rule:nonzero;"/>
        </g>
        <g transform="matrix(413.32,485.992,485.992,-413.32,251.958,-84.9288)">
            <path d="M0.74,0.016C0.742,0.016 0.743,0.015 0.744,0.014C0.745,0.013 0.746,0.01 0.745,0.009C0.745,0.008 0.743,0.008 0.742,0.008C0.741,0.009 0.741,0.01 0.74,0.011C0.745,-0.004 0.753,-0.017 0.761,-0.03C0.761,-0.015 0.761,0 0.758,0.016C0.758,0.015 0.758,0.013 0.757,0.012C0.756,0.011 0.755,0.011 0.754,0.011C0.753,0.012 0.752,0.014 0.752,0.016C0.753,0.018 0.754,0.019 0.755,0.02C0.751,0.022 0.748,0.026 0.744,0.03C0.744,0.025 0.742,0.02 0.74,0.016Z" style="fill:none;fill-rule:nonzero;"/>
        </g>
        <g transform="matrix(413.318,485.989,485.989,-413.318,207.39,-47.0214)">
            <path d="M0.159,-0.01C0.159,-0.009 0.159,-0.007 0.161,-0.006C0.162,-0.005 0.165,-0.004 0.166,-0.005C0.167,-0.006 0.167,-0.007 0.167,-0.008C0.166,-0.009 0.165,-0.01 0.164,-0.011C0.179,-0.005 0.192,0.003 0.205,0.01C0.19,0.01 0.174,0.01 0.159,0.008C0.16,0.008 0.162,0.007 0.163,0.007C0.164,0.006 0.164,0.005 0.164,0.004C0.163,0.003 0.16,0.002 0.159,0.002C0.157,0.003 0.156,0.004 0.155,0.005C0.153,0.001 0.149,-0.003 0.145,-0.006C0.15,-0.006 0.155,-0.008 0.159,-0.01Z" style="fill:none;fill-rule:nonzero;"/>
        </g>
        <g transform="matrix(413.32,485.992,485.992,-413.32,-72.2185,190.774)">
            <path d="M0.259,-0.016C0.259,-0.015 0.259,-0.013 0.26,-0.012C0.26,-0.011 0.261,-0.011 0.262,-0.011C0.264,-0.012 0.265,-0.014 0.264,-0.016C0.264,-0.018 0.263,-0.019 0.262,-0.02C0.266,-0.022 0.269,-0.026 0.272,-0.03C0.273,-0.025 0.274,-0.02 0.276,-0.016C0.275,-0.016 0.274,-0.015 0.273,-0.014C0.271,-0.013 0.271,-0.01 0.272,-0.009C0.272,-0.008 0.273,-0.008 0.274,-0.008C0.275,-0.009 0.276,-0.01 0.277,-0.011C0.272,0.004 0.264,0.017 0.256,0.03C0.256,0.015 0.256,-0 0.259,-0.016Z" style="fill:none;fill-rule:nonzero;"/>
        </g>
        <g transform="matrix(413.318,485.989,485.989,-413.318,-27.6482,152.869)">
            <path d="M0.858,-0.008C0.857,-0.008 0.855,-0.007 0.854,-0.007C0.853,-0.006 0.853,-0.005 0.853,-0.004C0.854,-0.003 0.856,-0.002 0.858,-0.002C0.86,-0.003 0.861,-0.004 0.862,-0.005C0.864,-0.001 0.868,0.003 0.872,0.006C0.867,0.006 0.862,0.008 0.858,0.01C0.858,0.009 0.857,0.007 0.856,0.006C0.855,0.005 0.852,0.004 0.851,0.005C0.85,0.006 0.85,0.007 0.85,0.008C0.851,0.009 0.852,0.01 0.853,0.011C0.838,0.005 0.825,-0.003 0.812,-0.01C0.827,-0.01 0.842,-0.01 0.858,-0.008Z" style="fill:none;fill-rule:nonzero;"/>
        </g>
        <g transform="matrix(413.318,485.988,485.988,-413.318,227.312,-63.965)">
            <path d="M0.215,-0.027C0.226,-0.016 0.237,-0.006 0.247,0.007C0.246,0.006 0.244,0.005 0.243,0.005C0.242,0.005 0.241,0.005 0.241,0.006C0.24,0.008 0.242,0.01 0.243,0.011C0.245,0.012 0.246,0.012 0.247,0.012C0.247,0.016 0.247,0.021 0.248,0.027C0.243,0.023 0.239,0.021 0.234,0.02C0.235,0.019 0.236,0.017 0.236,0.016C0.236,0.014 0.234,0.012 0.233,0.011C0.231,0.011 0.231,0.012 0.23,0.013C0.23,0.014 0.23,0.016 0.231,0.017C0.224,0.003 0.219,-0.012 0.215,-0.027Z" style="fill:none;fill-rule:nonzero;"/>
        </g>
        <g transform="matrix(413.317,485.988,485.988,-413.317,-44.7981,167.456)">
            <path d="M0.206,0.003C0.207,0.004 0.208,0.005 0.21,0.005C0.212,0.004 0.214,0.003 0.214,0.001C0.215,0 0.214,-0.001 0.213,-0.001C0.211,-0.001 0.21,-0.001 0.209,-0.001C0.223,-0.008 0.238,-0.012 0.252,-0.016C0.242,-0.005 0.231,0.006 0.219,0.015C0.219,0.014 0.22,0.013 0.22,0.012C0.221,0.011 0.22,0.01 0.219,0.009C0.218,0.009 0.215,0.01 0.214,0.012C0.213,0.013 0.213,0.015 0.214,0.016C0.209,0.015 0.204,0.015 0.199,0.016C0.202,0.012 0.205,0.007 0.206,0.003Z" style="fill:none;fill-rule:nonzero;"/>
        </g>
        <g transform="matrix(413.315,485.985,485.985,-413.315,-47.5657,169.816)">
            <path d="M0.77,-0.007C0.771,-0.006 0.772,-0.005 0.774,-0.005C0.775,-0.005 0.776,-0.005 0.776,-0.006C0.776,-0.008 0.775,-0.01 0.774,-0.011C0.772,-0.012 0.771,-0.012 0.769,-0.012C0.77,-0.016 0.77,-0.021 0.769,-0.027C0.773,-0.023 0.778,-0.021 0.782,-0.02C0.781,-0.019 0.781,-0.017 0.781,-0.016C0.781,-0.014 0.783,-0.012 0.784,-0.011C0.785,-0.011 0.786,-0.012 0.786,-0.013C0.787,-0.014 0.786,-0.016 0.786,-0.017C0.793,-0.003 0.798,0.012 0.802,0.027C0.793,0.018 0.784,0.01 0.776,0C0.774,-0.002 0.772,-0.004 0.77,-0.007Z" style="fill:none;fill-rule:nonzero;"/>
        </g>
        <g transform="matrix(413.317,485.988,485.988,-413.317,224.543,-61.6094)">
            <path d="M0.798,-0.015C0.797,-0.014 0.797,-0.013 0.796,-0.012C0.796,-0.011 0.796,-0.01 0.797,-0.009C0.799,-0.009 0.801,-0.01 0.802,-0.012C0.803,-0.013 0.803,-0.015 0.803,-0.016C0.807,-0.015 0.812,-0.015 0.818,-0.016C0.815,-0.012 0.812,-0.007 0.811,-0.003C0.81,-0.004 0.809,-0.005 0.807,-0.005C0.805,-0.004 0.803,-0.003 0.802,-0.001C0.802,-0 0.803,0.001 0.804,0.001C0.805,0.001 0.807,0.001 0.808,0.001C0.794,0.008 0.779,0.012 0.765,0.016C0.775,0.005 0.786,-0.006 0.798,-0.015Z" style="fill:none;fill-rule:nonzero;"/>
        </g>
        <g transform="matrix(413.315,485.985,485.985,-413.315,247.157,-80.836)">
            <path d="M0.719,0.009C0.72,0.01 0.721,0.01 0.723,0.009C0.725,0.008 0.726,0.006 0.726,0.005C0.726,0.004 0.725,0.003 0.724,0.003C0.723,0.003 0.721,0.004 0.72,0.004C0.732,-0.007 0.744,-0.015 0.757,-0.024C0.75,-0.01 0.744,0.004 0.735,0.017C0.735,0.015 0.735,0.014 0.735,0.013C0.735,0.012 0.735,0.011 0.733,0.011C0.732,0.011 0.73,0.013 0.729,0.015C0.729,0.016 0.729,0.018 0.73,0.019C0.726,0.019 0.721,0.021 0.716,0.024C0.718,0.019 0.719,0.013 0.719,0.009Z" style="fill:none;fill-rule:nonzero;"/>
        </g>
        <g transform="matrix(413.317,485.988,485.988,-413.317,200.727,-41.3551)">
            <path d="M0.172,-0.001C0.173,-0.001 0.174,-0.002 0.174,-0.003C0.174,-0.005 0.172,-0.007 0.17,-0.007C0.168,-0.008 0.167,-0.007 0.166,-0.006C0.165,-0.011 0.164,-0.016 0.161,-0.02C0.166,-0.019 0.171,-0.018 0.176,-0.018C0.175,-0.017 0.175,-0.015 0.176,-0.013C0.176,-0.012 0.179,-0.01 0.18,-0.01C0.181,-0.01 0.182,-0.012 0.182,-0.013C0.182,-0.014 0.181,-0.015 0.18,-0.016C0.191,-0.005 0.2,0.008 0.208,0.02C0.195,0.014 0.181,0.007 0.168,-0.002C0.169,-0.002 0.171,-0.001 0.172,-0.001Z" style="fill:none;fill-rule:nonzero;"/>
        </g>
        <g transform="matrix(413.315,485.985,485.985,-413.315,-67.4084,186.687)">
            <path d="M0.282,-0.017C0.282,-0.015 0.281,-0.014 0.282,-0.013C0.282,-0.012 0.282,-0.011 0.283,-0.011C0.285,-0.011 0.287,-0.013 0.287,-0.015C0.288,-0.016 0.287,-0.018 0.286,-0.019C0.291,-0.019 0.296,-0.021 0.301,-0.024C0.299,-0.019 0.298,-0.013 0.298,-0.009C0.297,-0.01 0.295,-0.01 0.294,-0.009C0.292,-0.008 0.29,-0.006 0.291,-0.005C0.291,-0.004 0.292,-0.003 0.293,-0.003C0.294,-0.003 0.295,-0.004 0.297,-0.004C0.285,0.007 0.273,0.015 0.26,0.024C0.266,0.01 0.273,-0.004 0.282,-0.017Z" style="fill:none;fill-rule:nonzero;"/>
        </g>
        <g transform="matrix(413.319,485.99,485.99,-413.319,-20.9844,147.201)">
            <path d="M0.808,-0.02C0.822,-0.014 0.836,-0.007 0.849,0.002C0.848,0.002 0.846,0.001 0.845,0.001C0.844,0.001 0.843,0.002 0.843,0.003C0.843,0.005 0.845,0.007 0.847,0.007C0.848,0.008 0.85,0.007 0.851,0.006C0.851,0.011 0.853,0.016 0.856,0.02C0.851,0.019 0.845,0.018 0.841,0.018C0.842,0.017 0.842,0.015 0.841,0.013C0.84,0.012 0.838,0.01 0.837,0.01C0.836,0.01 0.835,0.011 0.835,0.013C0.835,0.014 0.836,0.015 0.836,0.016C0.834,0.014 0.832,0.012 0.83,0.009C0.822,-0 0.815,-0.01 0.808,-0.02Z" style="fill:none;fill-rule:nonzero;"/>
        </g>
        <g transform="matrix(413.318,485.989,485.989,-413.318,204.903,-44.9061)">
            <path d="M0.289,-0.012C0.296,-0.004 0.303,0.004 0.31,0.012C0.302,0.009 0.294,0.008 0.286,0.009C0.286,0.002 0.287,-0.005 0.289,-0.012Z" style="fill:none;fill-rule:nonzero;"/>
        </g>
        <g transform="matrix(413.317,485.988,485.988,-413.317,-12.5182,140.003)">
            <path d="M0.262,-0.012C0.269,-0.012 0.277,-0.011 0.283,-0.008C0.276,-0.002 0.268,0.005 0.26,0.012C0.263,0.005 0.263,-0.004 0.262,-0.012Z" style="fill:none;fill-rule:nonzero;"/>
        </g>
        <g transform="matrix(413.318,485.989,485.989,-413.318,-25.1601,150.755)">
            <path d="M0.731,-0.009C0.731,-0.002 0.73,0.005 0.728,0.012C0.721,0.004 0.714,-0.004 0.707,-0.012C0.715,-0.009 0.723,-0.008 0.731,-0.009Z" style="fill:none;fill-rule:nonzero;"/>
        </g>
        <g transform="matrix(413.317,485.988,485.988,-413.317,192.261,-34.1538)">
            <path d="M0.757,-0.012C0.754,-0.005 0.753,0.004 0.755,0.012C0.747,0.012 0.74,0.011 0.733,0.008C0.741,0.002 0.749,-0.005 0.757,-0.012Z" style="fill:none;fill-rule:nonzero;"/>
        </g>
        <g transform="matrix(413.321,485.993,485.993,-413.321,220.136,-57.8655)">
            <path d="M0.689,-0.011C0.69,-0.004 0.69,0.004 0.689,0.011C0.681,0.008 0.672,0.008 0.664,0.009C0.672,0.002 0.68,-0.004 0.689,-0.011Z" style="fill:none;fill-rule:nonzero;"/>
        </g>
        <g transform="matrix(413.316,485.987,485.987,-413.316,171.957,-16.8865)">
            <path d="M0.231,-0.013C0.238,-0.005 0.245,0.003 0.251,0.011C0.244,0.013 0.237,0.013 0.23,0.011C0.232,0.003 0.233,-0.005 0.231,-0.013Z" style="fill:none;fill-rule:nonzero;"/>
        </g>
        <g transform="matrix(413.321,485.993,485.993,-413.321,-40.3983,163.711)">
            <path d="M0.328,-0.011C0.336,-0.008 0.344,-0.008 0.352,-0.009C0.344,-0.002 0.336,0.004 0.328,0.011C0.327,0.004 0.327,-0.004 0.328,-0.011Z" style="fill:none;fill-rule:nonzero;"/>
        </g>
        <g transform="matrix(413.316,485.987,485.987,-413.316,7.78753,122.737)">
            <path d="M0.766,-0.011C0.773,-0.013 0.78,-0.013 0.787,-0.011C0.785,-0.003 0.784,0.005 0.785,0.013C0.779,0.005 0.772,-0.003 0.766,-0.011Z" style="fill:none;fill-rule:nonzero;"/>
        </g>
        <g transform="matrix(413.319,485.99,485.99,-413.319,224.114,-61.2456)">
            <path d="M0.251,0.004C0.256,0.007 0.262,0.008 0.268,0.006C0.273,0.004 0.276,-0.001 0.278,-0.006C0.28,-0.011 0.28,-0.016 0.279,-0.022C0.284,-0.014 0.286,-0.003 0.285,0.006C0.284,0.011 0.282,0.017 0.277,0.019C0.274,0.021 0.271,0.021 0.267,0.022C0.27,0.02 0.272,0.017 0.272,0.013C0.272,0.012 0.272,0.011 0.271,0.01C0.271,0.009 0.269,0.009 0.268,0.01C0.267,0.01 0.267,0.012 0.268,0.012C0.265,0.014 0.261,0.013 0.258,0.011C0.256,0.01 0.255,0.008 0.253,0.007C0.252,0.006 0.252,0.005 0.251,0.004Z" style="fill:none;fill-rule:nonzero;"/>
        </g>
        <g transform="matrix(413.321,485.992,485.992,-413.321,-26.3463,151.762)">
            <path d="M0.213,0.008C0.211,0.005 0.211,0.001 0.211,-0.002C0.213,0 0.215,0.003 0.219,0.003C0.22,0.003 0.221,0.003 0.222,0.002C0.223,0.001 0.223,0 0.223,-0.001C0.222,-0.002 0.22,-0.002 0.22,-0.001C0.218,-0.004 0.219,-0.008 0.221,-0.011C0.223,-0.014 0.226,-0.016 0.228,-0.018C0.225,-0.013 0.224,-0.007 0.226,-0.001C0.228,0.004 0.233,0.007 0.238,0.009C0.243,0.01 0.249,0.01 0.254,0.01C0.246,0.015 0.235,0.017 0.226,0.016C0.221,0.015 0.217,0.013 0.214,0.01C0.214,0.009 0.213,0.009 0.213,0.008Z" style="fill:none;fill-rule:nonzero;"/>
        </g>
        <g transform="matrix(413.319,485.99,485.99,-413.319,-44.371,167.09)">
            <path d="M0.732,-0.006C0.733,-0.011 0.735,-0.017 0.74,-0.019C0.743,-0.021 0.746,-0.021 0.75,-0.022C0.747,-0.02 0.745,-0.017 0.744,-0.013C0.744,-0.012 0.745,-0.011 0.745,-0.01C0.746,-0.009 0.747,-0.009 0.748,-0.01C0.749,-0.01 0.75,-0.012 0.749,-0.012C0.752,-0.014 0.756,-0.013 0.759,-0.011C0.762,-0.009 0.764,-0.007 0.766,-0.004C0.761,-0.007 0.754,-0.008 0.749,-0.006C0.744,-0.004 0.74,0.001 0.739,0.006C0.737,0.011 0.737,0.016 0.738,0.022C0.732,0.014 0.73,0.003 0.732,-0.006Z" style="fill:none;fill-rule:nonzero;"/>
        </g>
        <g transform="matrix(413.321,485.992,485.992,-413.321,206.086,-45.9185)">
            <path d="M0.791,-0.016C0.796,-0.015 0.801,-0.013 0.804,-0.008C0.806,-0.005 0.806,-0.001 0.806,0.002C0.804,-0 0.801,-0.003 0.798,-0.003C0.797,-0.003 0.796,-0.003 0.795,-0.002C0.794,-0.001 0.794,-0 0.794,0.001C0.795,0.002 0.796,0.002 0.797,0.001C0.798,0.004 0.798,0.008 0.796,0.011C0.794,0.014 0.791,0.016 0.788,0.018C0.791,0.013 0.793,0.007 0.79,0.001C0.788,-0.004 0.784,-0.007 0.779,-0.009C0.774,-0.01 0.768,-0.01 0.763,-0.01C0.771,-0.015 0.781,-0.017 0.791,-0.016Z" style="fill:none;fill-rule:nonzero;"/>
        </g>
        <g transform="matrix(413.319,485.99,485.99,-413.319,240.735,-75.3829)">
            <path d="M0.684,0.004C0.684,-0.005 0.687,-0.015 0.694,-0.022C0.692,-0.017 0.691,-0.012 0.692,-0.007C0.693,-0.001 0.696,0.004 0.701,0.007C0.706,0.01 0.712,0.009 0.718,0.007C0.715,0.01 0.712,0.012 0.709,0.013C0.706,0.015 0.702,0.015 0.699,0.013C0.7,0.013 0.7,0.011 0.699,0.01C0.699,0.01 0.697,0.01 0.696,0.01C0.695,0.011 0.695,0.012 0.695,0.013C0.694,0.017 0.696,0.02 0.699,0.022C0.695,0.022 0.692,0.021 0.689,0.018C0.689,0.018 0.688,0.018 0.688,0.017C0.685,0.014 0.684,0.009 0.684,0.004Z" style="fill:none;fill-rule:nonzero;"/>
        </g>
        <g transform="matrix(413.32,485.991,485.991,-413.32,183.256,-26.4973)">
            <path d="M0.185,0.009C0.183,0.006 0.183,0.002 0.185,-0.001C0.185,-0 0.187,-0 0.188,-0.001C0.188,-0.002 0.188,-0.003 0.188,-0.004C0.187,-0.005 0.186,-0.005 0.185,-0.006C0.181,-0.006 0.178,-0.004 0.176,-0.002C0.176,-0.005 0.177,-0.009 0.179,-0.011C0.183,-0.016 0.188,-0.017 0.194,-0.017C0.203,-0.017 0.213,-0.013 0.22,-0.007C0.215,-0.008 0.21,-0.009 0.205,-0.008C0.199,-0.007 0.194,-0.005 0.191,-0C0.188,0.005 0.189,0.012 0.191,0.017C0.19,0.016 0.189,0.015 0.188,0.014C0.187,0.013 0.186,0.011 0.185,0.009Z" style="fill:none;fill-rule:nonzero;"/>
        </g>
        <g transform="matrix(413.319,485.99,485.99,-413.319,-60.9916,181.227)">
            <path d="M0.324,0.007C0.324,0.001 0.321,-0.004 0.316,-0.007C0.311,-0.01 0.305,-0.009 0.299,-0.007C0.302,-0.01 0.304,-0.012 0.308,-0.013C0.311,-0.015 0.315,-0.015 0.317,-0.013C0.316,-0.013 0.317,-0.011 0.317,-0.01C0.318,-0.01 0.32,-0.01 0.32,-0.01C0.321,-0.011 0.322,-0.012 0.322,-0.013C0.322,-0.017 0.32,-0.02 0.318,-0.022C0.322,-0.022 0.325,-0.021 0.328,-0.019C0.332,-0.015 0.333,-0.01 0.333,-0.004C0.333,0.005 0.329,0.015 0.323,0.022C0.324,0.017 0.325,0.012 0.324,0.007Z" style="fill:none;fill-rule:nonzero;"/>
        </g>
        <g transform="matrix(413.32,485.991,485.991,-413.32,-3.51527,132.341)">
            <path d="M0.812,0.008C0.818,0.007 0.823,0.005 0.825,0C0.828,-0.005 0.828,-0.012 0.826,-0.017C0.828,-0.014 0.831,-0.012 0.832,-0.009C0.834,-0.006 0.834,-0.002 0.832,0.001C0.831,0 0.83,0 0.829,0.001C0.828,0.002 0.829,0.003 0.829,0.004C0.83,0.005 0.831,0.005 0.832,0.006C0.835,0.006 0.839,0.004 0.841,0.002C0.84,0.005 0.84,0.009 0.837,0.011C0.834,0.016 0.828,0.017 0.823,0.017C0.813,0.017 0.804,0.013 0.796,0.007C0.802,0.008 0.807,0.009 0.812,0.008Z" style="fill:none;fill-rule:nonzero;"/>
        </g>
        <g transform="matrix(413.316,485.986,485.986,-413.316,221.742,-59.2267)">
            <path d="M0.289,-0.015L0.301,-0.015L0.321,0.008C0.317,0.009 0.315,0.012 0.315,0.015C0.315,0.015 0.315,0.015 0.315,0.015L0.289,-0.015Z" style="fill:none;fill-rule:nonzero;"/>
        </g>
        <g transform="matrix(413.318,485.989,485.989,-413.318,-9.00464,137.015)">
            <path d="M0.252,-0.016L0.252,-0.004L0.229,0.016C0.228,0.012 0.225,0.01 0.222,0.011C0.222,0.011 0.222,0.01 0.222,0.01L0.252,-0.016Z" style="fill:none;fill-rule:nonzero;"/>
        </g>
        <g transform="matrix(413.315,485.986,485.986,-413.315,-41.9939,165.075)">
            <path d="M0.696,-0.008C0.699,-0.009 0.702,-0.012 0.701,-0.015C0.701,-0.015 0.701,-0.015 0.701,-0.015L0.728,0.015L0.716,0.015L0.696,-0.008Z" style="fill:none;fill-rule:nonzero;"/>
        </g>
        <g transform="matrix(413.318,485.989,485.989,-413.318,188.748,-31.167)">
            <path d="M0.764,0.004L0.788,-0.016C0.788,-0.012 0.792,-0.01 0.795,-0.011C0.795,-0.011 0.795,-0.01 0.795,-0.01L0.764,0.016L0.764,0.004Z" style="fill:none;fill-rule:nonzero;"/>
        </g>
        <g transform="matrix(413.316,485.987,485.987,-413.316,235.668,-71.0694)">
            <path d="M0.653,0.014C0.654,0.011 0.652,0.007 0.649,0.006L0.672,-0.014L0.684,-0.012L0.653,0.014C0.653,0.014 0.653,0.014 0.653,0.014Z" style="fill:none;fill-rule:nonzero;"/>
        </g>
        <g transform="matrix(413.317,485.988,485.988,-413.317,166.58,-12.3135)">
            <path d="M0.194,-0.013C0.194,-0.013 0.194,-0.013 0.195,-0.013C0.198,-0.013 0.201,-0.014 0.203,-0.017L0.222,0.006L0.221,0.017L0.194,-0.013Z" style="fill:none;fill-rule:nonzero;"/>
        </g>
        <g transform="matrix(413.316,485.987,485.987,-413.316,-55.9243,176.92)">
            <path d="M0.364,-0.014C0.364,-0.014 0.364,-0.014 0.364,-0.014C0.363,-0.011 0.365,-0.007 0.368,-0.006L0.345,0.014L0.333,0.012L0.364,-0.014Z" style="fill:none;fill-rule:nonzero;"/>
        </g>
        <g transform="matrix(413.317,485.988,485.988,-413.317,13.1654,118.163)">
            <path d="M0.794,-0.006L0.796,-0.017L0.822,0.013C0.822,0.013 0.822,0.013 0.822,0.013C0.819,0.013 0.816,0.014 0.814,0.017L0.794,-0.006Z" style="fill:none;fill-rule:nonzero;"/>
        </g>
        <g transform="matrix(413.318,485.989,485.989,-413.318,275.58,-105.015)">
            <path d="M0.323,-0.087C0.326,-0.085 0.33,-0.086 0.334,-0.085C0.334,-0.085 0.335,-0.085 0.335,-0.085L0.471,0.075L0.631,-0.062C0.632,-0.061 0.633,-0.061 0.633,-0.061C0.637,-0.061 0.641,-0.06 0.644,-0.061L0.47,0.087L0.323,-0.087Z" style="fill:none;fill-rule:nonzero;"/>
        </g>
        <g transform="matrix(413.318,485.989,485.989,-413.318,101.974,42.6315)">
            <path d="M0.805,0.15C0.805,0.149 0.805,0.149 0.805,0.148L0.965,0.012L0.829,-0.148C0.829,-0.149 0.83,-0.149 0.83,-0.15C0.83,-0.154 0.831,-0.157 0.83,-0.161L0.978,0.013L0.804,0.161C0.805,0.157 0.805,0.154 0.805,0.15Z" style="fill:none;fill-rule:nonzero;"/>
        </g>
        <g transform="matrix(413.318,485.989,485.989,-413.318,-95.8337,210.861)">
            <path d="M0.546,-0.087L0.694,0.087C0.691,0.085 0.687,0.086 0.683,0.085C0.683,0.085 0.682,0.085 0.681,0.085L0.545,-0.075L0.385,0.062C0.385,0.061 0.384,0.061 0.383,0.061C0.379,0.061 0.376,0.06 0.372,0.061L0.546,-0.087Z" style="fill:none;fill-rule:nonzero;"/>
        </g>
        <g transform="matrix(413.318,485.989,485.989,-413.318,77.772,63.214)">
            <path d="M0.039,-0.013L0.213,-0.161C0.212,-0.157 0.212,-0.154 0.211,-0.15C0.211,-0.149 0.211,-0.149 0.212,-0.148L0.052,-0.012L0.188,0.148C0.187,0.149 0.187,0.149 0.187,0.15C0.187,0.154 0.186,0.157 0.187,0.161L0.039,-0.013Z" style="fill:none;fill-rule:nonzero;"/>
        </g>
        <g transform="matrix(413.319,485.99,485.99,-413.319,241.449,-75.9881)">
            <path d="M0.311,0.03C0.312,0.024 0.316,0.018 0.321,0.017C0.327,0.015 0.333,0.018 0.335,0.024C0.336,0.027 0.335,0.031 0.332,0.033C0.331,0.034 0.329,0.034 0.327,0.034C0.325,0.033 0.324,0.032 0.323,0.03C0.323,0.029 0.324,0.028 0.324,0.028C0.325,0.028 0.326,0.028 0.327,0.029C0.327,0.03 0.327,0.03 0.328,0.03C0.329,0.031 0.33,0.031 0.33,0.03C0.332,0.029 0.332,0.027 0.332,0.025C0.331,0.021 0.326,0.019 0.322,0.02C0.318,0.021 0.315,0.025 0.315,0.03C0.315,0.034 0.317,0.038 0.32,0.041C0.325,0.045 0.331,0.047 0.336,0.045C0.342,0.044 0.347,0.04 0.349,0.035C0.352,0.028 0.35,0.019 0.345,0.012C0.339,0.004 0.33,0.001 0.323,-0.001C0.322,-0.001 0.32,-0.001 0.318,-0.002C0.313,-0.003 0.307,-0.004 0.302,-0.008C0.297,-0.011 0.295,-0.016 0.294,-0.022C0.294,-0.029 0.295,-0.035 0.299,-0.04C0.305,-0.047 0.315,-0.05 0.325,-0.048C0.325,-0.048 0.326,-0.048 0.326,-0.047C0.326,-0.047 0.327,-0.047 0.326,-0.046C0.326,-0.045 0.325,-0.044 0.324,-0.045C0.316,-0.046 0.307,-0.043 0.302,-0.037C0.299,-0.034 0.297,-0.028 0.298,-0.023C0.298,-0.018 0.3,-0.014 0.304,-0.011C0.308,-0.007 0.313,-0.006 0.319,-0.005C0.321,-0.005 0.322,-0.004 0.324,-0.004C0.331,-0.002 0.341,0.002 0.347,0.01C0.354,0.017 0.356,0.028 0.352,0.036C0.35,0.042 0.344,0.047 0.337,0.049C0.331,0.05 0.323,0.049 0.318,0.044C0.317,0.043 0.316,0.043 0.316,0.042C0.313,0.038 0.311,0.034 0.311,0.03Z" style="fill:none;fill-rule:nonzero;"/>
        </g>
        <g transform="matrix(413.318,485.988,485.988,-413.318,0.868504,128.618)">
            <path d="M0.148,0.012C0.146,0.005 0.148,-0.002 0.152,-0.007C0.156,-0.012 0.161,-0.014 0.167,-0.014C0.173,-0.014 0.178,-0.01 0.18,-0.004C0.182,0.001 0.178,0.008 0.173,0.01C0.169,0.011 0.165,0.01 0.163,0.007C0.162,0.005 0.162,0.003 0.163,0.001C0.163,-0 0.165,-0.002 0.167,-0.002C0.167,-0.002 0.168,-0.002 0.169,-0.001C0.169,0 0.168,0.001 0.167,0.001C0.167,0.002 0.166,0.002 0.166,0.003C0.166,0.003 0.166,0.004 0.166,0.005C0.167,0.007 0.17,0.007 0.172,0.006C0.175,0.005 0.178,0.001 0.176,-0.003C0.175,-0.007 0.171,-0.01 0.167,-0.01C0.162,-0.011 0.158,-0.008 0.155,-0.005C0.151,-0 0.15,0.006 0.151,0.011C0.153,0.017 0.157,0.021 0.162,0.024C0.169,0.027 0.178,0.025 0.185,0.019C0.192,0.013 0.196,0.004 0.197,-0.002C0.198,-0.004 0.198,-0.005 0.198,-0.007C0.199,-0.013 0.201,-0.019 0.205,-0.024C0.208,-0.028 0.213,-0.03 0.219,-0.031C0.225,-0.032 0.232,-0.03 0.236,-0.026C0.237,-0.025 0.238,-0.024 0.239,-0.023C0.244,-0.017 0.246,-0.009 0.245,-0C0.244,0.001 0.243,0.001 0.243,0.001C0.242,0.001 0.241,0 0.241,-0.001C0.243,-0.009 0.24,-0.018 0.234,-0.023C0.23,-0.027 0.225,-0.028 0.219,-0.028C0.214,-0.027 0.21,-0.025 0.207,-0.021C0.204,-0.017 0.203,-0.012 0.202,-0.006C0.201,-0.004 0.201,-0.003 0.201,-0.001C0.199,0.006 0.195,0.016 0.187,0.022C0.179,0.029 0.169,0.03 0.16,0.027C0.157,0.026 0.155,0.024 0.152,0.021C0.15,0.018 0.149,0.015 0.148,0.012Z" style="fill:none;fill-rule:nonzero;"/>
        </g>
        <g transform="matrix(413.318,485.989,485.989,-413.318,-61.7062,181.837)">
            <path d="M0.69,0.046C0.691,0.045 0.691,0.044 0.692,0.045C0.701,0.046 0.71,0.043 0.715,0.037C0.718,0.034 0.72,0.028 0.719,0.023C0.719,0.018 0.716,0.014 0.713,0.011C0.709,0.007 0.703,0.006 0.698,0.005C0.696,0.005 0.694,0.004 0.693,0.004C0.686,0.002 0.676,-0.002 0.669,-0.01C0.663,-0.017 0.661,-0.028 0.665,-0.036C0.667,-0.042 0.673,-0.047 0.68,-0.049C0.686,-0.05 0.693,-0.049 0.699,-0.044C0.699,-0.043 0.7,-0.043 0.701,-0.042C0.704,-0.038 0.706,-0.034 0.705,-0.03C0.705,-0.024 0.701,-0.018 0.696,-0.017C0.69,-0.015 0.683,-0.018 0.682,-0.024C0.681,-0.027 0.682,-0.031 0.684,-0.033C0.686,-0.034 0.688,-0.034 0.69,-0.034C0.692,-0.033 0.693,-0.032 0.694,-0.03C0.694,-0.029 0.693,-0.028 0.692,-0.028C0.691,-0.028 0.69,-0.028 0.69,-0.029C0.69,-0.03 0.689,-0.03 0.689,-0.03C0.688,-0.031 0.687,-0.031 0.686,-0.03C0.685,-0.029 0.685,-0.027 0.685,-0.025C0.686,-0.021 0.691,-0.019 0.695,-0.02C0.699,-0.021 0.702,-0.025 0.702,-0.03C0.702,-0.034 0.7,-0.038 0.696,-0.041C0.692,-0.045 0.686,-0.047 0.68,-0.045C0.675,-0.044 0.67,-0.04 0.668,-0.035C0.665,-0.028 0.667,-0.019 0.672,-0.012C0.678,-0.004 0.687,-0.001 0.694,0.001C0.695,0.001 0.697,0.001 0.698,0.002C0.704,0.003 0.71,0.004 0.715,0.008C0.719,0.011 0.722,0.016 0.723,0.022C0.723,0.029 0.721,0.035 0.718,0.04C0.712,0.047 0.702,0.05 0.692,0.048C0.691,0.048 0.691,0.048 0.691,0.048C0.69,0.047 0.69,0.047 0.69,0.046Z" style="fill:none;fill-rule:nonzero;"/>
        </g>
        <g transform="matrix(413.32,485.991,485.991,-413.32,178.874,-22.7713)">
            <path d="M0.772,0C0.772,-0.001 0.773,-0.001 0.774,-0.001C0.775,-0.001 0.776,-0 0.776,0.001C0.774,0.009 0.777,0.018 0.783,0.023C0.787,0.027 0.792,0.028 0.798,0.028C0.803,0.027 0.807,0.025 0.81,0.021C0.813,0.017 0.814,0.012 0.815,0.006C0.815,0.004 0.816,0.003 0.816,0.001C0.818,-0.006 0.822,-0.016 0.83,-0.022C0.838,-0.029 0.848,-0.03 0.856,-0.027C0.859,-0.026 0.862,-0.024 0.864,-0.021C0.867,-0.018 0.868,-0.015 0.869,-0.012C0.871,-0.005 0.869,0.002 0.864,0.007C0.861,0.012 0.855,0.014 0.85,0.014C0.844,0.014 0.839,0.01 0.837,0.004C0.835,-0.001 0.839,-0.008 0.844,-0.01C0.848,-0.011 0.852,-0.01 0.853,-0.007C0.855,-0.005 0.855,-0.003 0.854,-0.001C0.853,0 0.852,0.002 0.85,0.002C0.849,0.002 0.848,0.002 0.848,0.001C0.848,-0 0.849,-0.001 0.849,-0.001C0.85,-0.002 0.851,-0.002 0.851,-0.003C0.851,-0.003 0.851,-0.004 0.85,-0.005C0.849,-0.007 0.847,-0.007 0.845,-0.006C0.842,-0.005 0.839,-0.001 0.84,0.003C0.842,0.007 0.846,0.01 0.85,0.01C0.854,0.011 0.859,0.008 0.862,0.005C0.865,0 0.867,-0.006 0.866,-0.011C0.864,-0.017 0.86,-0.021 0.855,-0.024C0.848,-0.027 0.839,-0.025 0.832,-0.019C0.825,-0.013 0.821,-0.004 0.82,0.002C0.819,0.004 0.819,0.005 0.819,0.007C0.817,0.013 0.816,0.019 0.812,0.024C0.809,0.028 0.804,0.03 0.798,0.031C0.792,0.032 0.785,0.03 0.781,0.026C0.78,0.025 0.779,0.024 0.778,0.023C0.773,0.017 0.771,0.009 0.772,0Z" style="fill:none;fill-rule:nonzero;"/>
        </g>
        <g transform="matrix(413.316,485.987,485.987,-413.316,254.228,-86.8553)">
            <path d="M0.607,0.03C0.605,0.022 0.608,0.012 0.616,0.005C0.624,-0.002 0.634,-0.004 0.641,-0.005C0.643,-0.005 0.644,-0.005 0.646,-0.005C0.652,-0.005 0.657,-0.006 0.662,-0.008C0.666,-0.01 0.669,-0.014 0.67,-0.019C0.671,-0.024 0.671,-0.03 0.668,-0.034C0.664,-0.041 0.656,-0.045 0.647,-0.045C0.646,-0.045 0.645,-0.046 0.645,-0.047C0.645,-0.048 0.646,-0.048 0.647,-0.048C0.656,-0.049 0.664,-0.045 0.669,-0.039C0.67,-0.038 0.67,-0.037 0.671,-0.036C0.674,-0.031 0.675,-0.024 0.673,-0.018C0.672,-0.012 0.668,-0.008 0.664,-0.005C0.658,-0.002 0.652,-0.002 0.646,-0.001C0.644,-0.001 0.643,-0.001 0.641,-0.001C0.635,-0.001 0.625,0.001 0.618,0.008C0.611,0.013 0.608,0.022 0.61,0.03C0.612,0.035 0.616,0.04 0.621,0.042C0.626,0.044 0.632,0.044 0.637,0.041C0.641,0.038 0.644,0.034 0.645,0.03C0.645,0.026 0.643,0.021 0.639,0.019C0.636,0.018 0.63,0.019 0.629,0.023C0.628,0.024 0.628,0.027 0.629,0.028C0.63,0.029 0.631,0.029 0.632,0.029C0.632,0.029 0.633,0.028 0.633,0.028C0.633,0.027 0.634,0.026 0.635,0.027C0.636,0.027 0.637,0.028 0.636,0.029C0.636,0.031 0.634,0.032 0.632,0.032C0.63,0.033 0.628,0.032 0.627,0.031C0.624,0.028 0.624,0.024 0.626,0.021C0.628,0.016 0.635,0.014 0.641,0.016C0.646,0.019 0.649,0.025 0.648,0.031C0.647,0.036 0.644,0.041 0.639,0.044C0.633,0.047 0.626,0.048 0.619,0.045C0.616,0.044 0.614,0.042 0.611,0.039C0.609,0.037 0.608,0.034 0.607,0.03Z" style="fill:none;fill-rule:nonzero;"/>
        </g>
        <g transform="matrix(413.316,485.987,485.987,-413.316,153.541,-1.22495)">
            <path d="M0.126,-0C0.123,-0.006 0.122,-0.014 0.125,-0.02C0.128,-0.026 0.133,-0.031 0.14,-0.033C0.149,-0.035 0.159,-0.031 0.165,-0.024C0.165,-0.024 0.166,-0.023 0.166,-0.023C0.172,-0.016 0.174,-0.006 0.175,0.002C0.175,0.003 0.175,0.005 0.175,0.007C0.175,0.012 0.176,0.018 0.178,0.023C0.18,0.026 0.184,0.029 0.189,0.031C0.194,0.032 0.2,0.031 0.204,0.029C0.211,0.025 0.215,0.016 0.215,0.008C0.215,0.007 0.216,0.006 0.217,0.006C0.217,0.006 0.218,0.006 0.218,0.007C0.218,0.007 0.219,0.007 0.219,0.008C0.219,0.018 0.214,0.027 0.206,0.032C0.201,0.035 0.194,0.036 0.188,0.034C0.182,0.032 0.178,0.029 0.175,0.024C0.172,0.019 0.172,0.013 0.172,0.007C0.172,0.005 0.172,0.003 0.171,0.002C0.171,-0.005 0.169,-0.014 0.163,-0.021C0.157,-0.028 0.148,-0.031 0.141,-0.029C0.135,-0.028 0.13,-0.024 0.128,-0.019C0.126,-0.013 0.127,-0.007 0.129,-0.002C0.132,0.002 0.136,0.005 0.14,0.005C0.144,0.006 0.149,0.003 0.151,-0C0.153,-0.004 0.151,-0.009 0.148,-0.011C0.146,-0.012 0.143,-0.012 0.142,-0.01C0.142,-0.01 0.141,-0.009 0.142,-0.008C0.142,-0.007 0.142,-0.007 0.143,-0.006C0.143,-0.006 0.144,-0.005 0.144,-0.004C0.143,-0.003 0.142,-0.003 0.141,-0.003C0.14,-0.004 0.138,-0.005 0.138,-0.007C0.138,-0.009 0.138,-0.011 0.14,-0.013C0.142,-0.015 0.146,-0.016 0.149,-0.014C0.154,-0.011 0.157,-0.004 0.154,0.001C0.151,0.006 0.145,0.009 0.14,0.009C0.135,0.008 0.131,0.006 0.128,0.002C0.128,0.001 0.127,0.001 0.126,-0Z" style="fill:none;fill-rule:nonzero;"/>
        </g>
        <g transform="matrix(413.32,485.991,485.991,-413.32,-74.4867,192.704)">
            <path d="M0.346,0.036C0.343,0.031 0.342,0.024 0.343,0.018C0.345,0.012 0.348,0.008 0.353,0.005C0.359,0.002 0.365,0.002 0.371,0.002C0.372,0.001 0.374,0.001 0.376,0.001C0.382,0.001 0.392,-0.001 0.399,-0.008C0.405,-0.013 0.408,-0.022 0.407,-0.03C0.405,-0.035 0.401,-0.04 0.396,-0.042C0.391,-0.044 0.385,-0.044 0.38,-0.041C0.376,-0.038 0.373,-0.034 0.372,-0.03C0.372,-0.026 0.374,-0.021 0.378,-0.019C0.381,-0.018 0.386,-0.019 0.388,-0.023C0.389,-0.024 0.389,-0.027 0.388,-0.028C0.387,-0.029 0.386,-0.029 0.385,-0.029C0.385,-0.029 0.384,-0.028 0.384,-0.028C0.383,-0.027 0.382,-0.026 0.381,-0.027C0.381,-0.027 0.38,-0.028 0.38,-0.029C0.381,-0.031 0.383,-0.032 0.384,-0.032C0.386,-0.033 0.389,-0.032 0.39,-0.031C0.392,-0.028 0.393,-0.024 0.391,-0.021C0.389,-0.016 0.382,-0.014 0.376,-0.016C0.371,-0.019 0.368,-0.025 0.369,-0.031C0.369,-0.036 0.373,-0.041 0.378,-0.044C0.384,-0.047 0.391,-0.048 0.397,-0.045C0.4,-0.044 0.403,-0.042 0.406,-0.039C0.408,-0.037 0.409,-0.034 0.41,-0.03C0.412,-0.022 0.409,-0.012 0.401,-0.005C0.393,0.002 0.383,0.004 0.376,0.005C0.374,0.005 0.373,0.005 0.371,0.005C0.365,0.005 0.36,0.006 0.355,0.008C0.351,0.01 0.348,0.014 0.347,0.019C0.345,0.024 0.346,0.03 0.349,0.034C0.353,0.041 0.361,0.045 0.37,0.045C0.371,0.045 0.371,0.046 0.371,0.047C0.371,0.048 0.371,0.048 0.37,0.048C0.361,0.049 0.353,0.045 0.348,0.039C0.347,0.038 0.346,0.037 0.346,0.036Z" style="fill:none;fill-rule:nonzero;"/>
        </g>
        <g transform="matrix(413.318,485.989,485.989,-413.318,26.2,107.073)">
            <path d="M0.798,-0.008C0.798,-0.018 0.803,-0.027 0.811,-0.032C0.816,-0.035 0.822,-0.036 0.829,-0.034C0.834,-0.032 0.839,-0.029 0.842,-0.024C0.845,-0.019 0.845,-0.013 0.845,-0.007C0.845,-0.005 0.845,-0.003 0.845,-0.002C0.846,0.005 0.848,0.014 0.854,0.021C0.86,0.028 0.869,0.031 0.876,0.029C0.882,0.028 0.886,0.024 0.889,0.019C0.891,0.013 0.89,0.007 0.887,0.002C0.885,-0.002 0.881,-0.005 0.877,-0.005C0.872,-0.006 0.868,-0.003 0.866,0C0.864,0.004 0.866,0.009 0.869,0.011C0.871,0.012 0.873,0.012 0.875,0.01C0.875,0.01 0.875,0.009 0.875,0.008C0.875,0.007 0.875,0.007 0.874,0.006C0.873,0.006 0.873,0.005 0.873,0.004C0.874,0.003 0.875,0.003 0.876,0.003C0.877,0.004 0.878,0.005 0.879,0.007C0.879,0.009 0.879,0.011 0.877,0.013C0.875,0.015 0.871,0.016 0.868,0.014C0.862,0.011 0.86,0.004 0.863,-0.001C0.865,-0.006 0.871,-0.009 0.877,-0.009C0.881,-0.008 0.885,-0.006 0.888,-0.002C0.889,-0.001 0.89,-0.001 0.89,0C0.894,0.006 0.894,0.014 0.892,0.02C0.889,0.026 0.883,0.031 0.877,0.033C0.868,0.035 0.858,0.031 0.852,0.024C0.845,0.016 0.842,0.006 0.842,-0.002C0.842,-0.003 0.842,-0.005 0.842,-0.007C0.841,-0.012 0.841,-0.018 0.838,-0.023C0.836,-0.026 0.832,-0.029 0.828,-0.031C0.822,-0.032 0.817,-0.031 0.813,-0.029C0.806,-0.025 0.802,-0.016 0.802,-0.008C0.802,-0.007 0.801,-0.006 0.8,-0.006C0.799,-0.006 0.799,-0.006 0.799,-0.007C0.798,-0.007 0.798,-0.007 0.798,-0.008Z" style="fill:none;fill-rule:nonzero;"/>
        </g>
        <g transform="matrix(413.318,485.989,485.989,-413.318,253.63,-86.3474)">
            <path d="M0.366,0.044C0.366,0.044 0.366,0.043 0.366,0.043C0.376,0.029 0.379,0.011 0.373,-0.005C0.367,-0.021 0.353,-0.033 0.337,-0.037C0.335,-0.038 0.333,-0.038 0.332,-0.038C0.328,-0.039 0.324,-0.039 0.321,-0.041C0.316,-0.043 0.314,-0.045 0.313,-0.049C0.311,-0.054 0.316,-0.059 0.321,-0.061C0.326,-0.062 0.331,-0.061 0.336,-0.06C0.336,-0.06 0.336,-0.059 0.336,-0.059C0.337,-0.059 0.337,-0.058 0.337,-0.058C0.337,-0.057 0.336,-0.056 0.335,-0.056C0.331,-0.057 0.326,-0.058 0.322,-0.057C0.319,-0.056 0.315,-0.053 0.316,-0.05C0.317,-0.047 0.32,-0.045 0.322,-0.044C0.325,-0.043 0.329,-0.042 0.332,-0.042C0.334,-0.041 0.336,-0.041 0.337,-0.041C0.355,-0.037 0.37,-0.023 0.376,-0.006C0.382,0.01 0.38,0.029 0.37,0.043C0.383,0.052 0.398,0.057 0.413,0.059C0.414,0.059 0.415,0.06 0.414,0.061C0.414,0.062 0.413,0.063 0.412,0.063C0.396,0.061 0.38,0.055 0.367,0.045C0.367,0.045 0.366,0.045 0.366,0.045C0.366,0.045 0.366,0.044 0.366,0.044Z" style="fill:none;fill-rule:nonzero;"/>
        </g>
        <g transform="matrix(413.318,485.989,485.989,-413.318,19.1867,113.039)">
            <path d="M0.109,0.049C0.111,0.033 0.117,0.017 0.126,0.004C0.126,0.003 0.127,0.003 0.127,0.003C0.128,0.003 0.128,0.003 0.129,0.003C0.142,0.013 0.161,0.016 0.177,0.01C0.192,0.004 0.205,-0.01 0.209,-0.026C0.209,-0.028 0.209,-0.03 0.21,-0.031C0.21,-0.035 0.211,-0.039 0.212,-0.042C0.214,-0.047 0.217,-0.049 0.22,-0.05C0.224,-0.051 0.227,-0.049 0.23,-0.047C0.231,-0.045 0.232,-0.043 0.232,-0.042C0.234,-0.037 0.232,-0.032 0.231,-0.027C0.231,-0.026 0.23,-0.026 0.229,-0.026C0.228,-0.026 0.227,-0.027 0.228,-0.028C0.229,-0.032 0.23,-0.037 0.229,-0.041C0.228,-0.044 0.224,-0.048 0.221,-0.047C0.218,-0.046 0.216,-0.043 0.216,-0.041C0.214,-0.038 0.214,-0.034 0.213,-0.031C0.213,-0.029 0.212,-0.027 0.212,-0.025C0.208,-0.008 0.195,0.007 0.178,0.014C0.162,0.02 0.142,0.017 0.128,0.007C0.12,0.02 0.114,0.035 0.112,0.05C0.112,0.051 0.111,0.052 0.11,0.051C0.11,0.051 0.109,0.051 0.109,0.051C0.109,0.05 0.109,0.05 0.109,0.049Z" style="fill:none;fill-rule:nonzero;"/>
        </g>
        <g transform="matrix(413.318,485.989,485.989,-413.318,-73.8863,192.194)">
            <path d="M0.68,0.058C0.68,0.057 0.681,0.056 0.682,0.056C0.686,0.057 0.691,0.058 0.695,0.057C0.698,0.056 0.701,0.053 0.701,0.05C0.7,0.047 0.697,0.045 0.695,0.044C0.692,0.043 0.688,0.042 0.685,0.042C0.683,0.041 0.681,0.041 0.679,0.041C0.662,0.037 0.647,0.023 0.64,0.006C0.634,-0.01 0.637,-0.029 0.647,-0.043C0.634,-0.052 0.619,-0.057 0.604,-0.059C0.603,-0.059 0.602,-0.06 0.602,-0.061C0.603,-0.062 0.603,-0.063 0.604,-0.063C0.621,-0.061 0.637,-0.055 0.65,-0.045C0.65,-0.045 0.65,-0.045 0.65,-0.045C0.651,-0.045 0.651,-0.044 0.651,-0.044C0.651,-0.044 0.651,-0.043 0.651,-0.043C0.641,-0.029 0.638,-0.011 0.644,0.005C0.649,0.021 0.664,0.033 0.68,0.037C0.682,0.038 0.683,0.038 0.685,0.038C0.689,0.039 0.693,0.039 0.696,0.041C0.7,0.043 0.703,0.045 0.704,0.049C0.705,0.054 0.701,0.059 0.696,0.061C0.691,0.062 0.685,0.061 0.681,0.06C0.681,0.06 0.681,0.059 0.68,0.059C0.68,0.059 0.68,0.058 0.68,0.058Z" style="fill:none;fill-rule:nonzero;"/>
        </g>
        <g transform="matrix(413.319,485.99,485.99,-413.319,160.556,-7.19122)">
            <path d="M0.785,0.042C0.783,0.037 0.785,0.032 0.786,0.027C0.786,0.026 0.787,0.026 0.788,0.026C0.789,0.026 0.789,0.027 0.789,0.028C0.788,0.032 0.787,0.037 0.788,0.041C0.789,0.044 0.792,0.048 0.796,0.047C0.799,0.046 0.8,0.043 0.801,0.041C0.803,0.038 0.803,0.034 0.804,0.031C0.804,0.029 0.804,0.027 0.805,0.025C0.809,0.008 0.822,-0.007 0.839,-0.014C0.855,-0.02 0.875,-0.017 0.889,-0.007C0.897,-0.02 0.903,-0.035 0.904,-0.05C0.905,-0.051 0.905,-0.052 0.906,-0.051C0.907,-0.051 0.907,-0.051 0.908,-0.051C0.908,-0.05 0.908,-0.05 0.908,-0.049C0.906,-0.033 0.9,-0.017 0.891,-0.004C0.89,-0.003 0.89,-0.003 0.89,-0.003C0.889,-0.003 0.889,-0.003 0.888,-0.003C0.875,-0.013 0.856,-0.016 0.84,-0.01C0.824,-0.004 0.812,0.01 0.808,0.026C0.808,0.028 0.808,0.03 0.807,0.031C0.807,0.035 0.806,0.039 0.805,0.042C0.803,0.047 0.8,0.049 0.797,0.05C0.793,0.051 0.79,0.049 0.787,0.047C0.786,0.045 0.785,0.043 0.785,0.042Z" style="fill:none;fill-rule:nonzero;"/>
        </g>
        <g transform="matrix(413.318,485.989,485.989,-413.318,262.627,-93.9993)">
            <path d="M0.537,0.053C0.537,0.052 0.538,0.051 0.539,0.051C0.554,0.051 0.57,0.048 0.584,0.042C0.576,0.027 0.577,0.007 0.586,-0.008C0.594,-0.024 0.612,-0.034 0.629,-0.035C0.631,-0.036 0.633,-0.036 0.635,-0.036C0.639,-0.036 0.642,-0.036 0.645,-0.037C0.647,-0.037 0.651,-0.038 0.652,-0.041C0.653,-0.044 0.651,-0.048 0.647,-0.05C0.643,-0.051 0.639,-0.051 0.635,-0.051C0.634,-0.05 0.633,-0.051 0.633,-0.052C0.633,-0.053 0.633,-0.054 0.634,-0.054C0.639,-0.054 0.644,-0.055 0.649,-0.053C0.65,-0.052 0.652,-0.051 0.653,-0.05C0.655,-0.047 0.657,-0.043 0.655,-0.04C0.654,-0.036 0.651,-0.034 0.646,-0.033C0.642,-0.032 0.639,-0.032 0.635,-0.032C0.633,-0.032 0.631,-0.032 0.63,-0.032C0.613,-0.031 0.597,-0.021 0.589,-0.006C0.58,0.008 0.58,0.027 0.588,0.042C0.588,0.043 0.588,0.043 0.588,0.044C0.588,0.044 0.587,0.044 0.587,0.045C0.572,0.052 0.555,0.055 0.539,0.054C0.538,0.054 0.538,0.054 0.538,0.054C0.537,0.053 0.537,0.053 0.537,0.053Z" style="fill:none;fill-rule:nonzero;"/>
        </g>
        <g transform="matrix(413.318,485.989,485.989,-413.318,133.443,15.8673)">
            <path d="M0.108,-0.011C0.101,-0.026 0.098,-0.043 0.099,-0.059C0.099,-0.06 0.099,-0.061 0.1,-0.061C0.101,-0.061 0.102,-0.06 0.102,-0.059C0.102,-0.044 0.105,-0.028 0.111,-0.014C0.126,-0.022 0.146,-0.021 0.161,-0.013C0.177,-0.004 0.187,0.014 0.188,0.031C0.189,0.033 0.189,0.035 0.189,0.037C0.189,0.04 0.189,0.044 0.189,0.047C0.19,0.049 0.191,0.053 0.194,0.054C0.197,0.055 0.201,0.053 0.203,0.049C0.204,0.045 0.204,0.041 0.203,0.037C0.203,0.036 0.204,0.035 0.205,0.035C0.206,0.035 0.206,0.035 0.207,0.035C0.207,0.036 0.207,0.036 0.207,0.036C0.207,0.041 0.208,0.046 0.206,0.051C0.204,0.056 0.198,0.059 0.192,0.057C0.189,0.056 0.187,0.053 0.186,0.048C0.185,0.044 0.185,0.041 0.185,0.037C0.185,0.035 0.185,0.033 0.185,0.032C0.184,0.015 0.174,-0.001 0.159,-0.009C0.145,-0.018 0.126,-0.018 0.111,-0.01C0.11,-0.01 0.11,-0.01 0.109,-0.01C0.109,-0.01 0.109,-0.011 0.109,-0.011C0.108,-0.011 0.108,-0.011 0.108,-0.011Z" style="fill:none;fill-rule:nonzero;"/>
        </g>
        <g transform="matrix(413.319,485.99,485.99,-413.319,-82.8841,199.846)">
            <path d="M0.362,0.04C0.363,0.036 0.366,0.034 0.371,0.033C0.374,0.032 0.378,0.032 0.382,0.032C0.384,0.032 0.385,0.032 0.387,0.032C0.404,0.031 0.42,0.021 0.428,0.006C0.436,-0.008 0.437,-0.027 0.429,-0.042C0.429,-0.043 0.429,-0.043 0.429,-0.044C0.429,-0.044 0.429,-0.044 0.43,-0.045C0.445,-0.052 0.461,-0.055 0.478,-0.054C0.478,-0.054 0.479,-0.054 0.479,-0.054C0.479,-0.053 0.48,-0.053 0.48,-0.053C0.479,-0.052 0.479,-0.051 0.478,-0.051C0.462,-0.051 0.447,-0.048 0.433,-0.042C0.44,-0.027 0.44,-0.007 0.431,0.008C0.422,0.024 0.405,0.034 0.387,0.035C0.386,0.036 0.384,0.036 0.382,0.036C0.378,0.036 0.375,0.036 0.371,0.037C0.37,0.037 0.366,0.038 0.365,0.041C0.364,0.044 0.366,0.048 0.369,0.05C0.373,0.051 0.378,0.051 0.382,0.051C0.383,0.05 0.384,0.051 0.384,0.052C0.384,0.053 0.383,0.054 0.382,0.054C0.378,0.054 0.373,0.055 0.368,0.053C0.366,0.052 0.365,0.051 0.364,0.05C0.361,0.047 0.36,0.043 0.362,0.04Z" style="fill:none;fill-rule:nonzero;"/>
        </g>
        <g transform="matrix(413.319,485.99,485.99,-413.319,46.297,89.9812)">
            <path d="M0.81,-0.036C0.809,-0.041 0.809,-0.046 0.811,-0.051C0.813,-0.056 0.819,-0.059 0.824,-0.057C0.827,-0.056 0.83,-0.053 0.831,-0.048C0.832,-0.044 0.832,-0.04 0.832,-0.037C0.832,-0.035 0.832,-0.033 0.832,-0.032C0.833,-0.015 0.843,0.001 0.858,0.009C0.872,0.018 0.891,0.018 0.906,0.01C0.907,0.01 0.907,0.01 0.907,0.01C0.908,0.01 0.908,0.011 0.908,0.011C0.908,0.011 0.908,0.011 0.908,0.011C0.915,0.026 0.919,0.043 0.918,0.059C0.918,0.06 0.917,0.061 0.916,0.061C0.915,0.061 0.915,0.06 0.915,0.059C0.915,0.044 0.912,0.028 0.906,0.014C0.89,0.022 0.871,0.021 0.856,0.013C0.84,0.004 0.829,-0.014 0.828,-0.031C0.828,-0.033 0.828,-0.035 0.828,-0.037C0.828,-0.04 0.828,-0.044 0.827,-0.047C0.827,-0.049 0.826,-0.053 0.823,-0.054C0.82,-0.055 0.816,-0.053 0.814,-0.049C0.813,-0.045 0.813,-0.041 0.813,-0.037C0.813,-0.036 0.813,-0.035 0.812,-0.035C0.811,-0.035 0.811,-0.035 0.81,-0.035C0.81,-0.036 0.81,-0.036 0.81,-0.036Z" style="fill:none;fill-rule:nonzero;"/>
        </g>
        <g transform="matrix(413.318,485.988,485.988,-413.318,292.762,-119.628)">
            <path d="M0.397,-0.038C0.409,-0.029 0.418,-0.017 0.427,-0.005C0.439,0.009 0.45,0.024 0.461,0.038C0.447,0.033 0.434,0.026 0.422,0.016C0.425,0.015 0.427,0.011 0.427,0.008C0.427,0.004 0.424,0.001 0.42,0.001C0.419,0.001 0.417,0.001 0.416,0.002C0.416,0.003 0.416,0.005 0.416,0.005C0.405,0 0.394,-0.007 0.386,-0.017C0.393,-0.021 0.397,-0.03 0.397,-0.038ZM0.417,0.006C0.417,0.006 0.417,0.005 0.416,0.005C0.417,0.005 0.417,0.005 0.417,0.006Z" style="fill:none;fill-rule:nonzero;"/>
        </g>
        <g transform="matrix(413.319,485.99,485.99,-413.319,48.6714,87.9628)">
            <path d="M0.074,-0.001C0.076,0.002 0.079,0.004 0.083,0.003C0.086,0.003 0.089,-0 0.09,-0.004C0.09,-0.005 0.09,-0.007 0.089,-0.007C0.088,-0.008 0.086,-0.008 0.086,-0.007C0.091,-0.019 0.098,-0.029 0.108,-0.038C0.112,-0.031 0.121,-0.026 0.129,-0.026C0.12,-0.015 0.108,-0.005 0.096,0.004C0.082,0.015 0.067,0.026 0.053,0.038C0.058,0.024 0.065,0.01 0.074,-0.001ZM0.086,-0.007C0.086,-0.007 0.085,-0.007 0.085,-0.006C0.085,-0.007 0.086,-0.007 0.086,-0.007Z" style="fill:none;fill-rule:nonzero;"/>
        </g>
        <g transform="matrix(413.318,485.988,485.988,-413.318,-113.016,225.473)">
            <path d="M0.589,0.005C0.578,-0.009 0.567,-0.024 0.555,-0.038C0.57,-0.033 0.583,-0.026 0.595,-0.016C0.591,-0.015 0.589,-0.011 0.59,-0.008C0.59,-0.004 0.593,-0.002 0.597,-0.001C0.598,-0.001 0.6,-0.001 0.601,-0.002C0.601,-0.003 0.601,-0.005 0.6,-0.005C0.612,-0 0.622,0.007 0.631,0.017C0.624,0.021 0.619,0.03 0.62,0.038C0.613,0.033 0.607,0.027 0.601,0.02C0.597,0.015 0.593,0.01 0.589,0.005ZM0.6,-0.005C0.6,-0.005 0.6,-0.005 0.6,-0.006C0.6,-0.006 0.6,-0.005 0.6,-0.005Z" style="fill:none;fill-rule:nonzero;"/>
        </g>
        <g transform="matrix(413.319,485.99,485.99,-413.319,131.073,17.883)">
            <path d="M0.92,-0.004C0.935,-0.015 0.95,-0.026 0.964,-0.038C0.959,-0.024 0.952,-0.01 0.942,0.001C0.941,-0.002 0.937,-0.004 0.934,-0.003C0.93,-0.003 0.927,0 0.927,0.004C0.927,0.005 0.927,0.007 0.928,0.007C0.929,0.008 0.93,0.008 0.931,0.007C0.926,0.019 0.918,0.029 0.909,0.038C0.905,0.031 0.896,0.026 0.888,0.026C0.897,0.015 0.909,0.005 0.92,-0.004ZM0.931,0.006C0.931,0.007 0.931,0.007 0.931,0.007C0.931,0.007 0.931,0.007 0.931,0.006Z" style="fill:none;fill-rule:nonzero;"/>
        </g>
        <g transform="matrix(413.318,485.989,485.989,-413.318,296.309,-122.644)">
            <path d="M0.522,-0.005C0.533,-0.015 0.544,-0.026 0.557,-0.033C0.556,-0.024 0.559,-0.015 0.565,-0.009C0.555,-0.002 0.543,0.004 0.531,0.007C0.532,0.007 0.533,0.005 0.532,0.004C0.531,0.003 0.53,0.003 0.528,0.002C0.525,0.002 0.521,0.005 0.52,0.008C0.519,0.012 0.521,0.016 0.524,0.017C0.511,0.025 0.496,0.03 0.482,0.033C0.495,0.02 0.509,0.007 0.522,-0.005ZM0.531,0.007C0.531,0.007 0.531,0.007 0.53,0.007C0.531,0.007 0.531,0.007 0.531,0.007Z" style="fill:none;fill-rule:nonzero;"/>
        </g>
        <g transform="matrix(413.319,485.991,485.991,-413.319,97.1143,46.7637)">
            <path d="M0.076,0.008C0.077,0.009 0.078,0.009 0.079,0.009C0.081,0.008 0.081,0.006 0.081,0.005C0.081,0.002 0.079,-0.002 0.075,-0.003C0.072,-0.004 0.068,-0.002 0.066,0.001C0.059,-0.013 0.054,-0.027 0.051,-0.042C0.064,-0.028 0.076,-0.015 0.089,-0.001C0.099,0.01 0.109,0.021 0.116,0.034C0.108,0.032 0.099,0.035 0.093,0.042C0.085,0.032 0.08,0.02 0.076,0.008ZM0.076,0.007C0.076,0.007 0.076,0.008 0.076,0.008C0.076,0.008 0.076,0.007 0.076,0.007Z" style="fill:none;fill-rule:nonzero;"/>
        </g>
        <g transform="matrix(413.318,485.989,485.989,-413.318,-116.562,228.488)">
            <path d="M0.452,0.009C0.462,0.002 0.473,-0.004 0.486,-0.007C0.485,-0.007 0.484,-0.005 0.485,-0.004C0.485,-0.003 0.487,-0.003 0.488,-0.003C0.492,-0.002 0.495,-0.005 0.496,-0.008C0.497,-0.012 0.496,-0.016 0.493,-0.017C0.506,-0.025 0.52,-0.03 0.535,-0.033C0.522,-0.02 0.508,-0.008 0.495,0.005C0.484,0.015 0.473,0.025 0.459,0.033C0.461,0.024 0.458,0.015 0.452,0.009ZM0.486,-0.007C0.486,-0.007 0.486,-0.007 0.486,-0.007C0.486,-0.007 0.486,-0.007 0.486,-0.007Z" style="fill:none;fill-rule:nonzero;"/>
        </g>
        <g transform="matrix(413.319,485.991,485.991,-413.319,82.6298,59.0827)">
            <path d="M0.9,-0.034C0.909,-0.032 0.918,-0.035 0.924,-0.042C0.931,-0.032 0.937,-0.02 0.94,-0.008C0.94,-0.009 0.938,-0.009 0.937,-0.009C0.936,-0.008 0.936,-0.007 0.936,-0.005C0.936,-0.002 0.938,0.002 0.941,0.003C0.945,0.004 0.949,0.002 0.951,-0.001C0.958,0.013 0.963,0.027 0.966,0.042C0.953,0.028 0.941,0.015 0.928,0.001C0.924,-0.004 0.919,-0.008 0.915,-0.013C0.91,-0.02 0.905,-0.026 0.9,-0.034ZM0.94,-0.008C0.941,-0.008 0.941,-0.007 0.941,-0.007C0.941,-0.007 0.94,-0.008 0.94,-0.008Z" style="fill:none;fill-rule:nonzero;"/>
        </g>
        <g transform="matrix(413.318,485.988,485.988,-413.318,230.097,-66.3324)">
            <path d="M0.325,-0.002C0.325,-0.003 0.325,-0.004 0.326,-0.005C0.327,-0.005 0.328,-0.005 0.329,-0.005C0.337,-0.005 0.344,-0.001 0.348,0.005C0.342,0.003 0.335,0.001 0.328,-0C0.327,-0.001 0.326,-0.001 0.325,-0.002C0.325,-0.002 0.325,-0.002 0.325,-0.002Z" style="fill:none;fill-rule:nonzero;"/>
        </g>
        <g transform="matrix(413.319,485.99,485.99,-413.319,6.32779,123.974)">
            <path d="M0.22,-0.008C0.221,-0.01 0.221,-0.011 0.222,-0.012C0.223,-0.012 0.224,-0.011 0.225,-0.01C0.225,-0.009 0.225,-0.008 0.225,-0.008C0.225,0 0.221,0.008 0.214,0.012C0.217,0.005 0.219,-0.001 0.22,-0.008Z" style="fill:none;fill-rule:nonzero;"/>
        </g>
        <g transform="matrix(413.318,485.988,485.988,-413.318,-50.3524,172.181)">
            <path d="M0.668,-0.005C0.675,-0.003 0.682,-0.001 0.689,0C0.69,0.001 0.692,0.001 0.692,0.002C0.692,0.003 0.691,0.004 0.691,0.005C0.69,0.005 0.689,0.005 0.688,0.005C0.681,0.005 0.674,0.002 0.67,-0.003C0.669,-0.004 0.669,-0.005 0.668,-0.005Z" style="fill:none;fill-rule:nonzero;"/>
        </g>
        <g transform="matrix(413.319,485.99,485.99,-413.319,173.394,-18.1107)">
            <path d="M0.792,0.01C0.792,0.01 0.792,0.009 0.792,0.008C0.792,-0 0.796,-0.008 0.802,-0.012C0.8,-0.005 0.798,0.001 0.796,0.008C0.796,0.01 0.796,0.011 0.794,0.012C0.794,0.012 0.793,0.011 0.792,0.011C0.792,0.011 0.792,0.011 0.792,0.01Z" style="fill:none;fill-rule:nonzero;"/>
        </g>
        <g transform="matrix(413.318,485.989,485.989,-413.318,240.994,-75.6)">
            <path d="M0.64,-0.003C0.641,-0.003 0.642,-0.002 0.643,-0.002C0.643,-0.001 0.644,-0 0.644,0.001C0.643,0.002 0.641,0.002 0.64,0.002C0.633,0.003 0.626,0.003 0.619,0.005C0.624,-0.001 0.632,-0.004 0.64,-0.003Z" style="fill:none;fill-rule:nonzero;"/>
        </g>
        <g transform="matrix(413.318,485.989,485.989,-413.318,149.75,1.99874)">
            <path d="M0.195,0.009C0.195,0.001 0.194,-0.006 0.193,-0.013C0.198,-0.007 0.201,0.001 0.2,0.008C0.2,0.009 0.2,0.01 0.199,0.011C0.199,0.012 0.197,0.012 0.197,0.012C0.196,0.012 0.196,0.012 0.196,0.011C0.195,0.011 0.195,0.01 0.195,0.009Z" style="fill:none;fill-rule:nonzero;"/>
        </g>
        <g transform="matrix(413.32,485.991,485.991,-413.32,-61.2507,181.447)">
            <path d="M0.373,-0.001C0.374,-0.002 0.375,-0.002 0.377,-0.002C0.384,-0.003 0.391,-0.003 0.398,-0.005C0.393,0.001 0.384,0.004 0.377,0.003C0.376,0.003 0.375,0.002 0.374,0.002C0.374,0.002 0.374,0.001 0.374,0.001C0.373,0.001 0.373,-0 0.373,-0.001Z" style="fill:none;fill-rule:nonzero;"/>
        </g>
        <g transform="matrix(413.318,485.989,485.989,-413.318,29.9916,103.85)">
            <path d="M0.817,-0.008C0.817,-0.009 0.817,-0.01 0.818,-0.011C0.818,-0.012 0.819,-0.012 0.82,-0.012C0.821,-0.011 0.822,-0.01 0.822,-0.009C0.822,-0.001 0.823,0.006 0.824,0.013C0.823,0.012 0.823,0.011 0.822,0.01C0.818,0.005 0.816,-0.002 0.817,-0.008Z" style="fill:none;fill-rule:nonzero;"/>
        </g>
        <g transform="matrix(413.319,485.99,485.99,-413.319,277.791,-106.895)">
            <path d="M0.392,-0.043L0.402,-0.052L0.475,0.032L0.559,-0.04L0.569,-0.029L0.473,0.052L0.392,-0.043Z" style="fill:none;fill-rule:nonzero;"/>
        </g>
        <g transform="matrix(413.318,485.989,485.989,-413.318,103.642,41.212)">
            <path d="M0.843,0.078L0.927,0.006L0.855,-0.079L0.866,-0.089L0.948,0.007L0.852,0.089L0.843,0.078Z" style="fill:none;fill-rule:nonzero;"/>
        </g>
        <g transform="matrix(413.319,485.99,485.99,-413.319,-98.0459,212.742)">
            <path d="M0.448,0.029L0.544,-0.052L0.625,0.043L0.614,0.052L0.542,-0.032L0.458,0.04L0.448,0.029Z" style="fill:none;fill-rule:nonzero;"/>
        </g>
        <g transform="matrix(413.318,485.989,485.989,-413.318,76.101,64.6349)">
            <path d="M0.069,-0.007L0.165,-0.089L0.174,-0.078L0.089,-0.006L0.162,0.079L0.151,0.089L0.069,-0.007Z" style="fill:none;fill-rule:nonzero;"/>
        </g>
        <g transform="matrix(413.32,485.991,485.991,-413.32,258.653,-90.6204)">
            <path d="M0.301,-0C0.303,-0.001 0.306,-0.003 0.306,-0.005C0.307,-0.006 0.307,-0.007 0.306,-0.008C0.306,-0.009 0.305,-0.01 0.304,-0.009C0.303,-0.009 0.302,-0.008 0.303,-0.007C0.3,-0.008 0.297,-0.012 0.297,-0.015C0.3,-0.014 0.304,-0.015 0.307,-0.016C0.311,-0.017 0.314,-0.019 0.318,-0.02C0.321,-0.02 0.325,-0.02 0.328,-0.017C0.323,-0.018 0.318,-0.015 0.316,-0.011C0.314,-0.006 0.314,-0 0.317,0.004C0.32,0.008 0.325,0.01 0.33,0.011C0.335,0.012 0.34,0.011 0.345,0.01C0.339,0.017 0.329,0.019 0.32,0.017C0.315,0.015 0.31,0.012 0.306,0.007C0.304,0.005 0.302,0.002 0.301,-0Z" style="fill:none;fill-rule:nonzero;"/>
        </g>
        <g transform="matrix(413.319,485.99,485.99,-413.319,-1.29825,130.46)">
            <path d="M0.144,-0C0.147,-0.009 0.153,-0.016 0.162,-0.02C0.162,-0.017 0.164,-0.015 0.166,-0.014C0.167,-0.014 0.168,-0.014 0.169,-0.015C0.17,-0.015 0.171,-0.016 0.17,-0.017C0.17,-0.018 0.169,-0.019 0.168,-0.018C0.17,-0.021 0.173,-0.024 0.176,-0.024C0.175,-0.021 0.176,-0.017 0.177,-0.013C0.178,-0.01 0.18,-0.007 0.181,-0.003C0.181,0 0.181,0.005 0.178,0.007C0.179,0.002 0.176,-0.003 0.172,-0.005C0.167,-0.007 0.161,-0.006 0.157,-0.003C0.153,-0 0.151,0.004 0.15,0.009C0.149,0.014 0.15,0.019 0.151,0.024C0.151,0.023 0.15,0.023 0.149,0.022C0.144,0.016 0.142,0.007 0.144,-0Z" style="fill:none;fill-rule:nonzero;"/>
        </g>
        <g transform="matrix(413.32,485.991,485.991,-413.32,-78.9122,196.468)">
            <path d="M0.701,0.011C0.703,0.006 0.702,0 0.699,-0.004C0.696,-0.008 0.692,-0.01 0.687,-0.011C0.682,-0.012 0.677,-0.011 0.672,-0.01C0.678,-0.017 0.688,-0.019 0.696,-0.017C0.705,-0.015 0.712,-0.008 0.716,0C0.713,0.001 0.711,0.003 0.71,0.005C0.71,0.006 0.71,0.007 0.711,0.008C0.711,0.009 0.712,0.01 0.713,0.009C0.714,0.009 0.715,0.008 0.714,0.007C0.717,0.008 0.72,0.012 0.72,0.015C0.717,0.014 0.713,0.015 0.709,0.016C0.706,0.017 0.703,0.019 0.699,0.02C0.696,0.02 0.691,0.02 0.689,0.017C0.694,0.018 0.699,0.015 0.701,0.011Z" style="fill:none;fill-rule:nonzero;"/>
        </g>
        <g transform="matrix(413.319,485.99,485.99,-413.319,181.04,-24.6117)">
            <path d="M0.84,0.013C0.839,0.01 0.837,0.007 0.836,0.003C0.835,-0 0.836,-0.005 0.839,-0.007C0.838,-0.002 0.841,0.003 0.845,0.005C0.85,0.007 0.855,0.006 0.859,0.003C0.863,0 0.866,-0.004 0.867,-0.009C0.867,-0.014 0.867,-0.019 0.865,-0.024C0.872,-0.018 0.875,-0.008 0.873,0C0.87,0.009 0.863,0.016 0.855,0.02C0.855,0.017 0.853,0.015 0.85,0.014C0.849,0.014 0.848,0.014 0.848,0.015C0.847,0.015 0.846,0.016 0.846,0.017C0.847,0.018 0.848,0.019 0.849,0.018C0.847,0.021 0.844,0.024 0.84,0.024C0.842,0.021 0.841,0.017 0.84,0.013Z" style="fill:none;fill-rule:nonzero;"/>
        </g>
        <g transform="matrix(413.318,485.989,485.989,-413.318,270.483,-100.68)">
            <path d="M0.612,0.007C0.617,0.009 0.622,0.011 0.627,0.011C0.632,0.011 0.637,0.009 0.64,0.005C0.644,0.002 0.646,-0.003 0.645,-0.008C0.643,-0.013 0.639,-0.017 0.634,-0.017C0.636,-0.019 0.641,-0.019 0.644,-0.018C0.647,-0.016 0.65,-0.014 0.654,-0.012C0.657,-0.01 0.661,-0.009 0.664,-0.01C0.663,-0.006 0.66,-0.004 0.657,-0.003C0.657,-0.003 0.657,-0.005 0.656,-0.005C0.655,-0.006 0.654,-0.005 0.654,-0.004C0.653,-0.004 0.653,-0.003 0.653,-0.002C0.653,0.001 0.655,0.003 0.658,0.004C0.653,0.012 0.644,0.017 0.635,0.018C0.628,0.019 0.619,0.016 0.614,0.01C0.614,0.009 0.613,0.008 0.612,0.007Z" style="fill:none;fill-rule:nonzero;"/>
        </g>
        <g transform="matrix(413.319,485.99,485.99,-413.319,152.975,-0.743621)">
            <path d="M0.119,-0.003C0.118,-0.012 0.122,-0.021 0.13,-0.026C0.128,-0.021 0.126,-0.016 0.126,-0.011C0.126,-0.006 0.128,-0.001 0.131,0.002C0.135,0.006 0.14,0.008 0.145,0.006C0.15,0.005 0.154,0 0.153,-0.005C0.156,-0.002 0.156,0.002 0.154,0.006C0.153,0.009 0.151,0.012 0.149,0.015C0.147,0.019 0.146,0.022 0.147,0.026C0.143,0.025 0.14,0.022 0.139,0.018C0.14,0.019 0.141,0.019 0.142,0.018C0.142,0.017 0.142,0.016 0.141,0.015C0.14,0.015 0.139,0.015 0.138,0.015C0.136,0.015 0.133,0.017 0.133,0.019C0.13,0.018 0.128,0.016 0.126,0.013C0.122,0.009 0.119,0.003 0.119,-0.003Z" style="fill:none;fill-rule:nonzero;"/>
        </g>
        <g transform="matrix(413.319,485.99,485.99,-413.319,-90.7998,206.578)">
            <path d="M0.36,0.003C0.359,0.003 0.36,0.005 0.361,0.005C0.362,0.006 0.363,0.005 0.363,0.005C0.364,0.004 0.364,0.003 0.364,0.002C0.364,-0.001 0.362,-0.003 0.359,-0.004C0.364,-0.011 0.372,-0.017 0.381,-0.018C0.39,-0.019 0.4,-0.015 0.404,-0.007C0.4,-0.009 0.395,-0.011 0.39,-0.01C0.385,-0.01 0.38,-0.009 0.376,-0.005C0.373,-0.002 0.371,0.004 0.372,0.008C0.373,0.013 0.378,0.017 0.383,0.017C0.38,0.019 0.376,0.019 0.373,0.018C0.369,0.016 0.366,0.014 0.363,0.012C0.36,0.011 0.356,0.009 0.353,0.01C0.354,0.007 0.357,0.004 0.36,0.003Z" style="fill:none;fill-rule:nonzero;"/>
        </g>
        <g transform="matrix(413.32,485.991,485.991,-413.32,26.7662,106.59)">
            <path d="M0.862,-0.006C0.864,-0.009 0.866,-0.012 0.868,-0.015C0.87,-0.019 0.871,-0.022 0.87,-0.026C0.874,-0.025 0.876,-0.022 0.877,-0.018C0.877,-0.019 0.875,-0.019 0.875,-0.018C0.874,-0.017 0.875,-0.016 0.876,-0.015C0.876,-0.015 0.877,-0.015 0.878,-0.015C0.881,-0.015 0.883,-0.017 0.884,-0.019C0.892,-0.014 0.897,-0.006 0.898,0.003C0.899,0.012 0.895,0.021 0.887,0.026C0.889,0.021 0.891,0.016 0.891,0.011C0.891,0.006 0.889,0.001 0.885,-0.002C0.882,-0.006 0.877,-0.008 0.872,-0.006C0.867,-0.005 0.863,-0 0.863,0.005C0.861,0.002 0.861,-0.002 0.862,-0.006Z" style="fill:none;fill-rule:nonzero;"/>
        </g>
        <g transform="matrix(413.318,485.989,485.989,-413.318,199.204,-40.0603)">
            <path d="M0.216,0.022L0.27,-0.024C0.27,-0.025 0.271,-0.025 0.272,-0.024C0.273,-0.023 0.273,-0.022 0.272,-0.022L0.218,0.024C0.217,0.025 0.216,0.025 0.215,0.024C0.215,0.023 0.215,0.022 0.216,0.022Z" style="fill:none;fill-rule:nonzero;"/>
        </g>
        <g transform="matrix(413.317,485.988,485.988,-413.317,-38.7624,162.323)">
            <path d="M0.259,-0.026C0.258,-0.027 0.259,-0.028 0.259,-0.028C0.26,-0.029 0.261,-0.029 0.262,-0.028L0.308,0.026C0.308,0.027 0.308,0.028 0.308,0.028C0.307,0.029 0.306,0.029 0.305,0.028L0.259,-0.026Z" style="fill:none;fill-rule:nonzero;"/>
        </g>
        <g transform="matrix(413.318,485.989,485.989,-413.318,-19.4595,145.908)">
            <path d="M0.745,0.022L0.799,-0.024C0.8,-0.025 0.801,-0.025 0.801,-0.024C0.802,-0.023 0.802,-0.022 0.801,-0.022L0.747,0.024C0.746,0.025 0.745,0.025 0.745,0.024C0.744,0.023 0.744,0.022 0.745,0.022Z" style="fill:none;fill-rule:nonzero;"/>
        </g>
        <g transform="matrix(413.318,485.988,485.988,-413.318,218.503,-56.4739)">
            <path d="M0.709,-0.026C0.708,-0.027 0.709,-0.028 0.709,-0.028C0.71,-0.029 0.711,-0.029 0.712,-0.028L0.758,0.026C0.758,0.027 0.758,0.028 0.757,0.028C0.757,0.029 0.756,0.029 0.755,0.028L0.709,-0.026Z" style="fill:none;fill-rule:nonzero;"/>
        </g>
    </g>
</svg>
