<svg class="multiscroll-bg-image" width="100%" height="100%" viewBox="0 0 600 600" version="1.1" xmlns="http://www.w3.org/2000/svg" xmlns:xlink="http://www.w3.org/1999/xlink" xml:space="preserve" xmlns:serif="http://www.serif.com/" style="fill-rule:evenodd;clip-rule:evenodd;stroke-linejoin:round;stroke-miterlimit:2;">
    <g class="monogram-multi-path-group">
        <g transform="matrix(670.003,63.6159,63.6159,-670.003,-33.764,268.307)">
            <path d="M0.223,0.228C0.162,0.154 0.133,0.061 0.142,-0.034C0.151,-0.129 0.197,-0.215 0.27,-0.275C0.344,-0.336 0.437,-0.365 0.532,-0.356C0.627,-0.347 0.713,-0.301 0.774,-0.228C0.834,-0.154 0.863,-0.061 0.854,0.034C0.845,0.129 0.799,0.215 0.726,0.275C0.652,0.336 0.559,0.365 0.464,0.356C0.369,0.347 0.284,0.301 0.223,0.228ZM0.273,-0.272C0.201,-0.212 0.156,-0.127 0.147,-0.033C0.138,0.06 0.166,0.152 0.226,0.225C0.286,0.297 0.371,0.342 0.465,0.351C0.559,0.36 0.65,0.332 0.723,0.272C0.795,0.212 0.84,0.127 0.849,0.033C0.858,-0.06 0.83,-0.152 0.77,-0.225C0.71,-0.297 0.625,-0.342 0.531,-0.351C0.438,-0.36 0.346,-0.332 0.273,-0.272Z" style="fill:none;fill-rule:nonzero;"/>
        </g>
        <g transform="matrix(670.001,63.6157,63.6157,-670.001,-13.3612,53.4259)">
            <path d="M0.365,0.08C0.351,0.077 0.346,0.065 0.348,0.056C0.35,0.047 0.357,0.038 0.371,0.039C0.378,0.04 0.382,0.047 0.383,0.052C0.383,0.058 0.38,0.063 0.375,0.065C0.374,0.065 0.373,0.065 0.372,0.063C0.372,0.062 0.373,0.061 0.374,0.06C0.377,0.059 0.378,0.056 0.378,0.053C0.378,0.05 0.375,0.045 0.371,0.044C0.36,0.043 0.354,0.05 0.353,0.057C0.351,0.064 0.355,0.073 0.366,0.075C0.372,0.077 0.376,0.076 0.383,0.072C0.39,0.067 0.395,0.06 0.397,0.052C0.399,0.044 0.397,0.035 0.392,0.029C0.386,0.021 0.375,0.017 0.363,0.017C0.353,0.017 0.343,0.02 0.333,0.023L0.33,0.024C0.319,0.027 0.307,0.03 0.295,0.028C0.293,0.028 0.291,0.028 0.289,0.027C0.275,0.034 0.255,0.032 0.242,0.021C0.229,0.01 0.221,-0.008 0.221,-0.028C0.221,-0.047 0.227,-0.066 0.233,-0.08C0.234,-0.081 0.235,-0.081 0.236,-0.081C0.237,-0.08 0.238,-0.079 0.237,-0.078C0.229,-0.058 0.225,-0.042 0.226,-0.028C0.226,-0.009 0.233,0.007 0.245,0.017C0.255,0.026 0.27,0.029 0.282,0.025C0.275,0.021 0.269,0.016 0.266,0.009C0.263,0.003 0.263,-0.005 0.266,-0.011C0.268,-0.017 0.273,-0.021 0.278,-0.023C0.283,-0.025 0.289,-0.024 0.294,-0.021C0.299,-0.018 0.304,-0.013 0.305,-0.007C0.308,0.004 0.304,0.016 0.294,0.023C0.295,0.023 0.295,0.023 0.296,0.024C0.307,0.025 0.318,0.022 0.329,0.019L0.332,0.018C0.342,0.016 0.352,0.013 0.363,0.013C0.376,0.012 0.388,0.017 0.395,0.026C0.395,0.026 0.395,0.026 0.396,0.026C0.401,0.033 0.404,0.044 0.401,0.053C0.399,0.063 0.393,0.071 0.385,0.076C0.381,0.078 0.375,0.081 0.368,0.081C0.367,0.08 0.366,0.08 0.365,0.08ZM0.279,-0.018C0.275,-0.017 0.272,-0.014 0.27,-0.01C0.268,-0.004 0.268,0.002 0.27,0.007C0.271,0.009 0.272,0.011 0.273,0.012C0.277,0.017 0.283,0.02 0.288,0.022C0.289,0.021 0.29,0.021 0.291,0.02C0.299,0.014 0.303,0.003 0.301,-0.005C0.3,-0.01 0.296,-0.014 0.292,-0.017C0.289,-0.018 0.287,-0.019 0.285,-0.019C0.283,-0.019 0.281,-0.019 0.279,-0.018Z" style="fill:none;fill-rule:nonzero;"/>
        </g>
        <g transform="matrix(670.002,63.6158,63.6158,-670.002,-45.6022,392.986)">
            <path d="M0.124,0.089C0.115,0.087 0.107,0.081 0.102,0.073C0.099,0.068 0.095,0.062 0.097,0.053C0.101,0.039 0.112,0.034 0.121,0.036C0.13,0.037 0.139,0.045 0.138,0.059C0.137,0.066 0.13,0.07 0.125,0.071C0.119,0.071 0.114,0.068 0.113,0.063C0.112,0.062 0.113,0.061 0.114,0.06C0.115,0.06 0.117,0.061 0.117,0.062C0.118,0.065 0.121,0.066 0.125,0.066C0.128,0.066 0.133,0.063 0.133,0.059C0.134,0.048 0.128,0.042 0.121,0.041C0.114,0.039 0.105,0.043 0.102,0.054C0.101,0.059 0.102,0.064 0.106,0.07C0.11,0.078 0.117,0.083 0.125,0.085C0.133,0.087 0.142,0.085 0.148,0.08C0.156,0.074 0.16,0.063 0.16,0.051C0.16,0.041 0.157,0.031 0.155,0.021L0.154,0.018C0.151,0.007 0.148,-0.005 0.149,-0.017C0.149,-0.019 0.15,-0.021 0.15,-0.023C0.143,-0.037 0.145,-0.057 0.156,-0.07C0.167,-0.083 0.185,-0.091 0.205,-0.091C0.225,-0.091 0.243,-0.085 0.257,-0.079C0.257,-0.079 0.258,-0.079 0.258,-0.078C0.259,-0.078 0.259,-0.077 0.258,-0.076C0.258,-0.075 0.256,-0.074 0.255,-0.075C0.235,-0.083 0.22,-0.087 0.205,-0.086C0.187,-0.086 0.17,-0.079 0.16,-0.067C0.151,-0.057 0.149,-0.042 0.153,-0.03C0.156,-0.037 0.162,-0.043 0.169,-0.046C0.175,-0.049 0.182,-0.049 0.189,-0.046C0.194,-0.044 0.199,-0.039 0.2,-0.034C0.202,-0.029 0.201,-0.023 0.199,-0.018C0.195,-0.013 0.19,-0.008 0.184,-0.007C0.174,-0.004 0.162,-0.008 0.154,-0.017C0.154,-0.017 0.154,-0.018 0.154,-0.018C0.154,-0.017 0.154,-0.017 0.154,-0.016C0.153,-0.005 0.155,0.006 0.158,0.017L0.159,0.02C0.162,0.03 0.165,0.04 0.165,0.051C0.165,0.065 0.16,0.077 0.151,0.083C0.145,0.089 0.137,0.091 0.128,0.09C0.127,0.09 0.126,0.09 0.124,0.089ZM0.17,-0.042C0.163,-0.038 0.158,-0.031 0.156,-0.024C0.156,-0.023 0.157,-0.022 0.157,-0.021C0.164,-0.013 0.174,-0.009 0.183,-0.011C0.188,-0.012 0.192,-0.016 0.194,-0.021C0.197,-0.025 0.197,-0.029 0.196,-0.033C0.195,-0.037 0.191,-0.04 0.187,-0.042C0.185,-0.043 0.183,-0.043 0.181,-0.044C0.177,-0.044 0.173,-0.043 0.17,-0.042Z" style="fill:none;fill-rule:nonzero;"/>
        </g>
        <g transform="matrix(670.001,63.6158,63.6158,-670.001,-54.235,483.914)">
            <path d="M0.76,0.082C0.759,0.082 0.758,0.08 0.759,0.079C0.767,0.059 0.771,0.044 0.771,0.029C0.771,0.01 0.763,-0.006 0.751,-0.016C0.741,-0.025 0.726,-0.028 0.714,-0.024C0.722,-0.02 0.727,-0.015 0.73,-0.008C0.733,-0.002 0.733,0.006 0.73,0.013C0.728,0.018 0.724,0.022 0.718,0.024C0.713,0.026 0.708,0.025 0.702,0.022C0.697,0.019 0.692,0.014 0.691,0.008C0.688,-0.003 0.693,-0.015 0.702,-0.022C0.701,-0.022 0.701,-0.022 0.701,-0.022C0.689,-0.024 0.678,-0.021 0.668,-0.018L0.664,-0.017C0.654,-0.014 0.644,-0.012 0.633,-0.011C0.62,-0.011 0.608,-0.016 0.601,-0.025C0.595,-0.032 0.593,-0.043 0.595,-0.052C0.597,-0.061 0.603,-0.07 0.611,-0.075C0.616,-0.078 0.623,-0.081 0.631,-0.079C0.645,-0.076 0.65,-0.064 0.648,-0.055C0.647,-0.046 0.639,-0.037 0.625,-0.038C0.618,-0.039 0.614,-0.046 0.614,-0.051C0.613,-0.057 0.616,-0.062 0.621,-0.064C0.622,-0.064 0.623,-0.064 0.624,-0.062C0.624,-0.061 0.624,-0.06 0.622,-0.059C0.62,-0.058 0.618,-0.055 0.618,-0.052C0.618,-0.048 0.622,-0.043 0.626,-0.043C0.636,-0.042 0.642,-0.049 0.644,-0.056C0.645,-0.063 0.641,-0.072 0.63,-0.074C0.625,-0.076 0.62,-0.075 0.614,-0.071C0.606,-0.066 0.601,-0.059 0.599,-0.051C0.597,-0.043 0.599,-0.034 0.604,-0.028C0.61,-0.02 0.621,-0.016 0.633,-0.016C0.643,-0.016 0.653,-0.019 0.663,-0.022L0.666,-0.023C0.677,-0.026 0.689,-0.029 0.701,-0.027C0.703,-0.027 0.705,-0.026 0.707,-0.026C0.722,-0.033 0.741,-0.031 0.754,-0.02C0.757,-0.018 0.759,-0.016 0.761,-0.013C0.77,-0.002 0.775,0.013 0.775,0.029C0.776,0.048 0.769,0.067 0.763,0.081C0.763,0.082 0.762,0.082 0.761,0.082C0.761,0.082 0.76,0.082 0.76,0.082ZM0.706,-0.019C0.697,-0.013 0.693,-0.002 0.695,0.007C0.697,0.011 0.7,0.016 0.705,0.018C0.709,0.02 0.713,0.021 0.717,0.019C0.721,0.018 0.724,0.015 0.726,0.011C0.728,0.005 0.728,-0.001 0.726,-0.006C0.723,-0.014 0.715,-0.018 0.708,-0.021C0.707,-0.02 0.706,-0.02 0.706,-0.019Z" style="fill:none;fill-rule:nonzero;"/>
        </g>
        <g transform="matrix(670.001,63.6158,63.6158,-670.001,-21.9835,144.236)">
            <path d="M0.739,0.08C0.738,0.079 0.737,0.078 0.738,0.077C0.738,0.076 0.74,0.075 0.741,0.076C0.761,0.084 0.776,0.088 0.791,0.087C0.809,0.087 0.826,0.08 0.836,0.068C0.845,0.057 0.847,0.043 0.843,0.031C0.84,0.038 0.835,0.044 0.828,0.047C0.822,0.05 0.814,0.05 0.807,0.047C0.802,0.045 0.798,0.04 0.796,0.035C0.794,0.03 0.795,0.024 0.798,0.019C0.801,0.013 0.806,0.009 0.812,0.008C0.822,0.005 0.834,0.009 0.842,0.018C0.842,0.018 0.842,0.018 0.842,0.019C0.842,0.018 0.842,0.018 0.842,0.017C0.844,0.006 0.841,-0.005 0.838,-0.016L0.837,-0.019C0.834,-0.029 0.831,-0.039 0.831,-0.05C0.831,-0.064 0.836,-0.076 0.845,-0.083C0.852,-0.089 0.863,-0.091 0.872,-0.089C0.88,-0.087 0.887,-0.082 0.892,-0.076C0.893,-0.075 0.894,-0.074 0.895,-0.072C0.898,-0.067 0.901,-0.061 0.899,-0.052C0.895,-0.038 0.884,-0.033 0.875,-0.035C0.866,-0.037 0.857,-0.044 0.858,-0.058C0.859,-0.065 0.866,-0.07 0.871,-0.07C0.877,-0.07 0.882,-0.067 0.884,-0.063C0.884,-0.061 0.883,-0.06 0.882,-0.059C0.881,-0.059 0.88,-0.06 0.879,-0.061C0.878,-0.064 0.875,-0.065 0.872,-0.065C0.868,-0.065 0.863,-0.062 0.863,-0.058C0.862,-0.047 0.869,-0.041 0.876,-0.04C0.883,-0.038 0.892,-0.042 0.894,-0.053C0.896,-0.059 0.895,-0.063 0.891,-0.07C0.886,-0.077 0.879,-0.082 0.871,-0.084C0.863,-0.086 0.854,-0.084 0.848,-0.079C0.84,-0.073 0.836,-0.062 0.836,-0.05C0.836,-0.04 0.839,-0.03 0.842,-0.02L0.843,-0.017C0.846,-0.006 0.848,0.006 0.847,0.018C0.847,0.02 0.846,0.022 0.846,0.024C0.853,0.038 0.851,0.057 0.84,0.071C0.829,0.084 0.811,0.092 0.791,0.092C0.788,0.092 0.785,0.092 0.782,0.092C0.766,0.09 0.751,0.085 0.739,0.08ZM0.813,0.012C0.809,0.013 0.804,0.017 0.802,0.021C0.8,0.025 0.799,0.03 0.8,0.034C0.801,0.035 0.802,0.037 0.803,0.038C0.805,0.04 0.807,0.042 0.809,0.043C0.815,0.045 0.821,0.045 0.826,0.043C0.834,0.039 0.838,0.032 0.841,0.025C0.84,0.024 0.84,0.023 0.839,0.022C0.834,0.016 0.827,0.012 0.821,0.012C0.818,0.011 0.816,0.011 0.813,0.012Z" style="fill:none;fill-rule:nonzero;"/>
        </g>
        <g transform="matrix(670.002,63.6158,63.6158,-670.002,-11.3977,32.7501)">
            <path d="M0.535,0.059C0.527,0.053 0.523,0.043 0.523,0.034C0.522,0.024 0.526,0.014 0.534,0.008C0.542,0.001 0.555,-0.002 0.568,0.001C0.579,0.003 0.588,0.008 0.598,0.013L0.601,0.014C0.61,0.019 0.621,0.024 0.632,0.025C0.633,0.025 0.633,0.025 0.633,0.025C0.626,0.015 0.624,0.003 0.628,-0.007C0.631,-0.012 0.636,-0.017 0.642,-0.019C0.648,-0.021 0.654,-0.02 0.658,-0.018C0.663,-0.015 0.667,-0.01 0.668,-0.004C0.67,0.003 0.668,0.01 0.664,0.016C0.66,0.022 0.653,0.026 0.645,0.028C0.656,0.034 0.671,0.035 0.683,0.028C0.697,0.021 0.707,0.005 0.711,-0.013C0.714,-0.027 0.713,-0.043 0.708,-0.064C0.708,-0.065 0.709,-0.067 0.71,-0.067C0.711,-0.067 0.712,-0.067 0.713,-0.066C0.713,-0.066 0.713,-0.065 0.713,-0.065C0.716,-0.05 0.719,-0.031 0.715,-0.012C0.711,0.008 0.7,0.024 0.685,0.032C0.67,0.041 0.651,0.039 0.638,0.029C0.636,0.029 0.634,0.029 0.632,0.029C0.62,0.028 0.609,0.023 0.598,0.018L0.596,0.017C0.587,0.012 0.577,0.008 0.567,0.006C0.555,0.003 0.544,0.006 0.537,0.012C0.531,0.017 0.527,0.025 0.527,0.034C0.528,0.042 0.531,0.05 0.538,0.056C0.543,0.061 0.548,0.063 0.553,0.062C0.565,0.062 0.57,0.054 0.57,0.047C0.57,0.039 0.565,0.032 0.555,0.031C0.551,0.03 0.547,0.035 0.546,0.038C0.545,0.041 0.546,0.045 0.549,0.046C0.55,0.047 0.55,0.048 0.549,0.049C0.549,0.05 0.547,0.051 0.546,0.05C0.542,0.047 0.54,0.042 0.541,0.037C0.542,0.032 0.548,0.025 0.555,0.026C0.569,0.027 0.575,0.038 0.575,0.047C0.574,0.056 0.568,0.066 0.554,0.067C0.552,0.067 0.551,0.067 0.55,0.067C0.543,0.066 0.538,0.063 0.535,0.059ZM0.644,-0.014C0.639,-0.013 0.635,-0.009 0.633,-0.005C0.629,0.003 0.631,0.014 0.637,0.021L0.64,0.024C0.647,0.023 0.655,0.02 0.66,0.013C0.664,0.009 0.665,0.002 0.663,-0.003C0.662,-0.008 0.66,-0.011 0.656,-0.013C0.654,-0.014 0.653,-0.015 0.651,-0.015C0.648,-0.015 0.646,-0.015 0.644,-0.014Z" style="fill:none;fill-rule:nonzero;"/>
        </g>
        <g transform="matrix(670.002,63.6158,63.6158,-670.002,-25.973,186.252)">
            <path d="M0.158,0.095C0.139,0.091 0.122,0.08 0.114,0.065C0.106,0.049 0.107,0.03 0.117,0.018C0.117,0.016 0.117,0.013 0.117,0.011C0.118,-0.001 0.123,-0.012 0.128,-0.022L0.13,-0.025C0.134,-0.034 0.139,-0.043 0.141,-0.053C0.143,-0.065 0.141,-0.076 0.135,-0.084C0.135,-0.084 0.135,-0.084 0.135,-0.084C0.129,-0.09 0.121,-0.094 0.113,-0.093C0.105,-0.093 0.097,-0.089 0.091,-0.083C0.086,-0.078 0.084,-0.073 0.084,-0.067C0.085,-0.056 0.093,-0.051 0.1,-0.051C0.107,-0.05 0.115,-0.055 0.116,-0.066C0.116,-0.07 0.112,-0.074 0.109,-0.075C0.105,-0.076 0.102,-0.075 0.101,-0.072C0.1,-0.071 0.098,-0.071 0.097,-0.071C0.096,-0.072 0.096,-0.073 0.096,-0.075C0.099,-0.079 0.104,-0.081 0.11,-0.079C0.115,-0.078 0.121,-0.072 0.12,-0.065C0.119,-0.052 0.109,-0.046 0.1,-0.046C0.091,-0.046 0.08,-0.053 0.08,-0.067C0.079,-0.076 0.083,-0.082 0.087,-0.086C0.094,-0.093 0.103,-0.098 0.113,-0.098C0.122,-0.098 0.132,-0.094 0.138,-0.087C0.138,-0.087 0.138,-0.087 0.139,-0.087C0.146,-0.078 0.148,-0.066 0.145,-0.052C0.143,-0.042 0.139,-0.032 0.134,-0.023L0.132,-0.02C0.128,-0.01 0.123,0 0.122,0.012C0.122,0.012 0.122,0.012 0.122,0.013C0.131,0.005 0.144,0.003 0.153,0.008C0.159,0.01 0.163,0.016 0.165,0.022C0.167,0.027 0.167,0.033 0.164,0.038C0.161,0.043 0.157,0.046 0.151,0.047C0.144,0.049 0.136,0.048 0.131,0.044C0.125,0.039 0.12,0.033 0.118,0.025C0.112,0.035 0.112,0.051 0.119,0.063C0.126,0.076 0.141,0.086 0.159,0.09C0.174,0.093 0.189,0.092 0.211,0.088C0.212,0.088 0.213,0.088 0.213,0.09C0.214,0.091 0.213,0.092 0.212,0.092C0.199,0.095 0.184,0.098 0.168,0.096C0.164,0.096 0.161,0.095 0.158,0.095ZM0.124,0.017C0.124,0.018 0.123,0.018 0.122,0.019C0.123,0.027 0.126,0.035 0.133,0.04C0.138,0.043 0.144,0.044 0.15,0.043C0.154,0.042 0.158,0.039 0.16,0.036C0.162,0.032 0.162,0.028 0.161,0.023C0.159,0.018 0.156,0.014 0.151,0.012C0.149,0.011 0.147,0.01 0.144,0.01C0.138,0.009 0.13,0.012 0.124,0.017Z" style="fill:none;fill-rule:nonzero;"/>
        </g>
        <g transform="matrix(670.001,63.6158,63.6158,-670.001,-56.1615,504.194)">
            <path d="M0.283,0.065C0.28,0.051 0.277,0.031 0.281,0.012C0.285,-0.007 0.296,-0.024 0.311,-0.032C0.326,-0.04 0.346,-0.039 0.358,-0.029C0.36,-0.029 0.362,-0.029 0.364,-0.029C0.376,-0.028 0.388,-0.023 0.398,-0.018L0.401,-0.016C0.41,-0.012 0.419,-0.007 0.429,-0.005C0.441,-0.003 0.452,-0.005 0.46,-0.011C0.466,-0.017 0.469,-0.025 0.469,-0.033C0.469,-0.041 0.465,-0.049 0.458,-0.055C0.453,-0.06 0.449,-0.062 0.443,-0.062C0.432,-0.061 0.426,-0.053 0.426,-0.046C0.426,-0.039 0.431,-0.031 0.442,-0.03C0.446,-0.03 0.45,-0.034 0.45,-0.037C0.451,-0.041 0.45,-0.044 0.448,-0.046C0.447,-0.046 0.446,-0.048 0.447,-0.049C0.448,-0.05 0.449,-0.05 0.45,-0.05C0.455,-0.047 0.456,-0.042 0.455,-0.036C0.454,-0.031 0.448,-0.025 0.441,-0.026C0.427,-0.027 0.421,-0.037 0.422,-0.046C0.422,-0.056 0.428,-0.066 0.443,-0.067C0.452,-0.067 0.458,-0.063 0.462,-0.059C0.463,-0.058 0.464,-0.056 0.465,-0.055C0.47,-0.049 0.473,-0.041 0.474,-0.033C0.474,-0.024 0.47,-0.014 0.463,-0.008C0.454,-0.001 0.442,0.002 0.428,-0.001C0.418,-0.003 0.408,-0.008 0.399,-0.012L0.396,-0.014C0.386,-0.018 0.375,-0.023 0.364,-0.024C0.364,-0.024 0.363,-0.024 0.363,-0.024C0.37,-0.015 0.373,-0.002 0.368,0.007C0.365,0.013 0.36,0.017 0.354,0.019C0.348,0.021 0.342,0.021 0.338,0.018C0.333,0.015 0.33,0.011 0.328,0.005C0.327,-0.002 0.328,-0.01 0.332,-0.015C0.336,-0.021 0.343,-0.026 0.351,-0.028C0.34,-0.034 0.325,-0.034 0.313,-0.028C0.299,-0.02 0.289,-0.005 0.286,0.013C0.283,0.027 0.283,0.043 0.288,0.064C0.288,0.066 0.287,0.067 0.286,0.067C0.286,0.067 0.285,0.067 0.285,0.067C0.284,0.067 0.283,0.066 0.283,0.065ZM0.336,-0.013C0.333,-0.008 0.332,-0.002 0.333,0.004C0.334,0.008 0.336,0.012 0.34,0.014C0.344,0.016 0.348,0.016 0.352,0.015C0.357,0.013 0.362,0.01 0.364,0.005C0.368,-0.003 0.366,-0.014 0.359,-0.022C0.358,-0.023 0.357,-0.023 0.356,-0.024C0.349,-0.023 0.341,-0.02 0.336,-0.013Z" style="fill:none;fill-rule:nonzero;"/>
        </g>
        <g transform="matrix(670.002,63.6159,63.6159,-670.002,-41.6394,351.235)">
            <path d="M0.858,0.088C0.851,0.08 0.848,0.067 0.851,0.054C0.853,0.043 0.858,0.034 0.862,0.024L0.864,0.021C0.869,0.011 0.873,0.001 0.874,-0.01C0.874,-0.011 0.874,-0.011 0.874,-0.012C0.865,-0.004 0.853,-0.002 0.843,-0.006C0.837,-0.009 0.833,-0.014 0.831,-0.021C0.829,-0.026 0.829,-0.032 0.832,-0.037C0.835,-0.041 0.84,-0.045 0.846,-0.046C0.853,-0.048 0.86,-0.046 0.866,-0.042C0.872,-0.038 0.876,-0.031 0.878,-0.023C0.884,-0.034 0.884,-0.049 0.878,-0.061C0.87,-0.075 0.855,-0.085 0.837,-0.089C0.823,-0.092 0.807,-0.091 0.786,-0.087C0.784,-0.086 0.783,-0.087 0.783,-0.088C0.783,-0.09 0.783,-0.091 0.785,-0.091C0.799,-0.094 0.819,-0.097 0.838,-0.093C0.854,-0.09 0.868,-0.082 0.877,-0.071C0.879,-0.069 0.88,-0.066 0.882,-0.064C0.89,-0.048 0.889,-0.029 0.879,-0.016C0.879,-0.014 0.879,-0.012 0.879,-0.01C0.878,0.002 0.873,0.013 0.868,0.023L0.867,0.026C0.862,0.035 0.857,0.045 0.855,0.055C0.853,0.067 0.855,0.078 0.862,0.085C0.867,0.091 0.875,0.095 0.884,0.095C0.892,0.094 0.9,0.09 0.905,0.084C0.91,0.079 0.912,0.074 0.912,0.069C0.911,0.057 0.903,0.052 0.896,0.052C0.889,0.052 0.881,0.056 0.881,0.067C0.88,0.071 0.884,0.075 0.887,0.076C0.891,0.077 0.894,0.076 0.896,0.073C0.896,0.072 0.898,0.072 0.899,0.073C0.9,0.073 0.9,0.075 0.9,0.076C0.897,0.08 0.892,0.082 0.886,0.081C0.881,0.079 0.875,0.074 0.876,0.067C0.877,0.053 0.887,0.047 0.896,0.047C0.906,0.047 0.916,0.054 0.917,0.068C0.917,0.077 0.913,0.083 0.909,0.087C0.902,0.095 0.893,0.099 0.884,0.099C0.882,0.099 0.881,0.099 0.879,0.099C0.871,0.098 0.863,0.094 0.858,0.088ZM0.847,-0.042C0.842,-0.04 0.838,-0.038 0.836,-0.034C0.834,-0.031 0.834,-0.026 0.835,-0.022C0.836,-0.02 0.837,-0.017 0.839,-0.015C0.841,-0.013 0.843,-0.012 0.845,-0.011C0.853,-0.007 0.864,-0.009 0.872,-0.016C0.873,-0.016 0.873,-0.017 0.874,-0.018C0.873,-0.026 0.87,-0.034 0.863,-0.039C0.86,-0.04 0.857,-0.042 0.853,-0.042C0.851,-0.042 0.849,-0.042 0.847,-0.042Z" style="fill:none;fill-rule:nonzero;"/>
        </g>
        <g transform="matrix(670.003,63.616,63.616,-670.003,-19.6279,119.419)">
            <path d="M0.171,0.046C0.178,0.013 0.182,-0.021 0.183,-0.054C0.183,-0.055 0.184,-0.056 0.185,-0.056C0.186,-0.056 0.187,-0.055 0.187,-0.054C0.187,-0.021 0.183,0.012 0.176,0.044C0.209,0.044 0.242,0.046 0.274,0.051C0.275,0.052 0.276,0.052 0.276,0.052C0.276,0.053 0.277,0.053 0.276,0.054C0.276,0.055 0.275,0.056 0.274,0.056C0.241,0.051 0.207,0.048 0.173,0.049C0.173,0.049 0.173,0.049 0.173,0.049C0.172,0.049 0.17,0.047 0.171,0.046Z" style="fill:none;fill-rule:nonzero;"/>
        </g>
        <g transform="matrix(670.003,63.6159,63.6159,-670.003,-16.3055,84.4302)">
            <path d="M0.766,0.053C0.733,0.046 0.7,0.042 0.666,0.041C0.665,0.041 0.664,0.04 0.664,0.039C0.664,0.037 0.665,0.036 0.666,0.036C0.699,0.037 0.732,0.041 0.764,0.048C0.764,0.015 0.766,-0.018 0.772,-0.051C0.772,-0.052 0.773,-0.053 0.775,-0.053C0.775,-0.053 0.776,-0.052 0.776,-0.052C0.776,-0.051 0.777,-0.051 0.776,-0.05C0.771,-0.017 0.768,0.017 0.769,0.051C0.769,0.051 0.769,0.052 0.768,0.052C0.768,0.053 0.767,0.053 0.767,0.053C0.767,0.053 0.766,0.053 0.766,0.053Z" style="fill:none;fill-rule:nonzero;"/>
        </g>
        <g transform="matrix(670.002,63.6159,63.6159,-670.002,-47.9012,417.192)">
            <path d="M0.809,0.054C0.81,0.021 0.814,-0.012 0.82,-0.044C0.787,-0.044 0.754,-0.046 0.722,-0.051C0.721,-0.052 0.72,-0.053 0.72,-0.054C0.72,-0.055 0.721,-0.056 0.723,-0.056C0.756,-0.051 0.79,-0.048 0.823,-0.049C0.824,-0.049 0.825,-0.049 0.825,-0.048C0.825,-0.047 0.826,-0.047 0.826,-0.046C0.818,-0.013 0.814,0.021 0.814,0.054C0.814,0.055 0.813,0.056 0.811,0.056C0.811,0.056 0.811,0.056 0.811,0.056C0.81,0.056 0.809,0.055 0.809,0.054Z" style="fill:none;fill-rule:nonzero;"/>
        </g>
        <g transform="matrix(670.003,63.6159,63.6159,-670.003,-51.2318,452.27)">
            <path d="M0.222,0.053C0.22,0.053 0.22,0.051 0.22,0.05C0.225,0.017 0.228,-0.017 0.227,-0.05C0.227,-0.051 0.227,-0.052 0.228,-0.052C0.228,-0.053 0.229,-0.053 0.23,-0.053C0.263,-0.046 0.296,-0.042 0.33,-0.041C0.331,-0.041 0.331,-0.041 0.332,-0.04C0.332,-0.04 0.332,-0.039 0.332,-0.039C0.332,-0.037 0.331,-0.036 0.33,-0.036C0.297,-0.037 0.264,-0.041 0.232,-0.048C0.232,-0.015 0.23,0.018 0.224,0.051C0.224,0.052 0.223,0.053 0.222,0.053C0.222,0.053 0.222,0.053 0.222,0.053Z" style="fill:none;fill-rule:nonzero;"/>
        </g>
        <g transform="matrix(670.002,63.6158,63.6158,-670.002,-16.5488,86.9993)">
            <path d="M0.193,0.031C0.191,0.013 0.193,-0.006 0.2,-0.024C0.181,-0.021 0.162,-0.022 0.144,-0.028C0.143,-0.028 0.143,-0.03 0.143,-0.031C0.143,-0.032 0.145,-0.033 0.146,-0.032C0.164,-0.026 0.184,-0.025 0.203,-0.029C0.204,-0.03 0.205,-0.029 0.205,-0.029C0.206,-0.028 0.206,-0.027 0.206,-0.026C0.198,-0.008 0.195,0.011 0.198,0.03C0.198,0.032 0.197,0.033 0.196,0.033C0.196,0.033 0.196,0.033 0.195,0.033C0.194,0.033 0.193,0.032 0.193,0.031Z" style="fill:none;fill-rule:nonzero;"/>
        </g>
        <g transform="matrix(670.004,63.616,63.616,-670.004,-13.1742,51.4469)">
            <path d="M0.738,0.032C0.736,0.031 0.736,0.03 0.736,0.029C0.742,0.01 0.744,-0.01 0.739,-0.029C0.739,-0.03 0.739,-0.03 0.74,-0.031C0.741,-0.032 0.742,-0.032 0.743,-0.031C0.76,-0.024 0.78,-0.021 0.799,-0.024C0.8,-0.024 0.801,-0.023 0.801,-0.023C0.802,-0.022 0.802,-0.022 0.802,-0.021C0.802,-0.02 0.801,-0.019 0.8,-0.019C0.781,-0.016 0.762,-0.018 0.745,-0.025C0.748,-0.007 0.747,0.012 0.741,0.03C0.74,0.031 0.739,0.032 0.738,0.032C0.738,0.032 0.738,0.032 0.738,0.032Z" style="fill:none;fill-rule:nonzero;"/>
        </g>
        <g transform="matrix(670.001,63.6158,63.6158,-670.001,-50.9899,449.717)">
            <path d="M0.79,0.026C0.798,0.009 0.801,-0.011 0.798,-0.03C0.798,-0.032 0.799,-0.033 0.8,-0.033C0.802,-0.033 0.803,-0.032 0.803,-0.031C0.806,-0.012 0.803,0.007 0.797,0.024C0.815,0.021 0.834,0.022 0.852,0.028C0.852,0.028 0.853,0.029 0.853,0.029C0.853,0.029 0.854,0.03 0.853,0.031C0.853,0.032 0.852,0.033 0.85,0.033C0.832,0.026 0.812,0.025 0.793,0.03C0.793,0.03 0.793,0.03 0.793,0.03C0.791,0.03 0.79,0.028 0.79,0.026Z" style="fill:none;fill-rule:nonzero;"/>
        </g>
        <g transform="matrix(670.003,63.6159,63.6159,-670.003,-54.3744,485.377)">
            <path d="M0.254,0.032C0.236,0.024 0.216,0.021 0.197,0.024C0.196,0.024 0.195,0.023 0.194,0.022C0.194,0.021 0.195,0.019 0.196,0.019C0.215,0.017 0.234,0.019 0.251,0.026C0.248,0.007 0.249,-0.012 0.256,-0.03C0.256,-0.031 0.257,-0.032 0.259,-0.031C0.259,-0.031 0.259,-0.031 0.26,-0.03C0.26,-0.03 0.26,-0.029 0.26,-0.028C0.254,-0.01 0.253,0.01 0.257,0.029C0.257,0.03 0.257,0.031 0.256,0.031C0.256,0.032 0.255,0.032 0.254,0.032C0.254,0.032 0.254,0.032 0.254,0.032Z" style="fill:none;fill-rule:nonzero;"/>
        </g>
        <g transform="matrix(670.003,63.616,63.616,-670.003,-14.2824,63.1283)">
            <path d="M0.266,0.007C0.243,0.001 0.22,-0.002 0.196,-0.002C0.194,-0.002 0.193,-0.004 0.193,-0.005C0.193,-0.006 0.194,-0.007 0.196,-0.007C0.22,-0.007 0.244,-0.004 0.267,0.002C0.267,0.003 0.268,0.003 0.268,0.003C0.269,0.004 0.269,0.004 0.269,0.005C0.268,0.006 0.267,0.007 0.266,0.007C0.266,0.007 0.266,0.007 0.266,0.007Z" style="fill:none;fill-rule:nonzero;"/>
        </g>
        <g transform="matrix(670.01,63.6166,63.6166,-670.01,-50.7573,447.263)">
            <path d="M0.187,0.038C0.185,0.037 0.185,0.036 0.185,0.035C0.191,0.012 0.194,-0.011 0.194,-0.035C0.194,-0.037 0.195,-0.038 0.197,-0.038C0.197,-0.038 0.198,-0.037 0.199,-0.037C0.199,-0.036 0.199,-0.036 0.199,-0.035C0.199,-0.011 0.195,0.013 0.19,0.036C0.189,0.037 0.188,0.038 0.187,0.038C0.187,0.038 0.187,0.038 0.187,0.038Z" style="fill:none;fill-rule:nonzero;"/>
        </g>
        <g transform="matrix(670.002,63.6158,63.6158,-670.002,-53.2545,473.587)">
            <path d="M0.729,-0.002C0.728,-0.003 0.727,-0.004 0.728,-0.005C0.728,-0.006 0.729,-0.007 0.731,-0.007C0.753,-0.001 0.776,0.002 0.801,0.003C0.801,0.003 0.802,0.003 0.802,0.003C0.803,0.004 0.803,0.004 0.803,0.005C0.803,0.006 0.802,0.007 0.801,0.007C0.792,0.007 0.784,0.007 0.776,0.006C0.76,0.004 0.745,0.002 0.729,-0.002Z" style="fill:none;fill-rule:nonzero;"/>
        </g>
        <g transform="matrix(670.003,63.6159,63.6159,-670.003,-16.7828,89.4566)">
            <path d="M0.797,0.036C0.798,0.011 0.801,-0.012 0.807,-0.036C0.807,-0.037 0.808,-0.038 0.81,-0.037C0.81,-0.037 0.811,-0.037 0.811,-0.037C0.811,-0.036 0.812,-0.035 0.811,-0.035C0.805,-0.012 0.802,0.011 0.802,0.036C0.802,0.037 0.801,0.038 0.8,0.038C0.799,0.038 0.799,0.038 0.799,0.038C0.798,0.038 0.797,0.037 0.797,0.036Z" style="fill:none;fill-rule:nonzero;"/>
        </g>
        <g transform="matrix(669.998,63.6155,63.6155,-669.998,-11.4997,33.8318)">
            <path d="M0.665,-0.001C0.665,-0.002 0.666,-0.003 0.667,-0.003C0.691,-0.005 0.715,-0.004 0.739,0.001C0.739,0.001 0.74,0.001 0.74,0.001C0.741,0.002 0.741,0.003 0.741,0.003C0.741,0.005 0.739,0.006 0.738,0.005C0.714,0.001 0.691,-0 0.667,0.001C0.667,0.001 0.667,0.001 0.667,0.001C0.666,0.001 0.665,0 0.665,-0.001Z" style="fill:none;fill-rule:nonzero;"/>
        </g>
        <g transform="matrix(670.013,63.6168,63.6168,-670.013,-20.7346,131.062)">
            <path d="M0.145,0.038C0.143,0.038 0.143,0.036 0.143,0.035C0.147,0.011 0.148,-0.012 0.147,-0.036C0.147,-0.037 0.148,-0.038 0.149,-0.038C0.15,-0.038 0.151,-0.038 0.151,-0.037C0.151,-0.037 0.151,-0.036 0.152,-0.036C0.153,-0.012 0.152,0.012 0.147,0.036C0.147,0.037 0.146,0.038 0.145,0.038C0.145,0.038 0.145,0.038 0.145,0.038Z" style="fill:none;fill-rule:nonzero;"/>
        </g>
        <g transform="matrix(669.998,63.6154,63.6154,-669.998,-56.059,503.118)">
            <path d="M0.257,-0C0.256,-0 0.255,-0.002 0.255,-0.003C0.256,-0.004 0.257,-0.005 0.258,-0.005C0.282,-0.001 0.305,0.001 0.329,-0.001C0.33,-0.001 0.33,-0.001 0.331,-0C0.331,0 0.331,0.001 0.331,0.001C0.331,0.003 0.33,0.004 0.329,0.004C0.313,0.005 0.298,0.005 0.282,0.003C0.274,0.002 0.266,0.001 0.257,-0Z" style="fill:none;fill-rule:nonzero;"/>
        </g>
        <g transform="matrix(670.002,63.6159,63.6159,-670.002,-46.8031,405.63)">
            <path d="M0.845,0.036C0.843,0.012 0.845,-0.011 0.849,-0.036C0.849,-0.037 0.85,-0.038 0.851,-0.038C0.852,-0.038 0.853,-0.037 0.853,-0.037C0.853,-0.036 0.854,-0.036 0.853,-0.035C0.849,-0.011 0.848,0.012 0.849,0.036C0.85,0.037 0.849,0.038 0.847,0.038C0.847,0.038 0.847,0.038 0.847,0.038C0.846,0.038 0.845,0.037 0.845,0.036Z" style="fill:none;fill-rule:nonzero;"/>
        </g>
        <g transform="matrix(670.002,63.6158,63.6158,-670.002,-15.6734,77.7765)">
            <path d="M0.13,0.018C0.131,0.008 0.135,-0.002 0.142,-0.008C0.15,-0.017 0.163,-0.02 0.173,-0.018C0.174,-0.018 0.174,-0.018 0.175,-0.017C0.175,-0.017 0.175,-0.016 0.175,-0.016C0.176,-0.005 0.17,0.007 0.16,0.013C0.152,0.019 0.142,0.021 0.132,0.021C0.132,0.021 0.132,0.021 0.132,0.021C0.13,0.021 0.129,0.019 0.13,0.018ZM0.145,-0.005C0.14,0 0.136,0.008 0.135,0.016C0.143,0.016 0.151,0.014 0.157,0.009C0.165,0.004 0.17,-0.005 0.171,-0.014C0.17,-0.014 0.17,-0.014 0.169,-0.014C0.161,-0.015 0.152,-0.011 0.145,-0.005Z" style="fill:none;fill-rule:nonzero;"/>
        </g>
        <g transform="matrix(670.001,63.6157,63.6157,-670.001,-11.7886,36.8733)">
            <path d="M0.801,0.023C0.79,0.022 0.781,0.017 0.774,0.011C0.766,0.002 0.762,-0.01 0.765,-0.021C0.765,-0.022 0.766,-0.023 0.767,-0.023C0.777,-0.023 0.787,-0.018 0.794,-0.01C0.795,-0.009 0.795,-0.008 0.796,-0.007C0.801,0 0.804,0.01 0.803,0.021C0.803,0.022 0.803,0.022 0.802,0.023C0.802,0.023 0.801,0.023 0.801,0.023C0.801,0.023 0.801,0.023 0.801,0.023ZM0.769,-0.018C0.768,-0.009 0.771,0.001 0.777,0.007C0.783,0.013 0.79,0.017 0.799,0.018C0.799,0.01 0.796,0.002 0.792,-0.005C0.787,-0.012 0.778,-0.017 0.77,-0.018C0.77,-0.018 0.769,-0.018 0.769,-0.018Z" style="fill:none;fill-rule:nonzero;"/>
        </g>
        <g transform="matrix(670.003,63.6159,63.6159,-670.003,-51.9126,459.432)">
            <path d="M0.823,0.019C0.822,0.019 0.821,0.018 0.821,0.017C0.821,0.006 0.827,-0.006 0.836,-0.012C0.844,-0.018 0.854,-0.02 0.864,-0.02C0.865,-0.02 0.866,-0.019 0.866,-0.019C0.867,-0.018 0.867,-0.018 0.867,-0.017C0.865,-0.007 0.861,0.003 0.854,0.009C0.847,0.017 0.836,0.02 0.826,0.019C0.825,0.019 0.824,0.019 0.823,0.019ZM0.839,-0.009C0.831,-0.003 0.826,0.006 0.826,0.015C0.834,0.016 0.844,0.013 0.851,0.006C0.856,0.001 0.86,-0.007 0.862,-0.015C0.853,-0.015 0.845,-0.013 0.839,-0.009Z" style="fill:none;fill-rule:nonzero;"/>
        </g>
        <g transform="matrix(670.005,63.6161,63.6161,-670.005,-55.757,499.93)">
            <path d="M0.2,0.008C0.195,-0 0.192,-0.01 0.193,-0.021C0.193,-0.021 0.193,-0.022 0.194,-0.022C0.194,-0.023 0.195,-0.023 0.196,-0.023C0.206,-0.022 0.216,-0.017 0.222,-0.01C0.223,-0.01 0.224,-0.009 0.224,-0.008L0.224,-0.008C0.231,0 0.234,0.011 0.232,0.021C0.231,0.022 0.231,0.023 0.229,0.023C0.228,0.023 0.227,0.023 0.226,0.023C0.216,0.022 0.206,0.016 0.2,0.008ZM0.204,0.005C0.21,0.013 0.219,0.018 0.227,0.018C0.229,0.01 0.225,-0 0.219,-0.007C0.213,-0.012 0.206,-0.016 0.198,-0.018C0.198,-0.009 0.2,-0.001 0.204,0.005Z" style="fill:none;fill-rule:nonzero;"/>
        </g>
        <g transform="matrix(669.999,63.6156,63.6156,-669.999,-13.6537,56.5109)">
            <path d="M0.302,0.002C0.302,0 0.303,-0.001 0.304,-0C0.313,0 0.322,-0.001 0.329,-0.005C0.33,-0.005 0.332,-0.005 0.332,-0.004C0.332,-0.004 0.332,-0.004 0.333,-0.003C0.333,-0.002 0.333,-0.001 0.331,-0C0.323,0.003 0.313,0.005 0.304,0.004C0.304,0.004 0.304,0.004 0.304,0.004C0.303,0.004 0.302,0.003 0.302,0.002Z" style="fill:none;fill-rule:nonzero;"/>
        </g>
        <g transform="matrix(670.006,63.6162,63.6162,-670.006,-45.2747,389.528)">
            <path d="M0.182,0.014C0.179,0.006 0.177,-0.004 0.178,-0.013C0.178,-0.015 0.179,-0.016 0.18,-0.015C0.181,-0.015 0.182,-0.015 0.182,-0.015C0.182,-0.014 0.183,-0.014 0.182,-0.013C0.182,-0.004 0.183,0.004 0.187,0.012C0.187,0.013 0.187,0.015 0.185,0.015C0.185,0.016 0.185,0.016 0.184,0.016C0.183,0.015 0.183,0.015 0.182,0.014Z" style="fill:none;fill-rule:nonzero;"/>
        </g>
        <g transform="matrix(670,63.6156,63.6156,-670,-53.8854,480.238)">
            <path d="M0.664,0.004C0.663,0.002 0.664,0.001 0.665,0.001C0.674,-0.003 0.683,-0.005 0.692,-0.004C0.693,-0.004 0.694,-0.004 0.694,-0.003C0.694,-0.003 0.695,-0.002 0.694,-0.002C0.694,-0 0.693,0.001 0.692,0.001C0.683,0 0.675,0.002 0.667,0.005C0.666,0.005 0.666,0.005 0.666,0.005C0.665,0.005 0.664,0.004 0.664,0.004Z" style="fill:none;fill-rule:nonzero;"/>
        </g>
        <g transform="matrix(670.005,63.6161,63.6161,-670.005,-22.27,147.223)">
            <path d="M0.814,0.013C0.814,0.005 0.813,-0.004 0.81,-0.012C0.809,-0.013 0.81,-0.015 0.811,-0.015C0.812,-0.016 0.813,-0.015 0.814,-0.014C0.814,-0.014 0.814,-0.014 0.814,-0.014C0.818,-0.005 0.819,0.004 0.818,0.013C0.818,0.015 0.817,0.016 0.816,0.016C0.816,0.016 0.816,0.016 0.816,0.016C0.815,0.016 0.814,0.014 0.814,0.013Z" style="fill:none;fill-rule:nonzero;"/>
        </g>
        <g transform="matrix(670.001,63.6157,63.6157,-670.001,-11.8819,37.8358)">
            <path d="M0.629,0.007C0.619,0.006 0.61,0.003 0.603,-0.002C0.601,-0.003 0.601,-0.005 0.602,-0.006C0.603,-0.007 0.604,-0.007 0.605,-0.006C0.612,-0.002 0.621,0.001 0.629,0.003C0.63,0.003 0.63,0.003 0.631,0.003C0.631,0.004 0.631,0.004 0.631,0.005C0.631,0.006 0.63,0.007 0.629,0.007C0.629,0.007 0.629,0.007 0.629,0.007Z" style="fill:none;fill-rule:nonzero;"/>
        </g>
        <g transform="matrix(669.999,63.6156,63.6156,-669.999,-26.2581,189.255)">
            <path d="M0.149,0.015C0.148,0.015 0.147,0.014 0.147,0.012C0.148,0.003 0.151,-0.006 0.157,-0.014C0.157,-0.015 0.159,-0.015 0.16,-0.014C0.16,-0.014 0.16,-0.014 0.16,-0.014C0.161,-0.013 0.161,-0.012 0.161,-0.011C0.156,-0.004 0.153,0.004 0.152,0.013C0.151,0.014 0.15,0.015 0.149,0.015C0.149,0.015 0.149,0.015 0.149,0.015Z" style="fill:none;fill-rule:nonzero;"/>
        </g>
        <g transform="matrix(670.001,63.6157,63.6157,-670.001,-55.6643,498.971)">
            <path d="M0.391,0.007C0.384,0.002 0.376,-0.001 0.367,-0.002C0.366,-0.002 0.365,-0.004 0.365,-0.005C0.365,-0.006 0.366,-0.007 0.368,-0.007C0.377,-0.006 0.386,-0.002 0.394,0.003C0.394,0.003 0.394,0.003 0.394,0.003C0.395,0.004 0.395,0.005 0.394,0.006C0.394,0.007 0.393,0.007 0.392,0.007C0.392,0.007 0.391,0.007 0.391,0.007Z" style="fill:none;fill-rule:nonzero;"/>
        </g>
        <g transform="matrix(670.001,63.6157,63.6157,-670.001,-41.2876,347.556)">
            <path d="M0.836,0.015C0.835,0.014 0.835,0.012 0.836,0.011C0.84,0.004 0.844,-0.004 0.845,-0.013C0.845,-0.014 0.846,-0.015 0.847,-0.015C0.848,-0.015 0.848,-0.014 0.849,-0.014C0.849,-0.013 0.849,-0.013 0.849,-0.012C0.848,-0.003 0.845,0.006 0.84,0.014C0.839,0.015 0.838,0.015 0.837,0.015C0.837,0.015 0.837,0.015 0.836,0.015Z" style="fill:none;fill-rule:nonzero;"/>
        </g>
        <g transform="matrix(670.002,63.6158,63.6158,-670.002,-10.6225,24.5849)">
            <path d="M0.405,0.022C0.405,0.021 0.405,0.02 0.406,0.019C0.411,0.014 0.413,0.007 0.412,0.001C0.411,-0.006 0.408,-0.013 0.405,-0.019C0.404,-0.02 0.405,-0.022 0.406,-0.022C0.407,-0.023 0.408,-0.022 0.409,-0.021C0.412,-0.015 0.416,-0.007 0.417,0C0.417,0.006 0.416,0.012 0.414,0.017C0.43,0.011 0.446,0.001 0.457,-0.012C0.458,-0.013 0.459,-0.013 0.46,-0.012C0.461,-0.012 0.461,-0.012 0.461,-0.011C0.461,-0.011 0.461,-0.009 0.461,-0.008C0.447,0.007 0.428,0.018 0.408,0.023C0.408,0.023 0.408,0.023 0.407,0.023C0.407,0.023 0.406,0.023 0.405,0.022Z" style="fill:none;fill-rule:nonzero;"/>
        </g>
        <g transform="matrix(670.002,63.6159,63.6159,-670.002,-37.933,312.213)">
            <path d="M0.143,0.028C0.127,0.014 0.116,-0.004 0.111,-0.025C0.111,-0.026 0.112,-0.027 0.113,-0.027C0.114,-0.028 0.115,-0.027 0.115,-0.027C0.115,-0.027 0.115,-0.027 0.115,-0.027C0.12,-0.021 0.128,-0.02 0.133,-0.021C0.14,-0.022 0.147,-0.025 0.153,-0.028C0.154,-0.028 0.156,-0.028 0.156,-0.027C0.156,-0.027 0.157,-0.027 0.157,-0.027C0.157,-0.026 0.157,-0.024 0.156,-0.024C0.149,-0.021 0.142,-0.017 0.134,-0.016C0.128,-0.015 0.122,-0.016 0.118,-0.019C0.123,-0.002 0.133,0.013 0.146,0.024C0.147,0.025 0.147,0.027 0.146,0.028C0.146,0.028 0.145,0.029 0.144,0.029C0.144,0.029 0.143,0.028 0.143,0.028Z" style="fill:none;fill-rule:nonzero;"/>
        </g>
        <g transform="matrix(670.001,63.6157,63.6157,-670.001,-56.9328,512.326)">
            <path d="M0.587,0.022C0.584,0.015 0.581,0.008 0.58,0C0.579,-0.006 0.58,-0.012 0.582,-0.016C0.566,-0.011 0.551,-0.001 0.539,0.012C0.538,0.013 0.537,0.013 0.536,0.012C0.535,0.011 0.535,0.01 0.536,0.009C0.549,-0.007 0.568,-0.018 0.588,-0.023C0.589,-0.023 0.59,-0.023 0.591,-0.022C0.591,-0.022 0.591,-0.022 0.591,-0.021C0.591,-0.02 0.591,-0.019 0.59,-0.019C0.585,-0.014 0.584,-0.006 0.584,-0C0.585,0.007 0.588,0.013 0.592,0.02C0.592,0.021 0.592,0.022 0.591,0.023C0.59,0.023 0.59,0.023 0.589,0.023C0.589,0.023 0.588,0.022 0.587,0.022Z" style="fill:none;fill-rule:nonzero;"/>
        </g>
        <g transform="matrix(670.002,63.6159,63.6159,-670.002,-29.6236,224.692)">
            <path d="M0.84,0.027C0.839,0.026 0.84,0.025 0.841,0.024C0.847,0.021 0.854,0.017 0.862,0.016C0.868,0.016 0.874,0.017 0.878,0.019C0.873,0.003 0.863,-0.013 0.85,-0.024C0.849,-0.025 0.849,-0.026 0.85,-0.027C0.851,-0.028 0.852,-0.028 0.853,-0.028C0.857,-0.024 0.861,-0.02 0.864,-0.016C0.874,-0.004 0.881,0.01 0.885,0.025C0.885,0.026 0.885,0.027 0.884,0.028C0.883,0.028 0.882,0.028 0.881,0.027C0.881,0.027 0.881,0.027 0.881,0.027C0.876,0.022 0.869,0.02 0.863,0.021C0.856,0.022 0.849,0.025 0.843,0.028C0.842,0.029 0.842,0.029 0.842,0.029C0.841,0.029 0.84,0.028 0.84,0.027Z" style="fill:none;fill-rule:nonzero;"/>
        </g>
        <g transform="matrix(670.001,63.6157,63.6157,-670.001,-9.94199,17.4161)">
            <path d="M0.514,0.022C0.495,0.014 0.479,-0.001 0.468,-0.018C0.467,-0.02 0.468,-0.021 0.469,-0.022C0.47,-0.022 0.471,-0.022 0.472,-0.021C0.481,-0.006 0.494,0.007 0.509,0.015C0.508,0.01 0.508,0.004 0.51,-0.002C0.512,-0.009 0.517,-0.015 0.521,-0.021C0.522,-0.022 0.524,-0.022 0.525,-0.022C0.525,-0.022 0.525,-0.021 0.525,-0.021C0.526,-0.02 0.526,-0.019 0.525,-0.018C0.521,-0.013 0.516,-0.007 0.514,-0C0.512,0.005 0.512,0.013 0.517,0.019C0.517,0.019 0.517,0.019 0.517,0.019C0.517,0.02 0.517,0.021 0.517,0.022C0.516,0.022 0.515,0.023 0.515,0.023C0.514,0.023 0.514,0.023 0.514,0.022Z" style="fill:none;fill-rule:nonzero;"/>
        </g>
        <g transform="matrix(670.003,63.6159,63.6159,-670.003,-33.8698,269.419)">
            <path d="M0.142,0.029C0.136,0.024 0.13,0.02 0.124,0.018C0.118,0.016 0.11,0.016 0.105,0.02C0.104,0.021 0.103,0.021 0.102,0.02C0.101,0.019 0.101,0.018 0.101,0.017C0.11,-0.002 0.124,-0.018 0.142,-0.028C0.143,-0.029 0.144,-0.029 0.145,-0.028C0.145,-0.028 0.145,-0.028 0.145,-0.028C0.146,-0.026 0.146,-0.025 0.144,-0.024C0.13,-0.015 0.117,-0.002 0.109,0.013C0.114,0.011 0.12,0.011 0.125,0.013C0.133,0.016 0.139,0.021 0.145,0.025C0.146,0.026 0.146,0.027 0.145,0.028C0.145,0.029 0.144,0.029 0.143,0.029C0.143,0.029 0.142,0.029 0.142,0.029Z" style="fill:none;fill-rule:nonzero;"/>
        </g>
        <g transform="matrix(670.002,63.6158,63.6158,-670.002,-57.6036,519.389)">
            <path d="M0.472,0.022C0.471,0.021 0.47,0.02 0.471,0.019C0.475,0.013 0.48,0.007 0.482,0C0.484,-0.005 0.484,-0.013 0.48,-0.018C0.48,-0.018 0.48,-0.018 0.48,-0.018C0.479,-0.019 0.479,-0.021 0.48,-0.021C0.48,-0.022 0.481,-0.023 0.482,-0.022C0.497,-0.016 0.509,-0.006 0.519,0.006C0.522,0.01 0.526,0.014 0.528,0.019C0.529,0.02 0.528,0.021 0.527,0.022C0.526,0.023 0.525,0.022 0.524,0.021C0.515,0.006 0.502,-0.006 0.487,-0.015C0.489,-0.01 0.488,-0.004 0.487,0.002C0.484,0.009 0.479,0.016 0.475,0.021C0.474,0.022 0.474,0.022 0.473,0.022C0.472,0.022 0.472,0.022 0.472,0.022Z" style="fill:none;fill-rule:nonzero;"/>
        </g>
        <g transform="matrix(670.002,63.6158,63.6158,-670.002,-33.6887,267.515)">
            <path d="M0.851,0.028C0.85,0.027 0.851,0.025 0.852,0.025C0.867,0.016 0.879,0.003 0.888,-0.012C0.883,-0.011 0.877,-0.011 0.871,-0.013C0.864,-0.015 0.857,-0.02 0.851,-0.024C0.85,-0.025 0.85,-0.027 0.851,-0.028C0.852,-0.029 0.853,-0.029 0.854,-0.028C0.86,-0.024 0.866,-0.019 0.873,-0.017C0.878,-0.015 0.886,-0.015 0.891,-0.02C0.892,-0.02 0.893,-0.02 0.894,-0.02C0.894,-0.02 0.895,-0.019 0.895,-0.019C0.895,-0.019 0.895,-0.018 0.895,-0.017C0.887,0.002 0.872,0.018 0.854,0.029C0.854,0.029 0.853,0.029 0.853,0.029C0.852,0.029 0.851,0.029 0.851,0.028Z" style="fill:none;fill-rule:nonzero;"/>
        </g>
        <g transform="matrix(670.003,63.6159,63.6159,-670.003,-8.20186,-0.917479)">
            <path d="M0.455,0.031C0.448,0.018 0.444,0.003 0.441,-0.012C0.441,-0.013 0.441,-0.014 0.442,-0.015C0.449,-0.019 0.456,-0.025 0.461,-0.032C0.461,-0.032 0.462,-0.033 0.463,-0.033C0.464,-0.033 0.464,-0.032 0.465,-0.032C0.465,-0.032 0.465,-0.031 0.465,-0.031C0.469,-0.024 0.474,-0.016 0.48,-0.011C0.481,-0.01 0.481,-0.009 0.481,-0.008C0.476,0.006 0.468,0.019 0.459,0.032C0.458,0.032 0.458,0.033 0.457,0.033C0.457,0.033 0.457,0.033 0.457,0.033C0.456,0.032 0.455,0.032 0.455,0.031ZM0.446,-0.011C0.448,0.001 0.452,0.014 0.458,0.026C0.465,0.015 0.471,0.004 0.476,-0.008C0.471,-0.013 0.466,-0.019 0.462,-0.026C0.458,-0.02 0.452,-0.015 0.446,-0.011Z" style="fill:none;fill-rule:nonzero;"/>
        </g>
        <g transform="matrix(670.001,63.6157,63.6157,-670.001,-31.4143,243.556)">
            <path d="M0.885,0.019C0.881,0.012 0.875,0.005 0.868,0C0.868,-0 0.867,-0.001 0.867,-0.002C0.867,-0.003 0.868,-0.003 0.869,-0.004C0.876,-0.007 0.883,-0.013 0.889,-0.019C0.89,-0.02 0.891,-0.02 0.892,-0.02C0.906,-0.014 0.919,-0.007 0.932,0.002C0.932,0.002 0.932,0.002 0.932,0.003C0.932,0.003 0.932,0.003 0.932,0.003C0.933,0.004 0.933,0.005 0.932,0.006C0.931,0.006 0.931,0.006 0.931,0.007C0.917,0.013 0.903,0.018 0.888,0.02C0.888,0.02 0.887,0.02 0.887,0.02C0.887,0.02 0.886,0.02 0.885,0.019ZM0.874,-0.001C0.88,0.003 0.885,0.009 0.889,0.015C0.901,0.013 0.914,0.009 0.926,0.004C0.915,-0.004 0.904,-0.01 0.892,-0.015C0.887,-0.009 0.881,-0.005 0.874,-0.001Z" style="fill:none;fill-rule:nonzero;"/>
        </g>
        <g transform="matrix(670.001,63.6158,63.6158,-670.001,-59.3263,537.533)">
            <path d="M0.531,0.031C0.529,0.027 0.526,0.022 0.523,0.018L0.516,0.011C0.515,0.01 0.515,0.009 0.515,0.008C0.521,-0.006 0.528,-0.019 0.537,-0.032C0.538,-0.032 0.539,-0.033 0.539,-0.033C0.54,-0.033 0.541,-0.032 0.541,-0.032C0.541,-0.032 0.541,-0.031 0.541,-0.031C0.548,-0.018 0.553,-0.003 0.555,0.012C0.556,0.013 0.555,0.014 0.554,0.015C0.547,0.019 0.54,0.025 0.535,0.032C0.535,0.032 0.534,0.033 0.533,0.033C0.533,0.033 0.533,0.033 0.533,0.033C0.532,0.033 0.532,0.032 0.531,0.031ZM0.52,0.008L0.527,0.015C0.529,0.018 0.532,0.022 0.534,0.026C0.539,0.02 0.544,0.015 0.55,0.011C0.548,-0.001 0.544,-0.014 0.539,-0.026C0.531,-0.015 0.525,-0.004 0.52,0.008Z" style="fill:none;fill-rule:nonzero;"/>
        </g>
        <g transform="matrix(669.999,63.6156,63.6156,-669.999,-36.1308,293.234)">
            <path d="M0.105,0.02C0.09,0.015 0.077,0.007 0.065,-0.002C0.064,-0.002 0.064,-0.003 0.064,-0.004C0.064,-0.005 0.064,-0.006 0.065,-0.006C0.079,-0.013 0.093,-0.017 0.108,-0.02C0.109,-0.02 0.11,-0.02 0.111,-0.019C0.115,-0.012 0.121,-0.005 0.128,0C0.128,0 0.128,0 0.128,0C0.128,0 0.128,0 0.128,0C0.129,0.001 0.129,0.003 0.128,0.004C0.128,0.004 0.127,0.004 0.127,0.004C0.119,0.008 0.113,0.013 0.107,0.019C0.107,0.02 0.106,0.02 0.105,0.02C0.105,0.02 0.105,0.02 0.105,0.02ZM0.071,-0.003C0.081,0.004 0.093,0.01 0.105,0.015C0.11,0.01 0.116,0.005 0.122,0.002C0.119,-0.001 0.116,-0.004 0.113,-0.008C0.111,-0.01 0.109,-0.012 0.108,-0.015C0.095,-0.013 0.082,-0.009 0.071,-0.003Z" style="fill:none;fill-rule:nonzero;"/>
        </g>
        <g transform="matrix(670.002,63.6158,63.6158,-670.002,-33.7637,268.304)">
            <path d="M0.466,0.337C0.376,0.329 0.295,0.286 0.237,0.216C0.179,0.146 0.152,0.058 0.161,-0.032C0.169,-0.122 0.213,-0.203 0.282,-0.261C0.352,-0.319 0.44,-0.346 0.53,-0.337C0.62,-0.329 0.702,-0.286 0.759,-0.216C0.817,-0.146 0.844,-0.058 0.835,0.032C0.827,0.122 0.784,0.203 0.714,0.261C0.644,0.319 0.556,0.346 0.466,0.337L0.466,0.337ZM0.29,-0.252C0.223,-0.196 0.181,-0.118 0.173,-0.031C0.164,0.056 0.19,0.141 0.246,0.208C0.302,0.276 0.38,0.317 0.467,0.325C0.554,0.334 0.639,0.308 0.706,0.252C0.774,0.196 0.815,0.118 0.824,0.031C0.832,-0.056 0.806,-0.141 0.75,-0.208C0.694,-0.276 0.616,-0.317 0.529,-0.325C0.442,-0.334 0.357,-0.308 0.29,-0.252Z" style="fill:none;fill-rule:nonzero;"/>
        </g>
        <g transform="matrix(670,63.6156,63.6156,-670,-9.31823,10.8514)">
            <path d="M0.367,0.004C0.366,0.002 0.366,-0.002 0.368,-0.003C0.37,-0.005 0.374,-0.005 0.375,-0.003C0.377,-0.001 0.377,0.003 0.375,0.005C0.374,0.005 0.372,0.006 0.371,0.006C0.37,0.006 0.368,0.005 0.367,0.004Z" style="fill:none;fill-rule:nonzero;"/>
        </g>
        <g transform="matrix(669.999,63.6155,63.6155,-669.999,-41.8578,353.553)">
            <path d="M0.109,0.004C0.108,0.002 0.108,-0.002 0.11,-0.003C0.112,-0.005 0.116,-0.005 0.117,-0.003C0.119,-0.001 0.119,0.003 0.117,0.005C0.116,0.005 0.114,0.006 0.113,0.006C0.112,0.006 0.11,0.005 0.109,0.004Z" style="fill:none;fill-rule:nonzero;"/>
        </g>
        <g transform="matrix(669.997,63.6154,63.6154,-669.997,-58.2744,526.474)">
            <path d="M0.621,0.004C0.619,0.002 0.619,-0.002 0.622,-0.003C0.624,-0.005 0.627,-0.005 0.629,-0.003C0.631,-0.001 0.63,0.003 0.628,0.005C0.627,0.005 0.626,0.006 0.624,0.006C0.623,0.006 0.622,0.005 0.621,0.004Z" style="fill:none;fill-rule:nonzero;"/>
        </g>
        <g transform="matrix(669.999,63.6155,63.6155,-669.999,-25.7354,183.775)">
            <path d="M0.879,0.004C0.877,0.002 0.877,-0.002 0.88,-0.003C0.882,-0.005 0.885,-0.005 0.887,-0.003C0.889,-0.001 0.888,0.003 0.886,0.005C0.885,0.005 0.884,0.006 0.882,0.006C0.881,0.006 0.88,0.005 0.879,0.004Z" style="fill:none;fill-rule:nonzero;"/>
        </g>
        <g transform="matrix(669.997,63.6154,63.6154,-669.997,-8.23671,-0.517636)">
            <path d="M0.546,0.004C0.544,0.002 0.545,-0.002 0.547,-0.003C0.549,-0.005 0.552,-0.005 0.554,-0.003C0.556,-0.001 0.556,0.003 0.553,0.005C0.552,0.005 0.551,0.006 0.55,0.006C0.548,0.006 0.547,0.005 0.546,0.004Z" style="fill:none;fill-rule:nonzero;"/>
        </g>
        <g transform="matrix(669.999,63.6155,63.6155,-669.999,-30.4884,233.811)">
            <path d="M0.092,0.004C0.091,0.002 0.091,-0.002 0.093,-0.003C0.095,-0.005 0.099,-0.005 0.1,-0.003C0.102,-0.001 0.102,0.003 0.1,0.005C0.099,0.005 0.097,0.006 0.096,0.006C0.095,0.006 0.093,0.005 0.092,0.004Z" style="fill:none;fill-rule:nonzero;"/>
        </g>
        <g transform="matrix(670,63.6156,63.6156,-670,-59.3554,537.843)">
            <path d="M0.442,0.004C0.44,0.002 0.441,-0.002 0.443,-0.003C0.445,-0.005 0.448,-0.005 0.45,-0.003C0.452,-0.001 0.452,0.003 0.449,0.005C0.448,0.005 0.447,0.006 0.446,0.006C0.444,0.006 0.443,0.005 0.442,0.004Z" style="fill:none;fill-rule:nonzero;"/>
        </g>
        <g transform="matrix(669.999,63.6155,63.6155,-669.999,-37.1046,303.516)">
            <path d="M0.896,0.004C0.894,0.002 0.894,-0.002 0.897,-0.003C0.899,-0.005 0.902,-0.005 0.904,-0.003C0.906,-0.001 0.905,0.003 0.903,0.005C0.902,0.005 0.901,0.006 0.899,0.006C0.898,0.006 0.897,0.005 0.896,0.004Z" style="fill:none;fill-rule:nonzero;"/>
        </g>
        <g transform="matrix(670.001,63.6158,63.6158,-670.001,-16.6231,87.7778)">
            <path d="M0.222,0.004C0.22,0.002 0.22,-0.002 0.222,-0.003C0.224,-0.005 0.228,-0.005 0.23,-0.003C0.231,-0.001 0.231,0.003 0.229,0.005C0.228,0.005 0.226,0.006 0.225,0.006C0.224,0.006 0.222,0.005 0.222,0.004Z" style="fill:none;fill-rule:nonzero;"/>
        </g>
        <g transform="matrix(670.006,63.6162,63.6162,-670.006,-51.1391,451.293)">
            <path d="M0.224,0.004C0.222,0.002 0.223,-0.002 0.225,-0.003C0.227,-0.005 0.23,-0.005 0.232,-0.003C0.234,-0.001 0.234,0.003 0.231,0.005C0.23,0.005 0.229,0.006 0.228,0.006C0.226,0.006 0.225,0.005 0.224,0.004Z" style="fill:none;fill-rule:nonzero;"/>
        </g>
        <g transform="matrix(670.001,63.6158,63.6158,-670.001,-50.973,449.552)">
            <path d="M0.767,0.004C0.765,0.002 0.765,-0.002 0.767,-0.003C0.77,-0.005 0.773,-0.005 0.775,-0.003C0.777,-0.001 0.776,0.003 0.774,0.005C0.773,0.005 0.772,0.006 0.77,0.006C0.769,0.006 0.768,0.005 0.767,0.004Z" style="fill:none;fill-rule:nonzero;"/>
        </g>
        <g transform="matrix(670.012,63.6168,63.6168,-670.012,-16.4647,86.0309)">
            <path d="M0.764,0.004C0.762,0.002 0.763,-0.002 0.765,-0.003C0.767,-0.005 0.77,-0.005 0.772,-0.003C0.774,-0.001 0.774,0.003 0.771,0.005C0.77,0.005 0.769,0.006 0.768,0.006C0.766,0.006 0.765,0.005 0.764,0.004Z" style="fill:none;fill-rule:nonzero;"/>
        </g>
        <g transform="matrix(670.001,63.6158,63.6158,-670.001,-13.6658,56.6392)">
            <path d="M0.711,0.004C0.709,0.002 0.71,-0.002 0.712,-0.003C0.714,-0.005 0.717,-0.005 0.719,-0.003C0.721,-0.001 0.721,0.003 0.718,0.005C0.717,0.005 0.716,0.006 0.715,0.006C0.713,0.006 0.712,0.005 0.711,0.004Z" style="fill:none;fill-rule:nonzero;"/>
        </g>
        <g transform="matrix(670.003,63.6159,63.6159,-670.003,-19.9996,123.339)">
            <path d="M0.178,0.004C0.176,0.002 0.176,-0.002 0.178,-0.003C0.181,-0.005 0.184,-0.005 0.186,-0.003C0.187,-0.001 0.187,0.003 0.185,0.005C0.184,0.005 0.182,0.006 0.181,0.006C0.18,0.006 0.179,0.005 0.178,0.004Z" style="fill:none;fill-rule:nonzero;"/>
        </g>
        <g transform="matrix(670.001,63.6158,63.6158,-670.001,-53.9296,480.691)">
            <path d="M0.277,0.004C0.275,0.002 0.276,-0.002 0.278,-0.003C0.28,-0.005 0.283,-0.005 0.285,-0.003C0.287,-0.001 0.287,0.003 0.285,0.005C0.283,0.005 0.282,0.006 0.281,0.006C0.279,0.006 0.278,0.005 0.277,0.004Z" style="fill:none;fill-rule:nonzero;"/>
        </g>
        <g transform="matrix(670.011,63.6167,63.6167,-670.011,-47.6035,413.986)">
            <path d="M0.811,0.004C0.809,0.002 0.809,-0.002 0.811,-0.003C0.813,-0.005 0.817,-0.005 0.819,-0.003C0.82,-0.001 0.82,0.003 0.818,0.005C0.817,0.005 0.815,0.006 0.814,0.006C0.813,0.006 0.812,0.005 0.811,0.004Z" style="fill:none;fill-rule:nonzero;"/>
        </g>
        <g transform="matrix(670.011,63.6167,63.6167,-670.011,-16.3994,85.3984)">
            <path d="M0.25,0.004C0.249,0.002 0.249,-0.002 0.251,-0.003C0.253,-0.005 0.256,-0.005 0.258,-0.003C0.26,-0.001 0.26,0.003 0.258,0.005C0.257,0.005 0.255,0.006 0.254,0.006C0.253,0.006 0.251,0.005 0.25,0.004Z" style="fill:none;fill-rule:nonzero;"/>
        </g>
        <g transform="matrix(669.995,63.6152,63.6152,-669.995,-49.3056,432.007)">
            <path d="M0.221,0.004C0.219,0.002 0.219,-0.002 0.221,-0.003C0.224,-0.005 0.227,-0.005 0.229,-0.003C0.23,-0.001 0.23,0.003 0.228,0.005C0.227,0.005 0.225,0.006 0.224,0.006C0.223,0.006 0.222,0.005 0.221,0.004Z" style="fill:none;fill-rule:nonzero;"/>
        </g>
        <g transform="matrix(670.005,63.6161,63.6161,-670.005,-51.2014,451.931)">
            <path d="M0.738,0.004C0.736,0.002 0.736,-0.002 0.739,-0.003C0.741,-0.005 0.744,-0.005 0.746,-0.003C0.748,-0.001 0.747,0.003 0.745,0.005C0.744,0.005 0.743,0.006 0.741,0.006C0.74,0.006 0.739,0.005 0.738,0.004Z" style="fill:none;fill-rule:nonzero;"/>
        </g>
        <g transform="matrix(670.011,63.6167,63.6167,-670.011,-18.2958,105.32)">
            <path d="M0.768,0.004C0.766,0.002 0.766,-0.002 0.768,-0.003C0.771,-0.005 0.774,-0.005 0.776,-0.003C0.777,-0.001 0.777,0.003 0.775,0.005C0.774,0.005 0.772,0.006 0.771,0.006C0.77,0.006 0.769,0.005 0.768,0.004Z" style="fill:none;fill-rule:nonzero;"/>
        </g>
        <g transform="matrix(670.003,63.6159,63.6159,-670.003,-13.7894,57.9322)">
            <path d="M0.682,0.004C0.68,0.002 0.681,-0.002 0.683,-0.003C0.685,-0.005 0.688,-0.005 0.69,-0.003C0.692,-0.001 0.692,0.003 0.689,0.005C0.688,0.005 0.687,0.006 0.686,0.006C0.684,0.006 0.683,0.005 0.682,0.004Z" style="fill:none;fill-rule:nonzero;"/>
        </g>
        <g transform="matrix(669.995,63.6152,63.6152,-669.995,-21.8397,142.731)">
            <path d="M0.18,0.004C0.178,0.002 0.178,-0.002 0.18,-0.003C0.183,-0.005 0.186,-0.005 0.188,-0.003C0.189,-0.001 0.189,0.003 0.187,0.005C0.186,0.005 0.184,0.006 0.183,0.006C0.182,0.006 0.181,0.005 0.18,0.004Z" style="fill:none;fill-rule:nonzero;"/>
        </g>
        <g transform="matrix(670.011,63.6167,63.6167,-670.011,-53.8098,479.397)">
            <path d="M0.306,0.004C0.304,0.002 0.305,-0.002 0.307,-0.003C0.309,-0.005 0.312,-0.005 0.314,-0.003C0.316,-0.001 0.316,0.003 0.313,0.005C0.312,0.005 0.311,0.006 0.31,0.006C0.308,0.006 0.307,0.005 0.306,0.004Z" style="fill:none;fill-rule:nonzero;"/>
        </g>
        <g transform="matrix(670.011,63.6167,63.6167,-670.011,-45.763,394.596)">
            <path d="M0.809,0.004C0.807,0.002 0.807,-0.002 0.809,-0.003C0.812,-0.005 0.815,-0.005 0.817,-0.003C0.818,-0.001 0.818,0.003 0.816,0.005C0.815,0.005 0.813,0.006 0.812,0.006C0.811,0.006 0.81,0.005 0.809,0.004Z" style="fill:none;fill-rule:nonzero;"/>
        </g>
        <g transform="matrix(669.995,63.6152,63.6152,-669.995,-14.5697,66.1676)">
            <path d="M0.22,0.004C0.218,0.002 0.219,-0.002 0.221,-0.003C0.223,-0.005 0.226,-0.005 0.228,-0.003C0.23,-0.001 0.23,0.003 0.228,0.005C0.226,0.005 0.225,0.006 0.224,0.006C0.222,0.006 0.221,0.005 0.22,0.004Z" style="fill:none;fill-rule:nonzero;"/>
        </g>
        <g transform="matrix(670.002,63.6158,63.6158,-670.002,-51.2209,452.162)">
            <path d="M0.192,0.004C0.19,0.002 0.19,-0.002 0.193,-0.003C0.195,-0.005 0.198,-0.005 0.2,-0.003C0.202,-0.001 0.201,0.003 0.199,0.005C0.198,0.005 0.197,0.006 0.195,0.006C0.194,0.006 0.193,0.005 0.192,0.004Z" style="fill:none;fill-rule:nonzero;"/>
        </g>
        <g transform="matrix(670.011,63.6167,63.6167,-670.011,-53.0324,471.159)">
            <path d="M0.768,0.004C0.766,0.002 0.767,-0.002 0.769,-0.003C0.771,-0.005 0.774,-0.005 0.776,-0.003C0.778,-0.001 0.777,0.003 0.775,0.005C0.774,0.005 0.773,0.006 0.772,0.006C0.77,0.006 0.769,0.005 0.768,0.004Z" style="fill:none;fill-rule:nonzero;"/>
        </g>
        <g transform="matrix(670.002,63.6158,63.6158,-670.002,-16.3747,85.1634)">
            <path d="M0.796,0.004C0.795,0.002 0.795,-0.002 0.797,-0.003C0.799,-0.005 0.803,-0.005 0.804,-0.003C0.806,-0.001 0.806,0.003 0.804,0.005C0.803,0.005 0.801,0.006 0.8,0.006C0.799,0.006 0.797,0.005 0.796,0.004Z" style="fill:none;fill-rule:nonzero;"/>
        </g>
        <g transform="matrix(670.011,63.6167,63.6167,-670.011,-11.6416,35.2485)">
            <path d="M0.706,0.004C0.704,0.002 0.705,-0.002 0.707,-0.003C0.709,-0.005 0.712,-0.005 0.714,-0.003C0.716,-0.001 0.716,0.003 0.714,0.005C0.712,0.005 0.711,0.006 0.71,0.006C0.708,0.006 0.707,0.005 0.706,0.004Z" style="fill:none;fill-rule:nonzero;"/>
        </g>
        <g transform="matrix(670.004,63.616,63.616,-670.004,-20.3047,126.552)">
            <path d="M0.146,0.004C0.144,0.002 0.144,-0.002 0.146,-0.003C0.149,-0.005 0.152,-0.005 0.154,-0.003C0.156,-0.001 0.155,0.003 0.153,0.005C0.152,0.005 0.151,0.006 0.149,0.006C0.148,0.006 0.147,0.005 0.146,0.004Z" style="fill:none;fill-rule:nonzero;"/>
        </g>
        <g transform="matrix(669.995,63.6152,63.6152,-669.995,-55.9585,502.076)">
            <path d="M0.282,0.004C0.28,0.002 0.281,-0.002 0.283,-0.003C0.285,-0.005 0.288,-0.005 0.29,-0.003C0.292,-0.001 0.292,0.003 0.289,0.005C0.288,0.005 0.287,0.006 0.286,0.006C0.284,0.006 0.283,0.005 0.282,0.004Z" style="fill:none;fill-rule:nonzero;"/>
        </g>
        <g transform="matrix(670.004,63.616,63.616,-670.004,-47.2928,410.773)">
            <path d="M0.843,0.004C0.841,0.002 0.841,-0.002 0.843,-0.003C0.845,-0.005 0.849,-0.005 0.85,-0.003C0.852,-0.001 0.852,0.003 0.85,0.005C0.849,0.005 0.847,0.006 0.846,0.006C0.845,0.006 0.843,0.005 0.843,0.004Z" style="fill:none;fill-rule:nonzero;"/>
        </g>
        <g transform="matrix(669.995,63.6152,63.6152,-669.995,-16.7576,89.2096)">
            <path d="M0.192,0.004C0.19,0.002 0.19,-0.002 0.193,-0.003C0.195,-0.005 0.198,-0.005 0.2,-0.003C0.202,-0.001 0.201,0.003 0.199,0.005C0.198,0.005 0.197,0.006 0.195,0.006C0.194,0.006 0.193,0.005 0.192,0.004Z" style="fill:none;fill-rule:nonzero;"/>
        </g>
        <g transform="matrix(670.002,63.6158,63.6158,-670.002,-53.0297,471.212)">
            <path d="M0.226,0.004C0.224,0.002 0.225,-0.002 0.227,-0.003C0.229,-0.005 0.232,-0.005 0.234,-0.003C0.236,-0.001 0.236,0.003 0.234,0.005C0.232,0.005 0.231,0.006 0.23,0.006C0.228,0.006 0.227,0.005 0.226,0.004Z" style="fill:none;fill-rule:nonzero;"/>
        </g>
        <g transform="matrix(670.001,63.6157,63.6157,-670.001,-50.8356,448.116)">
            <path d="M0.796,0.004C0.795,0.002 0.795,-0.002 0.797,-0.003C0.799,-0.005 0.803,-0.005 0.804,-0.003C0.806,-0.001 0.806,0.003 0.804,0.005C0.803,0.005 0.801,0.006 0.8,0.006C0.799,0.006 0.797,0.005 0.796,0.004Z" style="fill:none;fill-rule:nonzero;"/>
        </g>
        <g transform="matrix(670.002,63.6158,63.6158,-670.002,-14.5656,66.1159)">
            <path d="M0.762,0.004C0.76,0.002 0.76,-0.002 0.763,-0.003C0.765,-0.005 0.768,-0.005 0.77,-0.003C0.772,-0.001 0.771,0.003 0.769,0.005C0.768,0.005 0.767,0.006 0.765,0.006C0.764,0.006 0.763,0.005 0.762,0.004Z" style="fill:none;fill-rule:nonzero;"/>
        </g>
        <g transform="matrix(670.001,63.6157,63.6157,-670.001,-13.4429,54.2969)">
            <path d="M0.741,0.004C0.739,0.002 0.739,-0.002 0.741,-0.003C0.744,-0.005 0.747,-0.005 0.749,-0.003C0.75,-0.001 0.75,0.003 0.748,0.005C0.747,0.005 0.745,0.006 0.744,0.006C0.743,0.006 0.742,0.005 0.741,0.004Z" style="fill:none;fill-rule:nonzero;"/>
        </g>
        <g transform="matrix(670,63.6156,63.6156,-670,-18.1162,103.508)">
            <path d="M0.174,0.004C0.172,0.002 0.173,-0.002 0.175,-0.003C0.177,-0.005 0.18,-0.005 0.182,-0.003C0.184,-0.001 0.184,0.003 0.181,0.005C0.18,0.005 0.179,0.006 0.178,0.006C0.176,0.006 0.175,0.005 0.174,0.004Z" style="fill:none;fill-rule:nonzero;"/>
        </g>
        <g transform="matrix(669.995,63.6152,63.6152,-669.995,-54.1499,483.029)">
            <path d="M0.248,0.004C0.246,0.002 0.246,-0.002 0.248,-0.003C0.251,-0.005 0.254,-0.005 0.256,-0.003C0.257,-0.001 0.257,0.003 0.255,0.005C0.254,0.005 0.252,0.006 0.251,0.006C0.25,0.006 0.249,0.005 0.248,0.004Z" style="fill:none;fill-rule:nonzero;"/>
        </g>
        <g transform="matrix(670,63.6156,63.6156,-670,-49.4776,433.819)">
            <path d="M0.814,0.004C0.812,0.002 0.813,-0.002 0.815,-0.003C0.817,-0.005 0.82,-0.005 0.822,-0.003C0.824,-0.001 0.824,0.003 0.821,0.005C0.82,0.005 0.819,0.006 0.818,0.006C0.816,0.006 0.815,0.005 0.814,0.004Z" style="fill:none;fill-rule:nonzero;"/>
        </g>
        <g transform="matrix(670.004,63.616,63.616,-670.004,-14.1835,62.079)">
            <path d="M0.249,0.004C0.247,0.002 0.248,-0.002 0.25,-0.003C0.252,-0.005 0.255,-0.005 0.257,-0.003C0.259,-0.001 0.259,0.003 0.257,0.005C0.255,0.005 0.254,0.006 0.253,0.006C0.251,0.006 0.25,0.005 0.249,0.004Z" style="fill:none;fill-rule:nonzero;"/>
        </g>
        <g transform="matrix(669.995,63.6152,63.6152,-669.995,-49.3725,432.705)">
            <path d="M0.186,0.004C0.184,0.002 0.184,-0.002 0.187,-0.003C0.189,-0.005 0.192,-0.005 0.194,-0.003C0.196,-0.001 0.195,0.003 0.193,0.005C0.192,0.005 0.191,0.006 0.189,0.006C0.188,0.006 0.187,0.005 0.186,0.004Z" style="fill:none;fill-rule:nonzero;"/>
        </g>
        <g transform="matrix(670.004,63.616,63.616,-670.004,-53.4144,475.249)">
            <path d="M0.739,0.004C0.737,0.002 0.737,-0.002 0.74,-0.003C0.742,-0.005 0.745,-0.005 0.747,-0.003C0.749,-0.001 0.748,0.003 0.746,0.005C0.745,0.005 0.744,0.006 0.742,0.006C0.741,0.006 0.74,0.005 0.739,0.004Z" style="fill:none;fill-rule:nonzero;"/>
        </g>
        <g transform="matrix(669.995,63.6152,63.6152,-669.995,-18.2169,104.621)">
            <path d="M0.802,0.004C0.801,0.002 0.801,-0.002 0.803,-0.003C0.805,-0.005 0.809,-0.005 0.81,-0.003C0.812,-0.001 0.812,0.003 0.81,0.005C0.809,0.005 0.807,0.006 0.806,0.006C0.805,0.006 0.803,0.005 0.802,0.004Z" style="fill:none;fill-rule:nonzero;"/>
        </g>
        <g transform="matrix(670.002,63.6158,63.6158,-670.002,-11.6024,34.8979)">
            <path d="M0.677,0.004C0.675,0.002 0.675,-0.002 0.677,-0.003C0.679,-0.005 0.683,-0.005 0.685,-0.003C0.686,-0.001 0.686,0.003 0.684,0.005C0.683,0.005 0.681,0.006 0.68,0.006C0.679,0.006 0.677,0.005 0.677,0.004Z" style="fill:none;fill-rule:nonzero;"/>
        </g>
        <g transform="matrix(669.995,63.6152,63.6152,-669.995,-22.191,146.431)">
            <path d="M0.145,0.004C0.143,0.002 0.144,-0.002 0.146,-0.003C0.148,-0.005 0.151,-0.005 0.153,-0.003C0.155,-0.001 0.155,0.003 0.153,0.005C0.151,0.005 0.15,0.006 0.149,0.006C0.147,0.006 0.146,0.005 0.145,0.004Z" style="fill:none;fill-rule:nonzero;"/>
        </g>
        <g transform="matrix(670.002,63.6159,63.6159,-670.002,-55.9942,502.43)">
            <path d="M0.312,0.004C0.31,0.002 0.31,-0.002 0.312,-0.003C0.315,-0.005 0.318,-0.005 0.32,-0.003C0.321,-0.001 0.321,0.003 0.319,0.005C0.318,0.005 0.317,0.006 0.315,0.006C0.314,0.006 0.313,0.005 0.312,0.004Z" style="fill:none;fill-rule:nonzero;"/>
        </g>
        <g transform="matrix(669.995,63.6152,63.6152,-669.995,-45.3976,390.895)">
            <path d="M0.843,0.004C0.841,0.002 0.842,-0.002 0.844,-0.003C0.846,-0.005 0.849,-0.005 0.851,-0.003C0.853,-0.001 0.853,0.003 0.85,0.005C0.849,0.005 0.848,0.006 0.847,0.006C0.845,0.006 0.844,0.005 0.843,0.004Z" style="fill:none;fill-rule:nonzero;"/>
        </g>
        <g transform="matrix(669.999,63.6156,63.6156,-669.999,-16.6996,88.5912)">
            <path d="M0.169,0.004C0.167,0.002 0.167,-0.002 0.17,-0.003C0.172,-0.005 0.175,-0.005 0.177,-0.003C0.179,-0.001 0.178,0.003 0.176,0.005C0.175,0.005 0.174,0.006 0.172,0.006C0.171,0.006 0.17,0.005 0.169,0.004Z" style="fill:none;fill-rule:nonzero;"/>
        </g>
        <g transform="matrix(670.003,63.6159,63.6159,-670.003,-13.114,50.8084)">
            <path d="M0.763,0.004C0.761,0.002 0.761,-0.002 0.764,-0.003C0.766,-0.005 0.769,-0.005 0.771,-0.003C0.773,-0.001 0.772,0.003 0.77,0.005C0.769,0.005 0.768,0.006 0.766,0.006C0.765,0.006 0.764,0.005 0.763,0.004Z" style="fill:none;fill-rule:nonzero;"/>
        </g>
        <g transform="matrix(670.005,63.6161,63.6161,-670.005,-50.8983,448.734)">
            <path d="M0.819,0.004C0.817,0.002 0.818,-0.002 0.82,-0.003C0.822,-0.005 0.825,-0.005 0.827,-0.003C0.829,-0.001 0.829,0.003 0.827,0.005C0.825,0.005 0.824,0.006 0.823,0.006C0.821,0.006 0.82,0.005 0.819,0.004Z" style="fill:none;fill-rule:nonzero;"/>
        </g>
        <g transform="matrix(669.998,63.6154,63.6154,-669.998,-54.4818,486.517)">
            <path d="M0.225,0.004C0.224,0.002 0.224,-0.002 0.226,-0.003C0.228,-0.005 0.232,-0.005 0.233,-0.003C0.235,-0.001 0.235,0.003 0.233,0.005C0.232,0.005 0.23,0.006 0.229,0.006C0.228,0.006 0.226,0.005 0.225,0.004Z" style="fill:none;fill-rule:nonzero;"/>
        </g>
        <g transform="matrix(670.005,63.6161,63.6161,-670.005,-18.2772,105.197)">
            <path d="M0.199,0.004C0.197,0.002 0.197,-0.002 0.2,-0.003C0.202,-0.005 0.205,-0.005 0.207,-0.003C0.209,-0.001 0.208,0.003 0.206,0.005C0.205,0.005 0.204,0.006 0.202,0.006C0.201,0.006 0.2,0.005 0.199,0.004Z" style="fill:none;fill-rule:nonzero;"/>
        </g>
        <g transform="matrix(670.003,63.6159,63.6159,-670.003,-15.0216,70.8987)">
            <path d="M0.738,0.004C0.736,0.002 0.737,-0.002 0.739,-0.003C0.741,-0.005 0.744,-0.005 0.746,-0.003C0.748,-0.001 0.748,0.003 0.745,0.005C0.744,0.005 0.743,0.006 0.742,0.006C0.74,0.006 0.739,0.005 0.738,0.004Z" style="fill:none;fill-rule:nonzero;"/>
        </g>
        <g transform="matrix(670.005,63.6161,63.6161,-670.005,-49.3218,432.131)">
            <path d="M0.789,0.004C0.788,0.002 0.788,-0.002 0.79,-0.003C0.792,-0.005 0.795,-0.005 0.797,-0.003C0.799,-0.001 0.799,0.003 0.797,0.005C0.795,0.005 0.794,0.006 0.793,0.006C0.791,0.006 0.79,0.005 0.789,0.004Z" style="fill:none;fill-rule:nonzero;"/>
        </g>
        <g transform="matrix(670.003,63.6159,63.6159,-670.003,-52.5757,466.429)">
            <path d="M0.25,0.004C0.248,0.002 0.249,-0.002 0.251,-0.003C0.253,-0.005 0.256,-0.005 0.258,-0.003C0.26,-0.001 0.26,0.003 0.257,0.005C0.256,0.005 0.255,0.006 0.254,0.006C0.252,0.006 0.251,0.005 0.25,0.004Z" style="fill:none;fill-rule:nonzero;"/>
        </g>
        <g transform="matrix(670.005,63.6161,63.6161,-670.005,-15.1991,72.7733)">
            <path d="M0.256,0.027C0.254,0.025 0.253,0.022 0.252,0.019C0.247,0.006 0.249,-0.009 0.256,-0.029C0.257,-0.03 0.258,-0.031 0.259,-0.031C0.26,-0.03 0.26,-0.03 0.26,-0.03C0.261,-0.029 0.261,-0.028 0.261,-0.028C0.254,-0.009 0.252,0.006 0.256,0.018C0.257,0.021 0.258,0.023 0.259,0.024C0.261,0.026 0.263,0.027 0.265,0.027C0.266,0.027 0.267,0.028 0.267,0.029C0.267,0.03 0.266,0.031 0.265,0.031C0.264,0.031 0.264,0.031 0.263,0.031C0.261,0.031 0.258,0.03 0.256,0.027Z" style="fill:none;fill-rule:nonzero;"/>
        </g>
        <g transform="matrix(670.002,63.6158,63.6158,-670.002,-49.1488,430.34)">
            <path d="M0.175,0.008C0.175,0.005 0.176,0.002 0.179,-0C0.182,-0.003 0.185,-0.004 0.187,-0.004C0.2,-0.009 0.216,-0.007 0.236,-0C0.236,0 0.236,0 0.237,0.001C0.237,0.001 0.237,0.002 0.237,0.003C0.236,0.004 0.235,0.005 0.234,0.004C0.215,-0.003 0.201,-0.004 0.188,0C0.186,0.001 0.184,0.002 0.182,0.003C0.181,0.005 0.18,0.007 0.18,0.008C0.18,0.01 0.179,0.011 0.177,0.011C0.177,0.011 0.177,0.011 0.177,0.011C0.176,0.011 0.175,0.01 0.175,0.008Z" style="fill:none;fill-rule:nonzero;"/>
        </g>
        <g transform="matrix(670.004,63.616,63.616,-670.004,-52.3504,464.041)">
            <path d="M0.737,0.031C0.736,0.03 0.735,0.029 0.736,0.028C0.743,0.009 0.744,-0.005 0.74,-0.018C0.739,-0.02 0.738,-0.022 0.737,-0.024C0.735,-0.025 0.733,-0.026 0.732,-0.026C0.73,-0.026 0.729,-0.027 0.729,-0.029C0.729,-0.03 0.73,-0.031 0.732,-0.031C0.735,-0.031 0.738,-0.03 0.74,-0.027C0.74,-0.027 0.741,-0.027 0.741,-0.027C0.743,-0.024 0.744,-0.021 0.744,-0.019C0.749,-0.006 0.747,0.01 0.74,0.03C0.74,0.031 0.739,0.031 0.738,0.031C0.737,0.031 0.737,0.031 0.737,0.031Z" style="fill:none;fill-rule:nonzero;"/>
        </g>
        <g transform="matrix(670.001,63.6157,63.6157,-670.001,-18.4695,107.239)">
            <path d="M0.761,0.001C0.76,0.001 0.759,-0 0.759,-0.002C0.76,-0.003 0.761,-0.003 0.762,-0.003C0.781,0.004 0.796,0.005 0.808,0.001C0.811,0.001 0.813,-0 0.814,-0.002C0.816,-0.003 0.817,-0.005 0.817,-0.007C0.817,-0.008 0.818,-0.009 0.819,-0.009C0.82,-0.009 0.82,-0.009 0.821,-0.008C0.821,-0.008 0.821,-0.008 0.821,-0.007C0.821,-0.004 0.82,-0.001 0.817,0.002C0.815,0.004 0.812,0.005 0.809,0.006C0.803,0.008 0.795,0.009 0.787,0.008C0.779,0.007 0.77,0.005 0.761,0.001Z" style="fill:none;fill-rule:nonzero;"/>
        </g>
        <g transform="matrix(670.003,63.6159,63.6159,-670.003,-12.6673,46.1093)">
            <path d="M0.667,0.03C0.665,0.029 0.664,0.028 0.665,0.027C0.665,0.026 0.666,0.025 0.668,0.025C0.669,0.026 0.671,0.025 0.673,0.024C0.675,0.022 0.676,0.021 0.677,0.018C0.684,0.007 0.685,-0.008 0.682,-0.027C0.681,-0.029 0.682,-0.03 0.684,-0.03C0.684,-0.03 0.685,-0.03 0.686,-0.029C0.686,-0.029 0.686,-0.029 0.686,-0.028C0.69,-0.007 0.688,0.008 0.681,0.02C0.68,0.022 0.679,0.025 0.676,0.027C0.673,0.029 0.671,0.03 0.668,0.03C0.667,0.03 0.667,0.03 0.667,0.03Z" style="fill:none;fill-rule:nonzero;"/>
        </g>
        <g transform="matrix(670.003,63.6159,63.6159,-670.003,-22.4113,148.739)">
            <path d="M0.146,0.005C0.144,0.004 0.141,0.002 0.139,-0.001C0.137,-0.004 0.136,-0.007 0.137,-0.01C0.137,-0.011 0.138,-0.012 0.14,-0.012C0.141,-0.012 0.142,-0.01 0.141,-0.009C0.141,-0.007 0.142,-0.005 0.143,-0.004C0.144,-0.002 0.146,-0.001 0.148,0.001C0.16,0.007 0.174,0.008 0.194,0.005C0.195,0.005 0.196,0.005 0.196,0.006C0.196,0.006 0.197,0.007 0.197,0.007C0.197,0.008 0.196,0.009 0.195,0.01C0.184,0.011 0.175,0.012 0.168,0.011C0.159,0.01 0.152,0.008 0.146,0.005Z" style="fill:none;fill-rule:nonzero;"/>
        </g>
        <g transform="matrix(670.003,63.6159,63.6159,-670.003,-54.885,490.738)">
            <path d="M0.31,0.029C0.306,0.008 0.308,-0.008 0.315,-0.02C0.316,-0.022 0.318,-0.025 0.32,-0.027C0.323,-0.029 0.327,-0.03 0.33,-0.029C0.33,-0.029 0.331,-0.029 0.331,-0.029C0.331,-0.028 0.332,-0.027 0.331,-0.027C0.331,-0.025 0.33,-0.024 0.329,-0.025C0.327,-0.025 0.325,-0.025 0.323,-0.023C0.322,-0.022 0.32,-0.02 0.319,-0.018C0.313,-0.006 0.311,0.008 0.315,0.028C0.315,0.029 0.314,0.03 0.313,0.03C0.312,0.031 0.312,0.031 0.312,0.031C0.311,0.03 0.31,0.03 0.31,0.029Z" style="fill:none;fill-rule:nonzero;"/>
        </g>
        <g transform="matrix(670.001,63.6158,63.6158,-670.001,-45.2061,388.812)">
            <path d="M0.857,0.013C0.855,0.013 0.855,0.012 0.855,0.01C0.855,0.009 0.855,0.007 0.853,0.005C0.852,0.003 0.851,0.002 0.848,0.001C0.837,-0.006 0.822,-0.007 0.802,-0.004C0.801,-0.003 0.8,-0.004 0.8,-0.006C0.799,-0.007 0.8,-0.008 0.802,-0.008C0.822,-0.012 0.838,-0.01 0.85,-0.003C0.852,-0.002 0.855,-0.001 0.857,0.002C0.857,0.002 0.857,0.002 0.857,0.002C0.859,0.005 0.86,0.008 0.859,0.011C0.859,0.013 0.858,0.013 0.857,0.013C0.857,0.013 0.857,0.013 0.857,0.013Z" style="fill:none;fill-rule:nonzero;"/>
        </g>
        <g transform="matrix(669.999,63.6156,63.6156,-669.999,-19.2981,115.955)">
            <path d="M0.202,0.015C0.205,0.005 0.208,-0.005 0.209,-0.016C0.21,-0.017 0.211,-0.018 0.212,-0.018C0.213,-0.017 0.214,-0.016 0.214,-0.015C0.213,-0.006 0.211,0.004 0.208,0.013C0.217,0.011 0.227,0.011 0.236,0.012C0.237,0.012 0.237,0.012 0.238,0.013C0.238,0.013 0.238,0.014 0.238,0.014C0.238,0.015 0.237,0.016 0.236,0.016C0.225,0.016 0.215,0.016 0.205,0.018C0.204,0.018 0.204,0.018 0.204,0.018C0.203,0.018 0.202,0.016 0.202,0.015Z" style="fill:none;fill-rule:nonzero;"/>
        </g>
        <g transform="matrix(669.998,63.6154,63.6154,-669.998,-16.0719,82.0041)">
            <path d="M0.74,0.018C0.73,0.015 0.72,0.012 0.71,0.011C0.709,0.011 0.708,0.009 0.708,0.008C0.708,0.007 0.709,0.006 0.711,0.006C0.72,0.007 0.729,0.009 0.738,0.012C0.737,0.003 0.737,-0.006 0.737,-0.016C0.737,-0.017 0.738,-0.018 0.74,-0.018C0.74,-0.018 0.741,-0.018 0.741,-0.017C0.742,-0.017 0.742,-0.016 0.742,-0.016C0.741,-0.005 0.742,0.005 0.743,0.015C0.743,0.016 0.743,0.017 0.743,0.018C0.742,0.018 0.741,0.018 0.741,0.018C0.741,0.018 0.74,0.018 0.74,0.018Z" style="fill:none;fill-rule:nonzero;"/>
        </g>
        <g transform="matrix(670.003,63.6159,63.6159,-670.003,-48.237,420.747)">
            <path d="M0.784,0.018C0.783,0.018 0.782,0.016 0.782,0.015C0.784,0.006 0.786,-0.004 0.789,-0.013C0.779,-0.011 0.77,-0.011 0.76,-0.012C0.759,-0.012 0.758,-0.013 0.758,-0.014C0.758,-0.015 0.759,-0.016 0.761,-0.016C0.771,-0.016 0.781,-0.016 0.792,-0.018C0.792,-0.018 0.793,-0.018 0.794,-0.017C0.794,-0.016 0.794,-0.015 0.794,-0.015C0.791,-0.005 0.788,0.005 0.787,0.016C0.787,0.017 0.786,0.018 0.784,0.018C0.784,0.018 0.784,0.018 0.784,0.018Z" style="fill:none;fill-rule:nonzero;"/>
        </g>
        <g transform="matrix(669.999,63.6156,63.6156,-669.999,-51.4585,454.672)">
            <path d="M0.254,0.016C0.255,0.005 0.254,-0.005 0.253,-0.015C0.253,-0.016 0.253,-0.017 0.254,-0.018C0.254,-0.018 0.255,-0.018 0.256,-0.018C0.266,-0.014 0.276,-0.012 0.286,-0.011C0.287,-0.011 0.287,-0.01 0.288,-0.01C0.288,-0.009 0.288,-0.009 0.288,-0.008C0.288,-0.007 0.287,-0.006 0.286,-0.006C0.276,-0.007 0.267,-0.009 0.258,-0.012C0.259,-0.003 0.26,0.007 0.259,0.016C0.259,0.017 0.258,0.018 0.257,0.018C0.257,0.018 0.257,0.018 0.257,0.018C0.255,0.018 0.254,0.017 0.254,0.016Z" style="fill:none;fill-rule:nonzero;"/>
        </g>
        <g transform="matrix(669.999,63.6156,63.6156,-669.999,-9.45178,12.2572)">
            <path d="M0.419,0.027C0.419,0.026 0.419,0.025 0.419,0.025C0.431,0.009 0.435,-0.013 0.428,-0.032C0.428,-0.033 0.428,-0.035 0.43,-0.035C0.431,-0.036 0.432,-0.035 0.433,-0.034C0.439,-0.015 0.436,0.006 0.426,0.023C0.438,0.021 0.45,0.016 0.459,0.009C0.46,0.008 0.462,0.008 0.463,0.009C0.471,0.018 0.481,0.025 0.493,0.029C0.486,0.011 0.487,-0.01 0.497,-0.028C0.497,-0.029 0.499,-0.029 0.5,-0.028C0.5,-0.028 0.501,-0.028 0.501,-0.028C0.501,-0.027 0.501,-0.026 0.501,-0.025C0.491,-0.008 0.49,0.014 0.499,0.032C0.5,0.033 0.499,0.034 0.499,0.035C0.498,0.035 0.497,0.036 0.496,0.035C0.483,0.032 0.47,0.024 0.461,0.014C0.449,0.022 0.435,0.027 0.421,0.028C0.421,0.028 0.421,0.028 0.421,0.028C0.42,0.028 0.419,0.028 0.419,0.027Z" style="fill:none;fill-rule:nonzero;"/>
        </g>
        <g transform="matrix(670.002,63.6158,63.6158,-670.002,-31.3541,242.949)">
            <path d="M0.905,0.041C0.889,0.029 0.867,0.026 0.848,0.032C0.847,0.033 0.846,0.032 0.845,0.031C0.845,0.029 0.845,0.028 0.847,0.028C0.865,0.021 0.887,0.024 0.903,0.034C0.901,0.022 0.896,0.011 0.889,0.001C0.888,-0 0.888,-0.002 0.889,-0.002C0.898,-0.011 0.906,-0.021 0.91,-0.033C0.891,-0.025 0.87,-0.027 0.853,-0.037C0.852,-0.037 0.851,-0.039 0.852,-0.04C0.852,-0.041 0.854,-0.041 0.855,-0.041C0.872,-0.031 0.894,-0.03 0.912,-0.039C0.913,-0.039 0.914,-0.039 0.915,-0.039C0.915,-0.038 0.915,-0.038 0.915,-0.038C0.916,-0.038 0.916,-0.037 0.916,-0.036C0.912,-0.023 0.904,-0.01 0.894,-0C0.902,0.011 0.907,0.025 0.909,0.039C0.909,0.04 0.908,0.041 0.907,0.041C0.907,0.042 0.906,0.042 0.906,0.042C0.906,0.042 0.905,0.041 0.905,0.041Z" style="fill:none;fill-rule:nonzero;"/>
        </g>
        <g transform="matrix(670.002,63.6159,63.6159,-670.002,-58.0928,524.54)">
            <path d="M0.564,0.034C0.557,0.015 0.56,-0.006 0.57,-0.023C0.558,-0.021 0.547,-0.016 0.537,-0.008C0.536,-0.008 0.534,-0.008 0.534,-0.009C0.525,-0.018 0.515,-0.025 0.503,-0.029C0.511,-0.011 0.509,0.011 0.499,0.028C0.499,0.029 0.497,0.029 0.496,0.029C0.495,0.028 0.495,0.027 0.495,0.026C0.505,0.008 0.506,-0.014 0.497,-0.032C0.497,-0.033 0.497,-0.034 0.497,-0.034C0.498,-0.035 0.499,-0.035 0.5,-0.035C0.513,-0.031 0.526,-0.024 0.536,-0.013C0.547,-0.022 0.561,-0.027 0.575,-0.028C0.576,-0.028 0.577,-0.028 0.577,-0.027C0.577,-0.027 0.577,-0.027 0.577,-0.027C0.578,-0.026 0.578,-0.025 0.577,-0.024C0.565,-0.008 0.562,0.013 0.568,0.032C0.568,0.034 0.568,0.035 0.567,0.035C0.566,0.036 0.566,0.036 0.566,0.036C0.565,0.035 0.564,0.035 0.564,0.034Z" style="fill:none;fill-rule:nonzero;"/>
        </g>
        <g transform="matrix(670.002,63.6158,63.6158,-670.002,-36.1797,293.748)">
            <path d="M0.081,0.039C0.081,0.038 0.08,0.037 0.081,0.036C0.084,0.023 0.092,0.01 0.102,0C0.094,-0.011 0.089,-0.025 0.088,-0.039C0.088,-0.04 0.088,-0.041 0.089,-0.041C0.09,-0.042 0.091,-0.042 0.091,-0.041C0.107,-0.029 0.129,-0.026 0.148,-0.032C0.149,-0.032 0.15,-0.032 0.151,-0.031C0.151,-0.031 0.151,-0.031 0.151,-0.03C0.152,-0.029 0.151,-0.028 0.15,-0.027C0.131,-0.021 0.11,-0.024 0.093,-0.034C0.095,-0.022 0.1,-0.011 0.107,-0.001C0.108,0 0.108,0.002 0.107,0.002C0.098,0.011 0.091,0.021 0.087,0.033C0.105,0.026 0.126,0.027 0.144,0.037C0.145,0.037 0.145,0.039 0.144,0.04C0.144,0.041 0.142,0.041 0.141,0.041C0.124,0.031 0.102,0.03 0.084,0.039C0.083,0.039 0.083,0.039 0.083,0.039C0.082,0.039 0.082,0.039 0.081,0.039Z" style="fill:none;fill-rule:nonzero;"/>
        </g>
    </g>
</svg>
