<svg class="multiscroll-bg-image" width="100%" height="100%" viewBox="0 0 388 79" version="1.1" xmlns="http://www.w3.org/2000/svg" xmlns:xlink="http://www.w3.org/1999/xlink" xml:space="preserve" xmlns:serif="http://www.serif.com/" style="fill-rule:evenodd;clip-rule:evenodd;stroke-linejoin:round;stroke-miterlimit:2;">
    <g class="monogram-multi-path-group monogram-multi-circle-group monogram-multi-ellipse-group" transform="matrix(0.964965,0,0,0.964965,6.7862,1.37961)">
        <g transform="matrix(-113.17,-124.778,-124.778,113.17,265.797,81.1087)">
            <path d="M1.407,0.841C1.409,0.843 1.409,0.847 1.407,0.849C1.405,0.85 1.401,0.85 1.399,0.848L-0.133,-0.841C-0.135,-0.843 -0.135,-0.847 -0.132,-0.849C-0.13,-0.85 -0.127,-0.85 -0.125,-0.848L1.407,0.841Z" style="fill:none;fill-rule:nonzero;"/>
        </g>
        <g transform="matrix(-113.17,-124.777,-124.777,113.17,238.325,106.025)">
            <path d="M0.477,-0.07C0.474,-0.047 0.479,-0.023 0.485,-0C0.486,0.007 0.488,0.014 0.49,0.021C0.495,0.046 0.498,0.093 0.469,0.119C0.467,0.12 0.465,0.121 0.463,0.12C0.438,0.109 0.419,0.083 0.417,0.055C0.416,0.054 0.417,0.052 0.419,0.051C0.42,0.05 0.422,0.049 0.424,0.05C0.427,0.051 0.429,0.049 0.431,0.048C0.433,0.046 0.435,0.043 0.434,0.04C0.433,0.034 0.426,0.029 0.419,0.03C0.412,0.031 0.406,0.036 0.403,0.044C0.401,0.051 0.401,0.059 0.403,0.069C0.404,0.071 0.402,0.074 0.4,0.075C0.37,0.089 0.335,0.094 0.301,0.089C0.299,0.089 0.297,0.087 0.297,0.084C0.295,0.05 0.303,0.016 0.32,-0.013C0.322,-0.015 0.324,-0.016 0.327,-0.015C0.336,-0.012 0.344,-0.011 0.351,-0.013C0.359,-0.015 0.366,-0.021 0.367,-0.028C0.369,-0.034 0.364,-0.042 0.359,-0.044C0.356,-0.044 0.352,-0.043 0.35,-0.041C0.349,-0.04 0.347,-0.037 0.348,-0.034C0.348,-0.032 0.347,-0.03 0.346,-0.029C0.345,-0.028 0.343,-0.027 0.341,-0.027C0.315,-0.033 0.29,-0.054 0.282,-0.08C0.281,-0.082 0.282,-0.084 0.283,-0.086C0.312,-0.113 0.358,-0.104 0.383,-0.097C0.39,-0.095 0.397,-0.092 0.403,-0.09C0.426,-0.082 0.449,-0.075 0.472,-0.076C0.473,-0.076 0.475,-0.075 0.476,-0.074C0.477,-0.073 0.478,-0.071 0.477,-0.07ZM0.464,0.109C0.487,0.085 0.484,0.045 0.479,0.023C0.478,0.016 0.476,0.009 0.475,0.002C0.469,-0.02 0.464,-0.042 0.466,-0.065C0.443,-0.065 0.421,-0.073 0.4,-0.08C0.393,-0.082 0.386,-0.085 0.38,-0.087C0.358,-0.093 0.318,-0.101 0.293,-0.08C0.3,-0.061 0.318,-0.045 0.337,-0.039C0.338,-0.042 0.34,-0.045 0.342,-0.048C0.348,-0.053 0.355,-0.055 0.361,-0.054C0.372,-0.051 0.38,-0.037 0.378,-0.025C0.375,-0.015 0.366,-0.006 0.354,-0.003C0.346,-0.001 0.337,-0.001 0.327,-0.004C0.313,0.021 0.306,0.05 0.307,0.079C0.336,0.083 0.366,0.079 0.392,0.067C0.39,0.057 0.39,0.048 0.393,0.04C0.397,0.029 0.407,0.021 0.418,0.019C0.43,0.018 0.443,0.027 0.445,0.038C0.446,0.045 0.443,0.052 0.437,0.056C0.434,0.059 0.431,0.06 0.428,0.061C0.43,0.073 0.436,0.084 0.445,0.094C0.451,0.1 0.457,0.105 0.464,0.109Z" style="fill:none;fill-rule:nonzero;"/>
        </g>
        <g transform="matrix(-113.17,-124.778,-124.778,113.17,240.573,103.986)">
            <path d="M0.692,-0.148L0.711,-0.01C0.74,-0.02 0.769,-0.02 0.795,-0.011C0.825,-0 0.849,0.025 0.856,0.054C0.864,0.086 0.851,0.121 0.825,0.137C0.806,0.148 0.783,0.15 0.766,0.141C0.747,0.131 0.735,0.108 0.74,0.088C0.743,0.077 0.75,0.068 0.76,0.062C0.769,0.057 0.78,0.055 0.789,0.058C0.798,0.06 0.811,0.071 0.81,0.082L0.809,0.084C0.809,0.091 0.808,0.101 0.797,0.105C0.794,0.106 0.791,0.104 0.79,0.101C0.789,0.099 0.791,0.096 0.794,0.095C0.798,0.094 0.798,0.091 0.799,0.083L0.799,0.081C0.8,0.076 0.792,0.069 0.786,0.068C0.78,0.066 0.772,0.067 0.765,0.071C0.758,0.076 0.752,0.083 0.75,0.091C0.747,0.106 0.756,0.124 0.771,0.131C0.785,0.139 0.804,0.137 0.819,0.128C0.841,0.114 0.853,0.084 0.846,0.057C0.84,0.031 0.819,0.009 0.791,-0.001C0.766,-0.01 0.737,-0.009 0.709,0.002C0.707,0.003 0.705,0.003 0.704,0.002C0.703,0.001 0.702,-0 0.701,-0.002L0.681,-0.146C0.681,-0.149 0.683,-0.152 0.686,-0.152C0.688,-0.153 0.689,-0.152 0.69,-0.151C0.691,-0.15 0.692,-0.149 0.692,-0.148Z" style="fill:none;fill-rule:nonzero;"/>
        </g>
        <g transform="matrix(-113.17,-124.777,-124.777,113.17,285.046,63.6499)">
            <path d="M0.592,0.101C0.592,0.104 0.589,0.106 0.586,0.105L0.444,0.071C0.442,0.07 0.441,0.069 0.44,0.068C0.44,0.066 0.44,0.065 0.441,0.063C0.454,0.036 0.458,0.007 0.452,-0.019C0.445,-0.047 0.425,-0.07 0.4,-0.079C0.373,-0.088 0.342,-0.08 0.326,-0.059C0.315,-0.045 0.312,-0.026 0.318,-0.011C0.324,0.004 0.341,0.015 0.357,0.013C0.365,0.012 0.372,0.007 0.378,0C0.382,-0.006 0.384,-0.014 0.383,-0.021C0.382,-0.026 0.376,-0.034 0.371,-0.035L0.369,-0.035C0.361,-0.035 0.358,-0.034 0.357,-0.03C0.356,-0.028 0.353,-0.026 0.35,-0.028C0.347,-0.029 0.346,-0.032 0.347,-0.035C0.352,-0.045 0.362,-0.045 0.369,-0.045L0.371,-0.045C0.383,-0.045 0.392,-0.032 0.393,-0.022C0.395,-0.013 0.393,-0.002 0.386,0.006C0.379,0.016 0.369,0.022 0.358,0.023C0.338,0.026 0.316,0.013 0.308,-0.007C0.301,-0.026 0.305,-0.048 0.318,-0.065C0.337,-0.09 0.373,-0.1 0.403,-0.089C0.432,-0.079 0.454,-0.053 0.462,-0.021C0.469,0.005 0.465,0.035 0.453,0.062L0.588,0.095C0.59,0.095 0.59,0.096 0.591,0.096C0.592,0.098 0.593,0.099 0.592,0.101Z" style="fill:none;fill-rule:nonzero;"/>
        </g>
        <g transform="matrix(-113.17,-124.778,-124.778,113.17,202.863,138.188)">
            <path d="M1.226,0.201C1.228,0.203 1.228,0.207 1.226,0.209C1.223,0.211 1.22,0.21 1.218,0.208L0.847,-0.201C0.845,-0.203 0.845,-0.207 0.847,-0.209C0.849,-0.211 0.853,-0.21 0.855,-0.208L1.226,0.201Z" style="fill:none;fill-rule:nonzero;"/>
        </g>
        <g transform="matrix(-113.17,-124.777,-124.777,113.17,321.519,30.5703)">
            <path d="M0.364,0.201C0.365,0.203 0.365,0.207 0.363,0.209C0.361,0.21 0.358,0.21 0.356,0.208L-0.016,-0.201C-0.017,-0.203 -0.017,-0.207 -0.015,-0.209C-0.013,-0.21 -0.01,-0.21 -0.008,-0.208L0.364,0.201Z" style="fill:none;fill-rule:nonzero;"/>
        </g>
        <g transform="matrix(-113.17,-124.777,-124.777,113.17,214.236,127.873)">
            <path d="M0.856,-0.118C0.85,-0.085 0.852,-0.038 0.862,0.006C0.87,0.046 0.892,0.081 0.921,0.1C0.935,0.109 0.949,0.114 0.962,0.114C0.977,0.114 0.991,0.108 0.999,0.097C1.007,0.086 1.006,0.069 0.998,0.06C0.998,0.06 0.998,0.06 0.998,0.06C0.994,0.055 0.987,0.052 0.98,0.052C0.974,0.052 0.968,0.054 0.965,0.058C0.961,0.063 0.96,0.07 0.962,0.076C0.964,0.082 0.968,0.086 0.973,0.087C0.976,0.088 0.978,0.09 0.977,0.093C0.977,0.096 0.974,0.098 0.971,0.097C0.963,0.096 0.955,0.089 0.952,0.08C0.949,0.07 0.951,0.059 0.957,0.052C0.962,0.045 0.971,0.042 0.98,0.042C0.99,0.042 1,0.046 1.006,0.053C1.018,0.066 1.018,0.088 1.007,0.103C0.997,0.116 0.98,0.125 0.962,0.124C0.947,0.124 0.931,0.119 0.915,0.109C0.884,0.088 0.861,0.051 0.851,0.008C0.847,-0.014 0.837,-0.07 0.845,-0.12C0.846,-0.122 0.848,-0.124 0.851,-0.124C0.853,-0.124 0.854,-0.123 0.854,-0.122C0.855,-0.121 0.856,-0.119 0.856,-0.118Z" style="fill:none;fill-rule:nonzero;"/>
        </g>
        <g transform="matrix(-113.17,-124.778,-124.778,113.17,307.025,43.7158)">
            <path d="M0.37,0.089C0.37,0.092 0.368,0.094 0.365,0.095C0.315,0.098 0.26,0.083 0.239,0.076C0.197,0.063 0.162,0.036 0.145,0.003C0.136,-0.013 0.132,-0.03 0.134,-0.045C0.135,-0.063 0.145,-0.08 0.159,-0.088C0.176,-0.097 0.197,-0.095 0.209,-0.082C0.215,-0.075 0.219,-0.065 0.218,-0.055C0.217,-0.046 0.213,-0.038 0.206,-0.033C0.198,-0.027 0.187,-0.027 0.177,-0.031C0.168,-0.035 0.162,-0.043 0.162,-0.052C0.161,-0.055 0.163,-0.057 0.166,-0.057C0.169,-0.058 0.172,-0.056 0.172,-0.053C0.172,-0.048 0.176,-0.043 0.182,-0.041C0.188,-0.038 0.195,-0.038 0.2,-0.042C0.204,-0.045 0.207,-0.05 0.207,-0.056C0.208,-0.063 0.206,-0.07 0.202,-0.075C0.202,-0.075 0.202,-0.075 0.201,-0.075C0.193,-0.084 0.177,-0.086 0.165,-0.079C0.153,-0.072 0.145,-0.059 0.144,-0.044C0.143,-0.031 0.146,-0.017 0.154,-0.002C0.17,0.029 0.202,0.054 0.242,0.066C0.285,0.08 0.331,0.087 0.364,0.084C0.366,0.084 0.368,0.085 0.369,0.086C0.369,0.087 0.37,0.088 0.37,0.089Z" style="fill:none;fill-rule:nonzero;"/>
        </g>
        <g transform="matrix(-113.17,-124.778,-124.778,113.17,193.365,146.803)">
            <path d="M1.165,0.063C1.163,0.066 1.16,0.066 1.158,0.065C1.122,0.044 1.077,0.02 1.02,-0.008C1.019,-0.008 1.017,-0.01 1.017,-0.012C1.017,-0.014 1.018,-0.016 1.019,-0.017C1.034,-0.027 1.043,-0.044 1.044,-0.062C1.044,-0.065 1.047,-0.067 1.05,-0.067C1.052,-0.067 1.055,-0.064 1.055,-0.062C1.054,-0.044 1.045,-0.026 1.032,-0.014C1.086,0.013 1.129,0.035 1.163,0.056C1.164,0.056 1.164,0.057 1.164,0.057C1.166,0.059 1.166,0.061 1.165,0.063Z" style="fill:none;fill-rule:nonzero;"/>
        </g>
        <g transform="matrix(-113.17,-124.778,-124.778,113.17,329.592,23.2478)">
            <path d="M0.055,-0.074C0.072,-0.038 0.091,0.007 0.111,0.063C0.125,0.051 0.143,0.044 0.161,0.045C0.164,0.045 0.166,0.048 0.166,0.051C0.166,0.054 0.164,0.056 0.161,0.056C0.143,0.055 0.125,0.062 0.113,0.076C0.112,0.077 0.11,0.078 0.108,0.078C0.106,0.077 0.105,0.076 0.104,0.074C0.083,0.015 0.063,-0.032 0.045,-0.07C0.044,-0.072 0.045,-0.075 0.048,-0.077C0.05,-0.078 0.052,-0.077 0.054,-0.075C0.054,-0.075 0.055,-0.075 0.055,-0.074Z" style="fill:none;fill-rule:nonzero;"/>
        </g>
        <g transform="matrix(-113.17,-124.778,-124.778,113.17,165.983,171.638)">
            <path d="M1.351,-0.01C1.355,0.003 1.352,0.018 1.345,0.028C1.336,0.04 1.322,0.046 1.309,0.044C1.295,0.042 1.283,0.031 1.281,0.017C1.278,0.003 1.288,-0.012 1.302,-0.015C1.312,-0.017 1.321,-0.014 1.326,-0.006C1.328,-0.002 1.328,0.004 1.326,0.009C1.324,0.014 1.32,0.017 1.316,0.018C1.313,0.018 1.31,0.016 1.31,0.013C1.309,0.011 1.311,0.008 1.314,0.007C1.315,0.007 1.316,0.006 1.317,0.005C1.317,0.003 1.317,0.001 1.317,-0.001C1.314,-0.005 1.309,-0.006 1.305,-0.005C1.296,-0.003 1.29,0.007 1.291,0.016C1.292,0.025 1.301,0.033 1.31,0.034C1.32,0.035 1.33,0.03 1.336,0.022C1.342,0.014 1.344,0.003 1.341,-0.007C1.339,-0.017 1.33,-0.028 1.322,-0.037C1.32,-0.04 1.32,-0.043 1.322,-0.045C1.324,-0.047 1.327,-0.047 1.329,-0.044C1.339,-0.034 1.349,-0.022 1.351,-0.01Z" style="fill:none;fill-rule:nonzero;"/>
        </g>
        <g transform="matrix(-113.171,-124.778,-124.778,113.171,359.853,-4.19819)">
            <path d="M-0.048,-0.001C-0.05,0.001 -0.053,0 -0.055,-0.002C-0.064,-0.011 -0.073,-0.021 -0.083,-0.024C-0.093,-0.028 -0.104,-0.027 -0.113,-0.022C-0.122,-0.017 -0.127,-0.007 -0.127,0.002C-0.127,0.012 -0.12,0.021 -0.111,0.024C-0.102,0.026 -0.092,0.02 -0.089,0.012C-0.088,0.008 -0.088,0.002 -0.092,-0C-0.093,-0.001 -0.096,-0.001 -0.098,-0.001C-0.098,-0.001 -0.1,0 -0.1,0.002C-0.101,0.004 -0.104,0.006 -0.107,0.005C-0.11,0.004 -0.111,0.001 -0.11,-0.001C-0.109,-0.006 -0.106,-0.009 -0.101,-0.011C-0.096,-0.013 -0.09,-0.012 -0.086,-0.009C-0.079,-0.004 -0.076,0.006 -0.079,0.015C-0.083,0.029 -0.099,0.037 -0.114,0.034C-0.127,0.03 -0.137,0.017 -0.138,0.003C-0.138,-0.011 -0.13,-0.024 -0.118,-0.031C-0.107,-0.037 -0.093,-0.039 -0.08,-0.034C-0.068,-0.03 -0.057,-0.019 -0.047,-0.009C-0.045,-0.007 -0.046,-0.003 -0.048,-0.001Z" style="fill:none;fill-rule:nonzero;"/>
        </g>
        <g transform="matrix(-1.48095e-12,168.456,168.456,1.48095e-12,38.4571,-197.389)">
            <circle cx="1.224" cy="-0" r="0.01" style="fill:none;"/>
        </g>
        <g transform="matrix(5.12636e-13,168.456,168.456,-5.12636e-13,348.933,11.1956)">
            <circle cx="-0.014" cy="-0" r="0.01" style="fill:none;"/>
        </g>
        <g transform="matrix(1.15343e-12,168.452,168.452,-1.15343e-12,371.773,26.7258)">
            <circle cx="-0.105" cy="-0" r="0.01" style="fill:none;"/>
        </g>
        <g transform="matrix(-1.48095e-12,168.456,168.456,1.48095e-12,1.61047,-234.761)">
            <circle cx="1.403" cy="0" r="0.01" style="fill:none;"/>
        </g>
        <g transform="matrix(5.12636e-13,168.456,168.456,-5.12636e-13,16.0591,-211.892)">
            <circle cx="1.312" cy="0" r="0.01" style="fill:none;"/>
        </g>
        <g transform="matrix(-1.68031e-12,168.457,168.457,1.68031e-12,93.4562,-146.041)">
            <circle cx="0.969" cy="-0" r="0.01" style="fill:none;"/>
        </g>
        <g transform="matrix(2.27838e-12,168.457,168.457,-2.27838e-12,293.933,-11.3562)">
            <ellipse cx="0.169" cy="-0" rx="0.01" ry="0.01" style="fill:none;"/>
        </g>
        <g transform="matrix(-1.99358e-13,168.456,168.456,1.99358e-13,138.443,-118.165)">
            <circle cx="0.795" cy="0" r="0.01" style="fill:none;"/>
        </g>
        <g transform="matrix(2.43502e-12,168.456,168.456,-2.43502e-12,248.947,-43.9262)">
            <ellipse cx="0.354" cy="0" rx="0.01" ry="0.01" style="fill:none;"/>
        </g>
        <g transform="matrix(-1.42399e-14,168.453,168.453,1.42399e-14,169.841,-82.8485)">
            <circle cx="0.634" cy="-0" r="0.01" style="fill:none;"/>
        </g>
        <g transform="matrix(-5.12636e-13,168.454,168.454,5.12636e-13,217.548,-50.7981)">
            <circle cx="0.444" cy="0" r="0.01" style="fill:none;"/>
        </g>
        <g transform="matrix(-113.17,-124.778,-124.778,113.17,264.912,81.8669)">
            <path d="M0.742,0.106C0.741,0.108 0.739,0.11 0.736,0.109C0.659,0.096 0.577,0.1 0.502,0.122C0.5,0.123 0.498,0.122 0.496,0.121C0.495,0.119 0.494,0.117 0.495,0.115C0.524,0.042 0.537,-0.038 0.531,-0.117C0.531,-0.12 0.532,-0.122 0.535,-0.122C0.537,-0.123 0.539,-0.122 0.54,-0.121C0.54,-0.12 0.541,-0.12 0.541,-0.119L0.544,-0.112C0.544,-0.11 0.544,-0.107 0.542,-0.106C0.546,-0.033 0.534,0.041 0.509,0.109C0.579,0.091 0.654,0.086 0.726,0.097C0.728,0.096 0.73,0.095 0.732,0.096L0.739,0.099C0.74,0.1 0.74,0.1 0.741,0.101C0.742,0.102 0.743,0.104 0.742,0.106Z" style="fill:none;fill-rule:nonzero;"/>
        </g>
        <g transform="matrix(-113.17,-124.777,-124.777,113.17,256.432,89.6021)">
            <path d="M0.64,-0.071L0.476,0.079C0.473,0.081 0.47,0.08 0.468,0.078C0.466,0.076 0.466,0.073 0.469,0.071L0.633,-0.079C0.635,-0.081 0.639,-0.08 0.641,-0.078C0.643,-0.076 0.642,-0.073 0.64,-0.071Z" style="fill:none;fill-rule:nonzero;"/>
        </g>
        <g transform="matrix(-113.17,-124.777,-124.777,113.17,253.918,91.8827)">
            <path d="M0.496,-0.141C0.508,-0.125 0.508,-0.101 0.495,-0.086C0.484,-0.074 0.466,-0.069 0.451,-0.074C0.443,-0.077 0.437,-0.082 0.434,-0.088C0.43,-0.096 0.43,-0.106 0.436,-0.112C0.438,-0.115 0.441,-0.115 0.443,-0.113C0.445,-0.111 0.446,-0.108 0.444,-0.106C0.441,-0.103 0.441,-0.097 0.443,-0.093C0.445,-0.089 0.449,-0.086 0.455,-0.084C0.466,-0.08 0.479,-0.084 0.487,-0.093C0.497,-0.104 0.497,-0.123 0.488,-0.135C0.479,-0.147 0.462,-0.154 0.446,-0.153C0.423,-0.151 0.401,-0.132 0.394,-0.108C0.388,-0.085 0.395,-0.058 0.412,-0.04C0.412,-0.039 0.412,-0.039 0.412,-0.039C0.428,-0.022 0.452,-0.011 0.478,-0.009C0.502,-0.008 0.527,-0.015 0.55,-0.028C0.558,-0.033 0.566,-0.039 0.574,-0.045C0.576,-0.047 0.579,-0.047 0.581,-0.045C0.583,-0.042 0.583,-0.039 0.581,-0.037C0.574,-0.03 0.568,-0.023 0.562,-0.015C0.546,0.007 0.537,0.031 0.536,0.055C0.535,0.081 0.543,0.106 0.559,0.123C0.56,0.123 0.56,0.124 0.56,0.124C0.577,0.142 0.603,0.152 0.626,0.148C0.651,0.143 0.671,0.124 0.676,0.101C0.679,0.084 0.674,0.068 0.662,0.058C0.651,0.047 0.632,0.045 0.62,0.054C0.611,0.061 0.606,0.074 0.608,0.085C0.61,0.091 0.613,0.095 0.616,0.098C0.62,0.1 0.625,0.101 0.629,0.098C0.631,0.097 0.634,0.097 0.636,0.1C0.638,0.102 0.637,0.105 0.635,0.107C0.628,0.112 0.618,0.111 0.611,0.107C0.605,0.103 0.6,0.096 0.598,0.088C0.594,0.072 0.601,0.055 0.614,0.045C0.63,0.034 0.654,0.036 0.669,0.05C0.683,0.062 0.69,0.083 0.686,0.103C0.681,0.13 0.657,0.153 0.628,0.158C0.601,0.163 0.572,0.152 0.552,0.131L0.552,0.13C0.534,0.111 0.524,0.083 0.526,0.054C0.527,0.03 0.535,0.006 0.55,-0.016C0.526,-0.004 0.501,0.002 0.477,0.001C0.448,-0 0.422,-0.013 0.404,-0.033C0.385,-0.054 0.377,-0.085 0.384,-0.111C0.392,-0.139 0.417,-0.161 0.445,-0.163C0.463,-0.165 0.481,-0.158 0.493,-0.145C0.494,-0.144 0.495,-0.143 0.496,-0.141Z" style="fill:none;fill-rule:nonzero;"/>
        </g>
        <g transform="matrix(-113.17,-124.778,-124.778,113.17,223.218,119.727)">
            <path d="M0.917,0.027C0.918,0.029 0.918,0.032 0.915,0.034C0.888,0.049 0.847,0.066 0.815,0.067C0.782,0.067 0.749,0.056 0.727,0.035C0.705,0.016 0.694,-0.013 0.695,-0.04C0.671,-0.022 0.641,-0.014 0.611,-0.015C0.578,-0.017 0.545,-0.033 0.522,-0.058C0.52,-0.06 0.52,-0.063 0.523,-0.065C0.525,-0.067 0.528,-0.067 0.53,-0.065L0.53,-0.065C0.551,-0.042 0.581,-0.028 0.612,-0.026C0.643,-0.024 0.674,-0.035 0.698,-0.056C0.699,-0.057 0.702,-0.057 0.704,-0.056C0.706,-0.055 0.707,-0.053 0.706,-0.051C0.701,-0.024 0.712,0.007 0.734,0.028C0.754,0.046 0.784,0.057 0.815,0.056C0.845,0.056 0.883,0.039 0.91,0.025C0.912,0.023 0.915,0.024 0.916,0.026C0.917,0.026 0.917,0.026 0.917,0.027Z" style="fill:none;fill-rule:nonzero;"/>
        </g>
        <g transform="matrix(-113.17,-124.778,-124.778,113.17,279.948,68.2747)">
            <path d="M0.3,-0.194C0.282,-0.169 0.262,-0.132 0.259,-0.102C0.255,-0.072 0.263,-0.041 0.28,-0.019C0.298,0.005 0.327,0.019 0.355,0.016C0.357,0.016 0.359,0.017 0.36,0.019C0.361,0.021 0.36,0.024 0.359,0.025C0.336,0.046 0.322,0.077 0.321,0.108C0.319,0.139 0.331,0.17 0.352,0.193C0.352,0.193 0.352,0.193 0.352,0.193C0.354,0.195 0.354,0.199 0.351,0.201C0.349,0.203 0.346,0.202 0.344,0.2C0.321,0.175 0.309,0.141 0.31,0.107C0.311,0.078 0.323,0.049 0.343,0.027C0.316,0.025 0.288,0.01 0.271,-0.013C0.253,-0.037 0.245,-0.07 0.248,-0.104C0.252,-0.135 0.273,-0.174 0.291,-0.2C0.293,-0.202 0.296,-0.203 0.298,-0.201C0.299,-0.201 0.299,-0.2 0.299,-0.2C0.301,-0.198 0.301,-0.196 0.3,-0.194Z" style="fill:none;fill-rule:nonzero;"/>
        </g>
        <g transform="matrix(-113.17,-124.777,-124.777,113.17,225.462,117.692)">
            <path d="M0.677,-0.018C0.679,-0.016 0.678,-0.012 0.676,-0.011C0.67,-0.007 0.665,-0.002 0.659,0.002C0.644,0.014 0.628,0.027 0.609,0.034C0.58,0.045 0.551,0.046 0.527,0.036C0.525,0.035 0.524,0.033 0.524,0.03C0.53,0.007 0.529,-0.018 0.521,-0.041C0.52,-0.044 0.521,-0.047 0.524,-0.048C0.527,-0.049 0.53,-0.047 0.531,-0.044C0.539,-0.021 0.541,0.004 0.536,0.028C0.556,0.035 0.58,0.034 0.605,0.024C0.623,0.017 0.637,0.006 0.653,-0.006C0.658,-0.011 0.664,-0.015 0.67,-0.019C0.672,-0.021 0.675,-0.021 0.677,-0.019C0.677,-0.018 0.677,-0.018 0.677,-0.018Z" style="fill:none;fill-rule:nonzero;"/>
        </g>
        <g transform="matrix(-113.17,-124.777,-124.777,113.17,264.667,82.1335)">
            <path d="M0.338,-0.071C0.333,-0.066 0.328,-0.061 0.323,-0.055C0.31,-0.041 0.297,-0.028 0.288,-0.011C0.276,0.013 0.272,0.037 0.277,0.058C0.302,0.055 0.327,0.059 0.349,0.069C0.352,0.071 0.353,0.074 0.352,0.076C0.351,0.079 0.347,0.08 0.345,0.079C0.323,0.069 0.298,0.065 0.274,0.069C0.272,0.069 0.269,0.068 0.269,0.065C0.261,0.041 0.265,0.012 0.279,-0.016C0.288,-0.034 0.302,-0.049 0.316,-0.063C0.32,-0.068 0.325,-0.073 0.33,-0.078C0.332,-0.08 0.335,-0.08 0.337,-0.078C0.337,-0.078 0.338,-0.078 0.338,-0.078C0.339,-0.076 0.34,-0.073 0.338,-0.071Z" style="fill:none;fill-rule:nonzero;"/>
        </g>
        <g transform="matrix(-113.169,-124.776,-124.776,113.169,258.367,87.8467)">
            <path d="M0.626,-0.039C0.616,-0.014 0.612,0.014 0.616,0.041C0.616,0.044 0.614,0.047 0.611,0.047C0.608,0.047 0.605,0.045 0.605,0.043C0.601,0.013 0.605,-0.016 0.617,-0.043C0.618,-0.046 0.621,-0.047 0.624,-0.046C0.624,-0.046 0.625,-0.045 0.625,-0.045C0.627,-0.043 0.627,-0.041 0.626,-0.039Z" style="fill:none;fill-rule:nonzero;"/>
        </g>
        <g transform="matrix(-113.17,-124.778,-124.778,113.17,263.392,83.2899)">
            <path d="M0.622,-0.007C0.623,-0.004 0.622,-0.001 0.619,-0.001C0.591,0.008 0.561,0.009 0.532,0.003C0.53,0.002 0.528,-0.001 0.528,-0.004C0.529,-0.007 0.532,-0.008 0.535,-0.008C0.561,-0.001 0.589,-0.002 0.616,-0.011C0.618,-0.011 0.62,-0.011 0.621,-0.009C0.622,-0.009 0.622,-0.008 0.622,-0.007Z" style="fill:none;fill-rule:nonzero;"/>
        </g>
        <g transform="matrix(1.82271e-12,168.456,168.456,-1.82271e-12,385.779,23.3313)">
            <circle cx="-0.129" cy="-0" r="0.01" style="fill:none;"/>
        </g>
    </g>
</svg>
