<svg class="multiscroll-bg-image" width="100%" height="100%" viewBox="0 0 600 600" version="1.1" xmlns="http://www.w3.org/2000/svg" xmlns:xlink="http://www.w3.org/1999/xlink" xml:space="preserve" xmlns:serif="http://www.serif.com/" style="fill-rule:evenodd;clip-rule:evenodd;stroke-linejoin:round;stroke-miterlimit:2;">
    <g class="monogram-multi-path-group">
        <g transform="matrix(329.407,531.648,531.648,-329.407,131.74,28.4359)">
            <path d="M0.169,-0.08C0.191,-0.172 0.246,-0.249 0.326,-0.298C0.406,-0.348 0.5,-0.363 0.591,-0.342C0.682,-0.32 0.76,-0.265 0.809,-0.185C0.859,-0.105 0.874,-0.011 0.852,0.08C0.831,0.172 0.775,0.249 0.696,0.298C0.616,0.348 0.522,0.363 0.431,0.342C0.339,0.32 0.262,0.265 0.212,0.185C0.163,0.105 0.148,0.011 0.169,-0.08ZM0.59,-0.337C0.5,-0.358 0.407,-0.343 0.328,-0.294C0.25,-0.246 0.195,-0.169 0.174,-0.079C0.152,0.011 0.168,0.104 0.216,0.182C0.265,0.261 0.342,0.316 0.432,0.337C0.522,0.358 0.615,0.343 0.693,0.294C0.772,0.246 0.827,0.169 0.848,0.079C0.869,-0.011 0.854,-0.104 0.805,-0.182C0.756,-0.261 0.68,-0.316 0.59,-0.337Z" style="fill:none;fill-rule:nonzero;"/>
        </g>
        <g transform="matrix(329.407,531.648,531.648,-329.407,233.756,-34.772)">
            <path d="M0.142,-0.066C0.144,-0.071 0.148,-0.076 0.154,-0.079C0.163,-0.082 0.174,-0.08 0.181,-0.072C0.187,-0.066 0.189,-0.055 0.186,-0.046C0.184,-0.039 0.179,-0.033 0.172,-0.029C0.192,-0.022 0.214,-0.02 0.234,-0.023C0.235,-0.023 0.236,-0.023 0.237,-0.022C0.237,-0.021 0.237,-0.02 0.237,-0.02C0.224,-0.002 0.217,0.018 0.214,0.039C0.221,0.034 0.228,0.032 0.236,0.034C0.245,0.035 0.254,0.042 0.257,0.051C0.26,0.06 0.258,0.071 0.251,0.077C0.246,0.081 0.239,0.083 0.234,0.082C0.227,0.081 0.222,0.075 0.221,0.069C0.221,0.065 0.222,0.062 0.224,0.059C0.227,0.057 0.23,0.055 0.233,0.055C0.236,0.055 0.239,0.056 0.242,0.059C0.244,0.062 0.245,0.065 0.244,0.068C0.244,0.069 0.243,0.07 0.241,0.07C0.24,0.07 0.239,0.068 0.24,0.067C0.24,0.065 0.24,0.064 0.238,0.062C0.237,0.06 0.235,0.059 0.233,0.06C0.231,0.06 0.229,0.061 0.228,0.062C0.227,0.064 0.226,0.066 0.226,0.068C0.226,0.073 0.23,0.076 0.235,0.077C0.239,0.078 0.244,0.077 0.247,0.073C0.253,0.068 0.255,0.06 0.253,0.052C0.25,0.045 0.243,0.039 0.235,0.038C0.227,0.037 0.219,0.04 0.213,0.046C0.213,0.046 0.212,0.046 0.211,0.046C0.21,0.046 0.209,0.045 0.209,0.044C0.211,0.022 0.218,0.001 0.23,-0.018C0.208,-0.015 0.186,-0.018 0.166,-0.027C0.165,-0.027 0.164,-0.028 0.164,-0.029C0.164,-0.03 0.165,-0.031 0.166,-0.031C0.173,-0.034 0.18,-0.04 0.182,-0.047C0.184,-0.055 0.183,-0.064 0.177,-0.069C0.172,-0.075 0.163,-0.077 0.156,-0.074C0.151,-0.072 0.148,-0.069 0.147,-0.064C0.146,-0.06 0.147,-0.055 0.151,-0.053C0.153,-0.052 0.155,-0.051 0.157,-0.052C0.159,-0.052 0.161,-0.053 0.162,-0.055C0.163,-0.057 0.163,-0.059 0.162,-0.061C0.161,-0.063 0.16,-0.064 0.158,-0.064C0.157,-0.065 0.156,-0.066 0.156,-0.067C0.157,-0.068 0.158,-0.069 0.159,-0.069C0.162,-0.068 0.165,-0.066 0.166,-0.063C0.168,-0.059 0.168,-0.056 0.166,-0.053C0.164,-0.05 0.162,-0.048 0.159,-0.047C0.155,-0.046 0.151,-0.047 0.148,-0.049C0.147,-0.05 0.145,-0.051 0.144,-0.053C0.142,-0.057 0.141,-0.061 0.142,-0.066Z" style="fill:none;fill-rule:nonzero;"/>
        </g>
        <g transform="matrix(329.407,531.649,531.649,-329.407,296.57,-73.6913)">
            <path d="M0.624,0.047C0.621,0.038 0.623,0.027 0.63,0.02C0.637,0.014 0.647,0.011 0.657,0.014C0.664,0.017 0.67,0.022 0.674,0.028C0.681,0.009 0.683,-0.013 0.679,-0.034C0.679,-0.035 0.68,-0.036 0.681,-0.036C0.681,-0.037 0.682,-0.037 0.683,-0.036C0.7,-0.024 0.72,-0.016 0.741,-0.014C0.737,-0.02 0.735,-0.028 0.736,-0.035C0.738,-0.045 0.744,-0.053 0.753,-0.056C0.762,-0.059 0.773,-0.057 0.78,-0.05C0.78,-0.049 0.781,-0.048 0.782,-0.047C0.785,-0.043 0.786,-0.037 0.785,-0.033C0.783,-0.026 0.778,-0.021 0.772,-0.021C0.768,-0.02 0.765,-0.021 0.762,-0.024C0.759,-0.026 0.758,-0.029 0.758,-0.032C0.757,-0.035 0.759,-0.039 0.762,-0.041C0.765,-0.043 0.768,-0.044 0.771,-0.043C0.772,-0.043 0.773,-0.042 0.773,-0.041C0.772,-0.039 0.771,-0.039 0.77,-0.039C0.768,-0.039 0.766,-0.039 0.765,-0.038C0.763,-0.036 0.762,-0.034 0.762,-0.032C0.762,-0.03 0.763,-0.029 0.765,-0.027C0.767,-0.026 0.769,-0.025 0.771,-0.025C0.775,-0.026 0.779,-0.029 0.78,-0.034C0.781,-0.038 0.779,-0.043 0.776,-0.047C0.771,-0.052 0.762,-0.054 0.755,-0.052C0.748,-0.049 0.742,-0.042 0.741,-0.034C0.74,-0.027 0.743,-0.018 0.748,-0.013C0.749,-0.012 0.749,-0.011 0.749,-0.01C0.748,-0.009 0.747,-0.009 0.746,-0.009C0.725,-0.01 0.703,-0.017 0.685,-0.029C0.687,-0.007 0.684,0.015 0.676,0.035C0.675,0.036 0.675,0.037 0.674,0.037C0.673,0.037 0.672,0.036 0.671,0.035C0.669,0.027 0.663,0.021 0.655,0.019C0.648,0.016 0.639,0.018 0.633,0.023C0.628,0.029 0.626,0.038 0.628,0.045C0.63,0.049 0.634,0.053 0.638,0.054C0.643,0.055 0.648,0.053 0.65,0.05C0.651,0.048 0.651,0.046 0.651,0.043C0.65,0.041 0.649,0.04 0.648,0.039C0.646,0.038 0.644,0.038 0.642,0.039C0.64,0.039 0.639,0.041 0.638,0.043C0.638,0.044 0.637,0.045 0.636,0.044C0.634,0.044 0.634,0.043 0.634,0.042C0.634,0.038 0.637,0.036 0.64,0.034C0.643,0.033 0.647,0.033 0.65,0.035C0.653,0.036 0.655,0.039 0.655,0.042C0.656,0.046 0.656,0.049 0.654,0.052C0.651,0.058 0.644,0.06 0.637,0.059C0.633,0.057 0.628,0.054 0.626,0.05C0.625,0.049 0.625,0.048 0.624,0.047Z" style="fill:none;fill-rule:nonzero;"/>
        </g>
        <g transform="matrix(329.407,531.648,531.648,-329.407,29.7189,91.6486)">
            <path d="M0.785,0.02C0.797,0.002 0.805,-0.018 0.807,-0.039C0.801,-0.034 0.793,-0.032 0.786,-0.034C0.776,-0.035 0.768,-0.042 0.765,-0.051C0.761,-0.06 0.764,-0.071 0.771,-0.077C0.776,-0.081 0.782,-0.083 0.788,-0.082C0.792,-0.081 0.796,-0.078 0.798,-0.075C0.799,-0.073 0.8,-0.071 0.8,-0.069C0.801,-0.065 0.799,-0.062 0.797,-0.059C0.795,-0.057 0.792,-0.055 0.789,-0.055C0.786,-0.055 0.782,-0.056 0.78,-0.059C0.777,-0.062 0.777,-0.065 0.777,-0.068C0.778,-0.069 0.779,-0.07 0.78,-0.07C0.782,-0.07 0.782,-0.068 0.782,-0.067C0.782,-0.065 0.782,-0.064 0.783,-0.062C0.785,-0.06 0.787,-0.059 0.789,-0.059C0.79,-0.06 0.792,-0.061 0.794,-0.062C0.795,-0.064 0.796,-0.066 0.796,-0.068C0.795,-0.073 0.792,-0.076 0.787,-0.077C0.783,-0.078 0.778,-0.077 0.774,-0.073C0.768,-0.068 0.766,-0.06 0.769,-0.052C0.772,-0.045 0.779,-0.039 0.787,-0.038C0.794,-0.037 0.803,-0.04 0.808,-0.046C0.809,-0.046 0.81,-0.046 0.811,-0.046C0.812,-0.046 0.812,-0.045 0.812,-0.044C0.811,-0.022 0.804,-0.001 0.792,0.018C0.814,0.015 0.836,0.018 0.856,0.027C0.857,0.027 0.858,0.028 0.857,0.029C0.857,0.03 0.857,0.031 0.856,0.031C0.848,0.034 0.842,0.04 0.84,0.047C0.837,0.055 0.839,0.064 0.844,0.069C0.85,0.075 0.859,0.077 0.866,0.074C0.87,0.072 0.874,0.069 0.875,0.064C0.876,0.06 0.874,0.055 0.871,0.053C0.869,0.052 0.866,0.051 0.864,0.052C0.862,0.052 0.861,0.053 0.86,0.055C0.859,0.057 0.859,0.059 0.859,0.061C0.86,0.063 0.862,0.064 0.863,0.064C0.865,0.065 0.865,0.066 0.865,0.067C0.865,0.068 0.864,0.069 0.862,0.069C0.859,0.068 0.857,0.066 0.855,0.063C0.854,0.059 0.854,0.056 0.856,0.053C0.857,0.05 0.86,0.048 0.863,0.047C0.867,0.046 0.87,0.047 0.873,0.049C0.878,0.052 0.881,0.059 0.879,0.066C0.878,0.071 0.873,0.076 0.867,0.079C0.859,0.082 0.848,0.08 0.841,0.072C0.834,0.066 0.832,0.055 0.835,0.046C0.837,0.039 0.843,0.033 0.849,0.029C0.829,0.022 0.808,0.02 0.787,0.023C0.786,0.023 0.785,0.023 0.785,0.022C0.784,0.021 0.784,0.02 0.785,0.02Z" style="fill:none;fill-rule:nonzero;"/>
        </g>
        <g transform="matrix(329.407,531.649,531.649,-329.407,-33.0907,130.565)">
            <path d="M0.237,0.033C0.238,0.026 0.244,0.021 0.25,0.021C0.253,0.02 0.257,0.021 0.26,0.024C0.262,0.026 0.264,0.029 0.264,0.032C0.264,0.035 0.263,0.039 0.26,0.041C0.257,0.043 0.254,0.044 0.251,0.043C0.249,0.043 0.249,0.042 0.249,0.041C0.249,0.039 0.251,0.039 0.252,0.039C0.253,0.039 0.255,0.039 0.257,0.038C0.259,0.036 0.26,0.034 0.259,0.032C0.259,0.03 0.258,0.029 0.257,0.027C0.255,0.026 0.253,0.025 0.251,0.025C0.246,0.026 0.242,0.029 0.242,0.034C0.241,0.038 0.242,0.043 0.245,0.047C0.251,0.052 0.259,0.054 0.267,0.052C0.274,0.049 0.28,0.042 0.281,0.034C0.282,0.027 0.279,0.018 0.273,0.013C0.273,0.012 0.272,0.011 0.273,0.01C0.273,0.009 0.274,0.009 0.275,0.009C0.297,0.01 0.318,0.017 0.337,0.029C0.334,0.007 0.337,-0.015 0.346,-0.035C0.346,-0.036 0.347,-0.037 0.348,-0.037C0.349,-0.037 0.35,-0.036 0.35,-0.035C0.353,-0.027 0.359,-0.021 0.366,-0.019C0.374,-0.016 0.383,-0.018 0.388,-0.023C0.394,-0.029 0.396,-0.038 0.393,-0.045C0.391,-0.049 0.388,-0.053 0.383,-0.054C0.379,-0.055 0.374,-0.053 0.372,-0.05C0.371,-0.048 0.37,-0.046 0.371,-0.043C0.371,-0.041 0.372,-0.04 0.374,-0.039C0.376,-0.038 0.378,-0.038 0.38,-0.039C0.382,-0.039 0.383,-0.041 0.383,-0.043C0.384,-0.044 0.385,-0.045 0.386,-0.044C0.387,-0.044 0.388,-0.043 0.388,-0.042C0.387,-0.038 0.385,-0.036 0.382,-0.034C0.378,-0.033 0.374,-0.033 0.372,-0.035C0.369,-0.036 0.367,-0.039 0.366,-0.042C0.365,-0.046 0.366,-0.049 0.368,-0.052C0.371,-0.058 0.378,-0.06 0.384,-0.059C0.389,-0.057 0.393,-0.054 0.396,-0.05C0.396,-0.049 0.397,-0.048 0.397,-0.047C0.401,-0.038 0.398,-0.027 0.391,-0.02C0.385,-0.014 0.374,-0.011 0.365,-0.014C0.358,-0.017 0.352,-0.022 0.348,-0.028C0.341,-0.009 0.339,0.013 0.342,0.034C0.342,0.035 0.342,0.036 0.341,0.036C0.34,0.037 0.339,0.037 0.338,0.036C0.321,0.024 0.301,0.016 0.28,0.014C0.285,0.02 0.286,0.028 0.285,0.035C0.284,0.045 0.277,0.053 0.268,0.056C0.259,0.059 0.248,0.057 0.242,0.05C0.241,0.049 0.24,0.048 0.24,0.047C0.237,0.043 0.236,0.037 0.237,0.033Z" style="fill:none;fill-rule:nonzero;"/>
        </g>
        <g transform="matrix(329.407,531.648,531.648,-329.407,241.809,-39.7622)">
            <path d="M0.143,0.021C0.142,0.02 0.142,0.019 0.143,0.019C0.143,0.018 0.144,0.017 0.144,0.016C0.146,0.013 0.147,0.01 0.148,0.007C0.151,0.001 0.154,-0.006 0.158,-0.011C0.166,-0.019 0.176,-0.022 0.183,-0.022C0.191,-0.023 0.201,-0.022 0.208,-0.021C0.209,-0.021 0.209,-0.021 0.21,-0.02C0.21,-0.02 0.21,-0.019 0.21,-0.018C0.207,-0.011 0.204,-0.003 0.199,0.005C0.195,0.011 0.189,0.018 0.179,0.021C0.172,0.023 0.165,0.023 0.158,0.022C0.154,0.022 0.151,0.022 0.148,0.022C0.147,0.022 0.146,0.022 0.145,0.022C0.144,0.022 0.143,0.022 0.143,0.021L0.143,0.021ZM0.183,-0.018C0.174,-0.017 0.167,-0.013 0.162,-0.008C0.157,-0.003 0.155,0.002 0.152,0.009C0.151,0.012 0.15,0.014 0.149,0.017C0.152,0.017 0.155,0.018 0.158,0.018C0.165,0.018 0.171,0.019 0.177,0.017C0.184,0.015 0.191,0.01 0.195,0.002C0.199,-0.004 0.202,-0.01 0.204,-0.017C0.197,-0.018 0.19,-0.019 0.183,-0.018Z" style="fill:none;fill-rule:nonzero;"/>
        </g>
        <g transform="matrix(329.408,531.65,531.65,-329.408,309.64,-81.7909)">
            <path d="M0.695,-0.007C0.694,-0.015 0.696,-0.024 0.696,-0.032C0.696,-0.032 0.697,-0.033 0.697,-0.033C0.698,-0.034 0.699,-0.034 0.699,-0.034C0.706,-0.031 0.715,-0.028 0.722,-0.023C0.728,-0.019 0.733,-0.015 0.736,-0.01C0.737,-0.008 0.738,-0.005 0.739,-0.002C0.741,0.004 0.741,0.012 0.74,0.018C0.74,0.022 0.74,0.025 0.74,0.028C0.74,0.029 0.74,0.03 0.74,0.031C0.74,0.032 0.74,0.033 0.739,0.033C0.738,0.034 0.737,0.034 0.736,0.033C0.736,0.033 0.735,0.032 0.734,0.032C0.731,0.031 0.728,0.029 0.725,0.028C0.718,0.025 0.712,0.023 0.707,0.018C0.705,0.016 0.703,0.014 0.701,0.011C0.698,0.006 0.696,0 0.695,-0.007ZM0.72,-0.019C0.714,-0.023 0.708,-0.026 0.701,-0.028C0.7,-0.02 0.699,-0.014 0.7,-0.007C0.701,0.002 0.705,0.009 0.71,0.014C0.714,0.019 0.72,0.021 0.727,0.024C0.729,0.025 0.732,0.026 0.735,0.027C0.735,0.024 0.735,0.021 0.736,0.018C0.736,0.011 0.737,0.005 0.735,-0.001C0.734,-0.003 0.733,-0.005 0.732,-0.007C0.729,-0.012 0.725,-0.016 0.72,-0.019Z" style="fill:none;fill-rule:nonzero;"/>
        </g>
        <g transform="matrix(329.409,531.65,531.65,-329.409,21.6244,96.6638)">
            <path d="M0.812,0.018C0.815,0.01 0.818,0.002 0.822,-0.004C0.826,-0.01 0.833,-0.018 0.843,-0.021C0.85,-0.023 0.857,-0.023 0.864,-0.022C0.867,-0.022 0.871,-0.022 0.874,-0.022C0.875,-0.022 0.876,-0.022 0.877,-0.022C0.878,-0.022 0.878,-0.022 0.879,-0.021L0.879,-0.021C0.879,-0.02 0.879,-0.019 0.879,-0.018C0.878,-0.018 0.878,-0.017 0.877,-0.016C0.876,-0.013 0.875,-0.01 0.873,-0.007C0.871,-0.001 0.868,0.006 0.863,0.011C0.856,0.019 0.846,0.022 0.839,0.022C0.831,0.023 0.823,0.023 0.814,0.022C0.813,0.021 0.812,0.021 0.812,0.02C0.812,0.02 0.812,0.019 0.812,0.018ZM0.864,-0.018C0.857,-0.018 0.85,-0.019 0.844,-0.017C0.837,-0.015 0.831,-0.009 0.826,-0.002C0.822,0.004 0.82,0.01 0.817,0.017C0.825,0.018 0.832,0.019 0.838,0.018C0.847,0.017 0.855,0.013 0.86,0.008C0.864,0.004 0.867,-0.002 0.869,-0.009C0.87,-0.012 0.871,-0.014 0.873,-0.017C0.87,-0.017 0.867,-0.017 0.864,-0.018Z" style="fill:none;fill-rule:nonzero;"/>
        </g>
        <g transform="matrix(329.407,531.649,531.649,-329.407,-46.1599,138.662)">
            <path d="M0.282,0.002C0.28,-0.004 0.281,-0.012 0.281,-0.018C0.282,-0.022 0.282,-0.025 0.282,-0.028C0.282,-0.029 0.282,-0.03 0.282,-0.031C0.282,-0.032 0.282,-0.033 0.283,-0.033C0.284,-0.034 0.284,-0.034 0.285,-0.033C0.286,-0.033 0.287,-0.032 0.288,-0.032C0.291,-0.031 0.294,-0.029 0.297,-0.028C0.303,-0.025 0.31,-0.023 0.315,-0.018C0.317,-0.016 0.319,-0.014 0.32,-0.011C0.323,-0.006 0.325,-0 0.326,0.007C0.327,0.015 0.326,0.024 0.325,0.032C0.325,0.032 0.325,0.033 0.324,0.033C0.324,0.034 0.323,0.034 0.322,0.034C0.315,0.031 0.307,0.028 0.299,0.023C0.294,0.019 0.289,0.015 0.286,0.01C0.284,0.007 0.283,0.005 0.282,0.002ZM0.312,-0.014C0.307,-0.019 0.301,-0.021 0.295,-0.024C0.292,-0.025 0.289,-0.026 0.286,-0.027C0.286,-0.024 0.286,-0.021 0.286,-0.018C0.286,-0.011 0.285,-0.005 0.287,0.001C0.289,0.008 0.294,0.014 0.302,0.019C0.307,0.023 0.314,0.026 0.321,0.028C0.322,0.02 0.322,0.014 0.322,0.007C0.321,0.001 0.319,-0.004 0.316,-0.009C0.315,-0.011 0.314,-0.013 0.312,-0.014Z" style="fill:none;fill-rule:nonzero;"/>
        </g>
        <g transform="matrix(329.406,531.646,531.646,-329.406,321.39,-89.0685)">
            <path d="M0.417,-0.002C0.418,-0.004 0.419,-0.004 0.42,-0.004L0.435,-0C0.436,-0 0.436,0 0.436,0.001C0.437,0.001 0.437,0.002 0.437,0.002C0.436,0.004 0.435,0.004 0.434,0.004L0.419,0.001C0.418,0 0.418,-0 0.418,-0C0.417,-0.001 0.417,-0.002 0.417,-0.002Z" style="fill:none;fill-rule:nonzero;"/>
        </g>
        <g transform="matrix(329.402,531.639,531.639,-329.402,176.309,0.832517)">
            <path d="M0.864,0.007L0.867,-0.008C0.867,-0.009 0.869,-0.01 0.87,-0.01C0.87,-0.01 0.871,-0.009 0.871,-0.009C0.872,-0.008 0.872,-0.008 0.872,-0.007L0.868,0.008C0.868,0.009 0.866,0.01 0.865,0.01C0.865,0.009 0.864,0.009 0.864,0.009C0.864,0.008 0.863,0.007 0.864,0.007Z" style="fill:none;fill-rule:nonzero;"/>
        </g>
        <g transform="matrix(329.405,531.645,531.645,-329.405,-57.9088,145.945)">
            <path d="M0.585,-0.002C0.585,-0.004 0.586,-0.004 0.588,-0.004L0.603,-0.001C0.603,-0 0.604,0 0.604,0C0.604,0.001 0.604,0.002 0.604,0.002C0.604,0.004 0.603,0.004 0.601,0.004L0.587,0C0.586,0 0.586,-0 0.585,-0.001C0.585,-0.001 0.585,-0.002 0.585,-0.002Z" style="fill:none;fill-rule:nonzero;"/>
        </g>
        <g transform="matrix(329.411,531.654,531.654,-329.411,87.1749,56.0473)">
            <path d="M0.15,0.007L0.154,-0.008C0.154,-0.009 0.155,-0.01 0.156,-0.01C0.157,-0.009 0.157,-0.009 0.158,-0.009C0.158,-0.008 0.158,-0.007 0.158,-0.007L0.155,0.008C0.154,0.009 0.153,0.01 0.152,0.01C0.151,0.01 0.151,0.009 0.15,0.009C0.15,0.008 0.15,0.008 0.15,0.007Z" style="fill:none;fill-rule:nonzero;"/>
        </g>
        <g transform="matrix(329.408,531.65,531.65,-329.408,314.493,-84.7969)">
            <path d="M0.371,-0.005C0.371,-0.006 0.373,-0.007 0.374,-0.006C0.381,-0.003 0.389,-0.001 0.396,0.002C0.396,0.002 0.397,0.002 0.397,0.003C0.398,0.003 0.398,0.004 0.397,0.005C0.397,0.006 0.396,0.007 0.394,0.006C0.387,0.004 0.38,0.001 0.372,-0.002C0.372,-0.002 0.371,-0.002 0.371,-0.003C0.371,-0.003 0.371,-0.004 0.371,-0.005Z" style="fill:none;fill-rule:nonzero;"/>
        </g>
        <g transform="matrix(329.408,531.649,531.649,-329.408,64.3895,70.1661)">
            <path d="M0.161,0.01C0.163,0.003 0.166,-0.005 0.169,-0.012C0.169,-0.013 0.171,-0.014 0.172,-0.013C0.172,-0.013 0.173,-0.013 0.173,-0.012C0.173,-0.012 0.174,-0.011 0.173,-0.01C0.17,-0.003 0.168,0.004 0.165,0.012C0.165,0.013 0.163,0.014 0.162,0.013C0.162,0.013 0.161,0.013 0.161,0.012C0.161,0.012 0.161,0.011 0.161,0.01Z" style="fill:none;fill-rule:nonzero;"/>
        </g>
        <g transform="matrix(329.409,531.651,531.651,-329.409,-51.0139,141.668)">
            <path d="M0.624,-0.005C0.625,-0.006 0.626,-0.007 0.627,-0.006C0.635,-0.004 0.642,-0.001 0.649,0.002C0.65,0.002 0.65,0.002 0.65,0.003C0.651,0.003 0.651,0.004 0.651,0.005C0.65,0.006 0.649,0.007 0.648,0.006C0.64,0.003 0.633,0.001 0.626,-0.002C0.625,-0.002 0.625,-0.002 0.624,-0.003C0.624,-0.003 0.624,-0.004 0.624,-0.005Z" style="fill:none;fill-rule:nonzero;"/>
        </g>
        <g transform="matrix(329.408,531.649,531.649,-329.408,199.093,-13.2956)">
            <path d="M0.848,0.01C0.851,0.003 0.854,-0.004 0.856,-0.012C0.857,-0.013 0.858,-0.014 0.859,-0.013C0.86,-0.013 0.86,-0.013 0.861,-0.012C0.861,-0.012 0.861,-0.011 0.861,-0.01C0.858,-0.003 0.856,0.005 0.853,0.012C0.852,0.013 0.851,0.014 0.85,0.013C0.849,0.013 0.849,0.013 0.849,0.012C0.848,0.012 0.848,0.011 0.848,0.01Z" style="fill:none;fill-rule:nonzero;"/>
        </g>
        <g transform="matrix(329.407,531.648,531.648,-329.407,325.339,-91.517)">
            <path d="M0.457,-0.002C0.457,-0.003 0.458,-0.004 0.46,-0.004C0.467,-0.002 0.475,-0.002 0.483,-0.001C0.484,-0.001 0.484,-0 0.485,0C0.485,0.001 0.485,0.001 0.485,0.002C0.485,0.003 0.484,0.004 0.483,0.004C0.475,0.003 0.467,0.002 0.459,0.001C0.458,0.001 0.458,0.001 0.457,-0C0.457,-0 0.457,-0.001 0.457,-0.002Z" style="fill:none;fill-rule:nonzero;"/>
        </g>
        <g transform="matrix(329.401,531.638,531.638,-329.401,110.634,41.516)">
            <path d="M0.143,0.012C0.144,0.004 0.144,-0.004 0.146,-0.012C0.146,-0.013 0.147,-0.014 0.148,-0.014C0.149,-0.014 0.149,-0.013 0.15,-0.013C0.15,-0.012 0.15,-0.012 0.15,-0.011C0.149,-0.004 0.148,0.004 0.148,0.012C0.148,0.013 0.146,0.014 0.145,0.014C0.144,0.014 0.144,0.014 0.143,0.013C0.143,0.013 0.143,0.012 0.143,0.012Z" style="fill:none;fill-rule:nonzero;"/>
        </g>
        <g transform="matrix(329.408,531.649,531.649,-329.408,-61.8588,148.389)">
            <path d="M0.536,-0.002C0.536,-0.003 0.538,-0.004 0.539,-0.004C0.547,-0.003 0.555,-0.002 0.562,-0.001C0.563,-0.001 0.564,-0.001 0.564,-0C0.564,0 0.565,0.001 0.564,0.002C0.564,0.003 0.563,0.004 0.562,0.004C0.554,0.002 0.546,0.002 0.539,0.001C0.538,0.001 0.537,0 0.537,-0C0.536,-0.001 0.536,-0.001 0.536,-0.002Z" style="fill:none;fill-rule:nonzero;"/>
        </g>
        <g transform="matrix(329.397,531.632,531.632,-329.397,152.853,15.3745)">
            <path d="M0.871,0.011C0.873,0.004 0.873,-0.004 0.874,-0.012C0.874,-0.013 0.875,-0.014 0.876,-0.014C0.877,-0.014 0.878,-0.014 0.878,-0.013C0.879,-0.013 0.879,-0.012 0.879,-0.012C0.878,-0.004 0.877,0.004 0.876,0.012C0.876,0.013 0.875,0.014 0.873,0.014C0.873,0.014 0.872,0.013 0.872,0.013C0.871,0.012 0.871,0.012 0.871,0.011Z" style="fill:none;fill-rule:nonzero;"/>
        </g>
        <g transform="matrix(329.408,531.649,531.649,-329.408,282.664,-65.0759)">
            <path d="M0.252,-0.024C0.253,-0.025 0.254,-0.025 0.255,-0.024C0.273,-0.006 0.291,0.007 0.311,0.021C0.311,0.021 0.311,0.021 0.311,0.021C0.312,0.022 0.312,0.023 0.311,0.024C0.311,0.025 0.309,0.025 0.308,0.024C0.288,0.011 0.27,-0.003 0.252,-0.021C0.252,-0.021 0.252,-0.021 0.252,-0.022C0.251,-0.022 0.251,-0.024 0.252,-0.024Z" style="fill:none;fill-rule:nonzero;"/>
        </g>
        <g transform="matrix(329.408,531.65,531.65,-329.408,9.87897,103.94)">
            <path d="M0.202,0.027C0.216,0.006 0.23,-0.011 0.248,-0.03C0.249,-0.031 0.25,-0.031 0.251,-0.03C0.251,-0.03 0.252,-0.029 0.252,-0.029C0.252,-0.028 0.252,-0.027 0.251,-0.026C0.233,-0.008 0.219,0.009 0.206,0.029C0.206,0.03 0.204,0.031 0.203,0.03C0.203,0.03 0.203,0.029 0.202,0.029C0.202,0.028 0.202,0.027 0.202,0.027Z" style="fill:none;fill-rule:nonzero;"/>
        </g>
        <g transform="matrix(329.407,531.648,531.648,-329.407,-19.1817,121.948)">
            <path d="M0.71,-0.024C0.711,-0.025 0.712,-0.025 0.713,-0.024C0.734,-0.011 0.751,0.003 0.77,0.021C0.77,0.021 0.77,0.021 0.77,0.021C0.771,0.022 0.771,0.024 0.77,0.024C0.769,0.025 0.767,0.025 0.766,0.024C0.748,0.006 0.731,-0.008 0.711,-0.021C0.711,-0.021 0.71,-0.021 0.71,-0.021C0.71,-0.022 0.71,-0.023 0.71,-0.024Z" style="fill:none;fill-rule:nonzero;"/>
        </g>
        <g transform="matrix(329.407,531.648,531.648,-329.407,253.601,-47.0681)">
            <path d="M0.77,0.026C0.788,0.008 0.802,-0.009 0.815,-0.029C0.816,-0.03 0.817,-0.031 0.818,-0.03C0.819,-0.03 0.819,-0.029 0.819,-0.029C0.82,-0.028 0.82,-0.027 0.819,-0.027C0.806,-0.006 0.792,0.011 0.774,0.03C0.773,0.031 0.771,0.031 0.77,0.03C0.77,0.03 0.77,0.029 0.77,0.029C0.769,0.028 0.77,0.027 0.77,0.026Z" style="fill:none;fill-rule:nonzero;"/>
        </g>
        <g transform="matrix(329.407,531.648,531.648,-329.407,321.038,-88.8518)">
            <path d="M0.552,0.008C0.552,0.007 0.553,0.006 0.554,0.006C0.578,0.003 0.6,-0.002 0.624,-0.01C0.625,-0.01 0.626,-0.01 0.627,-0.009C0.627,-0.009 0.627,-0.009 0.627,-0.008C0.628,-0.007 0.627,-0.006 0.626,-0.005C0.601,0.003 0.579,0.007 0.555,0.01C0.554,0.01 0.553,0.01 0.553,0.009C0.552,0.009 0.552,0.009 0.552,0.008Z" style="fill:none;fill-rule:nonzero;"/>
        </g>
        <g transform="matrix(329.411,531.654,531.654,-329.411,173.808,2.3702)">
            <path d="M0.16,0.036C0.152,0.011 0.147,-0.011 0.144,-0.035C0.144,-0.036 0.145,-0.037 0.147,-0.038C0.147,-0.038 0.148,-0.037 0.149,-0.037C0.149,-0.036 0.149,-0.036 0.149,-0.036C0.152,-0.012 0.157,0.01 0.165,0.034C0.165,0.035 0.164,0.037 0.163,0.037C0.162,0.038 0.161,0.037 0.16,0.036C0.16,0.036 0.16,0.036 0.16,0.036Z" style="fill:none;fill-rule:nonzero;"/>
        </g>
        <g transform="matrix(329.408,531.65,531.65,-329.408,-57.5605,145.727)">
            <path d="M0.394,0.008C0.394,0.007 0.395,0.006 0.396,0.005C0.421,-0.003 0.442,-0.007 0.467,-0.01C0.468,-0.01 0.468,-0.01 0.469,-0.009C0.469,-0.009 0.469,-0.009 0.469,-0.008C0.469,-0.007 0.468,-0.006 0.467,-0.006C0.443,-0.003 0.422,0.002 0.397,0.01C0.396,0.01 0.395,0.01 0.395,0.009C0.395,0.009 0.395,0.009 0.394,0.008Z" style="fill:none;fill-rule:nonzero;"/>
        </g>
        <g transform="matrix(329.409,531.651,531.651,-329.409,89.6695,54.5008)">
            <path d="M0.872,0.036C0.87,0.012 0.865,-0.01 0.857,-0.034C0.857,-0.035 0.857,-0.037 0.858,-0.037C0.86,-0.038 0.861,-0.037 0.861,-0.036C0.861,-0.036 0.861,-0.036 0.861,-0.036C0.87,-0.011 0.874,0.011 0.877,0.035C0.877,0.036 0.876,0.037 0.875,0.038C0.874,0.038 0.873,0.037 0.873,0.037C0.873,0.036 0.873,0.036 0.872,0.036Z" style="fill:none;fill-rule:nonzero;"/>
        </g>
        <g transform="matrix(329.408,531.65,531.65,-329.408,284.823,-66.4141)">
            <path d="M0.24,0.001C0.241,0.001 0.241,-0 0.242,-0.001C0.25,-0.003 0.256,-0.01 0.257,-0.018C0.258,-0.02 0.259,-0.021 0.26,-0.02C0.261,-0.02 0.262,-0.019 0.262,-0.018C0.261,-0.01 0.256,-0.002 0.248,0.002C0.266,0.01 0.286,0.015 0.306,0.016C0.307,0.016 0.307,0.016 0.308,0.017C0.308,0.017 0.308,0.018 0.308,0.018C0.308,0.02 0.307,0.021 0.306,0.021C0.283,0.02 0.261,0.014 0.242,0.004C0.241,0.004 0.241,0.003 0.241,0.003C0.241,0.003 0.24,0.002 0.24,0.001Z" style="fill:none;fill-rule:nonzero;"/>
        </g>
        <g transform="matrix(329.406,531.647,531.647,-329.406,5.94084,106.381)">
            <path d="M0.202,0.031C0.203,0.009 0.209,-0.013 0.219,-0.032C0.22,-0.033 0.22,-0.034 0.221,-0.034C0.222,-0.034 0.223,-0.033 0.223,-0.032C0.226,-0.024 0.233,-0.018 0.241,-0.017C0.242,-0.017 0.243,-0.016 0.243,-0.016C0.243,-0.015 0.243,-0.015 0.243,-0.014C0.243,-0.013 0.242,-0.012 0.241,-0.012C0.232,-0.013 0.225,-0.019 0.221,-0.026C0.213,-0.008 0.208,0.012 0.207,0.032C0.207,0.033 0.206,0.034 0.204,0.034C0.204,0.034 0.203,0.033 0.203,0.033C0.202,0.032 0.202,0.032 0.202,0.031Z" style="fill:none;fill-rule:nonzero;"/>
        </g>
        <g transform="matrix(329.409,531.651,531.651,-329.409,-21.3463,123.289)">
            <path d="M0.714,-0.018C0.714,-0.02 0.715,-0.021 0.716,-0.021C0.738,-0.02 0.76,-0.014 0.78,-0.004C0.78,-0.004 0.781,-0.003 0.781,-0.003C0.781,-0.003 0.781,-0.002 0.781,-0.001C0.781,-0.001 0.78,0 0.779,0.001C0.772,0.003 0.765,0.01 0.764,0.018C0.764,0.02 0.763,0.021 0.762,0.02C0.76,0.02 0.759,0.019 0.76,0.018C0.761,0.01 0.766,0.002 0.773,-0.002C0.755,-0.01 0.736,-0.015 0.716,-0.016C0.715,-0.016 0.714,-0.016 0.714,-0.017C0.714,-0.017 0.714,-0.018 0.714,-0.018Z" style="fill:none;fill-rule:nonzero;"/>
        </g>
        <g transform="matrix(329.407,531.648,531.648,-329.407,257.537,-49.5078)">
            <path d="M0.778,0.014C0.779,0.013 0.78,0.012 0.781,0.012C0.789,0.013 0.797,0.019 0.801,0.026C0.809,0.008 0.814,-0.012 0.815,-0.032C0.815,-0.033 0.816,-0.034 0.817,-0.034C0.818,-0.034 0.819,-0.033 0.819,-0.033C0.819,-0.032 0.819,-0.032 0.819,-0.031C0.818,-0.009 0.813,0.013 0.803,0.033C0.802,0.033 0.801,0.034 0.8,0.034C0.799,0.034 0.799,0.033 0.798,0.032C0.796,0.024 0.789,0.018 0.78,0.017C0.78,0.017 0.779,0.016 0.779,0.016C0.778,0.015 0.778,0.015 0.778,0.014Z" style="fill:none;fill-rule:nonzero;"/>
        </g>
        <g transform="matrix(329.408,531.649,531.649,-329.408,326.355,-92.1468)">
            <path d="M0.556,-0.001C0.557,-0.003 0.558,-0.003 0.559,-0.003C0.577,0.005 0.597,0.01 0.617,0.01C0.612,0.004 0.611,-0.006 0.613,-0.013C0.614,-0.015 0.615,-0.015 0.616,-0.015C0.617,-0.015 0.617,-0.014 0.617,-0.014C0.618,-0.013 0.618,-0.013 0.618,-0.012C0.615,-0.004 0.617,0.005 0.623,0.011C0.624,0.012 0.624,0.013 0.624,0.013C0.624,0.014 0.623,0.015 0.622,0.015C0.6,0.015 0.577,0.011 0.557,0.002C0.557,0.001 0.556,0.001 0.556,0.001C0.556,0 0.556,-0.001 0.556,-0.001Z" style="fill:none;fill-rule:nonzero;"/>
        </g>
        <g transform="matrix(329.409,531.651,531.651,-329.409,173.776,2.39085)">
            <path d="M0.13,0.032C0.129,0.01 0.134,-0.012 0.143,-0.033C0.144,-0.034 0.145,-0.034 0.146,-0.034C0.147,-0.034 0.147,-0.033 0.147,-0.033C0.148,-0.032 0.148,-0.032 0.147,-0.031C0.139,-0.013 0.135,0.007 0.134,0.027C0.141,0.022 0.15,0.021 0.158,0.023C0.159,0.024 0.16,0.025 0.16,0.026C0.159,0.028 0.158,0.028 0.157,0.028C0.149,0.025 0.139,0.027 0.134,0.034C0.133,0.034 0.132,0.035 0.131,0.034C0.131,0.034 0.13,0.034 0.13,0.033C0.13,0.033 0.13,0.032 0.13,0.032Z" style="fill:none;fill-rule:nonzero;"/>
        </g>
        <g transform="matrix(329.407,531.649,531.649,-329.407,-62.8735,149.018)">
            <path d="M0.404,0.012C0.407,0.004 0.404,-0.005 0.398,-0.011C0.397,-0.012 0.397,-0.013 0.398,-0.013C0.398,-0.014 0.399,-0.015 0.4,-0.015C0.422,-0.015 0.444,-0.011 0.464,-0.002C0.465,-0.001 0.465,-0.001 0.465,-0.001C0.466,-0 0.466,0.001 0.466,0.001C0.465,0.003 0.464,0.003 0.463,0.003C0.444,-0.005 0.425,-0.01 0.405,-0.01C0.41,-0.003 0.411,0.006 0.408,0.013C0.408,0.015 0.407,0.015 0.405,0.015C0.405,0.015 0.404,0.014 0.404,0.014C0.404,0.013 0.404,0.013 0.404,0.012Z" style="fill:none;fill-rule:nonzero;"/>
        </g>
        <g transform="matrix(329.41,531.652,531.652,-329.41,89.7,54.48)">
            <path d="M0.874,0.031C0.882,0.013 0.887,-0.007 0.887,-0.027C0.88,-0.022 0.871,-0.021 0.863,-0.023C0.862,-0.024 0.862,-0.025 0.862,-0.026C0.862,-0.028 0.864,-0.028 0.865,-0.028C0.873,-0.025 0.882,-0.027 0.888,-0.034C0.888,-0.034 0.889,-0.035 0.89,-0.034C0.891,-0.034 0.891,-0.034 0.891,-0.033C0.892,-0.033 0.892,-0.032 0.892,-0.032C0.892,-0.01 0.888,0.012 0.878,0.033C0.878,0.034 0.877,0.034 0.875,0.034C0.875,0.034 0.875,0.033 0.874,0.033C0.874,0.032 0.874,0.032 0.874,0.031Z" style="fill:none;fill-rule:nonzero;"/>
        </g>
        <g transform="matrix(329.407,531.648,531.648,-329.407,308.277,-80.9452)">
            <path d="M0.302,-0.025C0.302,-0.026 0.303,-0.028 0.304,-0.028C0.319,-0.029 0.334,-0.028 0.348,-0.024C0.354,-0.023 0.36,-0.021 0.366,-0.016C0.368,-0.015 0.37,-0.012 0.371,-0.01C0.375,-0.003 0.377,0.005 0.375,0.012C0.371,0.022 0.361,0.029 0.351,0.029C0.345,0.029 0.34,0.027 0.336,0.023C0.332,0.019 0.331,0.013 0.333,0.008C0.335,0.002 0.34,-0.002 0.346,-0.002C0.349,-0.001 0.352,0 0.354,0.003C0.356,0.005 0.357,0.008 0.356,0.011C0.356,0.014 0.354,0.017 0.352,0.018C0.349,0.019 0.345,0.018 0.343,0.015C0.342,0.014 0.343,0.013 0.344,0.012C0.345,0.012 0.346,0.012 0.347,0.013L0.347,0.013C0.347,0.014 0.349,0.014 0.35,0.014C0.351,0.013 0.352,0.012 0.352,0.01C0.352,0.009 0.351,0.007 0.35,0.006C0.349,0.004 0.347,0.003 0.346,0.003C0.342,0.003 0.338,0.005 0.337,0.009C0.336,0.013 0.337,0.017 0.34,0.02C0.342,0.023 0.346,0.025 0.351,0.025C0.359,0.025 0.368,0.019 0.37,0.01C0.373,0.002 0.369,-0.007 0.363,-0.013C0.358,-0.016 0.352,-0.018 0.347,-0.02C0.333,-0.023 0.319,-0.024 0.304,-0.023C0.303,-0.023 0.303,-0.023 0.302,-0.024C0.302,-0.024 0.302,-0.025 0.302,-0.025Z" style="fill:none;fill-rule:nonzero;"/>
        </g>
        <g transform="matrix(329.406,531.647,531.647,-329.406,41.2591,84.4983)">
            <path d="M0.15,0.01C0.15,0.005 0.152,-0.001 0.156,-0.004C0.16,-0.008 0.166,-0.01 0.171,-0.008C0.177,-0.006 0.181,-0 0.18,0.005C0.18,0.008 0.178,0.011 0.176,0.013C0.174,0.015 0.171,0.016 0.168,0.016C0.165,0.015 0.162,0.014 0.161,0.011C0.159,0.008 0.161,0.004 0.163,0.002C0.164,0.002 0.166,0.002 0.167,0.003C0.167,0.004 0.167,0.006 0.166,0.006C0.165,0.007 0.165,0.008 0.165,0.009C0.166,0.01 0.167,0.011 0.169,0.011C0.17,0.011 0.172,0.011 0.173,0.01C0.175,0.008 0.176,0.007 0.176,0.005C0.176,0.001 0.173,-0.002 0.17,-0.004C0.166,-0.005 0.162,-0.004 0.159,-0.001C0.156,0.002 0.154,0.006 0.154,0.01C0.154,0.019 0.16,0.027 0.168,0.03C0.176,0.032 0.186,0.029 0.192,0.022C0.195,0.018 0.197,0.012 0.198,0.006C0.202,-0.008 0.203,-0.022 0.202,-0.036C0.202,-0.038 0.203,-0.039 0.204,-0.039C0.205,-0.039 0.206,-0.038 0.206,-0.038C0.206,-0.037 0.206,-0.037 0.206,-0.037C0.208,-0.022 0.206,-0.007 0.203,0.008C0.201,0.013 0.199,0.02 0.195,0.025C0.189,0.033 0.177,0.037 0.167,0.034C0.161,0.032 0.156,0.028 0.153,0.023C0.151,0.019 0.149,0.015 0.15,0.01Z" style="fill:none;fill-rule:nonzero;"/>
        </g>
        <g transform="matrix(329.408,531.649,531.649,-329.408,-44.7994,137.819)">
            <path d="M0.647,-0.012C0.65,-0.022 0.66,-0.029 0.671,-0.029C0.676,-0.029 0.682,-0.027 0.685,-0.023C0.689,-0.019 0.691,-0.013 0.689,-0.008C0.687,-0.002 0.681,0.002 0.676,0.002C0.673,0.001 0.67,-0 0.668,-0.003C0.666,-0.005 0.665,-0.008 0.665,-0.011C0.666,-0.014 0.667,-0.017 0.67,-0.018C0.673,-0.019 0.677,-0.018 0.679,-0.015C0.679,-0.014 0.679,-0.013 0.678,-0.012C0.677,-0.012 0.675,-0.012 0.675,-0.013L0.675,-0.013C0.674,-0.014 0.673,-0.014 0.672,-0.014C0.671,-0.013 0.67,-0.012 0.67,-0.01C0.67,-0.009 0.67,-0.007 0.671,-0.006C0.672,-0.004 0.674,-0.003 0.676,-0.003C0.68,-0.003 0.683,-0.005 0.685,-0.009C0.686,-0.013 0.685,-0.017 0.682,-0.02C0.679,-0.023 0.675,-0.025 0.671,-0.025C0.662,-0.025 0.654,-0.019 0.651,-0.01C0.649,-0.002 0.652,0.007 0.659,0.013C0.663,0.016 0.669,0.018 0.675,0.02C0.689,0.023 0.703,0.024 0.717,0.023C0.718,0.023 0.719,0.023 0.719,0.024C0.72,0.024 0.72,0.025 0.72,0.025C0.72,0.026 0.719,0.028 0.718,0.028C0.703,0.029 0.688,0.028 0.673,0.024C0.668,0.023 0.661,0.021 0.656,0.016C0.654,0.015 0.652,0.012 0.65,0.01C0.646,0.003 0.645,-0.005 0.647,-0.012Z" style="fill:none;fill-rule:nonzero;"/>
        </g>
        <g transform="matrix(329.408,531.649,531.649,-329.408,222.22,-27.6245)">
            <path d="M0.815,0.037C0.814,0.022 0.815,0.007 0.819,-0.008C0.82,-0.013 0.822,-0.02 0.826,-0.025C0.833,-0.033 0.845,-0.037 0.855,-0.034C0.86,-0.032 0.865,-0.028 0.868,-0.023C0.871,-0.019 0.872,-0.015 0.872,-0.01C0.872,-0.005 0.87,0.001 0.866,0.004C0.862,0.008 0.856,0.01 0.85,0.008C0.845,0.006 0.841,0 0.841,-0.005C0.842,-0.008 0.843,-0.011 0.846,-0.013C0.848,-0.015 0.851,-0.016 0.854,-0.016C0.857,-0.015 0.859,-0.014 0.861,-0.011C0.862,-0.008 0.861,-0.004 0.858,-0.002C0.857,-0.002 0.856,-0.002 0.855,-0.003L0.855,-0.003C0.854,-0.004 0.855,-0.006 0.856,-0.006C0.857,-0.007 0.857,-0.008 0.856,-0.009C0.856,-0.01 0.855,-0.011 0.853,-0.011C0.852,-0.011 0.85,-0.011 0.849,-0.01C0.847,-0.008 0.846,-0.007 0.846,-0.005C0.846,-0.001 0.848,0.002 0.852,0.004C0.855,0.005 0.86,0.004 0.863,0.001C0.866,-0.002 0.867,-0.006 0.867,-0.01C0.868,-0.019 0.862,-0.027 0.853,-0.03C0.845,-0.032 0.835,-0.029 0.83,-0.022C0.826,-0.018 0.825,-0.012 0.823,-0.006C0.82,0.008 0.819,0.022 0.82,0.036C0.82,0.038 0.819,0.039 0.818,0.039C0.817,0.039 0.816,0.038 0.816,0.038C0.815,0.037 0.815,0.037 0.815,0.037Z" style="fill:none;fill-rule:nonzero;"/>
        </g>
        <g transform="matrix(329.407,531.647,531.647,-329.407,329.317,-93.9814)">
            <path d="M0.48,-0.003C0.481,-0.013 0.49,-0.022 0.5,-0.024C0.507,-0.026 0.514,-0.025 0.519,-0.023C0.534,-0.02 0.548,-0.015 0.561,-0.007C0.561,-0.007 0.561,-0.006 0.561,-0.006C0.562,-0.005 0.562,-0.005 0.561,-0.004C0.561,-0.003 0.559,-0.002 0.558,-0.003C0.546,-0.01 0.532,-0.016 0.518,-0.019C0.513,-0.02 0.507,-0.021 0.501,-0.02C0.493,-0.018 0.486,-0.011 0.484,-0.002C0.483,0.006 0.488,0.015 0.495,0.019C0.499,0.021 0.504,0.021 0.507,0.02C0.511,0.018 0.514,0.015 0.515,0.011C0.515,0.007 0.513,0.003 0.51,0.002C0.508,0.001 0.506,0.001 0.504,0.002C0.502,0.003 0.501,0.004 0.501,0.006C0.5,0.007 0.5,0.009 0.501,0.01C0.502,0.01 0.503,0.011 0.504,0.01C0.505,0.01 0.506,0.01 0.507,0.011C0.508,0.012 0.507,0.014 0.506,0.014C0.504,0.016 0.5,0.015 0.498,0.012C0.496,0.01 0.495,0.007 0.496,0.004C0.497,0.001 0.499,-0.001 0.502,-0.002C0.505,-0.003 0.508,-0.003 0.511,-0.002C0.517,-0 0.52,0.006 0.519,0.012C0.518,0.017 0.514,0.022 0.509,0.024C0.504,0.026 0.498,0.026 0.493,0.023C0.489,0.021 0.486,0.018 0.483,0.014C0.48,0.009 0.479,0.003 0.48,-0.003Z" style="fill:none;fill-rule:nonzero;"/>
        </g>
        <g transform="matrix(329.407,531.648,531.648,-329.407,136.322,25.5975)">
            <path d="M0.142,0.039C0.15,0.026 0.155,0.013 0.158,-0.001C0.159,-0.006 0.16,-0.012 0.159,-0.018C0.157,-0.027 0.15,-0.034 0.142,-0.035C0.133,-0.037 0.124,-0.032 0.12,-0.024C0.118,-0.02 0.118,-0.016 0.119,-0.012C0.121,-0.008 0.124,-0.005 0.128,-0.005C0.132,-0.004 0.136,-0.007 0.137,-0.01C0.138,-0.011 0.138,-0.014 0.137,-0.015C0.136,-0.017 0.135,-0.018 0.134,-0.019C0.132,-0.019 0.131,-0.019 0.13,-0.018C0.129,-0.018 0.128,-0.016 0.129,-0.015L0.129,-0.015C0.13,-0.014 0.129,-0.013 0.128,-0.012C0.127,-0.012 0.126,-0.012 0.125,-0.013L0.125,-0.013C0.123,-0.016 0.124,-0.02 0.127,-0.022C0.129,-0.024 0.132,-0.024 0.135,-0.023C0.138,-0.022 0.14,-0.02 0.141,-0.017C0.142,-0.014 0.143,-0.011 0.141,-0.008C0.139,-0.003 0.133,0.001 0.127,-0C0.122,-0.001 0.117,-0.005 0.115,-0.011C0.113,-0.015 0.114,-0.021 0.116,-0.026C0.121,-0.036 0.132,-0.041 0.142,-0.04C0.15,-0.038 0.156,-0.034 0.16,-0.027C0.162,-0.025 0.163,-0.022 0.164,-0.019C0.165,-0.012 0.164,-0.006 0.163,-0C0.159,0.014 0.154,0.028 0.146,0.041C0.145,0.042 0.144,0.043 0.143,0.042C0.143,0.042 0.142,0.041 0.142,0.041C0.142,0.04 0.142,0.039 0.142,0.039Z" style="fill:none;fill-rule:nonzero;"/>
        </g>
        <g transform="matrix(329.408,531.649,531.649,-329.408,-65.8391,150.856)">
            <path d="M0.46,0.004C0.461,0.003 0.462,0.002 0.463,0.003C0.476,0.01 0.489,0.016 0.503,0.019C0.508,0.02 0.515,0.021 0.52,0.02C0.529,0.018 0.536,0.011 0.537,0.002C0.539,-0.006 0.534,-0.015 0.526,-0.019C0.522,-0.021 0.518,-0.021 0.514,-0.02C0.511,-0.018 0.508,-0.015 0.507,-0.011C0.507,-0.007 0.509,-0.003 0.512,-0.002C0.514,-0.001 0.516,-0.001 0.517,-0.002C0.519,-0.003 0.52,-0.004 0.521,-0.006C0.521,-0.007 0.521,-0.009 0.52,-0.01C0.52,-0.01 0.518,-0.011 0.518,-0.01C0.517,-0.01 0.515,-0.01 0.514,-0.011L0.514,-0.011C0.514,-0.012 0.514,-0.014 0.515,-0.014C0.518,-0.016 0.522,-0.015 0.524,-0.012C0.526,-0.01 0.526,-0.007 0.525,-0.004C0.524,-0.001 0.522,0.001 0.519,0.002C0.516,0.003 0.513,0.003 0.51,0.002C0.505,0 0.502,-0.006 0.502,-0.012C0.503,-0.017 0.507,-0.022 0.513,-0.024C0.518,-0.026 0.523,-0.026 0.528,-0.023C0.532,-0.021 0.536,-0.018 0.538,-0.014C0.541,-0.009 0.543,-0.003 0.542,0.003C0.54,0.013 0.532,0.022 0.521,0.024C0.515,0.026 0.508,0.025 0.502,0.023C0.488,0.02 0.474,0.015 0.461,0.007C0.461,0.007 0.46,0.006 0.46,0.006C0.46,0.005 0.46,0.005 0.46,0.004Z" style="fill:none;fill-rule:nonzero;"/>
        </g>
        <g transform="matrix(329.408,531.649,531.649,-329.408,127.161,31.2742)">
            <path d="M0.858,0.019C0.857,0.012 0.858,0.006 0.859,0C0.862,-0.014 0.868,-0.028 0.876,-0.041C0.876,-0.042 0.878,-0.043 0.879,-0.042C0.879,-0.042 0.879,-0.041 0.879,-0.041C0.88,-0.04 0.88,-0.039 0.879,-0.039C0.872,-0.026 0.867,-0.013 0.864,0.001C0.862,0.006 0.861,0.012 0.863,0.018C0.864,0.027 0.872,0.034 0.88,0.035C0.889,0.037 0.898,0.032 0.901,0.024C0.903,0.02 0.904,0.016 0.902,0.012C0.901,0.008 0.897,0.005 0.894,0.005C0.89,0.004 0.886,0.007 0.884,0.01C0.884,0.011 0.884,0.014 0.885,0.015C0.885,0.017 0.887,0.018 0.888,0.019C0.889,0.019 0.891,0.019 0.892,0.018C0.893,0.018 0.893,0.016 0.893,0.015L0.893,0.015C0.892,0.014 0.892,0.013 0.893,0.012C0.895,0.012 0.896,0.012 0.897,0.013C0.898,0.016 0.898,0.02 0.895,0.022C0.893,0.024 0.889,0.024 0.886,0.023C0.884,0.022 0.882,0.02 0.88,0.017C0.879,0.014 0.879,0.011 0.88,0.008C0.882,0.003 0.888,-0.001 0.894,0C0.9,0.001 0.904,0.005 0.906,0.011C0.908,0.015 0.908,0.021 0.906,0.026C0.901,0.036 0.89,0.041 0.879,0.04C0.872,0.038 0.865,0.034 0.861,0.027C0.86,0.025 0.859,0.022 0.858,0.019Z" style="fill:none;fill-rule:nonzero;"/>
        </g>
        <g transform="matrix(329.409,531.65,531.65,-329.409,280.889,-63.9764)">
            <path d="M0.263,0.019C0.263,0.018 0.264,0.017 0.265,0.016C0.268,0.016 0.272,0.011 0.274,0.007C0.277,-0.001 0.279,-0.01 0.277,-0.018C0.277,-0.02 0.278,-0.021 0.279,-0.021C0.28,-0.021 0.281,-0.021 0.282,-0.02C0.282,-0.02 0.282,-0.019 0.282,-0.019C0.283,-0.009 0.282,0.001 0.278,0.009C0.276,0.013 0.272,0.019 0.266,0.021C0.265,0.021 0.264,0.021 0.264,0.02C0.264,0.02 0.263,0.019 0.263,0.019Z" style="fill:none;fill-rule:nonzero;"/>
        </g>
        <g transform="matrix(329.409,531.651,531.651,-329.409,5.62046,106.579)">
            <path d="M0.209,-0.007C0.209,-0.009 0.21,-0.01 0.211,-0.01C0.212,-0.011 0.214,-0.01 0.214,-0.009C0.215,-0.005 0.219,-0.002 0.223,-0C0.231,0.004 0.24,0.005 0.249,0.004C0.25,0.004 0.25,0.004 0.251,0.005C0.251,0.005 0.251,0.005 0.251,0.006C0.251,0.007 0.251,0.008 0.249,0.008C0.24,0.01 0.23,0.008 0.221,0.004C0.218,0.003 0.213,-0 0.211,-0.004C0.21,-0.005 0.21,-0.006 0.209,-0.007Z" style="fill:none;fill-rule:nonzero;"/>
        </g>
        <g transform="matrix(329.408,531.65,531.65,-329.408,-17.412,120.85)">
            <path d="M0.74,0.019C0.738,0.009 0.74,-0.001 0.744,-0.009C0.746,-0.013 0.75,-0.019 0.755,-0.021C0.756,-0.021 0.757,-0.021 0.758,-0.02C0.758,-0.02 0.758,-0.019 0.758,-0.019C0.759,-0.018 0.758,-0.017 0.757,-0.016C0.753,-0.016 0.75,-0.011 0.748,-0.007C0.744,0.001 0.743,0.01 0.744,0.018C0.744,0.02 0.744,0.021 0.742,0.021C0.741,0.021 0.74,0.021 0.74,0.02C0.74,0.02 0.74,0.019 0.74,0.019Z" style="fill:none;fill-rule:nonzero;"/>
        </g>
        <g transform="matrix(329.407,531.648,531.648,-329.407,257.86,-49.7084)">
            <path d="M0.77,-0.006C0.77,-0.007 0.771,-0.008 0.772,-0.008C0.782,-0.01 0.792,-0.008 0.801,-0.004C0.804,-0.003 0.808,0 0.811,0.004C0.811,0.005 0.812,0.006 0.812,0.007C0.812,0.009 0.812,0.01 0.81,0.01C0.809,0.011 0.808,0.01 0.808,0.009C0.807,0.005 0.802,0.002 0.799,0C0.791,-0.004 0.782,-0.005 0.773,-0.004C0.772,-0.004 0.771,-0.004 0.771,-0.005C0.771,-0.005 0.77,-0.005 0.77,-0.006Z" style="fill:none;fill-rule:nonzero;"/>
        </g>
        <g transform="matrix(329.407,531.647,531.647,-329.407,321.61,-89.2057)">
            <path d="M0.59,0.006C0.591,-0.003 0.594,-0.013 0.599,-0.021C0.6,-0.022 0.601,-0.022 0.603,-0.022C0.603,-0.021 0.603,-0.021 0.603,-0.021C0.604,-0.02 0.604,-0.019 0.603,-0.018C0.598,-0.011 0.595,-0.002 0.595,0.006C0.595,0.01 0.596,0.016 0.599,0.018C0.6,0.019 0.6,0.02 0.599,0.021C0.598,0.022 0.597,0.022 0.596,0.022C0.595,0.021 0.594,0.02 0.594,0.019C0.591,0.015 0.59,0.009 0.59,0.006Z" style="fill:none;fill-rule:nonzero;"/>
        </g>
        <g transform="matrix(329.409,531.65,531.65,-329.409,177.703,-0.0428187)">
            <path d="M0.132,-0.002C0.136,-0.006 0.143,-0.007 0.147,-0.007C0.157,-0.007 0.167,-0.004 0.175,0.002C0.175,0.002 0.175,0.002 0.175,0.003C0.176,0.003 0.176,0.004 0.175,0.005C0.175,0.006 0.173,0.007 0.172,0.006C0.165,0.001 0.156,-0.002 0.147,-0.002C0.143,-0.002 0.138,-0.001 0.136,0.001C0.135,0.002 0.133,0.003 0.132,0.002C0.132,0.002 0.132,0.001 0.132,0.001C0.131,0 0.131,-0.001 0.132,-0.002Z" style="fill:none;fill-rule:nonzero;"/>
        </g>
        <g transform="matrix(329.407,531.648,531.648,-329.407,-58.1284,146.078)">
            <path d="M0.419,0.018C0.424,0.011 0.426,0.002 0.426,-0.006C0.427,-0.01 0.425,-0.016 0.423,-0.018C0.422,-0.019 0.422,-0.02 0.423,-0.021C0.423,-0.022 0.425,-0.022 0.426,-0.022C0.427,-0.021 0.427,-0.02 0.428,-0.019C0.43,-0.015 0.431,-0.009 0.431,-0.006C0.431,0.003 0.428,0.013 0.422,0.021C0.422,0.022 0.42,0.022 0.419,0.022C0.419,0.021 0.419,0.021 0.418,0.021C0.418,0.02 0.418,0.019 0.419,0.018Z" style="fill:none;fill-rule:nonzero;"/>
        </g>
        <g transform="matrix(329.407,531.648,531.648,-329.407,85.7764,56.9168)">
            <path d="M0.846,-0.005C0.847,-0.006 0.848,-0.007 0.85,-0.006C0.857,-0.001 0.865,0.002 0.874,0.002C0.878,0.002 0.884,0.001 0.886,-0.001C0.887,-0.002 0.888,-0.003 0.889,-0.002C0.889,-0.002 0.89,-0.001 0.89,-0.001C0.89,-0 0.89,0.001 0.889,0.002C0.886,0.006 0.878,0.007 0.874,0.007C0.864,0.007 0.855,0.004 0.847,-0.002C0.847,-0.002 0.846,-0.002 0.846,-0.003C0.846,-0.003 0.846,-0.004 0.846,-0.005Z" style="fill:none;fill-rule:nonzero;"/>
        </g>
        <g transform="matrix(329.408,531.649,531.649,-329.408,320.777,-88.6901)">
            <path d="M0.368,0.014C0.368,0.013 0.369,0.012 0.369,0.012C0.376,0.009 0.381,0.003 0.386,-0.002C0.388,-0.004 0.39,-0.006 0.392,-0.008C0.399,-0.015 0.41,-0.022 0.422,-0.02C0.423,-0.02 0.423,-0.02 0.423,-0.019C0.424,-0.019 0.424,-0.018 0.424,-0.018C0.424,-0.005 0.418,0.008 0.407,0.015C0.396,0.022 0.381,0.022 0.369,0.016C0.369,0.016 0.369,0.016 0.369,0.015C0.368,0.015 0.368,0.014 0.368,0.014ZM0.395,-0.005C0.393,-0.003 0.391,-0.001 0.39,0.001C0.385,0.006 0.381,0.01 0.376,0.014C0.385,0.017 0.396,0.016 0.404,0.011C0.413,0.005 0.419,-0.005 0.419,-0.016C0.41,-0.017 0.401,-0.01 0.395,-0.005Z" style="fill:none;fill-rule:nonzero;"/>
        </g>
        <g transform="matrix(329.407,531.648,531.648,-329.407,70.982,66.0819)">
            <path d="M0.139,-0.027C0.14,-0.028 0.14,-0.028 0.141,-0.028C0.142,-0.028 0.143,-0.028 0.143,-0.027C0.147,-0.021 0.152,-0.016 0.157,-0.01C0.159,-0.008 0.161,-0.006 0.163,-0.004C0.166,-0.001 0.169,0.002 0.171,0.005C0.175,0.012 0.177,0.019 0.175,0.025C0.175,0.026 0.174,0.027 0.173,0.027C0.16,0.028 0.147,0.021 0.14,0.01C0.134,-0.001 0.133,-0.016 0.139,-0.027ZM0.16,-0.001C0.158,-0.003 0.156,-0.005 0.154,-0.007C0.15,-0.011 0.145,-0.016 0.141,-0.021C0.138,-0.012 0.139,-0.001 0.144,0.008C0.15,0.017 0.16,0.022 0.171,0.023C0.171,0.018 0.17,0.013 0.167,0.007C0.165,0.005 0.163,0.002 0.16,-0.001Z" style="fill:none;fill-rule:nonzero;"/>
        </g>
        <g transform="matrix(329.408,531.649,531.649,-329.408,-57.2988,145.562)">
            <path d="M0.598,0.018C0.597,0.005 0.604,-0.008 0.615,-0.015C0.626,-0.022 0.641,-0.022 0.652,-0.016C0.652,-0.016 0.653,-0.016 0.653,-0.015L0.653,-0.015C0.654,-0.014 0.653,-0.013 0.652,-0.012C0.652,-0.012 0.652,-0.012 0.651,-0.012C0.645,-0.008 0.641,-0.003 0.635,0.002C0.633,0.004 0.631,0.006 0.629,0.008C0.622,0.015 0.611,0.022 0.6,0.02C0.599,0.02 0.598,0.02 0.598,0.019C0.598,0.019 0.598,0.018 0.598,0.018ZM0.618,-0.011C0.608,-0.005 0.603,0.005 0.602,0.016C0.612,0.017 0.62,0.01 0.626,0.005C0.628,0.003 0.63,0.001 0.632,-0.001C0.636,-0.006 0.641,-0.01 0.646,-0.014C0.637,-0.017 0.626,-0.016 0.618,-0.011Z" style="fill:none;fill-rule:nonzero;"/>
        </g>
        <g transform="matrix(329.407,531.649,531.649,-329.407,192.498,-9.20767)">
            <path d="M0.846,-0.025C0.846,-0.026 0.847,-0.027 0.848,-0.027C0.861,-0.028 0.874,-0.021 0.881,-0.01L0.881,-0.01C0.888,0.001 0.889,0.016 0.882,0.027C0.882,0.028 0.881,0.028 0.88,0.028C0.88,0.028 0.879,0.028 0.878,0.027C0.875,0.021 0.87,0.016 0.864,0.01C0.862,0.008 0.86,0.006 0.858,0.004C0.855,0.001 0.853,-0.002 0.851,-0.005C0.847,-0.012 0.845,-0.019 0.846,-0.025ZM0.877,-0.008C0.871,-0.017 0.861,-0.022 0.85,-0.023C0.85,-0.015 0.854,-0.007 0.862,0.001C0.864,0.003 0.866,0.005 0.868,0.007C0.872,0.011 0.877,0.016 0.88,0.021C0.883,0.012 0.882,0.001 0.877,-0.007L0.879,-0.009L0.877,-0.008Z" style="fill:none;fill-rule:nonzero;"/>
        </g>
        <g transform="matrix(329.406,531.646,531.646,-329.406,327.205,-92.6701)">
            <path d="M0.438,-0.027C0.439,-0.028 0.44,-0.028 0.441,-0.028C0.447,-0.026 0.453,-0.021 0.457,-0.014L0.457,-0.014C0.459,-0.011 0.461,-0.008 0.462,-0.004C0.463,-0.001 0.464,0.002 0.465,0.004C0.467,0.012 0.469,0.019 0.474,0.024C0.474,0.024 0.474,0.025 0.474,0.025C0.475,0.025 0.474,0.027 0.473,0.028C0.473,0.028 0.472,0.028 0.471,0.028C0.459,0.028 0.446,0.021 0.439,0.01C0.433,-0.001 0.432,-0.015 0.438,-0.027ZM0.442,-0.023C0.437,-0.013 0.438,-0.001 0.443,0.008C0.449,0.016 0.458,0.022 0.467,0.023C0.464,0.018 0.462,0.012 0.461,0.006C0.46,0.003 0.459,0 0.458,-0.002C0.457,-0.006 0.455,-0.009 0.453,-0.012C0.45,-0.017 0.446,-0.021 0.442,-0.023Z" style="fill:none;fill-rule:nonzero;"/>
        </g>
        <g transform="matrix(329.407,531.647,531.647,-329.407,100.702,47.6671)">
            <path d="M0.115,0.019C0.115,0.006 0.122,-0.006 0.133,-0.013C0.144,-0.02 0.158,-0.02 0.17,-0.014C0.17,-0.014 0.17,-0.013 0.171,-0.013C0.171,-0.013 0.171,-0.012 0.171,-0.011C0.168,0 0.156,0.007 0.147,0.01C0.144,0.011 0.141,0.012 0.139,0.013C0.131,0.015 0.125,0.017 0.119,0.021C0.118,0.022 0.117,0.022 0.116,0.021C0.116,0.021 0.116,0.021 0.115,0.021C0.115,0.02 0.115,0.02 0.115,0.019ZM0.135,-0.009C0.127,-0.004 0.121,0.005 0.12,0.015C0.125,0.012 0.131,0.01 0.137,0.008C0.14,0.007 0.143,0.006 0.145,0.006C0.153,0.003 0.162,-0.002 0.166,-0.011C0.156,-0.015 0.144,-0.015 0.135,-0.009Z" style="fill:none;fill-rule:nonzero;"/>
        </g>
        <g transform="matrix(329.407,531.647,531.647,-329.407,-63.8267,149.61)">
            <path d="M0.559,0.004C0.558,0.001 0.557,-0.001 0.557,-0.004C0.554,-0.011 0.552,-0.018 0.548,-0.024C0.547,-0.025 0.547,-0.026 0.548,-0.027C0.548,-0.027 0.549,-0.028 0.55,-0.028C0.563,-0.028 0.575,-0.021 0.582,-0.01L0.582,-0.01C0.589,0.001 0.589,0.015 0.583,0.027C0.583,0.028 0.582,0.028 0.58,0.028C0.574,0.026 0.569,0.022 0.564,0.015C0.562,0.011 0.561,0.008 0.559,0.004ZM0.578,-0.008C0.573,-0.016 0.564,-0.022 0.554,-0.023C0.557,-0.018 0.559,-0.011 0.561,-0.006C0.562,-0.003 0.563,-0 0.564,0.002C0.568,0.013 0.573,0.02 0.58,0.023C0.584,0.013 0.584,0.001 0.578,-0.008L0.58,-0.009L0.578,-0.008Z" style="fill:none;fill-rule:nonzero;"/>
        </g>
        <g transform="matrix(329.408,531.65,531.65,-329.408,162.777,9.20245)">
            <path d="M0.851,0.011C0.854,-0 0.866,-0.007 0.875,-0.01C0.877,-0.011 0.88,-0.012 0.883,-0.013C0.89,-0.015 0.897,-0.017 0.903,-0.021C0.904,-0.022 0.904,-0.022 0.905,-0.021C0.906,-0.021 0.906,-0.021 0.906,-0.021C0.906,-0.02 0.907,-0.02 0.907,-0.019C0.907,-0.006 0.9,0.006 0.889,0.013C0.878,0.02 0.863,0.02 0.852,0.014C0.851,0.014 0.851,0.013 0.851,0.013C0.851,0.013 0.85,0.012 0.851,0.011ZM0.884,-0.008C0.882,-0.007 0.879,-0.006 0.876,-0.006C0.869,-0.003 0.859,0.002 0.856,0.011C0.865,0.015 0.877,0.015 0.886,0.009C0.895,0.004 0.901,-0.005 0.902,-0.015C0.896,-0.012 0.89,-0.01 0.884,-0.008Z" style="fill:none;fill-rule:nonzero;"/>
        </g>
        <g transform="matrix(329.407,531.647,531.647,-329.407,338.483,-99.6607)">
            <path d="M0.41,0.032L0.409,0.028C0.406,0.021 0.404,0.012 0.403,0.004C0.402,-0.006 0.404,-0.014 0.408,-0.021C0.412,-0.028 0.419,-0.033 0.427,-0.034C0.427,-0.034 0.428,-0.034 0.428,-0.034C0.431,-0.032 0.433,-0.029 0.435,-0.027C0.437,-0.023 0.439,-0.018 0.439,-0.014C0.44,-0.004 0.436,0.005 0.432,0.011C0.428,0.018 0.422,0.024 0.417,0.03L0.414,0.033C0.413,0.034 0.412,0.034 0.411,0.034C0.411,0.034 0.41,0.033 0.41,0.033C0.41,0.033 0.41,0.033 0.41,0.032ZM0.426,-0.029C0.421,-0.028 0.415,-0.024 0.412,-0.019C0.407,-0.011 0.407,-0.003 0.408,0.004C0.408,0.012 0.411,0.019 0.413,0.027L0.413,0.027L0.413,0.027C0.419,0.021 0.424,0.015 0.429,0.008C0.432,0.003 0.435,-0.005 0.435,-0.014C0.434,-0.017 0.433,-0.021 0.431,-0.024C0.43,-0.026 0.428,-0.028 0.426,-0.029Z" style="fill:none;fill-rule:nonzero;"/>
        </g>
        <g transform="matrix(329.406,531.646,531.646,-329.406,179.369,-1.07289)">
            <path d="M0.865,-0.005C0.865,-0.006 0.866,-0.007 0.866,-0.007C0.87,-0.013 0.878,-0.017 0.886,-0.018C0.894,-0.019 0.902,-0.016 0.911,-0.011C0.918,-0.007 0.924,-0.001 0.93,0.005L0.933,0.008C0.933,0.008 0.933,0.008 0.933,0.008L0.933,0.008C0.934,0.009 0.934,0.011 0.933,0.011C0.932,0.012 0.932,0.012 0.931,0.012L0.928,0.013C0.92,0.015 0.912,0.018 0.904,0.018C0.897,0.019 0.887,0.018 0.878,0.013C0.875,0.011 0.871,0.008 0.869,0.004C0.867,0.001 0.866,-0.002 0.865,-0.005ZM0.927,0.008C0.921,0.003 0.915,-0.003 0.908,-0.007C0.903,-0.01 0.895,-0.014 0.886,-0.013C0.88,-0.013 0.874,-0.01 0.87,-0.005C0.871,0 0.875,0.006 0.881,0.009C0.888,0.014 0.897,0.014 0.903,0.014C0.911,0.013 0.919,0.011 0.927,0.008L0.927,0.008L0.927,0.008Z" style="fill:none;fill-rule:nonzero;"/>
        </g>
        <g transform="matrix(329.408,531.65,531.65,-329.408,-75.0055,156.533)">
            <path d="M0.582,0.014C0.582,0.004 0.586,-0.005 0.589,-0.011C0.594,-0.018 0.599,-0.024 0.605,-0.03L0.608,-0.033C0.608,-0.034 0.609,-0.034 0.61,-0.034C0.611,-0.034 0.611,-0.033 0.612,-0.033C0.612,-0.033 0.612,-0.033 0.612,-0.032L0.613,-0.028C0.615,-0.021 0.618,-0.012 0.619,-0.004C0.619,0.006 0.618,0.014 0.614,0.021C0.609,0.028 0.602,0.033 0.595,0.034C0.594,0.034 0.594,0.034 0.593,0.034C0.591,0.032 0.588,0.029 0.587,0.027C0.584,0.023 0.583,0.018 0.582,0.014ZM0.608,-0.027C0.603,-0.021 0.597,-0.015 0.593,-0.008C0.59,-0.003 0.586,0.005 0.587,0.014C0.587,0.017 0.589,0.021 0.59,0.024C0.592,0.026 0.593,0.028 0.595,0.029C0.601,0.028 0.606,0.024 0.61,0.019C0.614,0.011 0.615,0.003 0.614,-0.004C0.613,-0.012 0.611,-0.019 0.609,-0.027L0.609,-0.027L0.608,-0.027Z" style="fill:none;fill-rule:nonzero;"/>
        </g>
        <g transform="matrix(329.408,531.649,531.649,-329.408,84.1134,57.9452)">
            <path d="M0.088,-0.01C0.088,-0.011 0.089,-0.011 0.09,-0.011L0.093,-0.013C0.101,-0.015 0.11,-0.018 0.118,-0.018C0.125,-0.019 0.135,-0.018 0.143,-0.013C0.147,-0.011 0.15,-0.008 0.153,-0.004C0.154,-0.001 0.156,0.002 0.156,0.005C0.156,0.006 0.156,0.007 0.156,0.007C0.151,0.013 0.144,0.017 0.136,0.018C0.128,0.019 0.119,0.016 0.111,0.011C0.104,0.007 0.098,0.001 0.092,-0.005L0.089,-0.008C0.088,-0.008 0.088,-0.008 0.088,-0.008C0.088,-0.009 0.088,-0.009 0.088,-0.01ZM0.141,-0.009C0.133,-0.014 0.124,-0.014 0.118,-0.014C0.11,-0.013 0.102,-0.011 0.095,-0.008L0.095,-0.008L0.095,-0.008C0.101,-0.003 0.107,0.003 0.113,0.007C0.119,0.01 0.127,0.014 0.135,0.013C0.142,0.013 0.148,0.01 0.151,0.005C0.151,0.003 0.15,0.001 0.149,-0.001C0.147,-0.005 0.144,-0.007 0.141,-0.009Z" style="fill:none;fill-rule:nonzero;"/>
        </g>
        <g transform="matrix(329.406,531.647,531.647,-329.406,307.655,-80.5595)">
            <path d="M0.288,-0.011C0.291,-0.019 0.299,-0.026 0.309,-0.027C0.31,-0.027 0.311,-0.026 0.311,-0.025C0.311,-0.023 0.31,-0.022 0.309,-0.022C0.302,-0.021 0.295,-0.016 0.292,-0.009C0.289,-0.002 0.291,0.006 0.295,0.012C0.3,0.018 0.308,0.021 0.315,0.019C0.32,0.019 0.325,0.016 0.327,0.012C0.33,0.008 0.33,0.003 0.328,-0.001C0.326,-0.006 0.321,-0.008 0.317,-0.007C0.314,-0.007 0.312,-0.005 0.311,-0.003C0.311,-0.001 0.311,0.001 0.313,0.003C0.314,0.003 0.315,0.003 0.316,0.003C0.316,0.003 0.317,0.002 0.317,0.002C0.318,0 0.319,-0 0.321,0.001C0.322,0.001 0.322,0.002 0.322,0.004C0.321,0.005 0.319,0.007 0.317,0.007C0.314,0.008 0.312,0.008 0.31,0.006C0.307,0.004 0.305,-0.001 0.307,-0.005C0.309,-0.008 0.312,-0.011 0.316,-0.012C0.322,-0.013 0.328,-0.01 0.332,-0.005C0.332,-0.004 0.332,-0.004 0.332,-0.004C0.335,0.002 0.335,0.009 0.331,0.014C0.328,0.019 0.322,0.023 0.316,0.024C0.307,0.026 0.297,0.022 0.292,0.015C0.291,0.014 0.29,0.013 0.29,0.012C0.285,0.005 0.285,-0.003 0.288,-0.011Z" style="fill:none;fill-rule:nonzero;"/>
        </g>
        <g transform="matrix(329.407,531.648,531.648,-329.407,24.6186,94.808)">
            <path d="M0.156,0.007C0.154,-0.002 0.158,-0.012 0.165,-0.018C0.172,-0.024 0.182,-0.025 0.191,-0.022C0.196,-0.019 0.2,-0.016 0.203,-0.011C0.205,-0.008 0.206,-0.004 0.207,-0.001C0.207,0.001 0.206,0.002 0.205,0.002C0.203,0.002 0.202,0.001 0.202,-0C0.201,-0.008 0.196,-0.014 0.189,-0.017C0.182,-0.02 0.174,-0.019 0.168,-0.014C0.162,-0.009 0.159,-0.001 0.16,0.006C0.161,0.011 0.164,0.015 0.168,0.018C0.172,0.02 0.177,0.021 0.181,0.019C0.185,0.017 0.188,0.012 0.187,0.008C0.187,0.005 0.185,0.003 0.183,0.002C0.181,0.001 0.179,0.002 0.177,0.003C0.177,0.004 0.177,0.005 0.177,0.006C0.177,0.007 0.178,0.008 0.178,0.008C0.179,0.009 0.18,0.01 0.179,0.011C0.179,0.012 0.177,0.013 0.176,0.012C0.174,0.011 0.173,0.01 0.172,0.007C0.172,0.005 0.172,0.003 0.174,0.001C0.176,-0.003 0.181,-0.004 0.185,-0.002C0.188,-0.001 0.191,0.003 0.192,0.007C0.193,0.013 0.189,0.02 0.184,0.023C0.178,0.026 0.171,0.025 0.166,0.022C0.163,0.02 0.161,0.018 0.159,0.015C0.158,0.013 0.156,0.01 0.156,0.007Z" style="fill:none;fill-rule:nonzero;"/>
        </g>
        <g transform="matrix(329.406,531.647,531.647,-329.406,-44.177,137.434)">
            <path d="M0.689,0.004C0.687,-0.002 0.687,-0.009 0.691,-0.014C0.694,-0.019 0.699,-0.023 0.705,-0.024C0.715,-0.026 0.724,-0.022 0.73,-0.015C0.731,-0.014 0.731,-0.013 0.732,-0.012C0.736,-0.005 0.737,0.003 0.734,0.011C0.73,0.019 0.722,0.026 0.713,0.027C0.712,0.027 0.711,0.026 0.71,0.025C0.71,0.023 0.711,0.022 0.712,0.022C0.72,0.021 0.727,0.016 0.73,0.009C0.732,0.002 0.731,-0.006 0.726,-0.012C0.722,-0.018 0.714,-0.021 0.706,-0.019C0.701,-0.019 0.697,-0.016 0.694,-0.012C0.692,-0.008 0.691,-0.003 0.694,0.001C0.696,0.006 0.7,0.008 0.705,0.007C0.707,0.007 0.709,0.005 0.71,0.003C0.711,0.001 0.71,-0.001 0.709,-0.003C0.708,-0.003 0.707,-0.003 0.706,-0.003C0.705,-0.003 0.704,-0.002 0.704,-0.002C0.704,-0 0.702,0 0.701,-0.001C0.7,-0.001 0.699,-0.002 0.7,-0.004C0.701,-0.005 0.703,-0.007 0.705,-0.007C0.707,-0.008 0.71,-0.008 0.712,-0.006C0.715,-0.004 0.716,0.001 0.714,0.005C0.713,0.008 0.71,0.011 0.705,0.012C0.7,0.013 0.693,0.01 0.69,0.005C0.69,0.004 0.69,0.004 0.689,0.004Z" style="fill:none;fill-rule:nonzero;"/>
        </g>
        <g transform="matrix(329.408,531.65,531.65,-329.408,238.859,-37.9344)">
            <path d="M0.815,0.001C0.815,-0.001 0.816,-0.002 0.817,-0.002C0.818,-0.002 0.819,-0.001 0.82,0C0.82,0.008 0.826,0.014 0.833,0.017C0.839,0.02 0.848,0.019 0.854,0.014C0.86,0.009 0.862,0.001 0.861,-0.006C0.86,-0.011 0.857,-0.015 0.853,-0.018C0.849,-0.02 0.844,-0.021 0.84,-0.019C0.836,-0.017 0.834,-0.012 0.834,-0.008C0.835,-0.005 0.836,-0.003 0.839,-0.002C0.841,-0.001 0.843,-0.002 0.844,-0.003C0.845,-0.004 0.845,-0.005 0.845,-0.006C0.844,-0.007 0.844,-0.008 0.843,-0.008C0.842,-0.009 0.842,-0.01 0.842,-0.011C0.843,-0.012 0.844,-0.013 0.845,-0.012C0.847,-0.011 0.849,-0.01 0.849,-0.007C0.85,-0.005 0.849,-0.003 0.848,-0.001C0.846,0.003 0.841,0.004 0.837,0.002C0.833,0.001 0.831,-0.003 0.83,-0.007C0.829,-0.013 0.832,-0.02 0.838,-0.023C0.843,-0.026 0.851,-0.025 0.856,-0.022C0.859,-0.02 0.861,-0.018 0.863,-0.015C0.864,-0.013 0.865,-0.01 0.866,-0.007C0.867,0.002 0.864,0.012 0.857,0.018C0.849,0.024 0.839,0.025 0.831,0.022C0.826,0.02 0.822,0.016 0.819,0.011C0.817,0.008 0.815,0.004 0.815,0.001Z" style="fill:none;fill-rule:nonzero;"/>
        </g>
        <g transform="matrix(329.408,531.649,531.649,-329.408,337.506,-99.0553)">
            <path d="M0.518,0.002C0.517,-0.004 0.52,-0.011 0.525,-0.014C0.53,-0.018 0.538,-0.018 0.543,-0.015C0.546,-0.012 0.548,-0.008 0.548,-0.005C0.548,-0 0.545,0.004 0.54,0.004C0.538,0.005 0.536,0.004 0.534,0.002C0.532,0.001 0.531,-0.001 0.531,-0.003C0.531,-0.005 0.532,-0.006 0.534,-0.006C0.535,-0.006 0.536,-0.005 0.536,-0.003C0.536,-0.003 0.536,-0.002 0.537,-0.001C0.538,-0.001 0.539,-0 0.54,-0C0.542,-0.001 0.543,-0.003 0.543,-0.005C0.544,-0.007 0.542,-0.009 0.54,-0.011C0.537,-0.014 0.531,-0.013 0.528,-0.011C0.524,-0.008 0.522,-0.003 0.523,0.002C0.523,0.006 0.526,0.011 0.53,0.014C0.536,0.018 0.544,0.019 0.551,0.016C0.558,0.013 0.563,0.006 0.563,-0.002C0.564,-0.009 0.56,-0.017 0.554,-0.021C0.553,-0.021 0.553,-0.023 0.553,-0.024C0.554,-0.025 0.555,-0.025 0.556,-0.025C0.56,-0.023 0.562,-0.02 0.564,-0.017C0.567,-0.012 0.568,-0.007 0.568,-0.001C0.567,0.008 0.562,0.016 0.553,0.02C0.545,0.024 0.534,0.023 0.527,0.017C0.525,0.016 0.523,0.013 0.521,0.011C0.519,0.008 0.518,0.005 0.518,0.002Z" style="fill:none;fill-rule:nonzero;"/>
        </g>
        <g transform="matrix(329.407,531.648,531.648,-329.407,148.889,17.8105)">
            <path d="M0.104,0.01C0.1,0.002 0.101,-0.009 0.106,-0.016C0.11,-0.021 0.116,-0.024 0.122,-0.025C0.128,-0.026 0.135,-0.023 0.138,-0.018C0.138,-0.018 0.139,-0.017 0.139,-0.017C0.142,-0.012 0.142,-0.005 0.138,0C0.136,0.003 0.132,0.005 0.128,0.005C0.124,0.005 0.12,0.001 0.12,-0.003C0.119,-0.005 0.12,-0.007 0.121,-0.009C0.123,-0.011 0.125,-0.012 0.127,-0.012C0.128,-0.012 0.129,-0.011 0.129,-0.009C0.129,-0.008 0.128,-0.007 0.127,-0.007C0.126,-0.007 0.126,-0.007 0.125,-0.006C0.124,-0.005 0.124,-0.004 0.124,-0.003C0.124,-0.001 0.126,0 0.129,0C0.131,0.001 0.133,-0.001 0.135,-0.003C0.137,-0.006 0.137,-0.012 0.135,-0.015C0.132,-0.019 0.127,-0.021 0.122,-0.02C0.118,-0.02 0.113,-0.017 0.11,-0.013C0.106,-0.007 0.105,0.001 0.108,0.008C0.111,0.015 0.118,0.02 0.125,0.02C0.133,0.021 0.14,0.017 0.144,0.011C0.145,0.01 0.147,0.009 0.148,0.01C0.149,0.011 0.149,0.012 0.148,0.013C0.143,0.021 0.134,0.026 0.125,0.025C0.117,0.024 0.109,0.02 0.105,0.013C0.104,0.012 0.104,0.011 0.104,0.01Z" style="fill:none;fill-rule:nonzero;"/>
        </g>
        <g transform="matrix(329.407,531.649,531.649,-329.407,-74.0251,155.928)">
            <path d="M0.454,0.001C0.454,-0.008 0.46,-0.016 0.469,-0.02C0.477,-0.024 0.487,-0.023 0.494,-0.017C0.497,-0.016 0.499,-0.013 0.5,-0.011C0.502,-0.008 0.503,-0.005 0.504,-0.002C0.504,0.004 0.502,0.011 0.497,0.014C0.491,0.018 0.484,0.018 0.479,0.015C0.475,0.012 0.473,0.008 0.474,0.005C0.474,0 0.477,-0.004 0.481,-0.004C0.483,-0.005 0.486,-0.004 0.488,-0.002C0.489,-0.001 0.49,0.001 0.49,0.003C0.49,0.005 0.489,0.006 0.488,0.006C0.487,0.006 0.486,0.005 0.486,0.003C0.486,0.003 0.485,0.002 0.485,0.001C0.484,0.001 0.483,0 0.482,0C0.48,0.001 0.478,0.003 0.478,0.005C0.478,0.007 0.479,0.009 0.481,0.011C0.485,0.014 0.49,0.013 0.494,0.011C0.497,0.008 0.499,0.003 0.499,-0.002C0.498,-0.006 0.496,-0.011 0.492,-0.014C0.486,-0.018 0.477,-0.019 0.47,-0.016C0.464,-0.013 0.459,-0.006 0.458,0.002C0.458,0.009 0.461,0.017 0.468,0.021C0.469,0.021 0.469,0.023 0.468,0.024C0.468,0.025 0.466,0.025 0.465,0.025C0.462,0.023 0.459,0.02 0.457,0.017C0.455,0.012 0.453,0.007 0.454,0.001Z" style="fill:none;fill-rule:nonzero;"/>
        </g>
        <g transform="matrix(329.407,531.648,531.648,-329.407,114.588,39.0624)">
            <path d="M0.883,-0C0.886,-0.003 0.89,-0.005 0.893,-0.005C0.898,-0.005 0.901,-0.001 0.902,0.003C0.902,0.005 0.902,0.007 0.9,0.009C0.899,0.011 0.897,0.012 0.895,0.012C0.893,0.012 0.892,0.011 0.892,0.009C0.892,0.008 0.893,0.007 0.895,0.007C0.895,0.007 0.896,0.007 0.897,0.006C0.897,0.005 0.898,0.004 0.897,0.003C0.897,0.001 0.895,-0 0.893,-0C0.891,-0.001 0.888,0.001 0.887,0.003C0.884,0.006 0.884,0.012 0.887,0.015C0.89,0.019 0.895,0.021 0.899,0.02C0.904,0.02 0.908,0.017 0.912,0.013C0.916,0.007 0.917,-0.001 0.914,-0.008C0.911,-0.015 0.904,-0.02 0.896,-0.02C0.889,-0.021 0.881,-0.017 0.877,-0.011C0.876,-0.01 0.875,-0.009 0.874,-0.01C0.873,-0.011 0.873,-0.012 0.873,-0.013C0.878,-0.021 0.887,-0.026 0.897,-0.025C0.905,-0.024 0.912,-0.02 0.917,-0.013C0.917,-0.012 0.918,-0.011 0.918,-0.01C0.922,-0.002 0.921,0.009 0.915,0.016C0.911,0.021 0.906,0.024 0.9,0.025C0.893,0.026 0.887,0.023 0.883,0.018C0.883,0.018 0.883,0.017 0.883,0.017C0.879,0.012 0.88,0.005 0.883,-0Z" style="fill:none;fill-rule:nonzero;"/>
        </g>
        <g transform="matrix(329.408,531.649,531.649,-329.408,261.671,-52.0685)">
            <path d="M0.115,0.001C0.114,-0.001 0.115,-0.002 0.116,-0.002C0.126,-0.005 0.137,-0.004 0.146,-0.002C0.148,-0.001 0.15,-0.001 0.151,-0C0.159,0.001 0.166,0.003 0.173,0.003C0.184,0.003 0.192,-0 0.198,-0.006C0.198,-0.007 0.2,-0.007 0.201,-0.007C0.201,-0.006 0.201,-0.006 0.201,-0.006C0.202,-0.005 0.202,-0.004 0.201,-0.003C0.195,0.004 0.185,0.008 0.173,0.007C0.166,0.007 0.158,0.006 0.15,0.004C0.149,0.004 0.147,0.003 0.145,0.003C0.136,0.001 0.126,-0 0.117,0.002C0.116,0.002 0.115,0.002 0.115,0.001C0.115,0.001 0.115,0.001 0.115,0.001Z" style="fill:none;fill-rule:nonzero;"/>
        </g>
        <g transform="matrix(329.406,531.646,531.646,-329.406,-55.7482,144.604)">
            <path d="M0.259,0.015C0.259,0.007 0.261,-0 0.262,-0.008C0.263,-0.01 0.263,-0.012 0.264,-0.013C0.265,-0.022 0.267,-0.032 0.264,-0.041C0.264,-0.042 0.265,-0.043 0.266,-0.044C0.267,-0.044 0.268,-0.043 0.268,-0.043C0.269,-0.042 0.269,-0.042 0.269,-0.042C0.271,-0.032 0.27,-0.022 0.268,-0.013C0.268,-0.011 0.267,-0.009 0.267,-0.007C0.265,0.001 0.264,0.008 0.264,0.015C0.264,0.025 0.267,0.034 0.273,0.04C0.274,0.04 0.274,0.042 0.273,0.043C0.272,0.044 0.271,0.044 0.27,0.043C0.268,0.041 0.266,0.039 0.264,0.037C0.261,0.031 0.259,0.023 0.259,0.015Z" style="fill:none;fill-rule:nonzero;"/>
        </g>
        <g transform="matrix(329.407,531.649,531.649,-329.407,1.80409,108.944)">
            <path d="M0.82,0.003C0.827,-0.004 0.837,-0.008 0.848,-0.007C0.856,-0.007 0.864,-0.006 0.871,-0.004C0.873,-0.004 0.875,-0.003 0.877,-0.003C0.885,-0.001 0.895,0 0.904,-0.002C0.905,-0.002 0.906,-0.002 0.907,-0.001C0.907,-0.001 0.907,-0.001 0.907,-0.001C0.907,0.001 0.907,0.002 0.905,0.002C0.895,0.005 0.885,0.004 0.876,0.002C0.874,0.001 0.872,0.001 0.87,0C0.863,-0.001 0.856,-0.003 0.848,-0.003C0.838,-0.003 0.829,0 0.824,0.006C0.823,0.007 0.822,0.007 0.821,0.007C0.82,0.006 0.82,0.006 0.82,0.006C0.82,0.005 0.82,0.004 0.82,0.003Z" style="fill:none;fill-rule:nonzero;"/>
        </g>
        <g transform="matrix(329.407,531.648,531.648,-329.407,319.228,-87.73)">
            <path d="M0.753,0.042C0.75,0.032 0.752,0.021 0.753,0.013C0.754,0.011 0.754,0.009 0.755,0.007C0.756,-0.001 0.758,-0.008 0.758,-0.015C0.758,-0.025 0.755,-0.034 0.749,-0.04C0.748,-0.04 0.748,-0.042 0.749,-0.043C0.75,-0.044 0.751,-0.044 0.752,-0.043C0.754,-0.041 0.756,-0.039 0.757,-0.037C0.761,-0.031 0.763,-0.023 0.763,-0.015C0.763,-0.007 0.761,0 0.759,0.008C0.759,0.01 0.758,0.012 0.758,0.013C0.756,0.022 0.755,0.032 0.757,0.041C0.758,0.042 0.757,0.043 0.756,0.044C0.755,0.044 0.754,0.043 0.753,0.043C0.753,0.042 0.753,0.042 0.753,0.042Z" style="fill:none;fill-rule:nonzero;"/>
        </g>
        <g transform="matrix(329.407,531.648,531.648,-329.407,330.42,-94.6661)">
            <path d="M0.681,-0.02C0.68,-0.021 0.681,-0.022 0.682,-0.023C0.684,-0.023 0.685,-0.022 0.685,-0.021C0.687,-0.014 0.694,-0.007 0.703,-0.002C0.709,0.001 0.717,0.003 0.724,0.005C0.726,0.005 0.728,0.006 0.73,0.006C0.739,0.009 0.749,0.012 0.756,0.019C0.757,0.019 0.757,0.019 0.757,0.019C0.757,0.02 0.757,0.021 0.757,0.022C0.756,0.023 0.754,0.023 0.753,0.022C0.746,0.016 0.737,0.013 0.729,0.011C0.727,0.01 0.725,0.01 0.723,0.009C0.715,0.007 0.708,0.005 0.701,0.002C0.693,-0.002 0.688,-0.007 0.684,-0.013C0.683,-0.015 0.681,-0.017 0.681,-0.02Z" style="fill:none;fill-rule:nonzero;"/>
        </g>
        <g transform="matrix(329.408,531.65,531.65,-329.408,242.426,-40.1446)">
            <path d="M0.115,0.034C0.121,0.027 0.124,0.018 0.126,0.01C0.127,0.008 0.127,0.006 0.128,0.004C0.13,-0.004 0.132,-0.011 0.135,-0.018C0.14,-0.029 0.148,-0.036 0.157,-0.038C0.158,-0.039 0.159,-0.038 0.16,-0.037C0.16,-0.037 0.16,-0.037 0.16,-0.037C0.16,-0.035 0.159,-0.034 0.158,-0.034C0.151,-0.032 0.144,-0.025 0.139,-0.016C0.136,-0.01 0.134,-0.002 0.132,0.005C0.132,0.007 0.131,0.009 0.131,0.011C0.129,0.02 0.125,0.03 0.118,0.037C0.117,0.038 0.116,0.038 0.115,0.038C0.115,0.037 0.115,0.037 0.115,0.037C0.114,0.036 0.114,0.035 0.115,0.034Z" style="fill:none;fill-rule:nonzero;"/>
        </g>
        <g transform="matrix(329.407,531.648,531.648,-329.407,-66.939,151.537)">
            <path d="M0.265,-0.022C0.266,-0.023 0.267,-0.023 0.268,-0.022C0.275,-0.016 0.285,-0.013 0.293,-0.011C0.295,-0.01 0.297,-0.01 0.299,-0.009C0.306,-0.007 0.314,-0.005 0.321,-0.002C0.328,0.002 0.334,0.007 0.338,0.013C0.339,0.015 0.34,0.017 0.341,0.02C0.341,0.021 0.34,0.022 0.339,0.023C0.338,0.023 0.337,0.022 0.336,0.021C0.334,0.014 0.328,0.007 0.319,0.002C0.312,-0.001 0.305,-0.003 0.298,-0.005C0.296,-0.005 0.294,-0.006 0.292,-0.006C0.283,-0.009 0.273,-0.012 0.265,-0.019C0.265,-0.019 0.265,-0.019 0.265,-0.019C0.264,-0.02 0.264,-0.021 0.265,-0.022Z" style="fill:none;fill-rule:nonzero;"/>
        </g>
        <g transform="matrix(329.407,531.648,531.648,-329.407,21.0546,97.0182)">
            <path d="M0.862,0.037C0.861,0.035 0.862,0.034 0.863,0.034C0.871,0.032 0.878,0.025 0.882,0.016C0.886,0.01 0.887,0.002 0.889,-0.005C0.89,-0.007 0.89,-0.009 0.891,-0.011C0.893,-0.02 0.896,-0.03 0.903,-0.037C0.904,-0.038 0.906,-0.038 0.907,-0.038C0.907,-0.037 0.907,-0.037 0.907,-0.037C0.907,-0.036 0.907,-0.035 0.907,-0.034C0.9,-0.027 0.897,-0.018 0.895,-0.01C0.895,-0.008 0.894,-0.006 0.894,-0.004C0.892,0.004 0.89,0.011 0.887,0.018C0.881,0.029 0.873,0.036 0.865,0.038C0.864,0.039 0.863,0.038 0.862,0.037C0.862,0.037 0.862,0.037 0.862,0.037Z" style="fill:none;fill-rule:nonzero;"/>
        </g>
        <g transform="matrix(329.411,531.655,531.655,-329.411,274.417,-59.9674)">
            <path d="M0.206,-0.015C0.207,-0.016 0.208,-0.017 0.209,-0.016C0.21,-0.015 0.211,-0.014 0.21,-0.013C0.207,-0.007 0.209,0 0.214,0.005C0.218,0.01 0.226,0.012 0.233,0.012C0.234,0.012 0.235,0.012 0.235,0.013C0.236,0.013 0.236,0.014 0.236,0.014C0.236,0.015 0.235,0.016 0.233,0.016C0.224,0.017 0.216,0.014 0.211,0.009C0.209,0.007 0.208,0.006 0.207,0.004C0.204,-0.002 0.203,-0.009 0.206,-0.015Z" style="fill:none;fill-rule:nonzero;"/>
        </g>
        <g transform="matrix(329.406,531.646,531.646,-329.406,-23.9044,124.874)">
            <path d="M0.226,0.015C0.226,0.006 0.229,-0.002 0.234,-0.007C0.24,-0.014 0.25,-0.016 0.258,-0.012C0.258,-0.012 0.258,-0.012 0.258,-0.011C0.259,-0.011 0.259,-0.01 0.259,-0.009C0.258,-0.008 0.257,-0.007 0.255,-0.008C0.25,-0.011 0.242,-0.009 0.237,-0.004C0.233,0 0.23,0.008 0.231,0.015C0.231,0.017 0.23,0.018 0.228,0.018C0.228,0.018 0.227,0.017 0.226,0.017C0.226,0.016 0.226,0.016 0.226,0.015Z" style="fill:none;fill-rule:nonzero;"/>
        </g>
        <g transform="matrix(329.409,531.652,531.652,-329.409,-10.9404,116.838)">
            <path d="M0.786,-0.014C0.786,-0.015 0.787,-0.016 0.788,-0.016C0.797,-0.017 0.805,-0.014 0.811,-0.009C0.812,-0.007 0.813,-0.006 0.814,-0.004C0.818,0.002 0.819,0.009 0.816,0.015C0.815,0.016 0.814,0.017 0.812,0.016C0.811,0.015 0.811,0.014 0.811,0.013C0.814,0.007 0.813,-0 0.808,-0.005C0.803,-0.01 0.796,-0.012 0.788,-0.012C0.787,-0.012 0.787,-0.012 0.786,-0.013C0.786,-0.013 0.786,-0.014 0.786,-0.014Z" style="fill:none;fill-rule:nonzero;"/>
        </g>
        <g transform="matrix(329.407,531.648,531.648,-329.407,287.385,-68.0002)">
            <path d="M0.763,0.009C0.764,0.008 0.765,0.007 0.766,0.008C0.772,0.011 0.78,0.009 0.784,0.004C0.789,-0 0.791,-0.008 0.791,-0.015C0.791,-0.017 0.792,-0.018 0.793,-0.018C0.794,-0.018 0.795,-0.017 0.795,-0.017C0.795,-0.016 0.796,-0.016 0.796,-0.015C0.796,-0.006 0.793,0.002 0.788,0.007C0.781,0.014 0.771,0.016 0.764,0.012C0.764,0.012 0.763,0.012 0.763,0.011C0.763,0.011 0.763,0.01 0.763,0.009Z" style="fill:none;fill-rule:nonzero;"/>
        </g>
        <g transform="matrix(329.408,531.649,531.649,-329.408,329.829,-94.2983)">
            <path d="M0.631,0.003C0.632,0.002 0.633,0.001 0.635,0.002C0.641,0.005 0.649,0.006 0.655,0.005C0.661,0.002 0.666,-0.004 0.666,-0.01C0.666,-0.011 0.667,-0.012 0.669,-0.012C0.669,-0.012 0.67,-0.012 0.671,-0.011C0.671,-0.011 0.671,-0.011 0.671,-0.01C0.671,-0.002 0.665,0.006 0.656,0.009C0.649,0.011 0.64,0.01 0.632,0.006C0.632,0.006 0.632,0.005 0.631,0.005C0.631,0.004 0.631,0.003 0.631,0.003Z" style="fill:none;fill-rule:nonzero;"/>
        </g>
        <g transform="matrix(329.408,531.65,531.65,-329.408,206.194,-17.6953)">
            <path d="M0.129,0.005C0.127,-0.002 0.128,-0.011 0.132,-0.019C0.133,-0.02 0.134,-0.02 0.136,-0.019C0.136,-0.019 0.136,-0.019 0.136,-0.019C0.137,-0.018 0.137,-0.017 0.136,-0.016C0.133,-0.009 0.132,-0.002 0.134,0.004C0.136,0.011 0.142,0.016 0.148,0.015C0.15,0.015 0.151,0.016 0.151,0.018C0.151,0.019 0.15,0.02 0.148,0.02C0.142,0.02 0.135,0.016 0.131,0.01C0.131,0.009 0.13,0.007 0.129,0.005Z" style="fill:none;fill-rule:nonzero;"/>
        </g>
        <g transform="matrix(329.409,531.651,531.651,-329.409,-66.3516,151.172)">
            <path d="M0.351,0.01C0.35,0.002 0.357,-0.006 0.365,-0.009C0.373,-0.011 0.381,-0.01 0.389,-0.006C0.39,-0.006 0.39,-0.005 0.39,-0.005C0.391,-0.004 0.391,-0.003 0.39,-0.003C0.39,-0.002 0.388,-0.001 0.387,-0.002C0.38,-0.005 0.373,-0.006 0.367,-0.005C0.36,-0.002 0.355,0.004 0.355,0.01C0.355,0.011 0.354,0.012 0.353,0.012C0.352,0.012 0.351,0.012 0.351,0.011C0.351,0.011 0.351,0.011 0.351,0.01Z" style="fill:none;fill-rule:nonzero;"/>
        </g>
        <g transform="matrix(329.409,531.651,531.651,-329.409,57.2829,74.5652)">
            <path d="M0.885,0.016C0.889,0.009 0.89,0.002 0.888,-0.004C0.886,-0.011 0.88,-0.016 0.873,-0.015C0.872,-0.015 0.871,-0.016 0.871,-0.018C0.871,-0.019 0.872,-0.02 0.873,-0.02C0.88,-0.02 0.886,-0.016 0.89,-0.01C0.891,-0.009 0.892,-0.007 0.892,-0.005C0.895,0.002 0.894,0.011 0.889,0.018C0.889,0.02 0.887,0.02 0.886,0.019C0.886,0.019 0.885,0.019 0.885,0.019C0.885,0.018 0.885,0.017 0.885,0.016Z" style="fill:none;fill-rule:nonzero;"/>
        </g>
        <g transform="matrix(329.408,531.65,531.65,-329.408,282.448,-64.9424)">
            <path d="M0.196,-0.007C0.195,-0.008 0.196,-0.01 0.197,-0.01C0.198,-0.011 0.199,-0.01 0.2,-0.009C0.202,-0.004 0.207,0 0.212,0.003C0.217,0.005 0.223,0.006 0.229,0.004C0.23,0.004 0.231,0.004 0.231,0.005C0.232,0.005 0.232,0.006 0.232,0.006C0.232,0.007 0.231,0.008 0.23,0.009C0.223,0.01 0.216,0.01 0.21,0.007C0.205,0.004 0.2,0.001 0.197,-0.004C0.197,-0.005 0.196,-0.006 0.196,-0.007Z" style="fill:none;fill-rule:nonzero;"/>
        </g>
        <g transform="matrix(329.406,531.647,531.647,-329.406,-26.2907,126.352)">
            <path d="M0.219,0.016C0.217,0.01 0.217,0.003 0.22,-0.004C0.223,-0.01 0.228,-0.015 0.235,-0.018C0.236,-0.018 0.237,-0.018 0.238,-0.017C0.238,-0.017 0.238,-0.017 0.238,-0.017C0.238,-0.016 0.238,-0.014 0.237,-0.014C0.231,-0.011 0.227,-0.007 0.225,-0.002C0.222,0.004 0.222,0.01 0.223,0.015C0.223,0.017 0.223,0.018 0.221,0.018C0.22,0.018 0.219,0.018 0.219,0.017C0.219,0.017 0.219,0.017 0.219,0.016Z" style="fill:none;fill-rule:nonzero;"/>
        </g>
        <g transform="matrix(329.409,531.65,531.65,-329.409,-18.9653,121.811)">
            <path d="M0.79,-0.006C0.79,-0.007 0.79,-0.008 0.792,-0.009C0.798,-0.01 0.805,-0.01 0.812,-0.007C0.817,-0.004 0.821,-0.001 0.824,0.004C0.825,0.005 0.825,0.006 0.826,0.007C0.826,0.008 0.826,0.01 0.825,0.01C0.824,0.011 0.822,0.01 0.822,0.009C0.819,0.004 0.815,-0 0.81,-0.003C0.804,-0.005 0.798,-0.006 0.793,-0.004C0.792,-0.004 0.791,-0.004 0.79,-0.005C0.79,-0.005 0.79,-0.006 0.79,-0.006Z" style="fill:none;fill-rule:nonzero;"/>
        </g>
        <g transform="matrix(329.405,531.645,531.645,-329.405,289.776,-69.4772)">
            <path d="M0.784,0.017C0.783,0.016 0.784,0.014 0.785,0.014C0.79,0.011 0.795,0.007 0.797,0.002C0.799,-0.004 0.8,-0.01 0.799,-0.015C0.798,-0.017 0.799,-0.018 0.8,-0.018C0.801,-0.018 0.802,-0.018 0.803,-0.017C0.803,-0.017 0.803,-0.017 0.803,-0.016C0.805,-0.01 0.804,-0.003 0.801,0.004C0.798,0.01 0.793,0.015 0.787,0.018C0.786,0.018 0.785,0.018 0.784,0.017C0.784,0.017 0.784,0.017 0.784,0.017Z" style="fill:none;fill-rule:nonzero;"/>
        </g>
        <g transform="matrix(329.408,531.649,531.649,-329.408,338.099,-99.4248)">
            <path d="M0.632,-0.005C0.633,-0.006 0.634,-0.006 0.635,-0.005C0.639,-0.001 0.645,0.001 0.651,0.001C0.657,0.001 0.663,-0.001 0.667,-0.004C0.668,-0.005 0.67,-0.005 0.67,-0.004C0.67,-0.004 0.67,-0.004 0.67,-0.004C0.671,-0.003 0.671,-0.001 0.67,-0.001C0.665,0.004 0.658,0.006 0.651,0.006C0.644,0.006 0.637,0.003 0.632,-0.001C0.632,-0.002 0.632,-0.002 0.632,-0.002C0.631,-0.003 0.631,-0.004 0.632,-0.005Z" style="fill:none;fill-rule:nonzero;"/>
        </g>
        <g transform="matrix(329.405,531.645,531.645,-329.405,206.328,-17.7781)">
            <path d="M0.117,-0C0.117,-0.007 0.12,-0.014 0.124,-0.019C0.125,-0.02 0.126,-0.02 0.127,-0.019C0.128,-0.019 0.128,-0.019 0.128,-0.019C0.128,-0.018 0.128,-0.017 0.128,-0.016C0.124,-0.012 0.122,-0.006 0.122,-0C0.121,0.006 0.123,0.011 0.127,0.016C0.128,0.017 0.128,0.018 0.127,0.019C0.126,0.02 0.124,0.02 0.123,0.019C0.123,0.018 0.122,0.017 0.121,0.016C0.118,0.011 0.117,0.006 0.117,-0Z" style="fill:none;fill-rule:nonzero;"/>
        </g>
        <g transform="matrix(329.409,531.65,531.65,-329.409,-74.6215,156.296)">
            <path d="M0.352,0.001C0.357,-0.004 0.364,-0.006 0.371,-0.006C0.378,-0.006 0.384,-0.003 0.389,0.001C0.39,0.002 0.39,0.002 0.39,0.002C0.39,0.003 0.39,0.004 0.39,0.005C0.389,0.006 0.387,0.006 0.386,0.005C0.382,0.001 0.376,-0.001 0.371,-0.001C0.365,-0.001 0.359,0.001 0.355,0.004C0.354,0.005 0.352,0.005 0.351,0.004C0.351,0.004 0.351,0.004 0.351,0.004C0.351,0.003 0.351,0.001 0.352,0.001Z" style="fill:none;fill-rule:nonzero;"/>
        </g>
        <g transform="matrix(329.404,531.644,531.644,-329.404,57.1569,74.6539)">
            <path d="M0.894,0.016C0.898,0.012 0.9,0.006 0.9,0C0.9,-0.006 0.898,-0.011 0.895,-0.016C0.894,-0.017 0.894,-0.018 0.895,-0.019C0.896,-0.02 0.898,-0.02 0.898,-0.019C0.899,-0.018 0.9,-0.017 0.9,-0.016C0.903,-0.011 0.905,-0.006 0.905,0C0.905,0.007 0.902,0.014 0.897,0.019C0.897,0.02 0.895,0.02 0.894,0.019C0.894,0.019 0.894,0.019 0.894,0.019C0.893,0.018 0.893,0.017 0.894,0.016Z" style="fill:none;fill-rule:nonzero;"/>
        </g>
        <g transform="matrix(329.406,531.646,531.646,-329.406,293.565,-71.8292)">
            <path d="M0.199,-0.012C0.2,-0.013 0.202,-0.013 0.202,-0.012C0.207,-0.006 0.216,-0.005 0.224,-0.004L0.224,-0.004C0.244,-0.002 0.263,0.003 0.282,0.008C0.282,0.008 0.283,0.009 0.283,0.009C0.284,0.01 0.284,0.01 0.283,0.011C0.283,0.012 0.282,0.013 0.281,0.013C0.262,0.008 0.243,0.002 0.224,0.001L0.223,0.001C0.214,-0 0.204,-0.001 0.198,-0.009C0.198,-0.009 0.198,-0.009 0.198,-0.009C0.198,-0.01 0.198,-0.012 0.199,-0.012Z" style="fill:none;fill-rule:nonzero;"/>
        </g>
        <g transform="matrix(329.408,531.649,531.649,-329.408,-11.8246,117.388)">
            <path d="M0.194,0.04C0.199,0.022 0.204,0.003 0.206,-0.017L0.206,-0.017C0.207,-0.026 0.208,-0.037 0.215,-0.042C0.217,-0.043 0.218,-0.043 0.219,-0.042C0.219,-0.042 0.219,-0.042 0.219,-0.042C0.219,-0.041 0.219,-0.039 0.218,-0.038C0.212,-0.034 0.211,-0.025 0.211,-0.017L0.21,-0.016C0.209,0.003 0.203,0.023 0.198,0.041C0.198,0.042 0.197,0.043 0.195,0.043C0.195,0.043 0.194,0.042 0.194,0.042C0.194,0.041 0.194,0.041 0.194,0.04Z" style="fill:none;fill-rule:nonzero;"/>
        </g>
        <g transform="matrix(329.406,531.647,531.647,-329.406,-30.0873,128.704)">
            <path d="M0.738,-0.011C0.738,-0.012 0.74,-0.013 0.741,-0.013C0.759,-0.008 0.778,-0.002 0.798,-0.001L0.798,-0.001C0.807,0 0.818,0.001 0.823,0.009C0.823,0.009 0.823,0.009 0.823,0.009C0.824,0.01 0.824,0.012 0.823,0.012C0.821,0.013 0.82,0.013 0.819,0.012C0.815,0.006 0.806,0.005 0.798,0.004L0.797,0.004C0.777,0.002 0.758,-0.003 0.74,-0.008C0.739,-0.008 0.739,-0.009 0.738,-0.009C0.738,-0.01 0.738,-0.01 0.738,-0.011Z" style="fill:none;fill-rule:nonzero;"/>
        </g>
        <g transform="matrix(329.407,531.648,531.648,-329.407,275.306,-60.5172)">
            <path d="M0.803,0.038C0.81,0.034 0.81,0.025 0.811,0.017L0.811,0.016C0.813,-0.003 0.818,-0.023 0.823,-0.041C0.824,-0.042 0.825,-0.043 0.826,-0.043C0.827,-0.043 0.827,-0.042 0.828,-0.042C0.828,-0.041 0.828,-0.041 0.828,-0.04C0.823,-0.022 0.817,-0.003 0.816,0.017L0.816,0.017C0.815,0.026 0.814,0.037 0.806,0.042C0.805,0.043 0.804,0.043 0.803,0.042C0.803,0.042 0.803,0.042 0.803,0.042C0.802,0.041 0.802,0.039 0.803,0.038Z" style="fill:none;fill-rule:nonzero;"/>
        </g>
        <g transform="matrix(329.407,531.648,531.648,-329.407,342.27,-102.007)">
            <path d="M0.574,-0.012C0.574,-0.014 0.575,-0.014 0.577,-0.014C0.596,-0.011 0.615,-0.007 0.634,0L0.634,0.001C0.642,0.004 0.65,0.007 0.657,0.003C0.658,0.003 0.659,0.003 0.66,0.004C0.66,0.004 0.66,0.004 0.66,0.004C0.661,0.005 0.66,0.007 0.659,0.008C0.651,0.012 0.641,0.008 0.632,0.005L0.632,0.005C0.614,-0.002 0.594,-0.006 0.576,-0.01C0.575,-0.01 0.575,-0.01 0.574,-0.011C0.574,-0.011 0.574,-0.012 0.574,-0.012Z" style="fill:none;fill-rule:nonzero;"/>
        </g>
        <g transform="matrix(329.409,531.652,531.652,-329.409,188.27,-6.59008)">
            <path d="M0.107,0.042C0.103,0.033 0.106,0.024 0.11,0.015L0.11,0.015C0.117,-0.003 0.121,-0.023 0.124,-0.041C0.125,-0.043 0.126,-0.043 0.127,-0.043C0.128,-0.043 0.128,-0.043 0.129,-0.042C0.129,-0.042 0.129,-0.041 0.129,-0.041C0.125,-0.022 0.122,-0.002 0.114,0.016L0.114,0.017C0.111,0.025 0.108,0.033 0.111,0.04C0.112,0.041 0.112,0.042 0.11,0.043C0.109,0.043 0.108,0.043 0.107,0.042C0.107,0.042 0.107,0.042 0.107,0.042Z" style="fill:none;fill-rule:nonzero;"/>
        </g>
        <g transform="matrix(329.408,531.65,531.65,-329.408,-78.7888,158.879)">
            <path d="M0.362,-0.004C0.361,-0.005 0.362,-0.007 0.363,-0.008C0.371,-0.012 0.381,-0.008 0.389,-0.005L0.39,-0.005C0.408,0.002 0.427,0.006 0.446,0.01C0.447,0.01 0.447,0.01 0.447,0.011C0.448,0.011 0.448,0.012 0.448,0.012C0.447,0.014 0.446,0.014 0.445,0.014C0.426,0.011 0.406,0.007 0.388,-0L0.387,-0.001C0.38,-0.004 0.371,-0.007 0.365,-0.003C0.364,-0.003 0.362,-0.003 0.362,-0.004C0.362,-0.004 0.362,-0.004 0.362,-0.004Z" style="fill:none;fill-rule:nonzero;"/>
        </g>
        <g transform="matrix(329.409,531.651,531.651,-329.409,75.2108,63.4587)">
            <path d="M0.893,0.041C0.896,0.022 0.9,0.002 0.907,-0.016L0.907,-0.017C0.91,-0.025 0.914,-0.033 0.91,-0.04C0.91,-0.041 0.91,-0.042 0.911,-0.043C0.912,-0.043 0.914,-0.043 0.914,-0.042C0.914,-0.042 0.914,-0.042 0.914,-0.042C0.919,-0.033 0.915,-0.024 0.912,-0.015L0.912,-0.015C0.904,0.003 0.901,0.023 0.897,0.041C0.897,0.043 0.896,0.043 0.895,0.043C0.894,0.043 0.893,0.043 0.893,0.042C0.893,0.042 0.893,0.041 0.893,0.041Z" style="fill:none;fill-rule:nonzero;"/>
        </g>
        <g transform="matrix(329.408,531.65,531.65,-329.408,131.742,28.4354)">
            <path d="M0.194,-0.074C0.214,-0.159 0.266,-0.231 0.34,-0.276C0.413,-0.322 0.501,-0.336 0.585,-0.317C0.67,-0.297 0.741,-0.245 0.787,-0.171C0.833,-0.097 0.847,-0.01 0.827,0.074C0.807,0.159 0.756,0.231 0.682,0.276C0.608,0.322 0.521,0.336 0.436,0.317C0.352,0.297 0.28,0.245 0.234,0.171C0.189,0.097 0.174,0.01 0.194,-0.074ZM0.584,-0.312C0.501,-0.332 0.415,-0.318 0.342,-0.272C0.269,-0.227 0.218,-0.157 0.199,-0.073C0.179,0.01 0.193,0.096 0.238,0.169C0.283,0.242 0.354,0.292 0.438,0.312C0.521,0.332 0.607,0.318 0.68,0.272C0.752,0.227 0.803,0.157 0.823,0.073C0.842,-0.01 0.828,-0.096 0.783,-0.169C0.738,-0.242 0.667,-0.292 0.584,-0.312Z" style="fill:none;fill-rule:nonzero;"/>
        </g>
        <g transform="matrix(329.407,531.647,531.647,-329.407,229,-31.8258)">
            <path d="M0.177,0.021C0.185,0.007 0.191,-0.008 0.197,-0.027C0.197,-0.028 0.199,-0.029 0.2,-0.028C0.201,-0.028 0.202,-0.027 0.201,-0.025C0.196,-0.008 0.19,0.006 0.183,0.02C0.199,0.02 0.214,0.021 0.232,0.024C0.233,0.024 0.233,0.024 0.234,0.025C0.234,0.025 0.234,0.026 0.234,0.027C0.234,0.028 0.232,0.029 0.231,0.029C0.212,0.026 0.196,0.024 0.179,0.025C0.178,0.025 0.178,0.024 0.177,0.024C0.177,0.023 0.177,0.022 0.177,0.021Z" style="fill:none;fill-rule:nonzero;"/>
        </g>
        <g transform="matrix(329.408,531.649,531.649,-329.408,294.082,-72.1526)">
            <path d="M0.666,0.006C0.666,0.004 0.667,0.004 0.668,0.004C0.686,0.01 0.7,0.015 0.714,0.022C0.714,0.007 0.715,-0.009 0.718,-0.026C0.718,-0.028 0.719,-0.029 0.72,-0.028C0.721,-0.028 0.722,-0.028 0.722,-0.027C0.722,-0.027 0.722,-0.026 0.722,-0.026C0.719,-0.007 0.718,0.009 0.719,0.026C0.719,0.027 0.718,0.028 0.717,0.028C0.717,0.029 0.716,0.029 0.715,0.028C0.7,0.02 0.685,0.014 0.667,0.008C0.666,0.008 0.666,0.008 0.666,0.008C0.665,0.007 0.665,0.006 0.666,0.006Z" style="fill:none;fill-rule:nonzero;"/>
        </g>
        <g transform="matrix(329.407,531.647,531.647,-329.407,34.479,88.6983)">
            <path d="M0.82,0.025C0.826,0.008 0.831,-0.006 0.839,-0.02C0.823,-0.02 0.808,-0.021 0.79,-0.024C0.788,-0.024 0.788,-0.025 0.788,-0.027C0.788,-0.028 0.789,-0.029 0.79,-0.029C0.809,-0.026 0.826,-0.024 0.842,-0.025C0.843,-0.025 0.844,-0.024 0.844,-0.024C0.845,-0.023 0.845,-0.022 0.844,-0.021C0.837,-0.007 0.83,0.008 0.825,0.027C0.824,0.028 0.823,0.029 0.822,0.028C0.821,0.028 0.821,0.028 0.82,0.027C0.82,0.027 0.82,0.026 0.82,0.025Z" style="fill:none;fill-rule:nonzero;"/>
        </g>
        <g transform="matrix(329.408,531.649,531.649,-329.408,-30.602,129.023)">
            <path d="M0.299,0.026C0.302,0.007 0.303,-0.009 0.303,-0.026C0.303,-0.027 0.303,-0.028 0.304,-0.028C0.305,-0.029 0.306,-0.029 0.306,-0.028C0.321,-0.02 0.336,-0.014 0.355,-0.008C0.355,-0.008 0.356,-0.008 0.356,-0.008C0.356,-0.007 0.356,-0.006 0.356,-0.006C0.356,-0.004 0.354,-0.004 0.353,-0.004C0.336,-0.01 0.322,-0.015 0.308,-0.022C0.308,-0.007 0.307,0.009 0.304,0.026C0.304,0.028 0.303,0.029 0.301,0.028C0.301,0.028 0.3,0.028 0.3,0.027C0.299,0.027 0.299,0.026 0.299,0.026Z" style="fill:none;fill-rule:nonzero;"/>
        </g>
    </g>
</svg>
