<svg class="multiscroll-bg-image" width="100%" height="100%" viewBox="0 0 600 600" version="1.1" xmlns="http://www.w3.org/2000/svg" xmlns:xlink="http://www.w3.org/1999/xlink" xml:space="preserve" xmlns:serif="http://www.serif.com/" style="fill-rule:evenodd;clip-rule:evenodd;stroke-linejoin:round;stroke-miterlimit:2;">
    <g transform="matrix(442.868,621.165,621.165,-442.868,86.0826,-0.040432)">
        <g class="monogram-single-path-group">
            <path d="M0.167,0.224C0.168,0.211 0.173,0.198 0.182,0.189C0.182,0.188 0.183,0.188 0.184,0.188C0.191,0.193 0.199,0.195 0.208,0.194C0.208,0.194 0.208,0.194 0.208,0.194C0.21,0.191 0.213,0.189 0.215,0.186C0.22,0.18 0.223,0.173 0.226,0.167C0.221,0.163 0.216,0.159 0.211,0.157C0.205,0.155 0.198,0.155 0.194,0.157C0.189,0.16 0.186,0.167 0.187,0.173C0.188,0.179 0.193,0.183 0.199,0.184C0.203,0.185 0.207,0.184 0.209,0.181C0.211,0.178 0.212,0.174 0.21,0.172C0.209,0.17 0.207,0.169 0.205,0.169C0.205,0.169 0.205,0.169 0.205,0.169C0.205,0.171 0.204,0.172 0.203,0.173C0.201,0.175 0.198,0.174 0.197,0.172C0.195,0.17 0.196,0.167 0.198,0.166C0.199,0.164 0.202,0.165 0.203,0.166C0.204,0.166 0.205,0.166 0.206,0.166C0.209,0.166 0.211,0.167 0.213,0.169L0.213,0.17C0.216,0.174 0.215,0.18 0.212,0.184C0.209,0.187 0.204,0.189 0.198,0.188C0.191,0.187 0.185,0.181 0.183,0.173C0.182,0.166 0.186,0.158 0.192,0.154C0.196,0.152 0.2,0.151 0.204,0.152C0.198,0.147 0.192,0.141 0.187,0.135C0.187,0.134 0.186,0.134 0.187,0.133C0.187,0.133 0.187,0.133 0.187,0.133C0.189,0.129 0.192,0.125 0.194,0.122C0.194,0.12 0.194,0.118 0.194,0.117C0.189,0.109 0.186,0.099 0.186,0.09C0.187,0.086 0.188,0.081 0.191,0.077C0.191,0.077 0.191,0.077 0.191,0.077C0.19,0.075 0.19,0.073 0.19,0.072L0.188,0.067C0.186,0.063 0.184,0.059 0.181,0.056C0.177,0.053 0.173,0.052 0.169,0.052C0.165,0.053 0.161,0.056 0.16,0.06C0.159,0.064 0.161,0.069 0.165,0.07C0.167,0.072 0.171,0.071 0.173,0.07C0.172,0.068 0.173,0.065 0.175,0.064C0.177,0.063 0.179,0.063 0.181,0.065C0.182,0.067 0.182,0.07 0.18,0.071C0.179,0.072 0.177,0.072 0.176,0.072C0.173,0.075 0.167,0.076 0.163,0.074C0.158,0.071 0.155,0.065 0.157,0.059C0.158,0.054 0.163,0.05 0.168,0.049C0.169,0.049 0.171,0.048 0.172,0.049C0.168,0.022 0.167,-0.004 0.169,-0.031C0.164,-0.038 0.159,-0.046 0.155,-0.054C0.155,-0.055 0.155,-0.055 0.155,-0.056C0.161,-0.063 0.169,-0.069 0.177,-0.073C0.183,-0.099 0.192,-0.124 0.204,-0.147C0.203,-0.148 0.202,-0.148 0.201,-0.149C0.197,-0.152 0.194,-0.157 0.194,-0.162C0.195,-0.168 0.199,-0.173 0.204,-0.174C0.209,-0.175 0.214,-0.172 0.216,-0.168C0.218,-0.168 0.219,-0.168 0.22,-0.166C0.221,-0.164 0.221,-0.161 0.219,-0.16C0.217,-0.159 0.214,-0.159 0.212,-0.161C0.211,-0.163 0.211,-0.165 0.213,-0.167C0.211,-0.169 0.208,-0.171 0.205,-0.17C0.201,-0.17 0.198,-0.166 0.198,-0.162C0.197,-0.158 0.2,-0.154 0.203,-0.152C0.207,-0.15 0.211,-0.15 0.215,-0.151C0.219,-0.153 0.222,-0.156 0.226,-0.159C0.226,-0.16 0.227,-0.161 0.228,-0.161C0.228,-0.162 0.229,-0.163 0.23,-0.163C0.23,-0.165 0.23,-0.167 0.232,-0.168C0.232,-0.168 0.232,-0.168 0.232,-0.168C0.231,-0.173 0.231,-0.177 0.232,-0.182C0.234,-0.191 0.24,-0.199 0.248,-0.205C0.248,-0.206 0.249,-0.208 0.25,-0.209C0.248,-0.213 0.247,-0.217 0.246,-0.222C0.246,-0.222 0.246,-0.222 0.246,-0.222C0.246,-0.223 0.247,-0.224 0.247,-0.224C0.254,-0.229 0.261,-0.232 0.269,-0.234C0.265,-0.236 0.261,-0.238 0.258,-0.241C0.253,-0.246 0.252,-0.255 0.256,-0.262C0.26,-0.268 0.268,-0.272 0.275,-0.27C0.279,-0.27 0.283,-0.267 0.285,-0.264C0.286,-0.264 0.286,-0.263 0.286,-0.262C0.288,-0.257 0.287,-0.251 0.283,-0.248C0.281,-0.247 0.278,-0.246 0.275,-0.247C0.274,-0.247 0.273,-0.248 0.272,-0.248C0.271,-0.247 0.268,-0.248 0.267,-0.25C0.266,-0.252 0.266,-0.255 0.268,-0.256C0.27,-0.257 0.273,-0.257 0.275,-0.255C0.276,-0.254 0.276,-0.252 0.275,-0.251C0.275,-0.251 0.276,-0.251 0.276,-0.251C0.278,-0.25 0.279,-0.25 0.281,-0.251C0.283,-0.253 0.284,-0.257 0.283,-0.261C0.282,-0.264 0.278,-0.266 0.275,-0.267C0.269,-0.268 0.262,-0.265 0.259,-0.26C0.256,-0.255 0.257,-0.248 0.261,-0.243C0.264,-0.239 0.27,-0.237 0.277,-0.237C0.283,-0.237 0.289,-0.239 0.294,-0.241C0.294,-0.248 0.293,-0.256 0.29,-0.263C0.289,-0.267 0.288,-0.27 0.286,-0.273C0.286,-0.273 0.286,-0.273 0.286,-0.273C0.278,-0.276 0.27,-0.277 0.262,-0.275C0.261,-0.275 0.26,-0.276 0.259,-0.277C0.255,-0.288 0.254,-0.302 0.257,-0.314C0.258,-0.315 0.258,-0.316 0.259,-0.316C0.272,-0.315 0.285,-0.31 0.294,-0.301C0.295,-0.301 0.295,-0.301 0.295,-0.301C0.295,-0.301 0.295,-0.3 0.295,-0.299C0.29,-0.292 0.288,-0.284 0.289,-0.275C0.289,-0.275 0.289,-0.275 0.289,-0.275C0.292,-0.273 0.294,-0.27 0.297,-0.268C0.303,-0.263 0.31,-0.26 0.316,-0.257C0.32,-0.262 0.324,-0.267 0.326,-0.272C0.328,-0.279 0.328,-0.285 0.326,-0.289C0.323,-0.294 0.316,-0.297 0.31,-0.296C0.304,-0.295 0.3,-0.29 0.299,-0.284C0.298,-0.28 0.299,-0.276 0.302,-0.274C0.305,-0.272 0.309,-0.271 0.311,-0.273C0.313,-0.274 0.314,-0.276 0.314,-0.278C0.314,-0.278 0.314,-0.278 0.314,-0.278C0.312,-0.278 0.311,-0.279 0.31,-0.28C0.308,-0.282 0.309,-0.285 0.311,-0.286C0.313,-0.288 0.316,-0.287 0.317,-0.285C0.319,-0.284 0.318,-0.281 0.317,-0.28C0.317,-0.279 0.317,-0.278 0.317,-0.277C0.317,-0.274 0.316,-0.272 0.314,-0.27C0.309,-0.267 0.303,-0.268 0.299,-0.271C0.296,-0.274 0.294,-0.279 0.295,-0.285C0.296,-0.292 0.302,-0.298 0.31,-0.3C0.316,-0.301 0.324,-0.298 0.328,-0.292C0.328,-0.292 0.329,-0.291 0.329,-0.291C0.331,-0.287 0.332,-0.283 0.331,-0.279C0.336,-0.285 0.342,-0.291 0.348,-0.296C0.349,-0.297 0.349,-0.297 0.35,-0.296C0.35,-0.296 0.35,-0.296 0.35,-0.296C0.354,-0.294 0.358,-0.291 0.361,-0.289C0.363,-0.289 0.365,-0.289 0.366,-0.289C0.374,-0.294 0.384,-0.297 0.393,-0.297C0.397,-0.296 0.402,-0.295 0.406,-0.292C0.406,-0.292 0.406,-0.292 0.406,-0.292C0.408,-0.293 0.41,-0.293 0.411,-0.293C0.412,-0.293 0.413,-0.294 0.414,-0.294C0.415,-0.294 0.415,-0.295 0.416,-0.295C0.42,-0.297 0.424,-0.299 0.427,-0.302C0.43,-0.306 0.431,-0.31 0.431,-0.314C0.43,-0.318 0.427,-0.322 0.423,-0.323C0.419,-0.324 0.414,-0.322 0.413,-0.318C0.411,-0.316 0.412,-0.312 0.413,-0.31C0.415,-0.311 0.418,-0.31 0.419,-0.308C0.421,-0.306 0.42,-0.304 0.418,-0.302C0.416,-0.301 0.413,-0.301 0.412,-0.303C0.411,-0.304 0.411,-0.306 0.411,-0.307C0.408,-0.31 0.407,-0.316 0.409,-0.32C0.412,-0.325 0.418,-0.328 0.424,-0.326C0.427,-0.325 0.43,-0.323 0.432,-0.32C0.433,-0.319 0.434,-0.317 0.434,-0.315C0.434,-0.314 0.435,-0.313 0.435,-0.311C0.461,-0.315 0.487,-0.316 0.514,-0.314C0.521,-0.32 0.529,-0.324 0.537,-0.328C0.538,-0.329 0.538,-0.328 0.539,-0.328C0.544,-0.324 0.548,-0.319 0.552,-0.313C0.553,-0.311 0.555,-0.309 0.556,-0.306C0.582,-0.3 0.607,-0.291 0.63,-0.279C0.631,-0.28 0.631,-0.281 0.632,-0.282C0.635,-0.286 0.64,-0.289 0.645,-0.289C0.651,-0.289 0.656,-0.284 0.657,-0.279C0.658,-0.274 0.655,-0.269 0.651,-0.267C0.651,-0.265 0.651,-0.264 0.649,-0.263C0.647,-0.262 0.644,-0.262 0.643,-0.264C0.642,-0.266 0.642,-0.269 0.644,-0.271C0.646,-0.272 0.648,-0.272 0.65,-0.27C0.652,-0.272 0.654,-0.275 0.653,-0.278C0.653,-0.282 0.649,-0.285 0.645,-0.285C0.641,-0.286 0.637,-0.283 0.635,-0.28C0.633,-0.276 0.633,-0.272 0.634,-0.268C0.636,-0.264 0.639,-0.261 0.642,-0.257C0.643,-0.257 0.644,-0.256 0.644,-0.255C0.645,-0.255 0.646,-0.254 0.646,-0.253C0.648,-0.253 0.65,-0.253 0.651,-0.251C0.651,-0.251 0.651,-0.251 0.651,-0.251C0.656,-0.252 0.66,-0.252 0.665,-0.251C0.674,-0.249 0.682,-0.243 0.688,-0.235C0.689,-0.235 0.691,-0.235 0.692,-0.233C0.696,-0.235 0.7,-0.236 0.705,-0.237C0.705,-0.237 0.705,-0.237 0.705,-0.237C0.706,-0.237 0.707,-0.237 0.707,-0.236C0.712,-0.229 0.715,-0.222 0.717,-0.214C0.719,-0.218 0.721,-0.222 0.724,-0.225C0.729,-0.23 0.738,-0.231 0.745,-0.227C0.747,-0.226 0.749,-0.224 0.75,-0.222C0.753,-0.218 0.754,-0.213 0.753,-0.208C0.752,-0.203 0.749,-0.198 0.745,-0.197C0.74,-0.195 0.734,-0.196 0.731,-0.2L0.731,-0.2C0.73,-0.202 0.729,-0.205 0.73,-0.208C0.73,-0.209 0.731,-0.21 0.731,-0.211C0.73,-0.212 0.731,-0.215 0.733,-0.216C0.735,-0.217 0.738,-0.217 0.739,-0.215C0.741,-0.213 0.74,-0.21 0.738,-0.208C0.737,-0.207 0.735,-0.207 0.734,-0.208C0.734,-0.208 0.734,-0.207 0.734,-0.207C0.733,-0.205 0.733,-0.204 0.734,-0.202L0.734,-0.202C0.736,-0.2 0.74,-0.199 0.744,-0.2C0.747,-0.201 0.749,-0.205 0.75,-0.208C0.751,-0.214 0.748,-0.221 0.743,-0.224C0.738,-0.227 0.731,-0.226 0.726,-0.222C0.722,-0.219 0.72,-0.213 0.72,-0.206C0.72,-0.2 0.722,-0.194 0.724,-0.189C0.731,-0.189 0.739,-0.19 0.746,-0.193C0.75,-0.194 0.753,-0.195 0.756,-0.197C0.756,-0.197 0.756,-0.197 0.756,-0.197C0.76,-0.205 0.76,-0.213 0.758,-0.221C0.758,-0.222 0.759,-0.223 0.76,-0.224C0.772,-0.228 0.785,-0.229 0.797,-0.226C0.798,-0.225 0.798,-0.225 0.798,-0.225C0.799,-0.225 0.799,-0.224 0.799,-0.224C0.798,-0.211 0.793,-0.198 0.785,-0.189C0.784,-0.188 0.783,-0.188 0.782,-0.188C0.775,-0.193 0.767,-0.195 0.758,-0.194C0.758,-0.194 0.758,-0.194 0.758,-0.194C0.756,-0.191 0.753,-0.189 0.751,-0.186C0.746,-0.18 0.743,-0.173 0.74,-0.167C0.745,-0.163 0.75,-0.159 0.755,-0.157C0.762,-0.155 0.768,-0.155 0.772,-0.157C0.777,-0.16 0.78,-0.167 0.779,-0.173C0.778,-0.179 0.773,-0.183 0.767,-0.184C0.763,-0.185 0.759,-0.184 0.757,-0.181C0.755,-0.178 0.754,-0.174 0.756,-0.172L0.756,-0.172C0.757,-0.17 0.759,-0.169 0.761,-0.169C0.761,-0.169 0.761,-0.169 0.761,-0.169C0.761,-0.171 0.762,-0.172 0.763,-0.173C0.765,-0.175 0.768,-0.174 0.77,-0.172C0.771,-0.17 0.771,-0.167 0.768,-0.166C0.767,-0.164 0.765,-0.165 0.763,-0.166C0.762,-0.166 0.761,-0.166 0.76,-0.166C0.757,-0.166 0.755,-0.167 0.753,-0.169C0.75,-0.174 0.751,-0.18 0.754,-0.184C0.757,-0.187 0.763,-0.189 0.768,-0.188C0.773,-0.187 0.777,-0.184 0.78,-0.18C0.781,-0.178 0.782,-0.176 0.783,-0.173C0.784,-0.166 0.781,-0.158 0.774,-0.154C0.77,-0.152 0.766,-0.151 0.762,-0.152C0.768,-0.147 0.774,-0.141 0.779,-0.135L0.779,-0.135C0.78,-0.134 0.78,-0.134 0.779,-0.133C0.779,-0.133 0.779,-0.133 0.779,-0.133C0.777,-0.129 0.774,-0.125 0.772,-0.122C0.773,-0.12 0.772,-0.118 0.772,-0.117C0.777,-0.109 0.78,-0.099 0.78,-0.09C0.779,-0.086 0.778,-0.081 0.775,-0.077C0.775,-0.077 0.775,-0.077 0.775,-0.077C0.776,-0.075 0.776,-0.073 0.776,-0.072C0.776,-0.071 0.777,-0.07 0.777,-0.069C0.777,-0.068 0.778,-0.068 0.778,-0.067C0.78,-0.063 0.782,-0.059 0.785,-0.056C0.789,-0.053 0.793,-0.052 0.797,-0.052C0.801,-0.053 0.805,-0.056 0.806,-0.06C0.807,-0.064 0.805,-0.069 0.801,-0.07C0.799,-0.072 0.795,-0.071 0.793,-0.07C0.794,-0.068 0.793,-0.065 0.791,-0.064C0.789,-0.063 0.787,-0.063 0.785,-0.065C0.784,-0.067 0.784,-0.07 0.786,-0.071C0.787,-0.072 0.789,-0.072 0.79,-0.072C0.793,-0.075 0.799,-0.076 0.803,-0.074C0.805,-0.073 0.806,-0.072 0.807,-0.07C0.809,-0.067 0.81,-0.063 0.809,-0.059C0.808,-0.054 0.803,-0.05 0.798,-0.049C0.797,-0.049 0.796,-0.048 0.794,-0.049C0.798,-0.022 0.799,0.004 0.797,0.031C0.798,0.033 0.8,0.035 0.802,0.037C0.805,0.042 0.809,0.048 0.811,0.054C0.812,0.055 0.811,0.055 0.811,0.056C0.805,0.063 0.797,0.069 0.789,0.073C0.783,0.099 0.774,0.124 0.762,0.147C0.763,0.148 0.764,0.148 0.765,0.149C0.767,0.15 0.768,0.151 0.769,0.153C0.771,0.156 0.772,0.159 0.772,0.162C0.772,0.168 0.767,0.173 0.762,0.174C0.757,0.175 0.752,0.172 0.75,0.168C0.748,0.168 0.747,0.168 0.746,0.166C0.745,0.164 0.745,0.161 0.747,0.16C0.749,0.159 0.752,0.159 0.754,0.161C0.755,0.163 0.755,0.165 0.753,0.167C0.755,0.169 0.758,0.171 0.761,0.17C0.765,0.17 0.768,0.166 0.768,0.162C0.769,0.158 0.766,0.154 0.763,0.152C0.759,0.15 0.755,0.15 0.751,0.151C0.747,0.153 0.744,0.156 0.74,0.159L0.736,0.163C0.737,0.165 0.736,0.167 0.734,0.168C0.734,0.168 0.734,0.168 0.734,0.168C0.735,0.173 0.735,0.177 0.734,0.182C0.732,0.191 0.726,0.199 0.718,0.205C0.718,0.206 0.718,0.208 0.716,0.209C0.718,0.213 0.719,0.217 0.72,0.222C0.72,0.222 0.72,0.222 0.72,0.222C0.72,0.223 0.72,0.224 0.719,0.224C0.712,0.229 0.705,0.232 0.697,0.234C0.701,0.236 0.705,0.238 0.708,0.241C0.708,0.241 0.709,0.242 0.709,0.242C0.713,0.248 0.713,0.256 0.71,0.262C0.706,0.268 0.698,0.272 0.691,0.27C0.686,0.269 0.682,0.266 0.68,0.262C0.678,0.257 0.679,0.251 0.683,0.248C0.685,0.247 0.688,0.246 0.691,0.247C0.692,0.247 0.693,0.248 0.694,0.248C0.695,0.247 0.698,0.248 0.699,0.25C0.7,0.252 0.7,0.255 0.698,0.256C0.696,0.257 0.693,0.257 0.691,0.255C0.691,0.254 0.69,0.252 0.691,0.251C0.691,0.251 0.69,0.251 0.69,0.251C0.688,0.25 0.687,0.25 0.685,0.251C0.683,0.253 0.682,0.257 0.683,0.261C0.684,0.264 0.688,0.266 0.692,0.267C0.697,0.268 0.704,0.265 0.707,0.26C0.71,0.255 0.709,0.248 0.705,0.243C0.702,0.239 0.696,0.237 0.689,0.237C0.683,0.237 0.677,0.239 0.672,0.241C0.672,0.248 0.673,0.256 0.676,0.263C0.677,0.267 0.678,0.27 0.68,0.273C0.68,0.273 0.68,0.273 0.68,0.273C0.688,0.276 0.696,0.277 0.704,0.275C0.705,0.275 0.706,0.276 0.706,0.276C0.706,0.276 0.707,0.276 0.707,0.277C0.711,0.288 0.712,0.302 0.709,0.314C0.708,0.315 0.708,0.316 0.707,0.316C0.694,0.315 0.681,0.31 0.672,0.301C0.671,0.301 0.671,0.3 0.671,0.299C0.676,0.292 0.678,0.284 0.677,0.275C0.677,0.275 0.677,0.275 0.677,0.275C0.674,0.273 0.672,0.27 0.669,0.268C0.663,0.263 0.656,0.26 0.65,0.257C0.646,0.262 0.642,0.267 0.64,0.272C0.638,0.279 0.638,0.285 0.64,0.289C0.643,0.294 0.65,0.297 0.656,0.296C0.662,0.295 0.666,0.29 0.667,0.284C0.668,0.28 0.667,0.276 0.664,0.274C0.661,0.272 0.657,0.271 0.655,0.273C0.653,0.274 0.653,0.276 0.652,0.278C0.652,0.278 0.652,0.278 0.652,0.278C0.654,0.278 0.655,0.279 0.656,0.28C0.658,0.282 0.657,0.285 0.655,0.286C0.653,0.288 0.65,0.287 0.649,0.285C0.647,0.284 0.648,0.281 0.649,0.28C0.649,0.279 0.649,0.278 0.649,0.277C0.649,0.274 0.65,0.272 0.653,0.27C0.657,0.267 0.663,0.268 0.667,0.271C0.667,0.272 0.668,0.273 0.668,0.273C0.671,0.276 0.672,0.28 0.671,0.285C0.67,0.292 0.664,0.298 0.656,0.3C0.649,0.301 0.641,0.297 0.637,0.291C0.635,0.287 0.635,0.283 0.635,0.279C0.63,0.285 0.624,0.291 0.618,0.296C0.617,0.297 0.617,0.297 0.616,0.296C0.616,0.296 0.616,0.296 0.616,0.296C0.612,0.294 0.608,0.291 0.605,0.289C0.603,0.289 0.601,0.289 0.6,0.289C0.592,0.294 0.582,0.297 0.573,0.297C0.569,0.296 0.564,0.295 0.56,0.292C0.56,0.292 0.56,0.292 0.56,0.292C0.558,0.293 0.556,0.293 0.555,0.293L0.55,0.295C0.546,0.297 0.542,0.299 0.539,0.302C0.536,0.306 0.535,0.31 0.535,0.314C0.536,0.318 0.539,0.322 0.543,0.323C0.547,0.324 0.552,0.322 0.553,0.318C0.555,0.316 0.554,0.312 0.553,0.31C0.551,0.311 0.548,0.31 0.547,0.308C0.546,0.306 0.546,0.304 0.548,0.302C0.55,0.301 0.553,0.301 0.554,0.303C0.555,0.304 0.555,0.306 0.555,0.307C0.558,0.31 0.559,0.316 0.557,0.32C0.554,0.325 0.548,0.328 0.542,0.326C0.537,0.325 0.533,0.32 0.532,0.315C0.532,0.314 0.532,0.312 0.532,0.311C0.505,0.315 0.479,0.316 0.452,0.314C0.445,0.32 0.438,0.324 0.429,0.328C0.428,0.329 0.428,0.328 0.427,0.328C0.42,0.322 0.414,0.314 0.41,0.306C0.384,0.3 0.359,0.291 0.336,0.279C0.335,0.28 0.335,0.281 0.334,0.282C0.331,0.286 0.326,0.289 0.321,0.289C0.315,0.289 0.31,0.284 0.309,0.279C0.308,0.274 0.311,0.269 0.315,0.267C0.315,0.265 0.316,0.264 0.317,0.263C0.319,0.262 0.322,0.262 0.323,0.264C0.325,0.266 0.324,0.269 0.322,0.271C0.32,0.272 0.318,0.272 0.316,0.27C0.314,0.272 0.312,0.275 0.313,0.278C0.313,0.282 0.317,0.285 0.321,0.285C0.325,0.286 0.329,0.283 0.331,0.28C0.333,0.276 0.333,0.272 0.332,0.268C0.33,0.264 0.327,0.261 0.324,0.257L0.32,0.253C0.318,0.253 0.316,0.253 0.315,0.251C0.315,0.251 0.315,0.251 0.315,0.251C0.31,0.252 0.306,0.252 0.301,0.251C0.292,0.249 0.284,0.243 0.278,0.235C0.277,0.235 0.275,0.235 0.274,0.233C0.27,0.235 0.266,0.236 0.261,0.237C0.261,0.237 0.261,0.237 0.261,0.237C0.26,0.237 0.259,0.237 0.259,0.236C0.254,0.229 0.251,0.222 0.249,0.214C0.247,0.218 0.245,0.222 0.242,0.225C0.237,0.23 0.228,0.231 0.221,0.227C0.215,0.223 0.211,0.215 0.213,0.208C0.214,0.203 0.217,0.198 0.221,0.197C0.226,0.195 0.232,0.196 0.235,0.2L0.235,0.2C0.236,0.202 0.237,0.205 0.236,0.208C0.236,0.209 0.235,0.21 0.235,0.211C0.236,0.212 0.235,0.215 0.233,0.216C0.231,0.217 0.228,0.217 0.227,0.215C0.226,0.213 0.226,0.21 0.228,0.208C0.229,0.207 0.231,0.207 0.232,0.208C0.232,0.208 0.232,0.207 0.232,0.207C0.233,0.205 0.233,0.204 0.232,0.202L0.232,0.202C0.23,0.2 0.226,0.199 0.223,0.2C0.219,0.201 0.217,0.205 0.216,0.208C0.215,0.214 0.218,0.221 0.223,0.224C0.228,0.227 0.235,0.226 0.24,0.222C0.244,0.219 0.246,0.213 0.246,0.206C0.246,0.2 0.244,0.194 0.242,0.189C0.235,0.189 0.227,0.19 0.22,0.193C0.216,0.194 0.213,0.195 0.21,0.197C0.21,0.197 0.21,0.197 0.21,0.197C0.207,0.205 0.206,0.213 0.208,0.221C0.208,0.222 0.207,0.223 0.206,0.224C0.195,0.228 0.181,0.229 0.169,0.226C0.168,0.225 0.168,0.225 0.168,0.225C0.167,0.225 0.167,0.224 0.167,0.224ZM0.183,0.192C0.176,0.201 0.172,0.211 0.171,0.222C0.182,0.225 0.193,0.225 0.204,0.221C0.202,0.213 0.203,0.205 0.205,0.198C0.198,0.198 0.19,0.196 0.183,0.192ZM0.231,0.165C0.228,0.173 0.224,0.181 0.218,0.188C0.217,0.189 0.217,0.19 0.216,0.19C0.217,0.19 0.218,0.19 0.218,0.189C0.227,0.186 0.236,0.185 0.244,0.185C0.244,0.179 0.245,0.174 0.246,0.169C0.241,0.168 0.236,0.167 0.231,0.165ZM0.248,0.189C0.248,0.204 0.253,0.22 0.261,0.233C0.265,0.232 0.269,0.231 0.273,0.23C0.273,0.229 0.273,0.228 0.274,0.227C0.271,0.222 0.269,0.215 0.267,0.208C0.266,0.204 0.266,0.2 0.265,0.196C0.265,0.195 0.264,0.195 0.263,0.194C0.263,0.193 0.263,0.193 0.263,0.192C0.258,0.19 0.253,0.189 0.248,0.189ZM0.216,0.136C0.21,0.132 0.204,0.128 0.2,0.124C0.199,0.124 0.198,0.124 0.197,0.124C0.195,0.127 0.193,0.13 0.191,0.134C0.2,0.146 0.213,0.155 0.228,0.161C0.229,0.156 0.23,0.151 0.23,0.146C0.229,0.146 0.228,0.145 0.228,0.144C0.227,0.144 0.227,0.143 0.227,0.142C0.223,0.14 0.22,0.138 0.216,0.136ZM0.309,0.233C0.305,0.23 0.301,0.227 0.298,0.224C0.296,0.224 0.295,0.224 0.294,0.224C0.29,0.226 0.286,0.228 0.282,0.23C0.282,0.231 0.281,0.232 0.281,0.232C0.287,0.24 0.294,0.245 0.302,0.247C0.306,0.248 0.31,0.248 0.315,0.248C0.315,0.247 0.315,0.247 0.315,0.247C0.313,0.244 0.311,0.24 0.31,0.237C0.31,0.236 0.31,0.234 0.31,0.233C0.309,0.233 0.309,0.233 0.309,0.233ZM0.203,0.086C0.2,0.084 0.197,0.082 0.195,0.078C0.194,0.078 0.194,0.078 0.194,0.078C0.192,0.082 0.19,0.086 0.19,0.091C0.189,0.099 0.192,0.108 0.198,0.115C0.198,0.115 0.199,0.115 0.2,0.115C0.203,0.112 0.206,0.109 0.21,0.106C0.21,0.105 0.21,0.103 0.211,0.102C0.209,0.098 0.208,0.093 0.206,0.088C0.206,0.088 0.206,0.088 0.206,0.088C0.205,0.087 0.204,0.087 0.203,0.086ZM0.25,0.168C0.249,0.173 0.248,0.179 0.248,0.185C0.254,0.185 0.259,0.186 0.264,0.188C0.264,0.188 0.264,0.188 0.264,0.188C0.265,0.188 0.265,0.188 0.265,0.188C0.265,0.176 0.266,0.163 0.27,0.152C0.258,0.151 0.246,0.149 0.235,0.145C0.234,0.145 0.234,0.145 0.234,0.145C0.234,0.146 0.234,0.146 0.234,0.146C0.234,0.151 0.233,0.156 0.232,0.162C0.237,0.164 0.243,0.165 0.248,0.166C0.249,0.166 0.249,0.166 0.25,0.166C0.25,0.167 0.25,0.167 0.25,0.168ZM0.269,0.197C0.27,0.2 0.27,0.204 0.271,0.207C0.272,0.214 0.275,0.22 0.277,0.226C0.278,0.226 0.279,0.226 0.28,0.227C0.284,0.225 0.288,0.223 0.292,0.22C0.292,0.22 0.292,0.219 0.292,0.219C0.284,0.212 0.276,0.205 0.269,0.197ZM0.212,0.109C0.209,0.112 0.205,0.115 0.202,0.118C0.203,0.119 0.203,0.12 0.203,0.121C0.207,0.125 0.212,0.129 0.218,0.133C0.221,0.135 0.224,0.136 0.227,0.138C0.222,0.129 0.218,0.119 0.214,0.109C0.213,0.109 0.213,0.109 0.212,0.109ZM0.271,0.193C0.278,0.201 0.286,0.209 0.294,0.216C0.296,0.215 0.299,0.215 0.3,0.217C0.301,0.218 0.301,0.22 0.3,0.221C0.303,0.224 0.306,0.226 0.309,0.228C0.31,0.224 0.312,0.219 0.315,0.216C0.321,0.21 0.331,0.209 0.336,0.214C0.337,0.215 0.338,0.216 0.338,0.216C0.341,0.219 0.342,0.224 0.341,0.228C0.34,0.232 0.338,0.237 0.334,0.241C0.334,0.242 0.333,0.243 0.332,0.244C0.363,0.263 0.398,0.277 0.435,0.283C0.435,0.283 0.435,0.283 0.436,0.283C0.436,0.283 0.436,0.283 0.436,0.283C0.473,0.289 0.51,0.288 0.547,0.28C0.546,0.279 0.545,0.277 0.545,0.276C0.543,0.271 0.542,0.266 0.543,0.262C0.544,0.257 0.547,0.252 0.552,0.25C0.559,0.247 0.568,0.251 0.572,0.259C0.574,0.263 0.574,0.268 0.573,0.273C0.576,0.271 0.58,0.27 0.583,0.269C0.583,0.267 0.584,0.266 0.585,0.265C0.587,0.263 0.59,0.264 0.591,0.266C0.601,0.262 0.611,0.257 0.62,0.252C0.62,0.25 0.621,0.249 0.622,0.248C0.623,0.247 0.624,0.247 0.625,0.247C0.629,0.235 0.631,0.223 0.631,0.21C0.631,0.21 0.631,0.209 0.632,0.209C0.632,0.209 0.633,0.208 0.634,0.209C0.646,0.213 0.658,0.215 0.67,0.214C0.671,0.214 0.671,0.213 0.672,0.212C0.673,0.211 0.675,0.211 0.676,0.212C0.684,0.205 0.692,0.197 0.699,0.189C0.698,0.187 0.698,0.184 0.7,0.183C0.701,0.182 0.703,0.182 0.704,0.183C0.707,0.18 0.709,0.177 0.712,0.174C0.707,0.173 0.702,0.171 0.699,0.168C0.693,0.162 0.692,0.152 0.697,0.147C0.7,0.143 0.706,0.141 0.711,0.142C0.716,0.143 0.72,0.145 0.724,0.149C0.725,0.149 0.726,0.15 0.727,0.151C0.746,0.12 0.76,0.085 0.766,0.048C0.766,0.048 0.766,0.048 0.766,0.047C0.766,0.047 0.766,0.047 0.766,0.047C0.772,0.01 0.771,-0.027 0.763,-0.064C0.762,-0.063 0.76,-0.062 0.759,-0.062C0.754,-0.06 0.749,-0.059 0.745,-0.06C0.74,-0.061 0.735,-0.064 0.733,-0.069C0.73,-0.076 0.734,-0.085 0.742,-0.089C0.746,-0.091 0.751,-0.091 0.756,-0.09C0.754,-0.093 0.753,-0.097 0.752,-0.1C0.75,-0.1 0.749,-0.101 0.748,-0.102C0.746,-0.104 0.747,-0.107 0.749,-0.108C0.745,-0.118 0.74,-0.128 0.735,-0.137C0.733,-0.137 0.732,-0.138 0.731,-0.139C0.73,-0.14 0.73,-0.141 0.73,-0.142C0.718,-0.146 0.706,-0.148 0.693,-0.148C0.692,-0.148 0.691,-0.149 0.692,-0.151C0.696,-0.163 0.698,-0.175 0.697,-0.187C0.697,-0.188 0.696,-0.188 0.695,-0.189C0.694,-0.19 0.694,-0.192 0.695,-0.193C0.688,-0.201 0.68,-0.209 0.672,-0.216C0.67,-0.215 0.667,-0.215 0.666,-0.217C0.665,-0.218 0.665,-0.22 0.666,-0.221C0.663,-0.224 0.66,-0.226 0.657,-0.228C0.656,-0.224 0.654,-0.219 0.651,-0.216C0.645,-0.21 0.635,-0.209 0.63,-0.214C0.626,-0.217 0.624,-0.223 0.625,-0.228C0.626,-0.232 0.628,-0.237 0.632,-0.241C0.632,-0.242 0.633,-0.243 0.634,-0.244C0.603,-0.263 0.568,-0.277 0.531,-0.283C0.531,-0.283 0.531,-0.283 0.53,-0.283C0.53,-0.283 0.53,-0.283 0.53,-0.283C0.493,-0.289 0.456,-0.288 0.419,-0.28C0.42,-0.279 0.421,-0.277 0.421,-0.276C0.423,-0.271 0.424,-0.266 0.423,-0.262C0.422,-0.257 0.419,-0.252 0.414,-0.25C0.407,-0.247 0.398,-0.251 0.394,-0.259C0.392,-0.263 0.392,-0.268 0.393,-0.273C0.39,-0.271 0.386,-0.27 0.383,-0.269C0.383,-0.267 0.382,-0.266 0.381,-0.265C0.379,-0.263 0.376,-0.264 0.375,-0.266C0.365,-0.262 0.355,-0.257 0.346,-0.252C0.346,-0.25 0.345,-0.249 0.344,-0.248C0.343,-0.247 0.342,-0.247 0.342,-0.247C0.337,-0.235 0.335,-0.223 0.335,-0.21C0.335,-0.21 0.335,-0.209 0.334,-0.209C0.334,-0.209 0.333,-0.208 0.332,-0.209C0.321,-0.213 0.308,-0.215 0.296,-0.214C0.295,-0.214 0.295,-0.213 0.294,-0.212C0.293,-0.211 0.291,-0.211 0.29,-0.212C0.282,-0.205 0.274,-0.197 0.267,-0.189C0.268,-0.187 0.268,-0.184 0.266,-0.183C0.265,-0.182 0.263,-0.182 0.262,-0.183C0.259,-0.18 0.257,-0.177 0.255,-0.174C0.259,-0.173 0.264,-0.171 0.267,-0.168C0.273,-0.162 0.274,-0.152 0.269,-0.147C0.266,-0.143 0.26,-0.141 0.255,-0.142C0.251,-0.143 0.246,-0.145 0.242,-0.149C0.241,-0.149 0.24,-0.15 0.239,-0.151C0.22,-0.12 0.206,-0.085 0.2,-0.048C0.2,-0.048 0.2,-0.047 0.2,-0.047C0.194,-0.01 0.195,0.027 0.203,0.064C0.204,0.063 0.206,0.062 0.207,0.062C0.212,0.06 0.217,0.059 0.221,0.06C0.226,0.061 0.231,0.064 0.233,0.069C0.236,0.076 0.232,0.085 0.224,0.089C0.22,0.091 0.215,0.091 0.21,0.09C0.212,0.093 0.213,0.097 0.214,0.1C0.216,0.1 0.217,0.101 0.218,0.102C0.22,0.104 0.219,0.107 0.217,0.108C0.221,0.118 0.226,0.128 0.231,0.137C0.233,0.137 0.234,0.138 0.235,0.139C0.236,0.14 0.236,0.141 0.236,0.142C0.248,0.146 0.26,0.148 0.273,0.148C0.274,0.148 0.275,0.149 0.274,0.151C0.27,0.163 0.268,0.175 0.269,0.187C0.27,0.188 0.27,0.188 0.271,0.189C0.272,0.19 0.272,0.192 0.271,0.193ZM0.335,0.266C0.336,0.269 0.337,0.272 0.336,0.275C0.36,0.287 0.385,0.297 0.411,0.303C0.42,0.299 0.427,0.293 0.432,0.286C0.395,0.279 0.36,0.266 0.328,0.246C0.327,0.247 0.325,0.248 0.324,0.249C0.324,0.25 0.323,0.25 0.323,0.251L0.333,0.262C0.334,0.263 0.334,0.265 0.335,0.266ZM0.173,-0.031C0.171,-0.004 0.171,0.023 0.175,0.049C0.178,0.05 0.181,0.051 0.183,0.053C0.187,0.056 0.189,0.061 0.191,0.065L0.193,0.069C0.194,0.069 0.195,0.069 0.196,0.07C0.197,0.068 0.199,0.067 0.2,0.066C0.191,0.029 0.19,-0.008 0.196,-0.045C0.188,-0.043 0.18,-0.038 0.173,-0.031ZM0.22,0.064C0.216,0.063 0.211,0.064 0.208,0.065C0.205,0.067 0.201,0.069 0.199,0.072C0.199,0.074 0.199,0.075 0.198,0.077C0.2,0.079 0.202,0.081 0.205,0.083C0.21,0.087 0.218,0.088 0.223,0.085C0.228,0.083 0.232,0.075 0.229,0.07C0.229,0.07 0.229,0.069 0.228,0.068C0.227,0.066 0.224,0.064 0.22,0.064ZM0.334,0.217C0.33,0.213 0.322,0.214 0.318,0.218C0.314,0.222 0.312,0.229 0.314,0.236C0.315,0.239 0.316,0.242 0.318,0.244C0.319,0.244 0.321,0.244 0.322,0.245C0.326,0.244 0.329,0.241 0.332,0.238C0.334,0.236 0.337,0.232 0.337,0.228C0.338,0.224 0.337,0.221 0.335,0.218C0.335,0.218 0.334,0.217 0.334,0.217ZM0.159,-0.054C0.162,-0.047 0.166,-0.04 0.171,-0.034C0.178,-0.041 0.186,-0.046 0.194,-0.048C0.189,-0.052 0.186,-0.055 0.182,-0.06C0.18,-0.063 0.179,-0.066 0.177,-0.069C0.17,-0.065 0.164,-0.06 0.159,-0.054ZM0.414,0.306C0.418,0.313 0.423,0.319 0.429,0.324C0.436,0.321 0.443,0.317 0.449,0.312C0.442,0.305 0.437,0.297 0.435,0.289C0.43,0.296 0.423,0.302 0.414,0.306ZM0.232,-0.16L0.228,-0.157C0.225,-0.153 0.221,-0.15 0.217,-0.148C0.214,-0.147 0.211,-0.146 0.208,-0.147C0.196,-0.123 0.186,-0.098 0.18,-0.072C0.184,-0.063 0.19,-0.056 0.197,-0.051C0.204,-0.088 0.217,-0.123 0.237,-0.155C0.236,-0.156 0.235,-0.158 0.234,-0.159C0.233,-0.159 0.233,-0.16 0.232,-0.16ZM0.549,0.283C0.512,0.292 0.475,0.293 0.438,0.287C0.44,0.295 0.445,0.303 0.452,0.31C0.479,0.313 0.506,0.312 0.532,0.308C0.533,0.305 0.534,0.302 0.536,0.3C0.539,0.296 0.544,0.294 0.548,0.292L0.553,0.29C0.552,0.289 0.552,0.288 0.553,0.287C0.551,0.286 0.55,0.285 0.549,0.283ZM0.551,0.28C0.552,0.282 0.554,0.283 0.555,0.284C0.557,0.284 0.558,0.284 0.56,0.285C0.562,0.283 0.564,0.281 0.566,0.278C0.57,0.273 0.571,0.265 0.568,0.26C0.566,0.255 0.558,0.251 0.553,0.254C0.55,0.255 0.547,0.259 0.547,0.263C0.546,0.267 0.547,0.272 0.548,0.275C0.549,0.277 0.55,0.278 0.551,0.28C0.551,0.28 0.551,0.28 0.551,0.28C0.551,0.28 0.551,0.28 0.551,0.28ZM0.265,-0.165C0.261,-0.169 0.254,-0.171 0.247,-0.169C0.244,-0.168 0.241,-0.167 0.239,-0.165C0.239,-0.164 0.239,-0.162 0.238,-0.161C0.239,-0.157 0.242,-0.154 0.245,-0.151C0.247,-0.149 0.251,-0.146 0.255,-0.146C0.26,-0.145 0.264,-0.146 0.266,-0.149C0.269,-0.153 0.269,-0.159 0.266,-0.164C0.266,-0.164 0.265,-0.165 0.265,-0.165ZM0.251,-0.202C0.243,-0.196 0.238,-0.189 0.236,-0.181C0.235,-0.177 0.235,-0.173 0.235,-0.168C0.236,-0.168 0.236,-0.168 0.236,-0.168C0.239,-0.17 0.243,-0.172 0.246,-0.173C0.247,-0.173 0.249,-0.173 0.25,-0.173C0.25,-0.174 0.25,-0.174 0.25,-0.174C0.253,-0.178 0.256,-0.182 0.259,-0.185C0.259,-0.187 0.259,-0.188 0.259,-0.189C0.257,-0.193 0.255,-0.197 0.253,-0.201C0.252,-0.201 0.251,-0.202 0.251,-0.202ZM0.589,0.273C0.588,0.273 0.586,0.273 0.585,0.272C0.581,0.274 0.576,0.275 0.571,0.277C0.571,0.277 0.571,0.277 0.571,0.277C0.57,0.278 0.57,0.279 0.569,0.28C0.567,0.283 0.565,0.286 0.561,0.288C0.561,0.289 0.561,0.289 0.561,0.289C0.565,0.291 0.569,0.293 0.574,0.293C0.582,0.294 0.591,0.291 0.598,0.285C0.598,0.285 0.598,0.284 0.598,0.283C0.595,0.28 0.592,0.277 0.589,0.273ZM0.592,0.269C0.592,0.27 0.592,0.27 0.592,0.271C0.595,0.274 0.598,0.278 0.601,0.281C0.602,0.28 0.603,0.28 0.604,0.28C0.608,0.276 0.612,0.271 0.616,0.265C0.618,0.262 0.619,0.259 0.621,0.256C0.612,0.261 0.602,0.265 0.592,0.269ZM0.276,-0.212C0.269,-0.211 0.263,-0.208 0.257,-0.206C0.257,-0.205 0.257,-0.204 0.256,-0.203C0.258,-0.199 0.26,-0.195 0.263,-0.191C0.263,-0.191 0.264,-0.191 0.264,-0.191C0.271,-0.199 0.278,-0.207 0.286,-0.214C0.283,-0.213 0.279,-0.213 0.276,-0.212ZM0.629,0.253C0.629,0.254 0.628,0.255 0.627,0.255C0.627,0.256 0.626,0.256 0.625,0.256C0.623,0.26 0.621,0.263 0.619,0.267C0.615,0.273 0.611,0.279 0.607,0.283C0.607,0.284 0.607,0.285 0.607,0.286C0.61,0.288 0.613,0.29 0.617,0.292C0.629,0.283 0.638,0.27 0.644,0.255C0.639,0.254 0.634,0.253 0.629,0.253ZM0.25,-0.222C0.251,-0.218 0.252,-0.214 0.253,-0.21C0.254,-0.21 0.255,-0.21 0.256,-0.209C0.261,-0.212 0.268,-0.214 0.275,-0.216C0.279,-0.217 0.283,-0.217 0.287,-0.218C0.288,-0.218 0.288,-0.219 0.289,-0.22C0.29,-0.22 0.29,-0.22 0.291,-0.22C0.293,-0.225 0.294,-0.23 0.294,-0.235C0.279,-0.235 0.263,-0.23 0.25,-0.222ZM0.635,0.213C0.635,0.225 0.632,0.237 0.628,0.248C0.628,0.249 0.628,0.249 0.628,0.249C0.629,0.249 0.629,0.249 0.629,0.249C0.634,0.249 0.639,0.25 0.645,0.251C0.647,0.246 0.648,0.24 0.649,0.235C0.649,0.234 0.649,0.234 0.649,0.233C0.65,0.233 0.65,0.233 0.651,0.233C0.656,0.234 0.662,0.235 0.668,0.235C0.668,0.229 0.669,0.224 0.671,0.219C0.671,0.219 0.671,0.219 0.671,0.219C0.671,0.218 0.671,0.218 0.671,0.218C0.659,0.218 0.646,0.217 0.635,0.213ZM0.295,-0.218C0.307,-0.218 0.32,-0.217 0.331,-0.213C0.332,-0.225 0.334,-0.237 0.338,-0.248C0.338,-0.249 0.338,-0.249 0.338,-0.249C0.338,-0.249 0.337,-0.249 0.337,-0.249C0.332,-0.249 0.327,-0.25 0.321,-0.251C0.319,-0.246 0.318,-0.24 0.317,-0.235C0.317,-0.234 0.317,-0.234 0.317,-0.233C0.316,-0.233 0.316,-0.233 0.315,-0.233C0.31,-0.234 0.304,-0.235 0.298,-0.235C0.298,-0.229 0.297,-0.224 0.295,-0.219C0.295,-0.219 0.295,-0.219 0.295,-0.219C0.295,-0.218 0.295,-0.218 0.295,-0.218ZM0.681,0.278C0.681,0.285 0.679,0.293 0.675,0.3C0.684,0.307 0.694,0.311 0.705,0.312C0.708,0.301 0.708,0.29 0.704,0.279C0.696,0.281 0.688,0.28 0.681,0.278ZM0.261,-0.312C0.258,-0.301 0.258,-0.29 0.262,-0.279C0.27,-0.281 0.278,-0.28 0.285,-0.278C0.285,-0.285 0.287,-0.293 0.291,-0.3C0.282,-0.307 0.272,-0.311 0.261,-0.312ZM0.652,0.237C0.651,0.242 0.65,0.247 0.648,0.253C0.656,0.255 0.664,0.259 0.672,0.265C0.672,0.266 0.673,0.266 0.673,0.267C0.673,0.266 0.673,0.265 0.672,0.265C0.669,0.256 0.668,0.247 0.668,0.239C0.663,0.239 0.657,0.238 0.652,0.237ZM0.295,-0.265C0.294,-0.266 0.293,-0.266 0.293,-0.267C0.293,-0.266 0.293,-0.265 0.294,-0.265C0.297,-0.256 0.298,-0.247 0.298,-0.239C0.304,-0.239 0.309,-0.238 0.314,-0.237C0.315,-0.242 0.316,-0.247 0.318,-0.253C0.31,-0.255 0.302,-0.259 0.295,-0.265ZM0.71,0.209C0.705,0.212 0.698,0.214 0.691,0.216C0.687,0.217 0.683,0.217 0.679,0.218C0.679,0.218 0.678,0.219 0.677,0.22C0.677,0.22 0.676,0.22 0.675,0.22C0.673,0.225 0.672,0.23 0.672,0.235C0.687,0.235 0.703,0.23 0.716,0.222C0.715,0.218 0.714,0.214 0.713,0.21C0.712,0.21 0.711,0.21 0.71,0.209ZM0.349,-0.292C0.337,-0.283 0.328,-0.27 0.322,-0.255C0.327,-0.254 0.332,-0.253 0.337,-0.253C0.337,-0.254 0.338,-0.255 0.339,-0.255C0.339,-0.256 0.34,-0.256 0.341,-0.256C0.343,-0.26 0.345,-0.263 0.347,-0.267C0.351,-0.273 0.355,-0.279 0.359,-0.283C0.359,-0.284 0.359,-0.285 0.359,-0.286C0.356,-0.288 0.353,-0.29 0.349,-0.292ZM0.702,0.191C0.695,0.199 0.688,0.207 0.68,0.214C0.683,0.213 0.687,0.213 0.69,0.212C0.697,0.211 0.703,0.208 0.709,0.206C0.709,0.205 0.709,0.204 0.71,0.203C0.708,0.199 0.706,0.195 0.704,0.191C0.703,0.191 0.702,0.191 0.702,0.191ZM0.365,-0.281C0.364,-0.28 0.363,-0.28 0.362,-0.28C0.358,-0.276 0.354,-0.271 0.35,-0.265C0.348,-0.262 0.347,-0.259 0.345,-0.256C0.354,-0.261 0.364,-0.265 0.374,-0.269C0.374,-0.27 0.374,-0.27 0.374,-0.271C0.371,-0.274 0.368,-0.278 0.365,-0.281ZM0.73,0.168C0.727,0.17 0.723,0.172 0.72,0.173C0.719,0.173 0.717,0.173 0.716,0.173C0.716,0.174 0.716,0.174 0.716,0.174C0.713,0.178 0.71,0.182 0.707,0.185C0.707,0.187 0.707,0.188 0.707,0.189C0.709,0.193 0.711,0.197 0.713,0.201C0.714,0.201 0.715,0.202 0.715,0.202C0.723,0.196 0.728,0.189 0.73,0.181C0.731,0.177 0.731,0.173 0.731,0.168C0.73,0.168 0.73,0.168 0.73,0.168ZM0.392,-0.293C0.384,-0.294 0.376,-0.291 0.368,-0.285C0.368,-0.285 0.368,-0.284 0.368,-0.283C0.371,-0.28 0.374,-0.277 0.377,-0.273C0.378,-0.273 0.38,-0.273 0.381,-0.272C0.385,-0.274 0.39,-0.275 0.395,-0.277C0.395,-0.277 0.395,-0.277 0.395,-0.277C0.396,-0.278 0.396,-0.279 0.397,-0.28C0.399,-0.283 0.401,-0.286 0.405,-0.288C0.405,-0.289 0.405,-0.289 0.405,-0.289C0.401,-0.291 0.397,-0.293 0.392,-0.293ZM0.411,-0.284C0.409,-0.284 0.408,-0.284 0.406,-0.285C0.404,-0.283 0.402,-0.281 0.4,-0.278C0.396,-0.273 0.395,-0.265 0.398,-0.26C0.4,-0.255 0.408,-0.251 0.413,-0.254C0.416,-0.255 0.419,-0.259 0.419,-0.263C0.42,-0.267 0.419,-0.272 0.418,-0.275C0.417,-0.276 0.416,-0.278 0.415,-0.28C0.414,-0.282 0.412,-0.283 0.411,-0.284ZM0.721,0.151C0.719,0.149 0.715,0.146 0.711,0.146C0.706,0.145 0.702,0.146 0.7,0.149C0.697,0.153 0.697,0.159 0.7,0.164C0.7,0.164 0.701,0.165 0.701,0.165C0.705,0.169 0.712,0.171 0.719,0.169C0.722,0.168 0.725,0.167 0.728,0.165C0.727,0.164 0.727,0.162 0.728,0.161C0.728,0.159 0.727,0.157 0.725,0.156C0.724,0.154 0.723,0.153 0.721,0.151ZM0.514,-0.31C0.487,-0.313 0.46,-0.312 0.434,-0.308C0.433,-0.305 0.432,-0.302 0.43,-0.3C0.427,-0.296 0.422,-0.294 0.418,-0.292L0.414,-0.29C0.414,-0.289 0.414,-0.288 0.413,-0.287C0.415,-0.286 0.416,-0.285 0.417,-0.283C0.454,-0.292 0.491,-0.293 0.528,-0.287C0.527,-0.292 0.525,-0.297 0.521,-0.302C0.519,-0.305 0.517,-0.307 0.514,-0.31ZM0.769,0.051C0.763,0.088 0.749,0.123 0.729,0.155C0.73,0.156 0.731,0.158 0.732,0.159C0.733,0.159 0.733,0.16 0.734,0.16L0.738,0.157C0.741,0.153 0.745,0.15 0.749,0.148C0.752,0.147 0.755,0.146 0.758,0.147C0.77,0.123 0.78,0.098 0.786,0.072C0.785,0.068 0.783,0.065 0.781,0.062C0.777,0.058 0.774,0.054 0.769,0.051ZM0.795,0.034C0.788,0.041 0.781,0.046 0.772,0.048C0.779,0.053 0.785,0.06 0.789,0.069C0.796,0.065 0.802,0.06 0.807,0.054C0.805,0.049 0.802,0.044 0.799,0.039C0.797,0.038 0.796,0.036 0.795,0.034ZM0.532,-0.289C0.536,-0.296 0.544,-0.302 0.552,-0.306C0.548,-0.313 0.543,-0.319 0.537,-0.324C0.53,-0.321 0.523,-0.317 0.517,-0.312C0.52,-0.309 0.522,-0.307 0.524,-0.304C0.528,-0.299 0.53,-0.294 0.532,-0.289ZM0.77,-0.07C0.769,-0.068 0.768,-0.067 0.766,-0.066C0.775,-0.029 0.776,0.008 0.77,0.045C0.778,0.043 0.786,0.038 0.793,0.031C0.796,0.004 0.795,-0.023 0.791,-0.049C0.788,-0.05 0.785,-0.051 0.783,-0.053C0.779,-0.056 0.777,-0.061 0.775,-0.065L0.773,-0.069C0.772,-0.069 0.771,-0.069 0.77,-0.07ZM0.555,-0.303C0.546,-0.299 0.539,-0.293 0.534,-0.286C0.571,-0.279 0.606,-0.266 0.638,-0.246C0.639,-0.247 0.641,-0.248 0.643,-0.249C0.643,-0.25 0.643,-0.25 0.643,-0.251L0.64,-0.255C0.636,-0.258 0.633,-0.262 0.631,-0.266C0.63,-0.269 0.629,-0.272 0.63,-0.275C0.606,-0.287 0.581,-0.297 0.555,-0.303ZM0.761,-0.083C0.756,-0.087 0.749,-0.088 0.743,-0.085C0.738,-0.083 0.734,-0.075 0.737,-0.07C0.737,-0.07 0.737,-0.069 0.738,-0.068C0.739,-0.066 0.742,-0.064 0.746,-0.064C0.75,-0.063 0.755,-0.064 0.758,-0.065C0.761,-0.067 0.765,-0.069 0.767,-0.072C0.767,-0.074 0.767,-0.075 0.768,-0.077C0.766,-0.079 0.764,-0.081 0.761,-0.083ZM0.644,-0.245C0.64,-0.244 0.637,-0.241 0.634,-0.238C0.632,-0.236 0.629,-0.232 0.629,-0.228C0.628,-0.223 0.63,-0.219 0.632,-0.217C0.636,-0.213 0.644,-0.214 0.648,-0.218C0.652,-0.222 0.654,-0.229 0.652,-0.236C0.652,-0.239 0.65,-0.242 0.648,-0.245C0.647,-0.244 0.645,-0.244 0.644,-0.245ZM0.702,-0.188C0.702,-0.188 0.702,-0.188 0.702,-0.188C0.701,-0.188 0.701,-0.188 0.701,-0.188C0.701,-0.176 0.7,-0.163 0.696,-0.152C0.708,-0.151 0.72,-0.149 0.731,-0.145C0.732,-0.145 0.732,-0.145 0.732,-0.145C0.732,-0.146 0.732,-0.146 0.732,-0.146C0.732,-0.151 0.733,-0.156 0.734,-0.162C0.729,-0.164 0.723,-0.165 0.718,-0.166C0.717,-0.166 0.716,-0.167 0.716,-0.168C0.717,-0.173 0.718,-0.179 0.718,-0.185C0.712,-0.185 0.707,-0.186 0.702,-0.188ZM0.766,-0.115C0.763,-0.112 0.76,-0.109 0.756,-0.106C0.756,-0.105 0.756,-0.103 0.755,-0.102C0.757,-0.098 0.758,-0.093 0.76,-0.088C0.76,-0.088 0.76,-0.088 0.76,-0.088C0.761,-0.087 0.762,-0.087 0.763,-0.086C0.766,-0.084 0.769,-0.082 0.771,-0.078C0.772,-0.078 0.772,-0.078 0.772,-0.078C0.774,-0.082 0.776,-0.086 0.776,-0.091C0.777,-0.099 0.774,-0.108 0.768,-0.115C0.768,-0.115 0.767,-0.115 0.766,-0.115ZM0.664,-0.247C0.66,-0.248 0.656,-0.248 0.651,-0.248C0.651,-0.247 0.651,-0.247 0.651,-0.247C0.653,-0.244 0.655,-0.24 0.656,-0.237C0.656,-0.236 0.656,-0.234 0.656,-0.233C0.657,-0.233 0.657,-0.233 0.657,-0.233C0.661,-0.23 0.665,-0.227 0.668,-0.224C0.67,-0.224 0.671,-0.224 0.672,-0.224C0.676,-0.226 0.68,-0.228 0.684,-0.23C0.684,-0.231 0.685,-0.232 0.685,-0.232C0.685,-0.232 0.685,-0.233 0.685,-0.233C0.679,-0.24 0.672,-0.245 0.664,-0.247ZM0.748,-0.133C0.745,-0.135 0.742,-0.136 0.739,-0.138C0.744,-0.129 0.748,-0.119 0.752,-0.109C0.753,-0.109 0.753,-0.109 0.754,-0.109C0.757,-0.112 0.761,-0.115 0.764,-0.118C0.763,-0.119 0.763,-0.12 0.764,-0.121C0.759,-0.125 0.754,-0.129 0.748,-0.133ZM0.686,-0.227C0.682,-0.225 0.678,-0.223 0.674,-0.22C0.674,-0.22 0.674,-0.219 0.674,-0.219C0.682,-0.212 0.69,-0.205 0.697,-0.197C0.696,-0.2 0.696,-0.204 0.695,-0.207C0.694,-0.214 0.692,-0.22 0.689,-0.226C0.688,-0.226 0.687,-0.226 0.686,-0.227ZM0.738,-0.161C0.737,-0.156 0.736,-0.151 0.736,-0.146C0.737,-0.146 0.738,-0.145 0.738,-0.144C0.739,-0.144 0.739,-0.143 0.739,-0.142C0.743,-0.14 0.747,-0.138 0.75,-0.136C0.756,-0.132 0.762,-0.128 0.766,-0.124C0.767,-0.124 0.768,-0.124 0.769,-0.124C0.771,-0.127 0.773,-0.13 0.775,-0.134C0.766,-0.146 0.753,-0.155 0.738,-0.161ZM0.703,-0.192C0.708,-0.19 0.713,-0.189 0.718,-0.189C0.718,-0.204 0.713,-0.22 0.705,-0.233C0.701,-0.232 0.697,-0.231 0.693,-0.23C0.693,-0.229 0.693,-0.228 0.692,-0.227C0.695,-0.222 0.697,-0.215 0.699,-0.208C0.7,-0.204 0.7,-0.2 0.701,-0.196C0.701,-0.195 0.702,-0.195 0.703,-0.194C0.703,-0.193 0.703,-0.193 0.703,-0.192ZM0.748,-0.189C0.739,-0.186 0.73,-0.185 0.722,-0.185C0.722,-0.179 0.721,-0.174 0.72,-0.169C0.725,-0.168 0.73,-0.167 0.736,-0.165C0.738,-0.173 0.743,-0.181 0.748,-0.188C0.749,-0.189 0.749,-0.19 0.75,-0.19C0.749,-0.19 0.748,-0.19 0.748,-0.189ZM0.762,-0.221C0.764,-0.213 0.763,-0.205 0.761,-0.198C0.768,-0.198 0.776,-0.196 0.783,-0.192C0.79,-0.201 0.794,-0.211 0.795,-0.222C0.784,-0.225 0.773,-0.225 0.762,-0.221Z" />
        </g>
    </g>
</svg>
